<svg width="100" height="126" viewBox="0 0 100 126" fill="none" xmlns="http://www.w3.org/2000/svg">
<path d="M9.0552 22.873H99.2655V113.129H9.0552V22.873Z" fill="#FFEF65" stroke="#10121B" stroke-width="1.11505"/>
<path d="M60.8016 0V60.8056H0.0269852V0H60.8016ZM3.33169 57.4922H57.5039V3.29942H3.33169V57.4922Z" fill="#FF6EC9"/>
<path d="M69.4321 76.4993L64.5517 76.8411C62.9988 74.1517 62.3145 71.0478 62.5926 67.9543C62.6484 67.2568 61.1634 71.3723 62.0837 77.0225C56.9314 77.3783 49.9175 77.8665 43.7961 78.2362C43.5661 75.8436 43.2454 73.6394 43.2454 73.6394C43.1218 75.2198 42.8581 76.7862 42.4575 78.3199C41.6209 78.3757 40.7982 78.4176 40.0104 78.4595C39.8917 75.0526 39.5845 71.655 39.0901 68.2822C38.8101 71.8542 37.9457 75.356 36.5314 78.6478C32.634 78.8431 30.0753 78.8989 30.2566 78.7036C35.8342 71.6793 31.3442 67.9822 32.7526 61.9624C34.4328 54.7427 40.5263 53.3267 40.101 48.0113C39.7594 43.6586 38.86 35.7832 44.2842 33.8371C45.696 32.3168 47.5225 31.2442 49.5375 30.752C51.5524 30.2598 53.6674 30.3696 55.6206 31.0678C64.4681 33.9975 61.6374 47.5928 62.3555 50.2993C63.3804 54.1637 65.3047 55.4542 66.8943 59.8488C68.4839 64.2434 66.5945 67.3754 66.5039 70.4376C66.4132 73.4999 70.4082 76.4435 69.4321 76.4993Z" fill="#263238"/>
<path d="M29.9987 77.721C30.7488 76.5073 31.3261 75.1949 31.7138 73.8217C32.0013 72.4623 31.9317 71.0515 31.5116 69.7271C31.1314 68.3213 30.8265 66.8963 30.5982 65.4581C30.3695 63.9562 30.4454 62.4237 30.8213 60.9519C31.23 59.4778 31.9719 58.1174 32.9896 56.9758C33.9761 55.8908 35.0512 54.8898 36.2037 53.9833C37.3189 53.1155 38.3151 52.1047 39.1668 50.9769C39.9821 49.8045 40.4641 48.4327 40.5612 47.0078C40.6847 48.4857 40.3591 49.9664 39.6269 51.2559C38.8557 52.5132 37.899 53.6467 36.7893 54.6181C35.7327 55.5643 34.7383 56.5779 33.8123 57.6524C32.9376 58.702 32.2981 59.927 31.9369 61.2448C31.6143 62.5801 31.5387 63.9631 31.7138 65.3255C31.8602 66.7206 32.1809 68.1157 32.411 69.5108C32.5469 70.243 32.6261 70.9846 32.648 71.729C32.6527 72.4905 32.5205 73.2466 32.2576 73.9612C31.7321 75.338 30.9674 76.6109 29.9987 77.721Z" fill="#263238"/>
<path d="M60.786 35.8672C61.4601 37.5195 61.9284 39.2484 62.1804 41.0151C62.4802 42.766 62.6964 44.5029 62.8776 46.2956L63.1914 48.9254C63.2795 49.7746 63.45 50.6133 63.7004 51.4296C64.2898 53.0374 65.1635 54.526 66.28 55.8241C66.8397 56.5419 67.3498 57.297 67.8068 58.0842C68.2659 58.8932 68.6308 59.7521 68.8945 60.6442C69.1291 61.5306 69.2992 62.4328 69.4034 63.3438C69.5172 64.2703 69.5172 65.2074 69.4034 66.134C69.2849 67.0478 69.0688 67.9197 68.8945 68.7707C68.7175 69.6178 68.6195 70.4795 68.6016 71.3447C68.616 72.2115 68.8358 73.0625 69.2431 73.8277C69.6504 74.5929 70.2334 75.2505 70.9442 75.7462C70.1397 75.3096 69.455 74.6816 68.9504 73.9176C68.4458 73.1537 68.1369 72.2772 68.0509 71.3656C67.9949 70.4576 68.0299 69.5462 68.1554 68.6451C68.2739 67.7523 68.4552 66.8873 68.511 66.0363C68.6108 64.3282 68.3958 62.6163 67.8766 60.986C67.6182 60.1832 67.277 59.4094 66.8586 58.6771C66.4163 57.9359 65.9249 57.2251 65.3876 56.5496C64.8297 55.8364 64.3107 55.0936 63.8328 54.3244C63.3448 53.5295 62.9583 52.6765 62.6824 51.7853C62.438 50.8981 62.2793 49.9894 62.2084 49.0718C62.1177 48.179 62.0619 47.2931 62.0061 46.4072C61.8876 44.6354 61.797 42.8706 61.6297 41.1128C61.532 39.3396 61.2493 37.5815 60.786 35.8672Z" fill="#263238"/>
<path d="M18.2234 110.652C18.2234 110.547 18.2234 110.443 18.2792 110.338C18.2515 110.467 18.2305 110.597 18.2164 110.729C18.2152 110.703 18.2176 110.677 18.2234 110.652Z" fill="#FFC727"/>
<path d="M35.6804 113.744C35.6231 113.782 35.5624 113.815 35.4991 113.842V113.793L35.6874 113.751L35.6804 113.744Z" fill="#FFC727"/>
<path d="M60.6264 64.9138C71.5863 77.2465 84.854 102.686 81.8769 107.548C78.5652 112.961 62.7598 95.3968 63.3036 94.6016C63.7638 93.904 58.6254 78.7113 54.8885 67.5854C51.1515 56.4594 57.9143 61.8655 60.6264 64.9138Z" fill="#D3766A"/>
<path d="M60.6264 64.9138C71.5863 77.2465 84.854 102.686 81.8769 107.548C78.5652 112.961 62.7598 95.3968 63.3036 94.6016C63.7638 93.904 58.6254 78.7113 54.8885 67.5854C51.1515 56.4594 57.9143 61.8655 60.6264 64.9138Z" fill="#7471FF"/>
<path d="M59.1489 80.3511C60.2226 83.5947 61.1987 86.629 61.9377 89.0705C63.6319 89.1472 68.5889 88.8751 73.7343 83.9225C72.1865 81.1811 70.5132 78.4258 68.7842 75.7891C66.2172 78.4082 62.8009 80.0258 59.1489 80.3511Z" fill="#EBEBEB"/>
<path d="M71.1963 113.171L68.4493 94.5116C68.4493 94.5116 72.8556 86.8385 70.2969 81.2581C69.0071 78.4679 60.1457 64.768 55.3769 61.3012C50.9009 58.0506 44.7655 61.0152 42.6809 63.8402C36.685 71.9737 33.7637 86.6083 30.4172 113.15L71.1963 113.171Z" fill="#7471FF"/>
<path d="M63.1711 69.9213C64.0775 71.1629 64.9559 72.4255 65.8204 73.702C65.5834 73.2067 65.3464 72.7115 65.1232 72.2162C65.1232 72.1813 65.1233 72.1465 65.1721 72.2162C65.4928 72.837 65.7926 73.4648 66.0784 74.0996C67.2358 75.8063 68.3559 77.5409 69.4389 79.3033C69.909 80.0405 70.3082 80.8206 70.6311 81.6332C70.9238 82.4296 71.1181 83.2589 71.2098 84.1025C71.3108 84.9475 71.3249 85.8007 71.2516 86.6486C71.195 87.5194 71.0715 88.3846 70.8821 89.2365C70.6678 90.2064 70.3644 91.1545 69.9758 92.0685C69.7805 92.515 69.5783 92.9544 69.3552 93.3939C69.1321 93.8333 68.7487 94.5937 68.7487 94.6216C68.8323 95.068 68.916 95.3819 68.9718 95.7586C69.0276 96.1353 69.0903 96.5259 69.1461 96.9096C69.2646 97.6769 70.2546 105.127 70.3662 105.894C70.5893 107.415 70.7845 108.935 70.9727 110.463C71.0773 111.342 71.1401 112.221 71.2586 113.093C71.2586 113.128 71.2098 113.142 71.2028 113.093C71.0773 112.332 70.8891 111.586 70.7566 110.826C70.6241 110.065 70.4777 109.305 70.3313 108.545C70.0454 107.01 68.9369 98.779 68.6999 97.2374C68.6302 96.8119 68.5674 96.3864 68.4977 95.9539C68.4039 95.4944 68.3502 95.0276 68.3373 94.5588C69.0877 93.018 69.7217 91.4231 70.2337 89.7875C70.4779 88.9563 70.6574 88.1074 70.7705 87.2485C70.8507 86.411 70.8507 85.5678 70.7705 84.7303C70.7019 83.8896 70.5406 83.0592 70.2895 82.254C70.0091 81.435 69.6495 80.6453 69.2158 79.8963C68.3234 78.3128 67.3752 76.7573 66.427 75.2157C65.3394 73.4672 64.2332 71.7256 63.1083 69.991C63.1083 69.991 63.1502 69.8934 63.1711 69.9213Z" fill="#263238"/>
<path d="M81.8767 107.548C79.0879 111.14 71.9556 111.482 54.0934 114.021C51.6253 114.377 44.4511 97.5939 47.0726 97.0847C50.3703 96.436 63.3173 94.6502 64.2794 94.6433C72.4018 94.5456 83.78 105.114 81.8767 107.548Z" fill="#D3766A"/>
<path d="M50.65 96.457C50.65 96.457 43.0994 97.2034 39.2509 98.8217C35.2844 100.603 31.8102 103.323 29.1276 106.746C26.2272 110.422 21.7652 121.325 24.6794 123.159C27.3149 124.82 31.3168 113.442 31.3168 113.442C31.3168 113.442 25.3278 124.366 28.8696 125.782C32.4114 127.198 36.3087 113.728 36.3087 113.728C36.3087 113.728 30.4035 125.092 34.2868 125.97C37.222 126.668 41.4331 114.642 41.4331 114.642C41.4331 114.642 36.4272 124.443 39.4182 125.252C42.7229 126.152 47.3035 115.326 47.3035 115.326C55.2515 116.114 59.365 113.233 62.0423 110.841C62.7255 110.262 50.65 96.457 50.65 96.457Z" fill="#D3766A"/>
<path d="M33.1854 109.537C32.4325 110.793 31.6655 112.062 31.0311 113.381C30.3966 114.699 29.804 116.045 29.2951 117.419C28.5886 119.199 28.0925 121.056 27.817 122.951C28.556 119.624 30.7592 114.866 31.4006 113.541C32.042 112.216 32.5998 110.876 33.2343 109.558L33.1854 109.537Z" fill="#263238"/>
<path d="M37.9886 111.748C37.1032 113.394 36.155 114.998 35.3392 116.68C34.5235 118.361 33.9448 120.028 33.2477 121.758C33.1919 121.89 33.2477 121.876 33.3453 121.758C34.1052 120.056 34.9419 118.542 35.7227 116.875C36.5036 115.208 37.2217 113.464 38.0653 111.804C38.0444 111.734 38.0026 111.72 37.9886 111.748Z" fill="#263238"/>
<path d="M42.4584 112.9C41.0267 115.392 39.8584 118.027 38.9724 120.761C38.9236 120.894 39.0351 120.866 39.0909 120.726C40.1994 118.096 41.043 116.018 42.5281 112.956C42.5629 112.907 42.4863 112.851 42.4584 112.9Z" fill="#263238"/>
<path d="M44.9473 96.5892L59.6512 113.902C59.6512 113.902 79.7305 112.507 82.0451 107.206C84.3598 101.905 69.0703 94.1966 64.3015 94.65C59.5326 95.1034 44.9473 96.5892 44.9473 96.5892Z" fill="#455A64"/>
<path d="M72.0401 96.9092C70.8827 96.114 67.6059 94.2445 64.3012 94.6142V94.67C67.0133 94.7537 70.8339 96.2814 72.0122 96.951C72.0401 96.972 72.068 96.9231 72.0401 96.9092Z" fill="#263238"/>
<path d="M62.76 110.913C56.9802 104.788 51.8349 97.4708 50.8449 96.2641C50.8031 96.2083 50.9006 96.1385 50.9425 96.1943C51.8488 97.436 58.6117 105.158 62.8646 110.843C62.9134 110.906 62.8157 110.968 62.76 110.913Z" fill="#263238"/>
<path d="M77.9929 73.1327L84.5106 105.07L59.994 110.079L53.4763 78.141L77.9929 73.1327Z" fill="#FFC727"/>
<path d="M59.4929 75.1866L71.11 72.8008L71.8334 76.3266L60.2163 78.7125L59.4929 75.1866Z" fill="#EBEBEB"/>
<path d="M62.1399 74.6585L63.5692 74.3586L63.2415 72.7403L66.7135 72.0218L67.0482 73.6471L68.4774 73.3541L67.8709 70.3965L61.5124 71.7009L62.1399 74.6585Z" fill="#EBEBEB"/>
<path d="M39.7453 67.7329C27.9348 82.7652 23.4797 109.809 30.0334 111.902C36.0223 113.827 60.6543 107.661 67.9957 105.164C70.1501 104.431 63.4918 87.669 61.1841 88.4223C58.3953 89.364 43.1686 92.9773 42.8688 92.9843C42.2343 92.9843 45.6227 76.3686 47.052 68.8281C49.1017 58.3369 44.1795 62.0827 39.7453 67.7329Z" fill="#D3766A"/>
<path d="M80.881 82.1291C81.2314 82.5568 81.442 83.0819 81.4844 83.6333C81.5268 84.1848 81.3989 84.7359 81.118 85.2123C82.0179 85.4835 82.7948 86.0609 83.3142 86.8445C84.1648 88.2396 82.3032 90.2276 82.3032 90.2276C83.1795 90.7032 83.8916 91.4326 84.346 92.3203C85.0432 93.7642 83.4257 96.0104 83.4257 96.0104C83.9897 96.8889 84.2174 97.9417 84.0671 98.975C83.5512 101.723 79.5842 103.286 77.0952 104.304C74.6062 105.323 66.4978 105.846 64.9709 106.104L58.3057 90.0114C58.3057 90.0114 68.2826 82.2477 71.413 81.4664C74.0136 80.8107 79.4796 80.5108 80.881 82.1291Z" fill="#D3766A"/>
<path d="M80.9014 85.0039C77.9313 85.0039 75.1355 85.9247 72.2909 86.6641C72.2282 86.6641 72.2909 86.7757 72.2909 86.7617C75.0797 85.9944 78.0498 85.7991 80.8944 85.1434C80.9129 85.1443 80.931 85.1379 80.9447 85.1254C80.9584 85.113 80.9666 85.0956 80.9676 85.0771C80.9685 85.0586 80.962 85.0405 80.9496 85.0268C80.9372 85.0131 80.9198 85.0048 80.9014 85.0039Z" fill="#263238"/>
<path d="M82.1627 90.04C81.4896 90.1083 80.8285 90.2655 80.1966 90.5073C79.4994 90.7236 78.8022 90.9468 78.1608 91.2049C76.7664 91.6792 75.4626 92.1885 74.1309 92.7325C74.0752 92.7325 74.1309 92.8511 74.1309 92.8302C75.4835 92.3652 76.8431 91.9211 78.2096 91.4979C78.9068 91.2886 79.6039 91.0863 80.2663 90.891C80.9291 90.7478 81.5744 90.5326 82.1905 90.2493C82.2043 90.2474 82.2175 90.2429 82.2295 90.236C82.2415 90.229 82.252 90.2197 82.2604 90.2087C82.2688 90.1977 82.275 90.1852 82.2786 90.1718C82.2821 90.1584 82.283 90.1444 82.2812 90.1307C82.2793 90.1169 82.2748 90.1037 82.2679 90.0917C82.2609 90.0797 82.2517 90.0692 82.2407 90.0608C82.2297 90.0523 82.2171 90.0462 82.2038 90.0426C82.1904 90.039 82.1764 90.0382 82.1627 90.04Z" fill="#263238"/>
<path d="M83.3696 96.0176C82.761 96.0921 82.1693 96.269 81.6196 96.5407C81.0131 96.7709 80.3926 96.9942 79.7791 97.2383C78.552 97.6778 77.318 98.1242 76.0769 98.5218C76.0663 98.5258 76.0571 98.5329 76.0506 98.5422C76.0441 98.5516 76.0406 98.5627 76.0406 98.5741C76.0406 98.5855 76.0441 98.5966 76.0506 98.606C76.0571 98.6153 76.0663 98.6225 76.0769 98.6264C77.3389 98.2218 78.6147 97.8382 79.8766 97.4266L81.7312 96.8058C82.3155 96.6758 82.8708 96.4393 83.3696 96.1082C83.3755 96.1082 83.3814 96.1071 83.3869 96.1048C83.3924 96.1025 83.3974 96.0992 83.4016 96.095C83.4058 96.0908 83.4092 96.0858 83.4115 96.0803C83.4137 96.0748 83.4149 96.0689 83.4149 96.0629C83.4149 96.057 83.4137 96.0511 83.4115 96.0456C83.4092 96.04 83.4058 96.0351 83.4016 96.0308C83.3974 96.0266 83.3924 96.0233 83.3869 96.021C83.3814 96.0187 83.3755 96.0176 83.3696 96.0176Z" fill="#263238"/>
<path d="M43.071 92.3064C42.8827 92.1878 46.4175 76.1441 47.6028 67.7665C48.788 59.3889 45.051 60.1981 39.6756 67.355C33.9098 75.0281 23.6401 95.7872 27.2028 111.161C28.3532 116.142 64.0009 109.166 64.0009 109.166L59.1972 88.6652C59.1972 88.6652 43.3847 92.4808 43.071 92.3064Z" fill="#7471FF"/>
<path d="M28.562 90.7858C34.3767 92.4879 40.6863 91.6229 43.259 91.1416C43.6285 89.1257 44.5278 84.759 45.4481 80.0435C39.3407 80.7411 35.1994 79.8482 32.9335 79.0879C31.171 82.8661 29.7093 86.7775 28.562 90.7858Z" fill="#EBEBEB"/>
<path d="M59.3577 107.061C57.1894 99.9178 55.9972 92.0912 55.6905 90.738C55.6905 90.6752 55.7811 90.6613 55.7881 90.738C56.0182 92.0773 58.3608 100.88 59.4693 107.054C59.4833 107.11 59.3786 107.123 59.3577 107.061Z" fill="#263238"/>
<path d="M36.3919 94.6787C37.0891 94.5601 55.279 89.4331 59.253 88.8123C59.3158 88.8123 59.253 88.5961 59.1972 88.61C51.3886 89.9751 43.6862 91.8912 36.1479 94.3439C35.2415 94.7066 35.109 94.9019 36.3919 94.6787Z" fill="#263238"/>
<path d="M43.2668 92.4667C43.2668 92.4667 44.466 86.2864 44.6612 85.9028C44.8564 85.5191 45.3584 84.6262 45.5536 84.2147C45.951 83.3846 46.2926 82.5336 46.6552 81.6895C46.6552 81.6198 46.5784 81.571 46.5506 81.6407C46.1532 82.4499 45.693 83.2311 45.2259 84.0054C44.9958 84.3821 44.7658 84.7657 44.5287 85.1355C44.5287 85.1355 45.6512 79.1365 45.8115 78.0762C45.8115 77.9995 45.7418 77.9716 45.7139 78.0762C45.3723 79.1435 42.9879 91.2181 42.6602 92.5574C42.8643 92.5421 43.0671 92.5118 43.2668 92.4667Z" fill="#263238"/>
<path d="M56.6814 110.437C57.8736 110.109 62.6355 109.342 63.7928 109.175C63.5774 108.319 63.4374 107.446 63.3745 106.566C63.3793 106.557 63.3864 106.55 63.395 106.545C63.4036 106.54 63.4134 106.537 63.4233 106.537C63.4333 106.537 63.4431 106.54 63.4517 106.545C63.4602 106.55 63.4673 106.557 63.4721 106.566C63.8364 107.538 64.1277 108.536 64.3436 109.551C64.3436 109.649 57.9294 110.458 56.6745 110.521C56.6605 110.507 56.6466 110.451 56.6814 110.437Z" fill="#263238"/>
<path d="M58.2771 62.814C58.2771 62.814 57.803 67.5294 53.8917 68.2619C49.9805 68.9943 42.6808 63.8603 42.6808 63.8603C43.6842 62.6423 44.9403 61.657 46.3621 60.9729C47.7838 60.2887 49.3372 59.9221 50.9147 59.8982C56.0112 59.8912 58.2771 62.814 58.2771 62.814Z" fill="#D3766A"/>
<path d="M47.0587 61.4965C47.2679 62.1941 50.9561 66.6723 54.2259 66.3305C55.2927 66.2119 54.9231 60.3665 54.9231 60.3665L54.9928 59.934L56.0038 53.8095L48.6414 49.6242L47.5816 49.0801C47.5816 49.0801 47.4143 50.7751 47.233 52.8887C47.233 52.9864 47.233 53.084 47.233 53.1887C47.233 53.2933 47.233 53.4189 47.1982 53.5305C47.1982 53.8444 47.1354 54.1652 47.1145 54.4861C47.0936 54.807 47.0727 54.9744 47.0587 55.2255L47.0169 55.9928C46.9053 57.8262 46.9193 59.665 47.0587 61.4965Z" fill="#D3766A"/>
<path d="M47.2545 52.9166C47.9627 54.5789 49.0234 56.0673 50.3632 57.279C51.7031 58.4906 53.29 59.3965 55.0143 59.934L56.0253 53.8095L48.6629 49.6242L47.6031 49.0801C47.6031 49.0801 47.4288 50.803 47.2545 52.9166Z" fill="#263238"/>
<path d="M63.0941 42.3762C65.9596 52.8813 59.9847 55.7901 57.7188 56.404C55.6272 56.962 48.5925 58.6013 44.6533 48.4449C40.7142 38.2885 44.6951 33.6289 49.3385 32.1013C53.9818 30.5736 60.2287 31.8641 63.0941 42.3762Z" fill="#D3766A"/>
<path d="M59.3084 40.3193C59.0504 40.3193 58.8134 40.3193 58.5554 40.3193C58.293 40.3627 58.0235 40.3186 57.7885 40.1937C57.7201 40.1414 57.6717 40.0671 57.6514 39.9833C57.631 39.8995 57.6401 39.8113 57.677 39.7334C57.7687 39.5896 57.8973 39.473 58.0494 39.3957C58.2014 39.3184 58.3713 39.2833 58.5415 39.2939C58.8927 39.2591 59.2439 39.3588 59.5245 39.5729C59.5904 39.6244 59.6394 39.6944 59.6651 39.774C59.6908 39.8535 59.6922 39.939 59.6689 40.0193C59.6456 40.0996 59.5989 40.1711 59.5346 40.2246C59.4703 40.2781 59.3916 40.3111 59.3084 40.3193Z" fill="#263238"/>
<path d="M51.8202 41.365C52.0589 41.2752 52.2918 41.1703 52.5174 41.0511C52.775 40.9781 53.0008 40.821 53.1588 40.6047C53.1951 40.5273 53.2046 40.4399 53.1857 40.3565C53.1667 40.2731 53.1204 40.1984 53.0542 40.1443C52.9071 40.055 52.7383 40.0078 52.5662 40.0078C52.3941 40.0078 52.2253 40.055 52.0781 40.1443C51.7476 40.2726 51.4784 40.522 51.3252 40.8418C51.3029 40.9119 51.2998 40.9867 51.3162 41.0584C51.3326 41.1301 51.3679 41.1961 51.4185 41.2495C51.469 41.3029 51.5329 41.3418 51.6036 41.3621C51.6742 41.3824 51.749 41.3834 51.8202 41.365Z" fill="#263238"/>
<path d="M54.2266 44.7266C54.2266 44.7266 54.1847 44.7754 54.2266 44.8033C54.4289 45.5008 54.5335 46.3728 53.9406 46.7704C53.9406 46.7704 53.9406 46.8192 53.9406 46.8053C54.687 46.4983 54.5265 45.3683 54.2266 44.7266Z" fill="#263238"/>
<path d="M53.3972 44.1336C52.212 44.3289 52.7 46.6796 53.7876 46.4913C54.8753 46.303 54.3803 43.9662 53.3972 44.1336Z" fill="#263238"/>
<path d="M52.957 44.3501C52.7827 44.5244 52.6293 44.8035 52.3853 44.8802C52.1413 44.9569 51.8415 44.7616 51.6044 44.5663C51.6044 44.5663 51.5626 44.5663 51.6044 44.6012C51.6951 45.0546 51.96 45.4801 52.455 45.4452C52.95 45.4103 53.1522 44.9499 53.1522 44.4756C53.1243 44.3919 53.0267 44.2803 52.957 44.3501Z" fill="#263238"/>
<path d="M58.548 43.291C58.548 43.291 58.6108 43.291 58.6177 43.3468C58.7502 44.0793 59.0221 44.8884 59.7333 44.9861V45.0279C58.9106 45.0907 58.555 44.0095 58.548 43.291Z" fill="#263238"/>
<path d="M59.0293 42.3975C60.1797 42.0557 60.7723 44.3786 59.7265 44.6925C58.6807 45.0064 58.0672 42.6835 59.0293 42.3975Z" fill="#263238"/>
<path d="M59.5535 42.4244C59.7696 42.5011 60.0067 42.6755 60.2507 42.6337C60.4947 42.5918 60.6342 42.2849 60.7318 42.0059C60.7318 42.0059 60.7666 42.0059 60.7736 42.0059C60.8991 42.4453 60.8712 42.9475 60.4668 43.1429C60.0625 43.3382 59.7208 43.0103 59.4977 42.5988C59.435 42.536 59.4699 42.3965 59.5535 42.4244Z" fill="#263238"/>
<path d="M56.0814 50.2237C56.2836 50.3632 56.4927 50.5725 56.7786 50.5515C57.0481 50.5025 57.3045 50.3979 57.5316 50.2446C57.5316 50.2446 57.5804 50.2446 57.5734 50.2446C57.4915 50.4052 57.3681 50.541 57.2161 50.6379C57.0641 50.7348 56.889 50.7893 56.7089 50.7957C56.5505 50.7823 56.3996 50.7221 56.2755 50.6227C56.1513 50.5234 56.0595 50.3893 56.0117 50.2377C55.9978 50.2237 56.0465 50.2028 56.0814 50.2237Z" fill="#263238"/>
<path d="M58.5344 46.9385C58.5344 46.9385 58.9179 47.9918 59.0295 48.501C59.0295 48.5499 58.9249 48.5987 58.7506 48.6475C58.3308 48.8252 57.87 48.8828 57.4194 48.8138C56.9689 48.7448 56.5463 48.552 56.1988 48.2569C56.15 48.215 56.1988 48.1523 56.2616 48.1732C57.0083 48.475 57.8327 48.5264 58.6111 48.3197C58.6111 48.1732 57.9139 46.5479 57.9697 46.52C58.3745 46.4645 58.785 46.4645 59.1898 46.52C58.4438 44.3088 57.3562 42.237 56.652 40.0258C56.652 39.9421 56.7426 39.8933 56.7775 39.963C58.013 42.1488 59.0267 44.453 59.8033 46.8409C59.894 47.1338 58.7575 46.9804 58.5344 46.9385Z" fill="#263238"/>
<path d="M58.5488 48.4878C58.3547 48.9531 58.0451 49.3613 57.6494 49.6736C57.4267 49.8371 57.1587 49.9273 56.8825 49.9317C56.2829 49.9317 56.1296 49.4155 56.1156 48.9481C56.1097 48.6998 56.133 48.4516 56.1853 48.2087C56.924 48.5488 57.7513 48.6464 58.5488 48.4878Z" fill="#263238"/>
<path d="M57.6493 49.6728C57.4266 49.8364 57.1586 49.9266 56.8824 49.9309C56.2828 49.9309 56.1294 49.4147 56.1155 48.9474C56.4153 48.8827 56.7281 48.9187 57.0054 49.0498C57.2827 49.181 57.509 49.4 57.6493 49.6728Z" fill="#FF9CBD"/>
<path d="M45.2399 48.2697C46.3624 47.8721 48.4331 43.8821 46.9411 38.3505C46.9411 38.3505 47.9381 43.4147 47.7707 44.2448C47.6034 45.0749 48.9281 41.9987 47.7707 37.5204C49.4562 38.1234 51.2196 38.4805 53.0067 38.5807C55.2656 38.5807 56.5484 38.1761 56.653 37.9808C56.7576 37.7855 53.3971 37.7017 52.2886 36.9763C52.2886 36.9763 58.6052 37.9738 61.2336 37.4297C61.5334 37.3669 60.139 31.1517 55.419 29.6938C50.699 28.236 45.212 32.8468 43.985 34.9673C43.985 34.9673 42.0816 35.8184 40.7639 39.3828C39.4462 42.9473 44.0338 48.6952 45.2399 48.2697Z" fill="#263238"/>
<path d="M46.8639 48.5004C46.8639 48.5004 43.9217 45.5777 42.5552 46.6868C41.1887 47.7959 43.8311 52.33 45.7274 52.6648C45.967 52.7257 46.2164 52.7376 46.4608 52.7C46.7051 52.6623 46.9393 52.5758 47.1494 52.4456C47.3596 52.3154 47.5414 52.1442 47.684 51.9421C47.8266 51.7401 47.927 51.5114 47.9794 51.2697L46.8639 48.5004Z" fill="#D3766A"/>
<path d="M43.3431 47.9712C43.3431 47.9712 43.3431 48.0131 43.3431 48.02C44.6817 48.299 45.5532 49.3384 46.2295 50.4545C46.1346 50.3415 46.0162 50.2507 45.8825 50.1884C45.7488 50.1261 45.6031 50.0938 45.4556 50.0938C45.3081 50.0938 45.1624 50.1261 45.0287 50.1884C44.895 50.2507 44.7766 50.3415 44.6817 50.4545C44.6817 50.4545 44.6817 50.5242 44.7305 50.5103C44.9373 50.4002 45.1732 50.3572 45.4056 50.3872C45.6379 50.4171 45.8552 50.5187 46.0273 50.6777C46.3123 50.9462 46.5692 51.2431 46.7942 51.5636C46.8779 51.6682 47.0661 51.5636 46.9964 51.452C46.7245 49.8197 45.0861 47.8177 43.3431 47.9712Z" fill="#263238"/>
<path d="M35.66 113.75L35.4787 113.792L35.66 113.75Z" fill="#D3766A"/>
<path d="M18.2792 110.338C18.2515 110.467 18.2305 110.597 18.2164 110.729C18.2129 110.703 18.2129 110.677 18.2164 110.652C18.2373 110.547 18.2582 110.443 18.2792 110.338Z" fill="#FFC727"/>
<path d="M18.2792 110.338C18.2515 110.467 18.2305 110.597 18.2164 110.729C18.2129 110.703 18.2129 110.677 18.2164 110.652C18.2373 110.547 18.2582 110.443 18.2792 110.338Z" fill="#FFC727"/>
<path d="M36.4835 115.646L35.9185 115.779L36.4835 115.646Z" fill="#FFC727"/>
<path d="M18.2792 110.338C18.2515 110.467 18.2305 110.597 18.2164 110.729C18.2129 110.703 18.2129 110.677 18.2164 110.652C18.2373 110.547 18.2582 110.443 18.2792 110.338Z" fill="#DBDBDB"/>
</svg>
