<svg width="198" height="224" viewBox="0 0 198 224" fill="none" xmlns="http://www.w3.org/2000/svg">
<path d="M192.233 2.1355H38.1521V161.218H192.233V2.1355Z" fill="#FFEF65" stroke="#10121B" stroke-width="2"/>
<path d="M0.579102 49.6348V131.442H82.3861V49.6348H0.579102ZM6.75644 125.264V55.8121H76.2088V125.264H6.75644Z" fill="#7471FF"/>
<path d="M139.785 46.8782C143.834 45.9248 154.334 48.6674 157.926 54.035C161.517 59.4026 161.347 68.1919 159.558 69.08C157.769 69.9681 150.011 69.4196 144.657 66.5725C139.302 63.7255 137.787 47.4137 139.785 46.8782Z" fill="#263238"/>
<path d="M139.771 46.9043C139.64 46.9043 139.614 46.6562 139.771 46.6431C143.336 46.4994 147.163 47.6487 150.572 48.576C153.397 49.1684 156.067 50.3474 158.408 52.0368C159.487 52.8992 160.366 53.9859 160.984 55.2217C161.602 56.4574 161.944 57.8127 161.986 59.1936C162.259 62.5354 161.665 65.8912 160.262 68.9363C160.262 69.0147 160.066 68.9363 160.092 68.9363C161.646 62.981 162.965 55.7197 157.01 51.7756C151.93 48.367 145.517 48.0666 139.771 46.9043Z" fill="#263238"/>
<path d="M159.009 67.5395C162.574 67.9443 171.925 74.5787 173.571 81.3176C175.216 88.0565 169.888 98.1388 168.164 98.8832C166.44 99.6276 158.473 93.2674 155.835 88.5528C154.072 85.3923 155.365 81.6703 156.097 77.9613C157.089 72.5022 158.395 67.4872 159.009 67.5395Z" fill="#263238"/>
<path d="M153.627 87.7301C152.465 80.8606 156.239 73.9781 158.512 67.7224C158.512 67.6571 158.642 67.7224 158.629 67.7224C157.428 73.7169 153.915 79.1367 153.902 85.3794C153.82 87.2104 154.181 89.0341 154.954 90.696C155.727 92.3579 156.889 93.8089 158.342 94.9261C161.019 96.859 164.363 97.7079 167.484 98.7527C167.693 98.818 167.562 99.1184 167.353 99.0531C161.163 97.1724 154.816 94.8347 153.627 87.7301Z" fill="#263238"/>
<path d="M159.728 68.1662C159.696 68.1472 159.671 68.117 159.659 68.0812C159.647 68.0454 159.648 68.0064 159.662 67.9714C159.676 67.9364 159.703 67.9078 159.737 67.8908C159.77 67.8738 159.809 67.8695 159.846 67.8789C164.939 70.2035 171.077 73.5991 173.859 78.6794C176.876 84.1907 174.029 90.0415 171.495 95.0957C171.495 95.0957 171.365 95.0957 171.391 95.0957C173.885 89.9762 176.51 83.6291 173.102 78.2745C170.163 73.6122 164.534 70.4386 159.728 68.1662Z" fill="#263238"/>
<path d="M167.679 98.7129C166.072 100.02 164.748 101.642 163.789 103.479C162.83 105.316 162.256 107.329 162.103 109.396C161.58 117.65 158.354 116.357 149.709 119.413C142.395 122.025 141.651 130.553 146.065 134.288C146.065 134.288 143.231 129.351 148.024 126.308C153.744 122.665 168.202 127.614 174.222 118.381C182.006 106.444 167.679 98.7129 167.679 98.7129Z" fill="#263238"/>
<path d="M169.157 99.5625C169.157 99.5625 169.052 99.5625 169.157 99.6409C172.422 102.253 175.843 104.865 177.136 109.07C178.521 113.576 176.614 118.421 173.284 121.568C169.549 125.082 165.056 124.037 160.446 123.619C157.138 123.097 153.751 123.471 150.638 124.703C150.546 124.703 150.638 124.912 150.716 124.873C155.77 123.149 160.655 124.207 165.813 124.52C167.735 124.677 169.661 124.29 171.373 123.403C173.084 122.516 174.511 121.165 175.491 119.505C180.597 111.8 176.157 104.055 169.157 99.5625Z" fill="#263238"/>
<path d="M142.84 43.104C143.083 42.8422 143.416 42.6812 143.772 42.6529C144.128 42.6246 144.481 42.7312 144.762 42.9515C145.043 43.1718 145.231 43.4896 145.289 43.842C145.347 44.1944 145.27 44.5557 145.074 44.854C143.964 46.3168 141.73 44.5667 142.84 43.104Z" fill="#FFC727"/>
<path d="M141.783 45.52C142.026 45.2582 142.358 45.0972 142.714 45.0689C143.07 45.0407 143.424 45.1472 143.705 45.3675C143.986 45.5877 144.174 45.9056 144.231 46.258C144.289 46.6104 144.212 46.9717 144.016 47.2701C142.906 48.7197 140.725 46.9827 141.783 45.52Z" fill="#FFC727"/>
<path d="M140.306 47.7405C140.549 47.4787 140.882 47.3176 141.238 47.2894C141.594 47.2611 141.947 47.3677 142.228 47.588C142.509 47.8082 142.697 48.1261 142.755 48.4785C142.813 48.8309 142.736 49.1921 142.54 49.4905C142.297 49.7524 141.964 49.9134 141.608 49.9416C141.252 49.9699 140.899 49.8633 140.618 49.643C140.337 49.4228 140.149 49.1049 140.091 48.7525C140.033 48.4001 140.11 48.0389 140.306 47.7405Z" fill="#FFC727"/>
<path d="M138.595 49.687C138.838 49.4252 139.17 49.2642 139.526 49.2359C139.882 49.2077 140.236 49.3142 140.517 49.5345C140.798 49.7547 140.986 50.0726 141.044 50.425C141.102 50.7774 141.025 51.1386 140.828 51.437C139.718 52.8997 137.485 51.1497 138.595 49.687Z" fill="#FFC727"/>
<path d="M136.532 51.3324C137.642 49.8697 139.875 51.6197 138.765 53.0824C138.522 53.3443 138.19 53.5053 137.834 53.5336C137.478 53.5618 137.124 53.4552 136.843 53.235C136.562 53.0147 136.374 52.6968 136.317 52.3444C136.259 51.992 136.336 51.6308 136.532 51.3324Z" fill="#FFC727"/>
<path d="M134.287 52.6382C134.529 52.3764 134.862 52.2153 135.218 52.1871C135.574 52.1588 135.927 52.2654 136.208 52.4857C136.49 52.7059 136.678 53.0238 136.735 53.3762C136.793 53.7286 136.716 54.0898 136.52 54.3882C135.41 55.7726 133.19 54.0226 134.287 52.6382Z" fill="#FFC727"/>
<path d="M132.157 78.8887C126.032 86.4373 93.2386 110.232 65.5517 109.762C56.1486 109.619 30.0288 69.4856 25.1967 54.2317C21.7358 43.2744 44.9954 37.737 51.5776 39.3173C59.7792 41.3024 75.7645 75.7151 78.925 75.8849C88.3281 76.5379 104.47 70.883 124.282 68.8718C134.482 67.8923 136.885 73.0901 132.157 78.8887Z" fill="#F7A9A0"/>
<path d="M26.124 56.7519C24.3739 52.9384 16.1593 31.7423 15.4932 26.2963C14.8271 20.8503 14.0566 4.99565 18.1836 4.09452C22.3105 3.19339 22.8982 7.79047 22.8982 7.79047C22.8982 7.79047 23.6295 1.03851 27.874 0.476931C32.1184 -0.084644 32.8106 7.13748 32.8106 7.13748C32.8106 7.13748 34.1166 0.267972 38.3349 0.00677435C42.5533 -0.254423 42.0831 7.1244 42.0831 7.1244C42.0831 7.1244 42.932 0.790376 46.5366 2.05718C50.8855 3.58519 47.9862 15.1171 49.1485 21.0462C49.4228 22.3522 56.5665 48.1324 56.5665 48.1324L26.124 56.7519Z" fill="#F7A9A0"/>
<path d="M42.109 6.45832C40.0064 14.9081 40.5418 18.9827 43.2322 27.1321C43.2322 27.2888 43.0624 27.4064 42.9971 27.2366C39.6277 19.5051 38.2172 14.5032 41.6911 6.34079C41.874 5.93593 42.2135 6.05346 42.109 6.45832Z" fill="#263238"/>
<path d="M32.9804 6.43234C31.5699 15.4045 32.1185 19.8187 34.2864 28.5688C34.2864 28.6864 34.1166 28.7517 34.0774 28.6341C31.2043 20.2366 29.9114 15.2086 32.5103 6.43234C32.6409 6.02748 33.0457 6.01442 32.9804 6.43234Z" fill="#263238"/>
<path d="M23.0292 8.23418C22.2848 17.0365 22.6766 21.8948 25.8893 30.1095C25.899 30.1475 25.8952 30.1877 25.8785 30.2233C25.8619 30.2588 25.8334 30.2875 25.798 30.3045C25.7626 30.3214 25.7224 30.3255 25.6843 30.3162C25.6462 30.3068 25.6125 30.2845 25.5889 30.2531C21.5012 22.1952 20.9658 16.1223 22.755 8.24724C22.8856 7.65954 23.0814 7.63343 23.0292 8.23418Z" fill="#263238"/>
<path d="M62.3658 52.0762C62.3658 52.0762 63.5804 41.2234 63.058 36.339C62.5356 31.4546 53.9161 13.9544 49.9981 15.6C44.9831 17.7287 47.9738 28.8165 50.1548 34.0535C50.1548 34.0535 38.5446 38.9771 38.9756 47.4007C39.4066 55.8244 62.3658 52.0762 62.3658 52.0762Z" fill="#F7A9A0"/>
<path d="M48.8493 16.6451C45.6757 21.8691 48.9798 28.5688 50.7168 33.8058C50.7463 33.8825 50.7568 33.9653 50.7474 34.0469C50.738 34.1286 50.709 34.2068 50.6628 34.2748C50.6166 34.3428 50.5546 34.3987 50.4821 34.4375C50.4097 34.4764 50.3289 34.4971 50.2467 34.4979C45.519 36.8879 39.5376 41.6287 38.754 47.166C38.7454 47.1922 38.7288 47.2149 38.7065 47.231C38.6842 47.2472 38.6574 47.2559 38.6299 47.2559C38.6024 47.2559 38.5756 47.2472 38.5533 47.231C38.531 47.2149 38.5144 47.1922 38.5059 47.166C38.5059 41.1063 44.0302 35.9737 49.3716 33.6882C47.5171 28.3467 44.5003 21.4903 48.8101 16.619C48.8231 16.5798 48.8754 16.6059 48.8493 16.6451Z" fill="#263238"/>
<path d="M92.9648 73.2727L104.379 99.6536C104.379 99.6536 121.644 91.4389 132.144 80.8213C142.645 70.2036 130.969 66.6382 120.809 68.1793C110.648 69.7204 92.9648 73.2727 92.9648 73.2727Z" fill="#FF6EC9"/>
<path d="M132.145 80.8737C121.698 91.4914 104.38 99.706 104.38 99.706L100.906 91.6742L135.685 71.5098C136.965 73.6255 136.259 76.7076 132.145 80.8737Z" fill="#FF6EC9"/>
<path d="M108.689 95.9964C104.943 88.6428 101.65 81.067 98.8291 73.3114C98.8291 73.22 98.9466 73.1547 98.9858 73.3114C99.7563 75.3487 105.189 86.5803 108.859 95.9834C108.911 96.0487 108.742 96.1009 108.689 95.9964Z" fill="#263238"/>
<path d="M105.985 125.46L101.297 161.218H176.143C176.143 161.218 166.244 94.1554 150.258 73.5338C142.266 63.2296 131.557 63.5039 123.982 71.379C122.323 73.0898 105.607 96.9763 102.655 106.837C100.082 115.574 105.985 125.46 105.985 125.46Z" fill="#FF6EC9"/>
<path d="M127.77 74.9834L123.043 87.6646C121.484 91.896 119.987 96.1404 118.55 100.398C117.244 104.682 115.612 108.965 116.251 113.327C116.813 117.724 118.257 121.961 120.496 125.786L120.6 125.969V126.152C119.947 131.833 119.177 137.514 118.485 143.13C117.793 148.746 116.996 154.479 116.186 160.108C116.674 154.396 117.192 148.698 117.74 143.012C118.315 137.318 118.837 131.624 119.464 125.943L119.543 126.296C117.162 122.345 115.611 117.95 114.985 113.379C114.713 111.062 114.877 108.715 115.468 106.458C116.042 104.238 116.774 102.083 117.466 99.9278C118.916 95.6311 120.627 91.4519 122.337 87.2727C124.048 83.0936 125.863 79.0842 127.77 74.9834Z" fill="#263238"/>
<path d="M117.322 91.5041C117.266 91.7857 117.321 92.078 117.474 92.3209C117.627 92.5637 117.867 92.7388 118.145 92.8101C118.283 92.8302 118.423 92.8223 118.557 92.7868C118.692 92.7513 118.818 92.689 118.928 92.6036C119.037 92.5182 119.129 92.4115 119.196 92.2899C119.264 92.1683 119.306 92.0343 119.32 91.8959C119.379 91.614 119.327 91.3202 119.173 91.0765C119.02 90.8328 118.777 90.6583 118.498 90.5899C118.36 90.5679 118.219 90.5744 118.083 90.6091C117.948 90.6439 117.822 90.706 117.711 90.7917C117.601 90.8774 117.51 90.9849 117.443 91.1075C117.376 91.23 117.335 91.3651 117.322 91.5041Z" fill="#263238"/>
<path d="M112.79 103.846C112.731 104.128 112.784 104.421 112.937 104.665C113.091 104.909 113.333 105.083 113.613 105.152C113.749 105.172 113.887 105.164 114.02 105.129C114.153 105.095 114.278 105.033 114.386 104.949C114.495 104.865 114.585 104.76 114.652 104.64C114.719 104.52 114.761 104.387 114.775 104.251C114.834 103.969 114.782 103.675 114.628 103.431C114.475 103.187 114.232 103.013 113.953 102.945C113.817 102.924 113.678 102.932 113.545 102.967C113.412 103.002 113.288 103.063 113.179 103.147C113.071 103.231 112.98 103.337 112.913 103.457C112.846 103.577 112.805 103.709 112.79 103.846Z" fill="#263238"/>
<path d="M112.215 116.436C112.156 116.718 112.208 117.011 112.362 117.255C112.516 117.499 112.758 117.673 113.038 117.742C113.174 117.762 113.313 117.754 113.447 117.72C113.581 117.685 113.706 117.624 113.816 117.54C113.926 117.456 114.017 117.35 114.085 117.23C114.154 117.11 114.197 116.978 114.213 116.84C114.269 116.559 114.214 116.267 114.061 116.024C113.908 115.781 113.668 115.606 113.39 115.534C113.254 115.514 113.114 115.522 112.98 115.556C112.847 115.591 112.721 115.652 112.612 115.736C112.502 115.82 112.411 115.926 112.342 116.046C112.274 116.166 112.231 116.298 112.215 116.436Z" fill="#263238"/>
<path d="M115.715 126.87C115.656 127.152 115.709 127.446 115.862 127.69C116.016 127.933 116.258 128.108 116.538 128.176C116.674 128.196 116.814 128.189 116.947 128.154C117.081 128.12 117.207 128.058 117.316 127.974C117.426 127.89 117.517 127.785 117.586 127.665C117.654 127.545 117.697 127.412 117.713 127.275C117.769 126.993 117.715 126.701 117.562 126.458C117.409 126.215 117.168 126.04 116.89 125.969C116.754 125.949 116.614 125.956 116.481 125.991C116.347 126.026 116.222 126.087 116.112 126.171C116.002 126.255 115.911 126.36 115.843 126.48C115.774 126.6 115.731 126.733 115.715 126.87Z" fill="#263238"/>
<path d="M114.356 138.245C114.301 138.527 114.355 138.819 114.508 139.062C114.661 139.305 114.901 139.48 115.179 139.551C115.316 139.571 115.456 139.563 115.589 139.528C115.723 139.492 115.848 139.43 115.957 139.344C116.066 139.259 116.156 139.152 116.222 139.03C116.288 138.909 116.329 138.775 116.341 138.637C116.397 138.356 116.343 138.063 116.19 137.82C116.037 137.578 115.797 137.402 115.519 137.331C115.382 137.311 115.242 137.319 115.108 137.355C114.975 137.39 114.85 137.453 114.741 137.538C114.632 137.624 114.542 137.731 114.476 137.852C114.41 137.974 114.369 138.107 114.356 138.245Z" fill="#263238"/>
<path d="M113.116 149.477C113.06 149.758 113.115 150.051 113.268 150.293C113.421 150.536 113.661 150.711 113.939 150.783C114.077 150.803 114.217 150.795 114.351 150.759C114.486 150.724 114.612 150.662 114.722 150.576C114.831 150.491 114.923 150.384 114.99 150.263C115.058 150.141 115.1 150.007 115.114 149.869C115.173 149.585 115.118 149.289 114.962 149.045C114.806 148.801 114.561 148.628 114.278 148.563C114.141 148.541 114.001 148.547 113.866 148.582C113.732 148.617 113.606 148.679 113.497 148.765C113.388 148.851 113.298 148.958 113.232 149.081C113.166 149.203 113.127 149.338 113.116 149.477Z" fill="#263238"/>
<path d="M128.108 200.385C131.883 202.997 138.23 191.661 140.385 189.245C142.539 186.828 143.48 186.907 143.349 188.748L148.26 169.263C145.713 171.235 140.319 175.479 137.446 178.274C133.593 182.009 124.334 197.825 128.108 200.385Z" fill="#F7A9A0"/>
<path d="M156.396 76.4335C172.382 89.3236 192.533 111.996 196.647 126.649C199.808 137.959 183.901 177.256 179.16 186.424C177.096 190.42 149.723 178.261 148.521 173.599C147.32 168.937 166.4 135.099 166.583 131.507C166.766 127.916 154.294 104.199 145.792 88.1613C135.409 68.7282 142.736 65.4763 156.396 76.4335Z" fill="#F7A9A0"/>
<path d="M130.799 211.577C133.32 214.32 138.426 210.989 138.426 210.989C138.426 210.989 133.881 216.605 137.434 218.825C140.986 221.046 145.831 216.213 145.831 216.213C145.831 216.213 141.913 221.594 145.635 223.501C149.357 225.408 154.111 221.241 154.111 221.241C154.111 221.241 153.85 223.305 157.076 223.488C161.699 223.749 168.294 216.253 170.815 211.525C173.335 206.797 179.056 187.612 179.891 184.661L149.658 168.231C149.658 168.231 149.122 168.623 148.26 169.302L143.337 188.749C143.258 189.963 139.798 197.446 138.544 199.601C135.723 204.446 127.965 208.495 130.799 211.577Z" fill="#F7A9A0"/>
<path d="M138.583 210.662C145.361 205.53 147.437 202.121 150.337 194.285C150.337 194.128 150.637 194.181 150.585 194.35C148.404 202.278 146.419 206.94 138.766 211.015C138.439 211.263 138.256 210.963 138.583 210.662Z" fill="#263238"/>
<path d="M145.491 216.331C152.021 210.375 154.345 206.692 158.041 198.713C158.041 198.595 158.289 198.713 158.237 198.791C155.286 206.927 153.196 211.525 145.843 216.605C145.517 216.84 145.19 216.592 145.491 216.331Z" fill="#263238"/>
<path d="M154.138 221.111C160.08 214.894 162.757 210.95 165.343 202.748C165.353 202.707 165.38 202.671 165.417 202.649C165.453 202.627 165.497 202.62 165.539 202.631C165.58 202.641 165.616 202.668 165.638 202.704C165.66 202.741 165.667 202.785 165.656 202.827C163.828 211.446 160.524 216.383 154.346 221.267C153.915 221.581 153.785 221.476 154.138 221.111Z" fill="#263238"/>
<path d="M153.327 111.708L176.404 94.4293C176.404 94.4293 164.415 79.5411 151.656 71.7835C138.896 64.0259 138.113 76.25 142.031 85.7837C145.949 95.3174 153.327 111.708 153.327 111.708Z" fill="#FF6EC9"/>
<path d="M171.795 91.1518C165.505 96.496 158.898 101.455 152.009 106.001C151.931 106.001 151.839 105.923 151.918 105.857C153.733 104.63 163.397 96.7153 171.703 90.9951C171.795 90.9298 171.886 91.0734 171.795 91.1518Z" fill="#263238"/>
<path d="M149.267 101.939C147.869 98.7917 145.949 94.2077 144.356 91.1387C144.356 91.1387 144.265 91.1387 144.278 91.1387C144.905 92.9279 145.584 94.7171 146.354 96.4802C146.302 96.3859 146.246 96.2943 146.184 96.2059C145.61 95.3831 145.009 94.5734 144.369 93.7898C144.852 94.6779 145.375 95.5529 145.936 96.4018C146.289 96.9373 146.668 97.4466 147.046 97.9559C147.451 98.8832 148.352 101.182 148.783 102.109C149.462 103.663 152.78 112.413 152.923 112.309C153.733 111.777 154.509 111.197 155.248 110.572C155.365 110.48 155.248 110.271 155.078 110.363C154.66 110.715 153.615 111.408 153.446 111.538C152.701 109.958 152.14 108.286 151.395 106.667C150.651 105.047 149.985 103.572 149.267 101.939Z" fill="#263238"/>
<path d="M139.561 68.6099C139.169 69.9159 132.287 78.3264 126.162 77.7518C124.164 77.5428 124.79 66.5986 124.79 66.5986L124.647 65.7889L122.714 54.3224L136.479 46.4864L138.464 45.4678C138.464 45.4678 138.778 48.6413 139.143 52.5854C139.143 52.7682 139.143 52.9511 139.143 53.147C139.143 53.3429 139.143 53.578 139.208 53.7869C139.274 54.3877 139.326 54.9884 139.378 55.5892C139.431 56.1899 139.457 56.4903 139.483 56.9735C139.509 57.4567 139.483 57.9269 139.574 58.4101C139.799 61.8065 139.795 65.2141 139.561 68.6099Z" fill="#F7A9A0"/>
<path d="M139.143 52.5466C137.822 55.6566 135.841 58.4429 133.339 60.7134C130.836 62.9839 127.871 64.6845 124.647 65.6979L122.714 54.2313L136.479 46.3954L138.464 45.3767C138.464 45.3767 138.778 48.6025 139.143 52.5466Z" fill="#263238"/>
<path d="M108.363 34.1061C104.21 54.0747 115.715 58.8154 120.012 59.7035C123.93 60.5001 137.343 62.7595 143.52 43.3133C149.697 23.8671 141.731 15.6394 132.876 13.2756C124.022 10.9118 112.503 14.1245 108.363 34.1061Z" fill="#F7A9A0"/>
<path d="M115.102 29.3912C115.571 29.4172 116.042 29.4172 116.512 29.3912C117.009 29.4362 117.508 29.3219 117.936 29.0647C118.052 28.9547 118.129 28.8095 118.155 28.6514C118.181 28.4933 118.154 28.3311 118.079 28.1897C117.887 27.9313 117.63 27.7287 117.334 27.6025C117.038 27.4763 116.714 27.431 116.395 27.4714C115.737 27.4561 115.098 27.6892 114.605 28.1244C114.514 28.2305 114.454 28.3594 114.431 28.4972C114.407 28.6351 114.422 28.7767 114.473 28.9068C114.524 29.037 114.609 29.1508 114.72 29.2361C114.831 29.3215 114.963 29.3751 115.102 29.3912Z" fill="#263238"/>
<path d="M128.827 32.461C128.37 32.3174 127.966 32.1215 127.522 31.9387C127.035 31.8157 126.601 31.5413 126.281 31.1551C126.205 31.0128 126.179 30.8491 126.208 30.6904C126.236 30.5317 126.317 30.3872 126.438 30.2801C126.702 30.1012 127.01 29.9961 127.329 29.9754C127.648 29.9548 127.967 30.0194 128.253 30.1625C128.878 30.3632 129.405 30.7922 129.729 31.364C129.793 31.4985 129.817 31.6485 129.799 31.7964C129.781 31.9443 129.722 32.0841 129.627 32.1993C129.532 32.3144 129.407 32.4002 129.265 32.4466C129.124 32.4929 128.972 32.498 128.827 32.461Z" fill="#263238"/>
<path d="M125.3 36.7834C125.3 36.7834 125.391 36.8618 125.378 36.9141C125.065 38.22 124.947 39.8787 126.097 40.5708C126.097 40.5708 126.097 40.6623 126.097 40.6492C124.608 40.1399 124.791 38.0111 125.3 36.7834Z" fill="#263238"/>
<path d="M126.79 35.6597C129.01 35.9079 128.331 40.3482 126.281 40.1001C124.23 39.8519 124.922 35.3724 126.79 35.6597Z" fill="#263238"/>
<path d="M127.664 35.9606C128.004 36.261 128.317 36.7703 128.788 36.8878C129.258 37.0054 129.793 36.6136 130.211 36.2218C130.211 36.2218 130.29 36.2218 130.276 36.2871C130.159 37.136 129.702 37.9587 128.775 37.9457C127.847 37.9326 127.469 37.0968 127.364 36.2087C127.312 36.039 127.482 35.83 127.664 35.9606Z" fill="#263238"/>
<path d="M116.903 34.864C116.903 34.7987 116.786 34.864 116.786 34.9685C116.629 36.2745 116.211 37.907 114.905 38.1812V38.2596C116.459 38.2726 116.982 36.1961 116.903 34.864Z" fill="#263238"/>
<path d="M115.911 33.244C113.73 32.7608 112.907 37.162 114.931 37.6191C116.956 38.0762 117.713 33.6489 115.911 33.244Z" fill="#263238"/>
<path d="M114.919 33.3612C114.527 33.531 114.096 33.8967 113.678 33.8444C113.26 33.7922 112.921 33.2437 112.699 32.7344C112.699 32.7344 112.633 32.7344 112.62 32.7344C112.437 33.5833 112.555 34.5105 113.338 34.8239C114.122 35.1374 114.723 34.4844 115.075 33.6747C115.141 33.5571 115.075 33.2959 114.919 33.3612Z" fill="#263238"/>
<path d="M117.216 41.3414C117.216 41.3414 116.589 43.3396 116.433 44.306C116.433 44.3974 116.642 44.4758 116.968 44.5542C117.772 44.8435 118.64 44.9051 119.477 44.7323C120.313 44.5594 121.086 44.1588 121.709 43.5747C121.787 43.4963 121.709 43.3788 121.591 43.418C120.222 44.0578 118.683 44.2365 117.203 43.9273C117.203 43.653 118.379 40.5448 118.222 40.5056C117.462 40.4483 116.698 40.4923 115.949 40.6362C117.125 36.4309 118.953 32.4477 120.063 28.2424C120.075 28.2095 120.074 28.1731 120.059 28.1413C120.045 28.1094 120.018 28.0847 119.985 28.0726C119.952 28.0605 119.916 28.0619 119.884 28.0766C119.852 28.0913 119.827 28.1181 119.815 28.151C117.717 32.357 116.046 36.7628 114.826 41.3023C114.748 41.8377 116.851 41.4329 117.216 41.3414Z" fill="#263238"/>
<path d="M123.564 15.8484C122.966 17.5266 122.879 19.345 123.316 21.0724C125.04 25.787 130.591 25.1209 132.275 27.0799C133.96 29.0389 132.915 32.3039 134.326 34.1453C136.298 36.6659 139.354 36.052 139.55 37.6454C139.746 39.2387 140.32 44.3059 142.253 45.1287C144.186 45.9515 156.436 13.785 130.369 12.3745C130.369 12.3745 126.947 10.5853 121.148 12.8316C114.762 15.326 111.145 25.1079 111.145 25.1079C111.145 25.1079 111.288 24.9773 112.255 24.2851C113.561 23.2926 114.187 22.3261 115.18 21.6731C116.734 20.6936 117.479 21.1899 119.098 20.2366C120.843 19.0592 122.356 17.5719 123.564 15.8484Z" fill="#263238"/>
<path d="M124.1 14.4512C123.561 15.7054 123.179 17.0213 122.963 18.3691C122.662 19.667 122.725 21.023 123.146 22.2871C123.715 23.4651 124.695 24.3942 125.902 24.8991C127.09 25.4737 128.514 25.7349 129.728 26.3879C130.386 26.7274 130.941 27.237 131.335 27.8637C131.666 28.5095 131.861 29.2161 131.909 29.9402C131.929 31.2576 132.309 32.5446 133.006 33.6623C133.4 34.1867 133.903 34.6194 134.48 34.9305C135.057 35.2417 135.695 35.4239 136.35 35.4645C137.713 35.3704 139.08 35.5709 140.359 36.0522C139.053 35.6786 137.682 35.5852 136.337 35.778C135.623 35.7628 134.921 35.594 134.279 35.283C133.637 34.972 133.069 34.5261 132.615 33.9757C131.813 32.8216 131.36 31.4618 131.309 30.0577C131.252 29.4165 131.075 28.7918 130.786 28.2163C130.437 27.6942 129.955 27.2749 129.389 27.0017C128.253 26.3879 126.881 26.0875 125.628 25.4737C124.985 25.1652 124.391 24.7649 123.865 24.2853C123.32 23.8072 122.903 23.2014 122.65 22.5222C122.265 21.1646 122.265 19.7267 122.65 18.3691C122.972 17.0092 123.459 15.6935 124.1 14.4512Z" fill="#263238"/>
<path d="M123.485 15.5869C123.107 16.8053 122.572 17.9689 121.891 19.0478C121.207 20.1834 120.203 21.092 119.005 21.6597C118.405 21.8933 117.784 22.0682 117.151 22.1821C116.586 22.3099 116.066 22.5899 115.649 22.9919C115.261 23.5082 114.824 23.985 114.343 24.4154C113.831 24.8159 113.231 25.0889 112.593 25.212C113.169 24.9785 113.689 24.627 114.121 24.1803C114.535 23.7138 114.906 23.2112 115.231 22.6784C115.671 22.1462 116.271 21.7706 116.942 21.6075C117.544 21.4813 118.134 21.3021 118.705 21.0721C119.795 20.5439 120.731 19.7432 121.421 18.7474C122.182 17.7431 122.871 16.6871 123.485 15.5869Z" fill="#263238"/>
<path d="M138.178 42.2941C138.178 42.2941 143.546 36.6653 146.158 38.6635C148.77 40.6616 144.081 49.2942 140.542 50.0387C140.093 50.1638 139.624 50.197 139.162 50.1364C138.7 50.0759 138.256 49.9227 137.854 49.6861C137.453 49.4496 137.104 49.1344 136.827 48.7597C136.551 48.3849 136.353 47.9582 136.245 47.505L138.178 42.2941Z" fill="#F7A9A0"/>
<path d="M144.747 41.1057C144.747 41.1057 144.747 41.184 144.747 41.1971C142.24 41.7979 140.672 43.8091 139.523 45.9117C139.695 45.6976 139.912 45.5234 140.158 45.4013C140.404 45.2792 140.674 45.2121 140.948 45.2046C141.223 45.1972 141.496 45.2496 141.748 45.3581C142 45.4667 142.226 45.6289 142.409 45.8334C142.475 45.8334 142.409 45.964 142.331 45.9378C141.938 45.7428 141.493 45.6757 141.06 45.7459C140.627 45.8162 140.226 46.0203 139.915 46.3297C139.387 46.8412 138.918 47.4107 138.518 48.0274C138.374 48.2233 138.021 48.0274 138.139 47.8185C138.518 44.8016 141.482 40.8837 144.747 41.1057Z" fill="#263238"/>
<path d="M124.634 67.4608L127.52 76.7594L139.64 66.3115L142.513 70.2295C142.513 70.2295 130.106 87.4424 130.093 86.6196L127.011 78.5617L121.226 83.5244L122.754 70.0075L124.634 67.4608Z" fill="#FF6EC9"/>
<path d="M121.606 76.7464C121.933 74.5262 122.194 72.2799 122.625 70.0728C122.625 69.9945 122.769 69.9683 122.782 70.0728C123.056 72.2669 121.75 80.7688 121.593 82.8192C121.841 82.6103 126.948 78.4703 126.987 78.5487C127.692 79.8547 129.965 85.7185 130.108 86.254C132.067 83.5114 139.551 73.599 141.862 71.0392C141.928 70.9739 142.045 71.0392 141.993 71.1307C140.217 74.043 130.239 87.4163 130.161 87.3641C128.945 84.578 127.873 81.7316 126.948 78.836C126.06 79.7632 120.862 84.4778 120.875 84.1383C120.987 81.6631 121.231 79.1956 121.606 76.7464Z" fill="#263238"/>
</svg>
