<svg width="179" height="226" viewBox="0 0 179 226" fill="none" xmlns="http://www.w3.org/2000/svg">
<path d="M162.806 41.0254H1V202.913H162.806V41.0254Z" fill="#FFEF65" stroke="#10121B" stroke-width="2"/>
<path d="M69.9912 0V109.064H179V0H69.9912ZM173.072 103.121H75.9062V5.918H173.072V103.121Z" fill="#FF6EC9"/>
<path d="M54.5091 137.215L63.2628 137.828C66.0482 133.004 67.2756 127.437 66.7768 121.888C66.6767 120.637 69.3403 128.019 67.6897 138.153C76.931 138.791 89.5114 139.667 100.491 140.33C100.904 136.039 101.479 132.085 101.479 132.085C101.701 134.92 102.173 137.729 102.892 140.48C104.393 140.581 105.868 140.656 107.281 140.731C107.494 134.62 108.045 128.526 108.932 122.476C109.434 128.883 110.985 135.164 113.521 141.069C120.512 141.419 125.101 141.519 124.776 141.169C114.772 128.569 122.825 121.938 120.299 111.141C117.286 98.1912 106.356 95.6513 107.119 86.1174C107.732 78.3102 109.345 64.1845 99.6156 60.6938C97.0833 57.967 93.8072 56.0431 90.1931 55.1603C86.579 54.2774 82.7855 54.4743 79.2821 55.7267C63.4129 60.9816 68.49 85.3667 67.202 90.2213C65.3637 97.1527 61.9123 99.4674 59.0611 107.35C56.2099 115.232 59.5988 120.85 59.7614 126.342C59.9239 131.835 52.7584 137.115 54.5091 137.215Z" fill="#263238"/>
<path d="M125.239 139.405C123.894 137.228 122.859 134.874 122.163 132.411C121.647 129.973 121.772 127.442 122.526 125.067C123.208 122.545 123.755 119.989 124.164 117.41C124.574 114.716 124.438 111.967 123.764 109.327C123.031 106.683 121.7 104.243 119.875 102.196C118.105 100.249 116.177 98.454 114.11 96.828C112.11 95.2714 110.323 93.4584 108.795 91.4355C107.333 89.3327 106.468 86.8722 106.294 84.3164C106.072 86.9672 106.657 89.6231 107.97 91.936C109.353 94.1911 111.069 96.2243 113.059 97.9666C114.955 99.6638 116.738 101.482 118.399 103.409C119.968 105.292 121.115 107.489 121.763 109.853C122.342 112.248 122.477 114.728 122.163 117.172C121.901 119.674 121.325 122.177 120.913 124.679C120.669 125.992 120.527 127.322 120.487 128.658C120.479 130.023 120.716 131.38 121.188 132.661C122.13 135.131 123.502 137.414 125.239 139.405Z" fill="#263238"/>
<path d="M70.0171 64.335C68.808 67.2985 67.968 70.3997 67.516 73.5686C66.9783 76.709 66.5906 79.8244 66.2655 83.0399L65.7027 87.7567C65.5447 89.28 65.2389 90.7843 64.7898 92.2484C63.7326 95.1323 62.1654 97.8023 60.1629 100.131C59.159 101.418 58.2439 102.773 57.4242 104.185C56.6008 105.636 55.9463 107.176 55.4734 108.776C55.0526 110.366 54.7474 111.984 54.5605 113.618C54.3564 115.28 54.3564 116.961 54.5605 118.623C54.7731 120.262 55.1608 121.826 55.4734 123.352C55.7908 124.872 55.9666 126.417 55.9986 127.969C55.9729 129.524 55.5786 131.05 54.8481 132.423C54.1176 133.795 53.0719 134.975 51.7969 135.864C53.2398 135.081 54.468 133.954 55.3731 132.584C56.2781 131.214 56.8322 129.642 56.9865 128.007C57.087 126.378 57.0242 124.743 56.799 123.127C56.5864 121.526 56.2612 119.974 56.1612 118.448C55.9821 115.384 56.3678 112.313 57.2991 109.389C57.7626 107.949 58.3745 106.561 59.1249 105.248C59.9183 103.918 60.7998 102.644 61.7635 101.432C62.7642 100.153 63.6951 98.8204 64.5522 97.4408C65.4275 96.0149 66.1207 94.4849 66.6156 92.8865C67.054 91.2951 67.3388 89.6653 67.4659 88.0195C67.6285 86.418 67.7286 84.829 67.8286 83.24C68.0412 80.0621 68.2038 76.8966 68.5039 73.7437C68.679 70.5633 69.1862 67.4098 70.0171 64.335Z" fill="#263238"/>
<path d="M146.361 198.472C146.361 198.285 146.361 198.097 146.261 197.909C146.31 198.141 146.348 198.374 146.373 198.61C146.375 198.564 146.371 198.517 146.361 198.472Z" fill="#FFC727"/>
<path d="M115.049 204.015C115.151 204.083 115.26 204.142 115.374 204.19V204.102L115.036 204.027L115.049 204.015Z" fill="#FFC727"/>
<path d="M70.3048 116.433C50.6465 138.554 26.849 184.184 32.1888 192.904C38.1288 202.613 66.4782 171.109 65.5028 169.683C64.6774 168.431 73.8938 141.181 80.5966 121.225C87.2995 101.269 75.1694 110.965 70.3048 116.433Z" fill="#D3766A"/>
<path d="M70.3048 116.433C50.6465 138.554 26.849 184.184 32.1888 192.904C38.1288 202.613 66.4782 171.109 65.5028 169.683C64.6774 168.431 73.8938 141.181 80.5966 121.225C87.2995 101.269 75.1694 110.965 70.3048 116.433Z" fill="#7471FF"/>
<path d="M72.9549 144.122C71.0291 149.94 69.2784 155.383 67.9528 159.762C64.9141 159.899 56.0228 159.411 46.7939 150.528C49.5701 145.611 52.5713 140.669 55.6727 135.939C60.2769 140.637 66.4046 143.539 72.9549 144.122Z" fill="#EBEBEB"/>
<path d="M51.3455 202.989L56.2725 169.52C56.2725 169.52 48.3693 155.757 52.9587 145.748C55.2722 140.743 71.1663 116.171 79.7199 109.952C87.7483 104.122 98.753 109.439 102.492 114.506C113.247 129.095 118.486 155.344 124.489 202.951L51.3455 202.989Z" fill="#7471FF"/>
<path d="M65.7404 125.416C64.1147 127.643 62.539 129.908 60.9884 132.198C61.4136 131.309 61.8387 130.421 62.2389 129.533C62.2389 129.47 62.2389 129.407 62.1514 129.533C61.5761 130.646 61.0384 131.772 60.5257 132.911C58.4498 135.972 56.4406 139.083 54.4982 142.244C53.655 143.567 52.939 144.966 52.3597 146.423C51.8348 147.852 51.4863 149.339 51.3218 150.852C51.1406 152.368 51.1154 153.898 51.2468 155.419C51.3484 156.981 51.5699 158.533 51.9096 160.061C52.294 161.801 52.8382 163.501 53.5352 165.141C53.8854 165.941 54.248 166.73 54.6482 167.518C55.0484 168.306 55.7362 169.67 55.7362 169.72C55.5861 170.521 55.436 171.084 55.336 171.759C55.2359 172.435 55.1234 173.136 55.0234 173.824C54.8108 175.2 53.035 188.562 52.8349 189.939C52.4348 192.666 52.0846 195.394 51.747 198.134C51.5594 199.71 51.4469 201.287 51.2343 202.851C51.2343 202.913 51.3219 202.938 51.3344 202.851C51.5595 201.487 51.897 200.148 52.1346 198.784C52.3722 197.421 52.6349 196.057 52.8975 194.693C53.4102 191.941 55.3985 177.177 55.8237 174.412C55.9488 173.649 56.0614 172.885 56.1864 172.11C56.3546 171.285 56.4509 170.448 56.474 169.607C55.128 166.844 53.991 163.983 53.0725 161.049C52.6346 159.558 52.3127 158.036 52.1097 156.495C51.9659 154.993 51.9659 153.481 52.1097 151.978C52.2328 150.471 52.5221 148.981 52.9725 147.537C53.4754 146.068 54.1204 144.651 54.8983 143.308C56.499 140.468 58.1997 137.678 59.9004 134.913C61.8513 131.776 63.8354 128.653 65.853 125.541C65.853 125.541 65.7779 125.366 65.7404 125.416Z" fill="#263238"/>
<path d="M32.1892 192.905C37.1913 199.348 49.9842 199.961 82.0227 204.515C86.4495 205.153 99.3175 175.05 94.6155 174.137C88.7005 172.974 65.4782 169.771 63.7525 169.758C49.1838 169.583 28.7753 188.538 32.1892 192.905Z" fill="#D3766A"/>
<path d="M88.1988 173.011C88.1988 173.011 101.742 174.35 108.645 177.252C115.759 180.447 121.991 185.325 126.803 191.465C132.005 198.059 140.008 217.615 134.781 220.905C130.054 223.883 122.876 203.477 122.876 203.477C122.876 203.477 133.618 223.07 127.265 225.61C120.913 228.15 113.922 203.99 113.922 203.99C113.922 203.99 124.514 224.371 117.549 225.947C112.284 227.199 104.731 205.629 104.731 205.629C104.731 205.629 113.71 223.207 108.345 224.659C102.417 226.273 94.2014 206.855 94.2014 206.855C79.9454 208.269 72.5672 203.101 67.7652 198.81C66.5397 197.771 88.1988 173.011 88.1988 173.011Z" fill="#D3766A"/>
<path d="M119.525 196.471C120.876 198.723 122.251 201 123.389 203.365C124.527 205.729 125.59 208.144 126.503 210.609C127.77 213.801 128.66 217.131 129.154 220.531C127.829 214.563 123.877 206.03 122.726 203.652C121.576 201.275 120.575 198.873 119.438 196.508L119.525 196.471Z" fill="#263238"/>
<path d="M110.909 200.436C112.497 203.389 114.198 206.267 115.661 209.282C117.124 212.297 118.162 215.288 119.412 218.39C119.512 218.628 119.412 218.603 119.237 218.39C117.874 215.338 116.374 212.623 114.973 209.632C113.572 206.642 112.284 203.514 110.771 200.536C110.809 200.411 110.884 200.386 110.909 200.436Z" fill="#263238"/>
<path d="M102.893 202.501C105.461 206.971 107.556 211.697 109.146 216.601C109.233 216.839 109.033 216.789 108.933 216.539C106.945 211.822 105.432 208.093 102.768 202.601C102.705 202.513 102.843 202.413 102.893 202.501Z" fill="#263238"/>
<path d="M98.4285 173.249L72.0548 204.303C72.0548 204.303 36.0397 201.8 31.8879 192.292C27.7362 182.783 55.1602 168.957 63.7138 169.771C72.2674 170.584 98.4285 173.249 98.4285 173.249Z" fill="#455A64"/>
<path d="M49.8332 173.824C51.9091 172.398 57.7865 169.045 63.714 169.708V169.808C58.8495 169.958 51.9966 172.698 49.8832 173.899C49.8332 173.937 49.7832 173.849 49.8332 173.824Z" fill="#263238"/>
<path d="M66.478 198.935C76.8448 187.95 86.0737 174.825 87.8494 172.661C87.9245 172.561 87.7495 172.436 87.6744 172.536C86.0487 174.763 73.9186 188.613 66.2904 198.81C66.2028 198.923 66.3779 199.035 66.478 198.935Z" fill="#263238"/>
<path d="M39.1553 131.172L27.4648 188.457L71.439 197.44L83.1295 140.155L39.1553 131.172Z" fill="#FFC727"/>
<path d="M72.338 134.857L51.501 130.577L50.2035 136.901L71.0405 141.181L72.338 134.857Z" fill="#EBEBEB"/>
<path d="M67.5912 133.912L65.0276 133.374L65.6153 130.471L59.3877 129.183L58.7874 132.098L56.2239 131.573L57.3118 126.268L68.7166 128.607L67.5912 133.912Z" fill="#EBEBEB"/>
<path d="M107.757 121.488C128.941 148.45 136.932 196.958 125.177 200.711C114.435 204.164 70.2541 193.104 57.086 188.625C53.2219 187.311 65.1645 157.246 69.3037 158.597C74.3058 160.286 101.617 166.767 102.155 166.78C103.293 166.78 97.2154 136.977 94.6518 123.452C90.9753 104.634 99.804 111.353 107.757 121.488Z" fill="#D3766A"/>
<path d="M33.9754 147.312C33.3468 148.079 32.9689 149.021 32.8929 150.01C32.8169 150.999 33.0463 151.987 33.5501 152.842C31.936 153.328 30.5426 154.364 29.611 155.769C28.0853 158.272 31.4243 161.837 31.4243 161.837C29.8526 162.69 28.5753 163.999 27.7602 165.591C26.5097 168.181 29.4109 172.21 29.4109 172.21C28.3994 173.785 27.9909 175.674 28.2604 177.527C29.1858 182.457 36.3013 185.259 40.7657 187.086C45.2301 188.913 59.7737 189.851 62.5124 190.314L74.4674 161.45C74.4674 161.45 56.5723 147.524 50.9575 146.123C46.293 144.947 36.4889 144.409 33.9754 147.312Z" fill="#D3766A"/>
<path d="M33.9392 152.467C39.2665 152.467 44.2811 154.118 49.3833 155.445C49.4958 155.445 49.3833 155.645 49.3833 155.62C44.3812 154.243 39.0539 153.893 33.9517 152.717C33.9186 152.719 33.8861 152.707 33.8615 152.685C33.8368 152.663 33.8221 152.631 33.8205 152.598C33.8188 152.565 33.8304 152.532 33.8527 152.508C33.875 152.483 33.9061 152.468 33.9392 152.467Z" fill="#263238"/>
<path d="M31.6752 161.5C32.8825 161.622 34.0683 161.904 35.2017 162.338C36.4522 162.726 37.7027 163.126 38.8532 163.589C41.3542 164.44 43.6928 165.353 46.0813 166.329C46.1813 166.329 46.0813 166.542 46.0813 166.504C43.6552 165.67 41.2167 164.874 38.7656 164.115C37.5151 163.739 36.2646 163.376 35.0766 163.026C33.8877 162.769 32.7304 162.383 31.6252 161.875C31.6005 161.872 31.5768 161.864 31.5553 161.851C31.5338 161.839 31.5149 161.822 31.4998 161.802C31.4848 161.783 31.4737 161.76 31.4673 161.736C31.4609 161.712 31.4593 161.687 31.4626 161.662C31.4659 161.638 31.474 161.614 31.4865 161.592C31.4989 161.571 31.5155 161.552 31.5352 161.537C31.555 161.522 31.5775 161.511 31.6015 161.504C31.6255 161.498 31.6505 161.496 31.6752 161.5Z" fill="#263238"/>
<path d="M29.5122 172.223C30.6038 172.356 31.665 172.674 32.651 173.161C33.739 173.574 34.8519 173.974 35.9524 174.412C38.1533 175.2 40.3667 176.001 42.5927 176.714C42.6118 176.721 42.6283 176.734 42.64 176.751C42.6516 176.768 42.6579 176.788 42.6579 176.808C42.6579 176.829 42.6516 176.849 42.64 176.865C42.6283 176.882 42.6118 176.895 42.5927 176.902C40.3292 176.176 38.0408 175.488 35.7773 174.75L32.4509 173.636C31.4029 173.403 30.4068 172.979 29.5122 172.385C29.5015 172.385 29.491 172.383 29.4811 172.379C29.4712 172.375 29.4623 172.369 29.4547 172.361C29.4472 172.354 29.4412 172.345 29.4371 172.335C29.433 172.325 29.4309 172.315 29.4309 172.304C29.4309 172.293 29.433 172.283 29.4371 172.273C29.4412 172.263 29.4472 172.254 29.4547 172.246C29.4623 172.239 29.4712 172.233 29.4811 172.229C29.491 172.225 29.5015 172.223 29.5122 172.223Z" fill="#263238"/>
<path d="M101.793 165.566C102.13 165.353 95.7903 136.577 93.6644 121.55C91.5385 106.524 98.2413 107.975 107.883 120.812C118.225 134.575 136.645 171.809 130.255 199.385C128.191 208.318 64.252 195.807 64.252 195.807L72.8681 159.035C72.8681 159.035 101.23 165.879 101.793 165.566Z" fill="#7471FF"/>
<path d="M127.817 162.839C117.388 165.892 106.07 164.341 101.456 163.478C100.793 159.862 99.18 152.029 97.5293 143.572C108.484 144.823 115.912 143.221 119.976 141.857C123.137 148.634 125.759 155.65 127.817 162.839Z" fill="#EBEBEB"/>
<path d="M72.5801 192.029C76.4692 179.217 78.6077 165.179 79.1579 162.751C79.1579 162.639 78.9953 162.614 78.9828 162.751C78.5701 165.154 74.3683 180.943 72.38 192.016C72.355 192.116 72.5426 192.141 72.5801 192.029Z" fill="#263238"/>
<path d="M113.773 169.82C112.523 169.607 79.8966 160.411 72.7686 159.298C72.6561 159.298 72.7686 158.91 72.8687 158.935C86.8746 161.383 100.69 164.82 114.211 169.219C115.837 169.87 116.074 170.22 113.773 169.82Z" fill="#263238"/>
<path d="M101.443 165.854C101.443 165.854 99.2916 154.769 98.9415 154.081C98.5913 153.393 97.691 151.791 97.3408 151.053C96.628 149.564 96.0153 148.038 95.365 146.524C95.365 146.399 95.5026 146.311 95.5526 146.436C96.2654 147.887 97.0907 149.289 97.9286 150.678C98.3412 151.353 98.7539 152.041 99.1791 152.704C99.1791 152.704 97.1658 141.944 96.8782 140.043C96.8782 139.905 97.0032 139.855 97.0532 140.043C97.666 141.957 101.943 163.615 102.531 166.017C102.164 165.989 101.801 165.935 101.443 165.854Z" fill="#263238"/>
<path d="M77.382 198.084C75.2435 197.496 66.7025 196.12 64.6266 195.82C65.0131 194.285 65.2641 192.719 65.3769 191.141C65.3683 191.125 65.3556 191.112 65.3402 191.103C65.3248 191.094 65.3072 191.089 65.2894 191.089C65.2715 191.089 65.2539 191.094 65.2385 191.103C65.2231 191.112 65.2105 191.125 65.2018 191.141C64.5485 192.884 64.026 194.674 63.6387 196.496C63.6387 196.671 75.1435 198.122 77.3945 198.235C77.4195 198.21 77.4445 198.109 77.382 198.084Z" fill="#263238"/>
<path d="M74.5186 112.667C74.5186 112.667 75.3689 121.125 82.3843 122.439C89.3998 123.753 102.493 114.544 102.493 114.544C100.693 112.359 98.4401 110.592 95.8899 109.365C93.3398 108.138 90.5535 107.48 87.7241 107.438C78.5828 107.425 74.5186 112.667 74.5186 112.667Z" fill="#D3766A"/>
<path d="M94.64 110.303C94.2648 111.554 87.6495 119.587 81.7845 118.973C79.8712 118.761 80.534 108.276 80.534 108.276L80.409 107.5L78.5957 96.5151L91.8013 89.0081L93.7021 88.0322C93.7021 88.0322 94.0022 91.0725 94.3274 94.8636C94.3274 95.0387 94.3274 95.2139 94.3274 95.4016C94.3274 95.5893 94.3273 95.8145 94.3899 96.0147C94.3899 96.5777 94.5024 97.1532 94.5399 97.7287C94.5774 98.3043 94.615 98.6046 94.64 99.055L94.715 100.431C94.9152 103.72 94.8901 107.018 94.64 110.303Z" fill="#D3766A"/>
<path d="M94.2893 94.9136C93.0191 97.8951 91.1165 100.565 88.7133 102.738C86.3101 104.911 83.4637 106.536 80.3709 107.5L78.5576 96.5151L91.7632 89.0081L93.664 88.0322C93.664 88.0322 93.9766 91.1226 94.2893 94.9136Z" fill="#263238"/>
<path d="M65.8778 76.008C60.7382 94.8505 71.4551 100.068 75.5193 101.169C79.2709 102.17 91.8887 105.11 98.9542 86.8931C106.02 68.6761 98.8792 60.3184 90.5507 57.5783C82.2222 54.8383 71.0175 57.1529 65.8778 76.008Z" fill="#D3766A"/>
<path d="M72.6685 72.3172C73.1312 72.3172 73.5563 72.3172 74.019 72.3172C74.4898 72.3951 74.9732 72.316 75.3946 72.092C75.5174 71.9981 75.6042 71.8648 75.6406 71.7145C75.677 71.5642 75.6608 71.406 75.5947 71.2662C75.43 71.0083 75.1994 70.7992 74.9267 70.6606C74.654 70.522 74.3493 70.4589 74.044 70.478C73.4141 70.4156 72.7841 70.5944 72.2808 70.9785C72.1626 71.0708 72.0748 71.1964 72.0286 71.3391C71.9825 71.4818 71.9801 71.635 72.0218 71.7791C72.0635 71.9231 72.1475 72.0514 72.2627 72.1473C72.378 72.2432 72.5193 72.3024 72.6685 72.3172Z" fill="#263238"/>
<path d="M86.0991 74.1941C85.6708 74.033 85.2532 73.8449 84.8486 73.6311C84.3865 73.5001 83.9815 73.2183 83.6981 72.8303C83.6329 72.6915 83.6159 72.5348 83.6499 72.3852C83.6839 72.2355 83.7669 72.1016 83.8857 72.0046C84.1496 71.8444 84.4524 71.7598 84.7611 71.7598C85.0697 71.7598 85.3725 71.8444 85.6364 72.0046C86.2292 72.2347 86.7121 72.6821 86.987 73.2557C87.0269 73.3815 87.0325 73.5156 87.0031 73.6442C86.9736 73.7728 86.9103 73.8911 86.8197 73.9869C86.729 74.0827 86.6144 74.1525 86.4876 74.1889C86.3609 74.2254 86.2268 74.2271 86.0991 74.1941Z" fill="#263238"/>
<path d="M81.7841 80.2246C81.7841 80.2246 81.8592 80.3122 81.7841 80.3622C81.4213 81.6134 81.2336 83.1774 82.2971 83.8905C82.2971 83.8905 82.2971 83.9781 82.2971 83.9531C80.9583 83.4026 81.2461 81.3757 81.7841 80.2246Z" fill="#263238"/>
<path d="M83.2712 79.1609C85.3971 79.5112 84.5217 83.7276 82.5709 83.3898C80.6201 83.052 81.5079 78.8606 83.2712 79.1609Z" fill="#263238"/>
<path d="M84.0601 79.5491C84.3728 79.8619 84.6479 80.3624 85.0856 80.5C85.5233 80.6376 86.061 80.2873 86.4862 79.937C86.4862 79.937 86.5612 79.937 86.4862 79.9995C86.3236 80.8128 85.8484 81.576 84.9605 81.5134C84.0726 81.4509 83.71 80.6251 83.71 79.7743C83.76 79.6242 83.9351 79.424 84.0601 79.5491Z" fill="#263238"/>
<path d="M74.0312 77.6475C74.0312 77.6475 73.9187 77.6475 73.9062 77.7476C73.6686 79.0613 73.1808 80.5126 71.9053 80.6878V80.7629C73.3809 80.8755 74.0187 78.9362 74.0312 77.6475Z" fill="#263238"/>
<path d="M73.1686 76.0458C71.1052 75.4327 70.0423 79.5991 71.9181 80.1621C73.7939 80.7251 74.8943 76.5588 73.1686 76.0458Z" fill="#263238"/>
<path d="M72.2299 76.0954C71.8422 76.233 71.417 76.5458 70.9793 76.4708C70.5416 76.3957 70.2915 75.8452 70.1165 75.3447C70.1165 75.3447 70.0539 75.3447 70.0414 75.3447C69.8163 76.133 69.8664 77.0338 70.5917 77.3841C71.317 77.7344 71.9298 77.1464 72.3299 76.4082C72.4425 76.2956 72.3799 76.0454 72.2299 76.0954Z" fill="#263238"/>
<path d="M78.4576 90.0842C78.095 90.3345 77.7198 90.7098 77.2071 90.6723C76.7237 90.5842 76.2638 90.3968 75.8565 90.1218C75.8565 90.1218 75.769 90.1218 75.7815 90.1218C75.9284 90.4099 76.1497 90.6534 76.4223 90.8272C76.695 91.001 77.0091 91.0987 77.3321 91.1102C77.6163 91.0862 77.8869 90.9782 78.1095 90.8C78.3322 90.6218 78.4969 90.3813 78.5827 90.1093C78.6077 90.0842 78.5202 90.0467 78.4576 90.0842Z" fill="#263238"/>
<path d="M74.0557 84.1905C74.0557 84.1905 73.3679 86.0798 73.1678 86.9932C73.1678 87.0807 73.3554 87.1683 73.668 87.2559C74.4209 87.5746 75.2475 87.6779 76.0557 87.5542C76.8638 87.4304 77.6217 87.0846 78.2449 86.5552C78.3325 86.4802 78.245 86.3676 78.1324 86.4051C76.793 86.9464 75.3143 87.0386 73.9181 86.6679C73.9181 86.4051 75.1687 83.4899 75.0686 83.4399C74.3425 83.3404 73.6063 83.3404 72.8802 83.4399C74.2183 79.4737 76.1691 75.7577 77.4321 71.7915C77.4321 71.6414 77.2696 71.5538 77.207 71.6789C74.9909 75.5995 73.1727 79.7323 71.7797 84.0154C71.6171 84.5409 73.6555 84.2656 74.0557 84.1905Z" fill="#263238"/>
<path d="M74.0312 86.9682C74.3794 87.803 74.9347 88.535 75.6445 89.0952C76.0439 89.3885 76.5246 89.5503 77.02 89.5581C78.0955 89.5581 78.3706 88.6323 78.3956 87.794C78.4063 87.3485 78.3643 86.9034 78.2706 86.4678C76.9456 87.0777 75.4617 87.2529 74.0312 86.9682Z" fill="#263238"/>
<path d="M75.6445 89.0957C76.044 89.389 76.5247 89.5508 77.0201 89.5587C78.0955 89.5587 78.3706 88.6328 78.3956 87.7945C77.8579 87.6785 77.2969 87.7431 76.7995 87.9783C76.3021 88.2136 75.8962 88.6063 75.6445 89.0957Z" fill="#FF9CBD"/>
<path d="M97.9021 86.5801C95.8887 85.8669 92.1746 78.7103 94.8508 68.7885C94.8508 68.7885 93.0625 77.872 93.3626 79.3609C93.6628 80.8498 91.2868 75.3321 93.3626 67.2997C90.3396 68.3812 87.1766 69.0217 83.9712 69.2014C79.9195 69.2014 77.6185 68.4758 77.4309 68.1254C77.2434 67.7751 83.2709 67.625 85.2592 66.3238C85.2592 66.3238 73.9295 68.1129 69.215 67.137C68.6772 67.0244 71.1783 55.8765 79.6443 53.2616C88.1104 50.6467 97.9521 58.9169 100.153 62.7204C100.153 62.7204 103.567 64.2468 105.93 70.6403C108.294 77.0337 100.065 87.3433 97.9021 86.5801Z" fill="#263238"/>
<path d="M94.9891 86.9937C94.9891 86.9937 100.266 81.7513 102.717 83.7406C105.168 85.73 100.429 93.8625 97.0275 94.4631C96.5977 94.5723 96.1503 94.5938 95.7121 94.5262C95.2739 94.4587 94.8538 94.3035 94.4769 94.07C94.0999 93.8364 93.7738 93.5293 93.5181 93.1669C93.2623 92.8046 93.0821 92.3943 92.9883 91.9608L94.9891 86.9937Z" fill="#D3766A"/>
<path d="M101.305 86.0423C101.305 86.0423 101.305 86.1173 101.305 86.1298C98.9036 86.6303 97.3404 88.4945 96.1274 90.4964C96.2976 90.2938 96.51 90.1309 96.7498 90.0191C96.9896 89.9074 97.251 89.8495 97.5155 89.8495C97.7801 89.8495 98.0414 89.9074 98.2812 90.0191C98.521 90.1309 98.7334 90.2938 98.9036 90.4964C98.9036 90.4964 98.9036 90.6215 98.8161 90.5965C98.4451 90.399 98.022 90.3218 97.6052 90.3756C97.1885 90.4294 96.7988 90.6115 96.4901 90.8968C95.979 91.3784 95.518 91.9108 95.1145 92.4857C94.9644 92.6734 94.6268 92.4857 94.7518 92.2855C95.2396 89.3578 98.1783 85.767 101.305 86.0423Z" fill="#263238"/>
<path d="M115.087 204.027L115.412 204.102L115.087 204.027Z" fill="#D3766A"/>
<path d="M146.261 197.909C146.31 198.141 146.348 198.374 146.373 198.61C146.38 198.564 146.38 198.518 146.373 198.472C146.336 198.285 146.298 198.097 146.261 197.909Z" fill="#FFC727"/>
<path d="M146.261 197.909C146.31 198.141 146.348 198.374 146.373 198.61C146.38 198.564 146.38 198.518 146.373 198.472C146.336 198.285 146.298 198.097 146.261 197.909Z" fill="#FFC727"/>
<path d="M113.609 207.431L114.623 207.668L113.609 207.431Z" fill="#FFC727"/>
<path d="M146.261 197.909C146.31 198.141 146.348 198.374 146.373 198.61C146.38 198.564 146.38 198.518 146.373 198.472C146.336 198.285 146.298 198.097 146.261 197.909Z" fill="#DBDBDB"/>
</svg>
