<svg width="211" height="194" viewBox="0 0 211 194" fill="none" xmlns="http://www.w3.org/2000/svg">
<path d="M0.113281 14.0439V65.0528H51.1869V14.0439H0.113281ZM3.99918 61.2446V17.891H47.3269V61.2446H3.99918Z" fill="#10121B"/>
<path d="M209.679 1H36.4072V160.568H209.679V1Z" fill="#A3A2FF" stroke="#10121B" stroke-width="2"/>
<path d="M153.995 80.1296C175.109 101.528 201.662 146.54 196.74 155.671C191.222 165.84 161.832 135.84 161.935 134.079C162.026 132.783 151.69 105.414 143.801 85.531C135.913 65.6482 148.775 74.8318 153.995 80.1296Z" fill="#F7A9A0"/>
<path d="M161.715 134.117C160.822 131.19 146.742 95.1418 142.726 83.7302C138.711 72.3186 142.428 68.8084 153.918 79.2485C165.407 89.6886 190.587 124.584 196.339 143.094C201.87 160.904 192.686 160.904 180.614 152.705C170.653 145.982 161.715 134.117 161.715 134.117Z" fill="#FFC727"/>
<path opacity="0.1" d="M151.921 80.4277C151.647 82.0275 150.959 83.5278 149.927 84.7799C150.057 83.9824 150.297 83.2066 150.639 82.4743C150.974 81.7386 151.406 81.0504 151.921 80.4277ZM186.739 130.012C186.388 130.74 186.147 131.518 186.026 132.317C186.554 131.701 186.99 131.012 187.322 130.271C187.664 129.539 187.903 128.763 188.034 127.965C187.502 128.579 187.066 129.268 186.739 130.012ZM174.291 111.062C173.942 111.795 173.702 112.577 173.579 113.38C174.104 112.757 174.54 112.064 174.874 111.321C175.219 110.59 175.459 109.813 175.586 109.015C175.062 109.634 174.626 110.322 174.291 111.062ZM161.338 106.308C160.609 105.956 159.832 105.716 159.032 105.595C160.285 106.628 161.785 107.316 163.385 107.59C162.775 107.069 162.095 106.637 161.364 106.308H161.338ZM172.996 125.465C172.262 125.116 171.481 124.876 170.677 124.753C171.3 125.278 171.994 125.714 172.737 126.048C173.468 126.394 174.244 126.633 175.042 126.761C174.432 126.238 173.752 125.802 173.022 125.465H172.996ZM163.514 92.6554C162.786 92.304 162.008 92.0639 161.209 91.9429C161.825 92.4705 162.514 92.9067 163.255 93.2382C163.985 93.5878 164.761 93.8278 165.561 93.9507C164.952 93.4252 164.272 92.989 163.54 92.6554H163.514ZM156.286 118.237C156.561 118.999 156.94 119.718 157.413 120.375C157.255 118.757 156.679 117.208 155.742 115.88C155.826 116.688 156.018 117.481 156.312 118.237H156.286ZM180.677 141.061C180.948 141.823 181.328 142.543 181.804 143.198C181.646 141.58 181.07 140.031 180.133 138.703C180.208 139.512 180.4 140.306 180.703 141.061H180.677ZM164.253 137.175L164.68 137.68C165.387 137.419 166.053 137.062 166.662 136.618C165.843 136.699 165.04 136.9 164.278 137.214L164.253 137.175ZM193.151 150.801C193.913 150.53 194.633 150.15 195.288 149.674C194.48 149.742 193.686 149.925 192.93 150.218C192.166 150.485 191.445 150.865 190.793 151.345C191.607 151.286 192.409 151.117 193.177 150.84L193.151 150.801ZM149.797 97.9661C149.269 98.1613 148.758 98.3996 148.269 98.6785L148.385 99.0023C148.938 98.9047 149.481 98.7528 150.004 98.549C150.773 98.2828 151.498 97.903 152.154 97.4221C151.354 97.5091 150.57 97.7052 149.823 98.0049L149.797 97.9661Z" fill="black"/>
<path d="M159.188 160.607H78.8799C78.8799 160.607 91.6386 97.6555 122.415 70.4024C126.223 67.0346 134.798 67.8118 140.407 70.5837C142.401 71.5811 149.577 81.6197 151.624 91.1142C153.67 100.609 159.422 160.322 159.188 160.607Z" fill="#FFC727"/>
<path d="M152.376 95.0387C153.01 97.1629 153.529 99.352 153.956 101.515C153.95 101.429 153.95 101.342 153.956 101.256C153.956 99.9608 153.956 98.7562 154.124 97.5127C154.124 97.5127 154.241 97.435 154.241 97.5127C154.405 98.7622 154.44 100.025 154.345 101.282C154.345 101.865 154.28 102.461 154.228 103.057C154.396 104.041 154.552 105.038 154.668 106.023C154.914 107.888 155.536 114.87 155.588 116.256C155.588 116.541 155.264 116.592 155.186 116.256C154.811 114.857 153.813 107.655 153.49 105.803C152.863 102.215 152.431 98.5955 152.194 94.9609C152.233 94.9609 152.35 94.9609 152.376 95.0387Z" fill="#263238"/>
<path opacity="0.1" d="M127.506 86.8391C127.374 87.6381 127.13 88.4144 126.781 89.1448C126.454 89.888 126.017 90.5779 125.485 91.1913C125.619 90.3928 125.863 89.6167 126.211 88.8857C126.54 88.144 126.977 87.4546 127.506 86.8391ZM116.625 118.807C116.274 119.536 116.034 120.313 115.913 121.113C116.946 119.861 117.633 118.36 117.908 116.761C117.385 117.378 116.953 118.067 116.625 118.807ZM90.551 130.245C90.2015 130.978 89.9615 131.76 89.8386 132.563C90.3634 131.944 90.7993 131.256 91.1339 130.517C91.4834 129.783 91.7234 129.002 91.8463 128.198C91.3216 128.817 90.8856 129.506 90.551 130.245ZM109.721 150.749C109.37 151.478 109.13 152.255 109.009 153.055C109.529 152.433 109.965 151.745 110.304 151.008C110.642 150.27 110.882 149.49 111.017 148.69C110.487 149.31 110.051 150.003 109.721 150.749ZM143.179 111.139C142.835 111.875 142.595 112.655 142.467 113.457C142.996 112.838 143.432 112.144 143.762 111.398C144.113 110.669 144.353 109.892 144.474 109.092C143.954 109.714 143.518 110.402 143.179 111.139ZM153.723 132.887C153.373 133.621 153.133 134.402 153.01 135.206C153.535 134.587 153.971 133.898 154.306 133.159C154.655 132.425 154.895 131.644 155.018 130.84C154.497 131.462 154.061 132.15 153.723 132.887ZM128.205 148.56C127.867 149.298 127.628 150.078 127.493 150.879C128.022 150.259 128.459 149.565 128.788 148.819C129.138 148.089 129.382 147.313 129.514 146.514C128.985 147.132 128.545 147.821 128.205 148.56ZM103.763 106.165C103.415 106.896 103.171 107.672 103.038 108.471C103.57 107.857 104.006 107.167 104.333 106.424C104.683 105.694 104.927 104.917 105.058 104.118C104.529 104.734 104.093 105.423 103.763 106.165ZM134.099 99.0149C133.37 98.6636 132.593 98.4235 131.793 98.3025C132.41 98.8301 133.099 99.2663 133.84 99.5978C134.572 99.9415 135.348 100.181 136.146 100.31C135.529 99.7827 134.84 99.3464 134.099 99.0149ZM139.164 124.843C138.435 124.492 137.658 124.252 136.858 124.131C137.478 124.654 138.166 125.09 138.904 125.426C139.635 125.772 140.412 126.011 141.21 126.138C140.597 125.607 139.907 125.17 139.164 124.843ZM91.9629 152.213C91.2326 151.863 90.4563 151.619 89.6573 151.487C90.2706 152.019 90.9605 152.456 91.7038 152.783C92.4356 153.129 93.2114 153.373 94.0095 153.508C93.3961 152.976 92.7062 152.54 91.9629 152.213ZM139.993 157.394C139.261 157.05 138.485 156.811 137.687 156.682C138.304 157.209 138.993 157.645 139.733 157.977L140.226 158.197C140.653 158.197 141.068 158.197 141.521 158.275C141.039 157.947 140.527 157.665 139.993 157.433V157.394ZM110.006 131.255C109.275 130.909 108.499 130.67 107.701 130.542C108.314 131.074 109.004 131.511 109.747 131.838C110.477 132.185 111.254 132.425 112.053 132.55C111.431 132.041 110.742 131.618 110.006 131.294V131.255ZM134.099 76.114C133.369 75.7643 132.592 75.52 131.793 75.3887C132.41 75.9157 133.1 76.3518 133.84 76.684C134.574 77.0218 135.349 77.2614 136.146 77.3964C135.529 76.8827 134.839 76.4637 134.099 76.1529V76.114ZM139.28 88.0955C139.549 88.8592 139.929 89.5793 140.407 90.2328C140.335 89.4257 140.152 88.6324 139.863 87.8753C139.589 87.1138 139.21 86.3944 138.736 85.7381C138.81 86.5602 139.002 87.3673 139.306 88.1344L139.28 88.0955ZM152.117 147.874C152.383 148.639 152.763 149.359 153.243 150.011C153.085 148.393 152.51 146.844 151.572 145.516C151.64 146.324 151.823 147.118 152.117 147.874ZM117.675 103.147C117.951 103.907 118.33 104.626 118.801 105.284C118.739 104.477 118.56 103.683 118.27 102.927C117.994 102.166 117.615 101.447 117.143 100.789C117.192 101.593 117.349 102.386 117.61 103.147H117.675ZM127.597 129.441C127.865 130.205 128.245 130.925 128.723 131.579C128.655 130.771 128.471 129.977 128.179 129.221C127.905 128.46 127.526 127.741 127.053 127.084C127.089 127.888 127.242 128.682 127.506 129.441H127.597ZM81.6005 160.283C81.5941 160.39 81.5941 160.499 81.6005 160.606H81.8078L81.6005 160.283ZM104.191 160.179C103.919 159.412 103.54 158.688 103.064 158.029C103.129 158.837 103.313 159.631 103.608 160.386L103.685 160.606H104.333C104.19 160.464 104.191 160.321 104.191 160.179ZM99.5792 141.643C99.8535 142.405 100.233 143.124 100.706 143.78C100.64 142.972 100.457 142.178 100.162 141.423C99.8934 140.659 99.5137 139.939 99.0352 139.286C99.0832 140.09 99.2446 140.884 99.5145 141.643H99.5792ZM119.009 79.7538C119.272 80.52 119.652 81.2409 120.136 81.8911C120.067 81.0835 119.884 80.2897 119.592 79.5336C119.317 78.7722 118.938 78.0529 118.465 77.3964C118.514 78.2019 118.68 78.996 118.957 79.7538H119.009ZM140.459 140.413C141.22 140.139 141.94 139.759 142.596 139.286C141.789 139.349 140.995 139.528 140.239 139.817C139.478 140.094 138.759 140.473 138.101 140.944C138.909 140.881 139.703 140.702 140.459 140.413ZM119.423 159.739C120.186 159.467 120.906 159.087 121.56 158.612C119.943 158.77 118.394 159.345 117.066 160.283C117.874 160.215 118.668 160.032 119.423 159.739ZM83.686 142.239C83.686 142.42 83.5694 142.602 83.5176 142.783C83.9046 142.593 84.2732 142.368 84.6186 142.11C84.3052 142.132 83.9936 142.175 83.686 142.239ZM102.001 119.973C102.768 119.702 103.492 119.322 104.152 118.846C103.344 118.912 102.549 119.095 101.794 119.39C101.027 119.661 100.303 120.041 99.644 120.517C100.451 120.445 101.244 120.262 102.001 119.973ZM118.84 141.242C119.617 140.995 120.355 140.637 121.029 140.179C119.412 140.338 117.863 140.913 116.535 141.85C117.333 141.759 118.113 141.554 118.853 141.242H118.84ZM128.801 110.737C129.566 110.461 130.289 110.082 130.951 109.61C130.144 109.672 129.35 109.851 128.594 110.142C127.832 110.416 127.113 110.795 126.457 111.268C127.26 111.206 128.049 111.027 128.801 110.737ZM149.979 98.5875C150.748 98.3213 151.473 97.9415 152.13 97.4606C151.321 97.5264 150.527 97.7096 149.772 98.0046C149.008 98.2733 148.288 98.653 147.635 99.1315C148.456 99.0691 149.263 98.8857 150.031 98.5875H149.979ZM112.118 91.4892C112.88 91.2177 113.6 90.8381 114.255 90.3623C112.637 90.5204 111.088 91.0962 109.76 92.0333C110.586 91.971 111.397 91.7877 112.17 91.4892H112.118Z" fill="black"/>
<path d="M52.9603 45.6226C52.7919 41.7367 53.5691 24.03 54.8903 19.1467C56.2115 14.2635 61.03 0.468528 64.877 1.10322C68.724 1.73792 67.636 5.88288 67.636 5.88288C67.636 5.88288 70.5893 0.377863 74.4104 1.36229C78.2315 2.34672 76.3145 8.75844 76.3145 8.75844C76.3145 8.75844 79.76 3.33114 83.5034 4.58758C87.2468 5.84402 84.2417 11.9578 84.2417 11.9578C84.2417 11.9578 87.1562 6.85436 89.7986 9.18589C92.972 11.9837 86.5214 20.8436 85.4722 26.2968C85.2261 27.5921 82.4154 51.9825 82.4154 51.9825L52.9603 45.6226Z" fill="#F7A9A0"/>
<path d="M84.4894 11.4656C79.7486 17.9421 78.8031 21.6207 78.2849 29.5091C78.2849 29.6645 78.0388 29.6775 78.0388 29.5091C77.8445 21.7373 78.3756 16.9706 84.1785 11.2065C84.4635 10.9475 84.7614 11.1677 84.4894 11.4656Z" fill="#263238"/>
<path d="M76.7038 8.29237C72.3775 15.4554 71.3154 19.419 70.1496 27.6312C70.1496 27.7478 69.9424 27.7348 69.9424 27.6312C70.4087 19.4708 71.0434 14.6782 76.3023 8.2017C76.5484 7.82607 76.8981 7.9556 76.7038 8.29237Z" fill="#263238"/>
<path d="M67.586 6.33696C63.9073 13.5777 62.5602 17.8781 62.4048 25.9996C62.3952 26.0317 62.3756 26.0598 62.3487 26.0798C62.3219 26.0998 62.2893 26.1106 62.2558 26.1106C62.2223 26.1106 62.1898 26.0998 62.1629 26.0798C62.1361 26.0598 62.1164 26.0317 62.1069 25.9996C61.4074 17.7097 63.0524 12.3342 67.2881 6.23333C67.6508 5.83179 67.8191 5.8836 67.586 6.33696Z" fill="#263238"/>
<path d="M82.1702 57.0735C82.1702 57.0735 89.4886 50.1696 92.0404 46.4391C94.5921 42.7087 98.9702 25.261 95.2527 24.0952C90.4601 22.6056 85.9525 32.1649 84.3593 37.1389C84.3593 37.1389 73.2715 33.6675 68.5566 39.8331C63.8417 45.9987 82.1702 57.0735 82.1702 57.0735Z" fill="#F7A9A0"/>
<path d="M93.828 24.1213C88.4784 25.9088 86.8075 32.5666 84.8904 37.2815C84.8659 37.3528 84.8244 37.417 84.7696 37.4688C84.7147 37.5205 84.6482 37.5582 84.5756 37.5786C84.503 37.5989 84.4266 37.6014 84.3528 37.5858C84.279 37.5701 84.2102 37.5368 84.1521 37.4887C79.4113 36.3359 72.3908 36.1028 68.6085 39.5223C68.5879 39.5464 68.5586 39.5613 68.527 39.5637C68.4954 39.5661 68.4642 39.5559 68.4401 39.5353C68.4161 39.5147 68.4012 39.4854 68.3988 39.4538C68.3964 39.4222 68.4066 39.391 68.4272 39.3669C72.067 35.1313 78.9839 34.8075 84.1003 36.3877C85.9785 31.5304 87.9862 24.9114 93.8798 24.0694C93.828 24.0565 93.828 24.1083 93.828 24.1213Z" fill="#263238"/>
<path d="M126.896 79.793C122.078 88.1347 94.2287 113.846 69.903 118.302C66.6129 118.898 54.0745 116.256 51.445 107.94C46.769 93.1216 50.5124 62.5267 52.8957 44.1075C53.362 40.5195 86.7548 47.9027 85.887 53.3948C84.9285 59.4827 81.3534 81.8266 81.9104 82.0857C83.9052 83.0053 105.226 73.7828 119.254 70.7648C129.228 68.6146 130.614 73.3683 126.896 79.793Z" fill="#F7A9A0"/>
<path d="M48.2206 53.2002L86.2765 61.4383C86.2765 61.4383 82.818 80.8678 83.4915 80.7771C84.1651 80.6864 110.874 70.9199 121.172 69.8966C131.469 68.8733 131.456 73.4068 126.236 81.904C121.016 90.4011 86.8204 118.846 69.9686 118.846C61.3937 118.846 53.4147 113.354 51.8344 110.724C47.0289 102.616 48.2206 53.2002 48.2206 53.2002Z" fill="#455A64"/>
<path d="M48.2206 53.2002L86.2765 61.4383C86.2765 61.4383 82.818 80.8678 83.4915 80.7771C84.1651 80.6864 110.874 70.9199 121.172 69.8966C131.469 68.8733 131.456 73.4068 126.236 81.904C121.016 90.4011 86.8204 118.846 69.9686 118.846C61.3937 118.846 53.4147 113.354 51.8344 110.724C47.0289 102.616 48.2206 53.2002 48.2206 53.2002Z" fill="#FFC727"/>
<path opacity="0.1" d="M102.753 80.2986C102.408 81.0296 102.168 81.8059 102.041 82.6043C102.573 81.9909 103.009 81.301 103.336 80.5577C103.685 79.8283 103.925 79.0514 104.048 78.2521C103.525 78.8719 103.089 79.5605 102.753 80.2986ZM72.5207 114.274C72.1694 115.003 71.9293 115.78 71.8083 116.58C72.8411 115.328 73.5288 113.827 73.8031 112.228C73.2829 112.847 72.8513 113.536 72.5207 114.274ZM50.1121 90.9589C49.7566 91.687 49.5122 92.4641 49.3867 93.2646C49.9137 92.6475 50.3499 91.9584 50.682 91.218C51.0212 90.4846 51.2607 89.7092 51.3944 88.9124C50.8698 89.5286 50.4378 90.2181 50.1121 90.9589ZM83.2329 91.0496C82.8891 91.7857 82.6494 92.5661 82.5204 93.3682C83.0527 92.7503 83.4893 92.056 83.8157 91.3087C84.1655 90.5784 84.4097 89.8021 84.5411 89.003C84.0096 89.6241 83.5692 90.3175 83.2329 91.0626V91.0496ZM66.6271 100.661C66.2852 101.393 66.0455 102.169 65.9147 102.966C66.4467 102.353 66.8833 101.663 67.21 100.92C67.5598 100.189 67.804 99.4132 67.9354 98.6141C67.4038 99.2304 66.9633 99.9196 66.6271 100.661ZM68.1038 77.2676C67.7562 77.9977 67.5162 78.7743 67.3914 79.5733C68.4242 78.3211 69.1118 76.8208 69.3861 75.2211C68.8403 75.8344 68.3865 76.5237 68.039 77.2676H68.1038ZM51.0836 59.8718C50.7338 60.6021 50.4896 61.3784 50.3582 62.1774C50.8943 61.5671 51.3313 60.8765 51.6535 60.1308C52.0013 59.3998 52.2455 58.6237 52.3789 57.8252C51.8513 58.4418 51.4151 59.1311 51.0836 59.8718ZM119.514 79.5214C119.243 78.7588 118.863 78.0391 118.387 77.3842C118.453 78.1923 118.636 78.9864 118.931 79.7416C119.195 80.505 119.571 81.2251 120.045 81.8789C119.989 81.0773 119.819 80.2878 119.54 79.5344L119.514 79.5214ZM96.976 95.065C96.702 94.3035 96.3227 93.5841 95.8491 92.9278C95.9163 93.7356 96.0996 94.5296 96.3931 95.2852C96.6594 96.0501 97.0392 96.7706 97.52 97.4225C97.4538 96.6254 97.2795 95.841 97.0019 95.0909L96.976 95.065ZM80.0464 77.5396C79.7748 76.777 79.3953 76.0573 78.9195 75.4024C79.0776 77.0201 79.6534 78.569 80.5905 79.8971C80.5291 79.0993 80.3546 78.3143 80.0723 77.5655L80.0464 77.5396ZM77.8574 102.902C77.5858 102.139 77.2063 101.419 76.7304 100.764C76.7977 101.572 76.9809 102.366 77.2745 103.122C77.5432 103.886 77.9229 104.606 78.4014 105.259C78.34 104.461 78.1656 103.676 77.8833 102.927L77.8574 102.902ZM56.1482 100.168C55.8794 99.4046 55.4997 98.6845 55.0213 98.0313C55.0965 98.8379 55.2794 99.6307 55.5653 100.389C55.8369 101.151 56.2164 101.871 56.6922 102.526C56.6322 101.728 56.4577 100.943 56.1741 100.194L56.1482 100.168ZM63.0003 64.3146C62.729 63.5479 62.3495 62.8238 61.8734 62.1645C61.9363 62.9759 62.1152 63.7741 62.4045 64.5349C62.684 65.2939 63.063 66.0126 63.5314 66.6721C63.4757 65.8747 63.3056 65.0895 63.0262 64.3405L63.0003 64.3146ZM60.4097 84.6508C60.1357 83.8893 59.7564 83.1699 59.2828 82.5136C59.35 83.3214 59.5333 84.1154 59.8268 84.871C60.0955 85.6349 60.4752 86.355 60.9537 87.0083C60.9021 86.2115 60.7363 85.4263 60.4615 84.6767L60.4097 84.6508ZM111.963 90.9589C111.2 91.2305 110.48 91.61 109.825 92.0858C110.633 92.017 111.427 91.8338 112.183 91.5418C112.945 91.2702 113.665 90.8907 114.32 90.4149C113.512 90.4822 112.718 90.6654 111.963 90.9589ZM71.7047 90.0263C70.9457 90.3059 70.227 90.6848 69.5674 91.1532C70.3755 91.0874 71.1697 90.9041 71.9249 90.6092C72.6888 90.3405 73.4089 89.9608 74.0621 89.4823C73.2525 89.5317 72.4542 89.6974 71.6918 89.9745L71.7047 90.0263ZM75.5129 66.1151C74.7513 66.3891 74.0319 66.7684 73.3756 67.242C74.1793 67.1746 74.9689 66.9914 75.7201 66.698C76.4863 66.4345 77.2072 66.0544 77.8574 65.5711C77.052 65.6206 76.2579 65.7864 75.4999 66.0633L75.5129 66.1151ZM53.9073 73.6149C53.1458 73.8889 52.4264 74.2682 51.7701 74.7418C53.3885 74.5959 54.9393 74.0238 56.2647 73.0838C55.4563 73.1338 54.6587 73.2951 53.8944 73.5631L53.9073 73.6149ZM89.8259 105.997C89.0656 106.274 88.3466 106.653 87.6887 107.124C89.3071 106.978 90.8579 106.406 92.1834 105.466C91.3718 105.528 90.5733 105.707 89.813 105.997H89.8259ZM60.9019 112.331C60.1393 112.603 59.4196 112.982 58.7647 113.458C59.5727 113.392 60.3669 113.209 61.1221 112.914C61.886 112.645 62.6061 112.266 63.2594 111.787C62.4471 111.853 61.6487 112.037 60.889 112.331H60.9019ZM92.0797 80.1302C91.3182 80.4042 90.5988 80.7835 89.9425 81.2571C90.7485 81.1861 91.5414 81.0075 92.3 80.7261C93.059 80.4465 93.7777 80.0675 94.4372 79.5992C93.6254 79.6594 92.8267 79.8383 92.0668 80.1302H92.0797Z" fill="black"/>
<path d="M83.7886 80.9452C83.4992 83.846 82.9926 86.721 82.2731 89.546C81.6384 92.4216 80.7317 95.2065 79.8897 98.0173H79.7861C80.5245 95.1935 81.0814 92.305 81.6773 89.4424C82.2731 86.5798 82.7265 83.7172 83.4648 80.8934C83.4648 80.6862 83.8016 80.7509 83.7886 80.9452Z" fill="#263238"/>
<path d="M84.0354 68.6141C79.6314 67.5261 75.1756 66.6582 70.7068 65.8163C66.238 64.9743 61.7693 64.1065 57.2875 63.3682C54.6969 62.9537 52.21 62.5262 49.6582 62.1895C49.6582 62.1895 49.5675 62.2931 49.6582 62.306C54.0493 63.407 58.5181 64.2878 62.9739 65.1686C67.4297 66.0494 71.9114 66.8784 76.3802 67.6686C78.9708 68.109 81.4578 68.5105 84.0096 68.8343C84.1002 68.8602 84.165 68.653 84.0354 68.6141Z" fill="#263238"/>
<path d="M96.5998 107.487C97.2992 106.865 98.0764 106.334 98.8147 105.764C99.553 105.194 100.24 104.637 100.965 104.093L105.369 100.713C108.296 98.4457 111.172 96.1012 114.073 93.7956C115.731 92.5003 117.363 91.205 118.995 89.8061C119.002 89.8001 119.01 89.7956 119.019 89.7927C119.027 89.7898 119.036 89.7886 119.045 89.7892C119.054 89.7898 119.063 89.7922 119.071 89.7962C119.079 89.8002 119.087 89.8058 119.093 89.8126C119.099 89.8194 119.103 89.8273 119.106 89.8358C119.109 89.8444 119.11 89.8535 119.109 89.8625C119.109 89.8715 119.107 89.8803 119.103 89.8884C119.098 89.8965 119.093 89.9038 119.086 89.9097C117.091 91.7879 115.071 93.6402 112.998 95.4277L113.775 95.0521C114.578 94.6505 115.356 94.2231 116.133 93.7568C116.133 93.7568 116.249 93.8215 116.133 93.8604C115.404 94.3753 114.642 94.8426 113.853 95.2593C113.465 95.4666 113.076 95.6738 112.674 95.8551L112.092 96.1012C111.625 96.5028 111.159 96.9043 110.68 97.2929C107.804 99.6417 104.868 101.9 101.872 104.067C101.008 104.663 100.166 105.246 99.3458 105.816C98.452 106.399 97.5842 107.047 96.6386 107.578C96.6227 107.569 96.61 107.556 96.6029 107.539C96.5959 107.523 96.5948 107.504 96.5998 107.487Z" fill="#263238"/>
<path d="M134.371 89.6247L138.814 82.8633L142.998 88.5496L141.288 93.5754L136.547 93.679L134.371 89.6247Z" fill="#263238"/>
<path d="M136.547 93.6788L128.672 146.048L136.664 164.506L143.879 145.478L141.288 93.5752L136.547 93.6788Z" fill="#263238"/>
<path d="M140.459 82.3832C135.835 83.4971 127.843 76.4766 124.669 70.7255C124.449 70.3369 125.032 66.1919 125.485 61.1144C125.757 58.0315 125.977 54.6379 125.964 51.4385L145.757 56.1145C144.653 60.0612 144.039 64.1288 143.93 68.2255C143.929 68.6613 143.977 69.0957 144.073 69.5208C144.073 69.5856 144.073 69.6504 144.073 69.741C144.461 72.215 144.876 81.2822 140.459 82.3832Z" fill="#F7A9A0"/>
<path d="M127.299 51.8015C127.908 55.9724 130.731 69.7025 142.013 69.9357C142.693 69.9523 143.373 69.9133 144.047 69.8191C144.042 69.7458 144.042 69.6722 144.047 69.5989C143.953 69.1732 143.901 68.7394 143.892 68.3036C144.01 64.2069 144.628 60.1399 145.731 56.1926L127.299 51.8015Z" fill="#263238"/>
<path d="M121.353 29.3797C119.837 36.5427 125.316 56.3866 130.679 60.4668C138.451 66.3475 150.29 65.92 155.056 56.7752C159.681 47.9154 152.09 22.1908 146.184 18.6028C137.479 13.2403 123.62 18.7841 121.353 29.3797Z" fill="#F7A9A0"/>
<path d="M139.021 41.1416C139.021 41.1416 138.93 41.2323 138.943 41.2841C139.345 42.5794 139.591 44.1985 138.503 44.9757C138.503 44.9757 138.503 45.0664 138.503 45.0405C139.954 44.4317 139.617 42.3333 139.021 41.1416Z" fill="#263238"/>
<path d="M137.44 40.0659C135.251 40.4804 136.248 44.8455 138.282 44.4569C140.316 44.0683 139.279 39.7161 137.44 40.0659Z" fill="#263238"/>
<path d="M147.077 39.1463C147.077 39.0816 147.194 39.1463 147.207 39.237C147.466 40.5971 148.01 42.1126 149.331 42.2809V42.3587C147.803 42.4752 147.103 40.4416 147.077 39.1463Z" fill="#263238"/>
<path d="M147.959 37.4368C150.096 36.7762 151.262 41.1025 149.254 41.7113C147.246 42.3201 146.171 37.9938 147.959 37.4368Z" fill="#263238"/>
<path d="M135.277 38.4727C135.834 38.1878 136.301 37.8251 136.832 37.4883C137.363 37.1515 137.933 36.8536 138.218 36.193C138.28 35.9947 138.275 35.7812 138.202 35.5864C138.129 35.3916 137.993 35.2267 137.816 35.1179C137.434 34.9485 137.013 34.8855 136.598 34.9357C136.183 34.9859 135.789 35.1473 135.459 35.4029C134.706 35.817 134.134 36.4954 133.853 37.307C133.802 37.4947 133.808 37.6929 133.867 37.8778C133.927 38.0626 134.039 38.2264 134.189 38.3494C134.339 38.4725 134.522 38.5495 134.715 38.5714C134.908 38.5933 135.103 38.559 135.277 38.4727Z" fill="#10121B"/>
<path d="M149.138 34.8588C148.526 34.8909 147.912 34.8909 147.299 34.8588C146.652 34.9342 145.999 34.7881 145.447 34.4443C145.291 34.3042 145.186 34.1161 145.148 33.9098C145.111 33.7034 145.143 33.4905 145.239 33.3044C145.485 32.9675 145.817 32.7022 146.199 32.536C146.582 32.3698 147.002 32.3086 147.416 32.3588C148.271 32.3288 149.108 32.6199 149.76 33.1749C149.885 33.3117 149.97 33.4803 150.005 33.6622C150.041 33.8441 150.026 34.0322 149.962 34.2061C149.898 34.3799 149.787 34.5328 149.642 34.6479C149.496 34.763 149.322 34.836 149.138 34.8588Z" fill="#10121B"/>
<path d="M141.56 49.237C142.03 49.6866 142.588 50.0338 143.198 50.2568C143.809 50.4797 144.46 50.5735 145.109 50.5323C145.677 50.5161 146.241 50.4158 146.78 50.2344L147.078 50.1307L147.376 50.0142C147.442 49.982 147.497 49.9296 147.532 49.8644C147.567 49.7993 147.58 49.7247 147.57 49.6515C147.575 49.6041 147.575 49.5563 147.57 49.509V49.3924C147.363 48.3432 146.896 46.8018 146.896 46.8018C147.324 46.9054 149.487 47.3329 149.306 46.8018C148.107 42.1424 146.441 37.616 144.332 33.2919C144.32 33.2592 144.295 33.2327 144.264 33.2181C144.232 33.2036 144.196 33.2021 144.163 33.2141C144.131 33.2262 144.104 33.2507 144.09 33.2822C144.075 33.3138 144.073 33.3499 144.086 33.3825C145.174 37.6959 147 41.789 148.153 46.1024C147.391 45.9388 146.61 45.8864 145.834 45.9469C145.692 46.0246 146.78 48.9391 146.845 49.4183C146.012 49.7037 145.13 49.8164 144.253 49.7495C143.375 49.6827 142.521 49.4378 141.741 49.0297C141.547 49.0297 141.456 49.1463 141.56 49.237Z" fill="#263238"/>
<path d="M146.054 50.0527C145.611 50.9114 144.955 51.6426 144.15 52.177C143.705 52.4428 143.191 52.5692 142.673 52.5396C141.52 52.449 141.378 51.4516 141.378 50.5708C141.4 50.0959 141.483 49.6259 141.624 49.1719C142.97 49.9277 144.521 50.2362 146.054 50.0527Z" fill="#263238"/>
<path d="M144.15 52.177C143.705 52.4428 143.191 52.5692 142.673 52.5396C141.52 52.449 141.378 51.4516 141.378 50.5708C141.953 50.4889 142.539 50.6027 143.042 50.894C143.545 51.1853 143.935 51.6372 144.15 52.177Z" fill="#FF9CBD"/>
<g opacity="0.2">
<path opacity="0.2" d="M141.105 31.8413C141.824 31.7788 142.538 31.6706 143.243 31.5175C143.955 31.3361 144.616 31.0123 145.328 30.8439C146.695 30.6041 148.093 30.6041 149.46 30.8439C149.577 30.8439 149.577 30.9346 149.46 30.9216C148.014 30.7257 146.543 30.845 145.147 31.2714C144.035 31.7124 142.866 31.9958 141.675 32.1133C138.944 32.1295 136.287 33.0091 134.085 34.6262C134.085 34.6262 134.085 34.6262 134.085 34.6262C136.094 33.017 138.54 32.0469 141.105 31.8413Z" fill="black"/>
<path opacity="0.2" d="M140.64 29.9502C141.324 29.9027 142.004 29.8031 142.673 29.6523C143.347 29.4839 143.968 29.173 144.655 29.0176C145.941 28.7936 147.255 28.7936 148.541 29.0176C148.657 29.0176 148.657 29.1083 148.541 29.0953C147.168 28.9205 145.774 29.0352 144.448 29.4321C143.394 29.8499 142.286 30.116 141.158 30.2222C138.569 30.2431 136.053 31.0818 133.969 32.6185C133.969 32.6185 133.969 32.6185 133.969 32.6185C135.878 31.086 138.2 30.157 140.64 29.9502Z" fill="black"/>
</g>
<path d="M123.323 46.4781C123.323 46.4781 116.38 35.0406 117.028 28.4216C117.313 25.4295 121.38 23.4218 121.38 23.4218C121.068 22.2017 121.102 20.9186 121.48 19.7171C121.857 18.5156 122.563 17.4435 123.517 16.6215C127.054 13.2926 135.616 14.0309 135.616 14.0309C135.616 14.0309 141.159 6.01299 149.009 9.18647C156.858 12.3599 151.755 21.2586 151.755 21.2586C151.755 21.2586 154.631 25.3518 147.597 28.5512C140.564 31.7506 126.743 28.6159 126.743 28.6159C127.399 33.4349 127.329 38.3251 126.535 43.1233C126.36 43.9238 125.968 44.6605 125.401 45.2524C124.834 45.8442 124.115 46.2684 123.323 46.4781Z" fill="#10121B"/>
<path d="M136.962 14.1337C135.212 13.4223 133.333 13.0827 131.444 13.1364C129.754 13.1085 128.071 13.3714 126.47 13.9135C125.029 14.3223 123.726 15.1157 122.701 16.2088C121.677 17.3019 120.969 18.6533 120.654 20.118C120.54 20.8782 120.578 21.6535 120.767 22.3986C120.956 23.1437 121.292 23.8436 121.755 24.4573C121.755 24.4573 121.872 24.4573 121.833 24.4573C120.019 22.2035 120.965 18.7061 122.843 16.828C125.138 14.8331 128.08 13.7418 131.12 13.7581C133.067 13.7334 135.011 13.9378 136.91 14.3669C137.027 14.328 137.066 14.1856 136.962 14.1337Z" fill="#10121B"/>
<path d="M127.117 45.4286C127.117 45.4286 121.858 39.4184 119.073 41.3613C116.289 43.3043 120.757 52.3714 124.358 53.2781C124.813 53.4289 125.294 53.4858 125.771 53.4453C126.248 53.4048 126.712 53.2678 127.135 53.0425C127.558 52.8172 127.93 52.5083 128.23 52.1347C128.53 51.761 128.751 51.3304 128.879 50.8688L127.117 45.4286Z" fill="#F7A9A0"/>
<path d="M120.421 43.9263V44.0169C123.011 44.7423 124.488 46.8536 125.602 49.0945C125.432 48.868 125.216 48.6806 124.968 48.5448C124.719 48.4089 124.445 48.3278 124.163 48.307C123.88 48.2861 123.597 48.3259 123.331 48.4238C123.066 48.5217 122.824 48.6753 122.623 48.8743C122.606 48.8863 122.594 48.9047 122.59 48.9253C122.587 48.946 122.591 48.9672 122.603 48.9844C122.615 49.0016 122.634 49.0133 122.655 49.0169C122.675 49.0206 122.696 49.0159 122.714 49.0038C123.124 48.8198 123.582 48.7683 124.023 48.8565C124.464 48.9448 124.867 49.1683 125.175 49.4961C125.67 50.0522 126.105 50.6602 126.47 51.3095C126.599 51.5167 126.988 51.3095 126.871 51.1152C126.664 47.9547 123.776 43.8745 120.421 43.9263Z" fill="#263238"/>
<path fill-rule="evenodd" clip-rule="evenodd" d="M146.677 39.7943C147.467 42.8771 149.889 44.9754 152.208 44.6646C152.337 44.6725 152.467 44.6682 152.596 44.6516C155.031 44.0947 156.327 40.8823 155.498 37.6182C155.173 36.1063 154.363 34.7419 153.192 33.7323C152.727 33.2706 152.151 32.9369 151.52 32.7638C150.888 32.5907 150.222 32.5841 149.587 32.7445C148.952 32.9048 148.37 33.2268 147.896 33.6791C147.422 34.1314 147.073 34.6986 146.884 35.3255C146.509 36.3355 146.362 37.4104 146.448 38.4737C145.221 38.0949 144.071 38.7833 143.33 39.5103C142.894 38.6009 142.238 37.8116 141.42 37.2148C140.496 36.5403 139.4 36.1388 138.259 36.056C137.117 35.9733 135.976 36.2126 134.964 36.7467C133.951 37.2809 133.109 38.0884 132.534 39.0774C132.036 39.9327 131.754 40.894 131.709 41.8782C129.466 42.2214 120.789 43.6061 119.268 44.2629C117.559 45.0013 116.755 48.2654 116.678 48.6411L117.468 48.8224C117.675 47.9286 118.4 45.5582 119.631 45.0142C120.787 44.5032 128.241 43.2606 131.728 42.7038C131.82 43.7189 132.164 44.6971 132.732 45.548C133.367 46.4999 134.257 47.2543 135.3 47.7255C136.343 48.1967 137.497 48.3656 138.631 48.2132C139.133 48.1402 139.624 48.0098 140.095 47.8246C140.84 47.5253 141.519 47.0821 142.093 46.5204C142.667 45.9587 143.124 45.2895 143.439 44.551C143.754 43.8124 143.921 43.0191 143.929 42.2161C143.936 41.5879 143.846 40.9635 143.663 40.3646C144.113 39.845 145.306 38.7011 146.587 39.4223C146.613 39.5468 146.643 39.6708 146.677 39.7943ZM149.785 33.4862H150.096C150.559 33.4335 151.028 33.4789 151.472 33.6195C151.916 33.7601 152.326 33.9927 152.674 34.3022C153.689 35.1936 154.4 36.3802 154.707 37.6959C155.433 40.5326 154.384 43.2268 152.389 43.7449C150.394 44.263 148.192 42.3719 147.467 39.5352C147.115 38.2324 147.174 36.8527 147.635 35.5845C147.801 35.0892 148.083 34.6405 148.457 34.2756C148.831 33.9107 149.286 33.6401 149.785 33.4862ZM135.833 37.2291C136.251 37.0678 136.686 36.9548 137.129 36.8923C138.461 36.7215 139.809 37.0648 140.898 37.8523C141.986 38.6398 142.734 39.8124 142.989 41.1316C143.244 42.4508 142.987 43.8175 142.27 44.9539C141.553 46.0903 140.43 46.9109 139.13 47.249C137.83 47.5871 136.449 47.4172 135.27 46.7739C134.09 46.1306 133.2 45.0622 132.78 43.7859C132.36 42.5096 132.442 41.1213 133.009 39.9033C133.577 38.6853 134.586 37.7291 135.833 37.2291Z" fill="#7471FF"/>
<path d="M144.033 69.3402L138.503 80.687L125.07 65.0527L120.653 69.4956C120.653 69.4956 133.179 93.8213 133.334 92.811L138.813 83.1221L145.29 90.5701L145.925 73.0318L144.033 69.3402Z" fill="#EBEBEB"/>
<path d="M146.054 81.8141C146.054 78.9127 146.158 75.9982 146.054 73.0968C146.054 73.0061 145.886 72.9413 145.86 73.0968C145.095 75.8428 145.108 86.9305 144.914 89.573C144.655 89.2621 138.93 83.0058 138.865 83.0965C137.712 84.612 133.684 91.6713 133.412 92.319C131.443 88.4331 123.801 74.3791 121.404 70.6875C121.39 70.6689 121.369 70.656 121.346 70.6509C121.322 70.6458 121.298 70.6488 121.277 70.6594C121.256 70.67 121.239 70.6876 121.229 70.7092C121.219 70.7308 121.217 70.7552 121.223 70.7782C122.92 74.8325 133.01 93.7697 133.179 93.7309C135.268 90.4175 137.183 86.9976 138.917 83.4851C139.862 84.7804 145.588 91.8268 145.639 91.3993C145.942 88.2135 146.08 85.0142 146.054 81.8141Z" fill="#263238"/>
<path d="M196.713 155.723C191.96 162.511 179.02 163.819 146.767 170.127C142.298 171.008 127.648 141.164 132.363 139.986C138.308 138.496 161.701 134.027 163.45 133.911C178.229 132.926 199.939 151.06 196.713 155.723Z" fill="#F7A9A0"/>
<path d="M138.827 138.457C138.827 138.457 125.149 140.53 118.31 143.833C111.282 147.453 105.237 152.725 100.694 159.195C95.7717 166.163 88.6735 186.396 94.1526 189.479C99.1136 192.251 105.318 171.189 105.318 171.189C105.318 171.189 95.4479 191.616 102.028 193.857C108.608 196.098 114.424 171.267 114.424 171.267C114.424 171.267 104.748 192.497 111.898 193.727C117.313 194.66 123.841 172.433 123.841 172.433C123.841 172.433 115.655 190.735 121.173 191.94C127.273 193.235 134.592 173.119 134.592 173.119C149.125 173.806 156.327 168.184 160.977 163.573C162.104 162.42 138.827 138.457 138.827 138.457Z" fill="#F7A9A0"/>
<path d="M108.272 163.897C106.976 166.254 105.746 168.637 104.722 171.099C103.699 173.56 102.741 176.06 101.938 178.598C100.834 181.908 100.108 185.332 99.7744 188.805C100.811 182.691 104.373 173.819 105.409 171.358C106.445 168.897 107.339 166.384 108.375 163.936C108.401 163.871 108.31 163.845 108.272 163.897Z" fill="#263238"/>
<path d="M117.234 167.459C115.77 170.542 114.203 173.547 112.882 176.694C111.56 179.842 110.589 182.912 109.488 186.124C109.397 186.37 109.566 186.331 109.656 186.124C110.887 182.964 112.247 180.127 113.542 176.979C114.838 173.832 115.951 170.619 117.325 167.524C117.325 167.446 117.247 167.381 117.234 167.459Z" fill="#263238"/>
<path d="M125.472 169.142C123.112 173.81 121.246 178.711 119.902 183.766C119.824 184.012 120.031 183.947 120.109 183.688C121.871 178.792 123.218 174.945 125.627 169.22C125.666 169.142 125.523 169.039 125.472 169.142Z" fill="#263238"/>
<path d="M135.977 138.457L164.24 169.971C164.24 169.971 192.827 163.417 197.037 156.086C199.809 151.254 178.281 131.708 162.064 133.988L135.977 138.457Z" fill="#FFC727"/>
<path opacity="0.1" d="M161.067 158.107C160.942 158.906 160.702 159.682 160.355 160.412C160.028 161.156 159.591 161.846 159.059 162.459C159.186 161.661 159.426 160.884 159.772 160.153C160.108 159.415 160.544 158.727 161.067 158.107ZM180.704 156.332C180.36 157.068 180.12 157.849 179.991 158.651C180.521 158.031 180.957 157.337 181.287 156.591C181.636 155.861 181.881 155.085 182.012 154.286C181.483 154.904 181.043 155.593 180.704 156.332ZM166.702 149.726C165.973 149.375 165.196 149.135 164.396 149.014C165.648 150.047 167.148 150.734 168.748 151.009C168.131 150.486 167.441 150.054 166.702 149.726ZM180.704 141.061C180.975 141.823 181.355 142.543 181.831 143.198C181.673 141.58 181.097 140.031 180.16 138.703C180.227 139.511 180.41 140.305 180.704 141.061ZM152.116 147.874C152.383 148.639 152.763 149.359 153.243 150.011C153.085 148.394 152.509 146.845 151.572 145.517C151.64 146.324 151.823 147.118 152.116 147.874ZM140.459 140.413C141.22 140.139 141.94 139.76 142.596 139.286C141.789 139.349 140.995 139.528 140.239 139.817C139.478 140.094 138.759 140.473 138.101 140.944C138.909 140.881 139.703 140.702 140.459 140.413ZM164.525 137.822C165.287 137.548 166.006 137.169 166.663 136.696C165.856 136.76 165.062 136.939 164.305 137.227C163.546 137.506 162.827 137.885 162.168 138.354C162.966 138.279 163.751 138.096 164.5 137.81L164.525 137.822ZM173.437 165.49C174.2 165.218 174.919 164.839 175.574 164.363C174.766 164.429 173.972 164.612 173.217 164.907C172.453 165.176 171.733 165.556 171.08 166.034C171.879 165.959 172.664 165.771 173.411 165.477L173.437 165.49ZM194.68 149.791C194.101 149.899 193.533 150.059 192.983 150.27C192.22 150.542 191.501 150.921 190.846 151.397C191.653 151.324 192.446 151.141 193.203 150.853C193.789 150.644 194.35 150.371 194.874 150.037L194.68 149.791Z" fill="black"/>
<path d="M181.416 139.065C175.798 135.006 168.88 133.161 161.987 133.884C161.909 133.884 161.909 134.027 161.987 134.027C169.085 133.832 178.657 137.537 181.339 139.143C181.429 139.234 181.494 139.117 181.416 139.065Z" fill="#263238"/>
<path d="M171.973 164.661C169.046 161.034 165.937 157.576 162.803 154.117C159.668 150.659 156.559 147.188 153.347 143.755C151.534 141.851 149.733 139.869 147.855 138.082C147.845 138.068 147.829 138.059 147.812 138.056C147.795 138.054 147.778 138.058 147.764 138.069C147.75 138.079 147.741 138.094 147.739 138.111C147.737 138.128 147.741 138.146 147.751 138.159C150.679 141.773 153.774 145.258 156.818 148.729C159.862 152.2 163.062 155.672 166.235 159.091C168.023 161.021 169.849 162.977 171.727 164.778C171.883 164.907 172.051 164.791 171.973 164.661Z" fill="#263238"/>
<path d="M135.926 138.056C137.661 137.526 139.431 137.119 141.224 136.838C142.998 136.514 144.799 136.203 146.586 135.918C150.148 135.348 157.635 133.729 164.215 133.742C164.293 133.742 163.917 134.105 163.839 134.092C160.705 133.924 138.257 138.392 136.418 138.522C136.483 138.651 136.56 138.768 136.612 138.898C136.631 138.918 136.641 138.945 136.64 138.973C136.639 139.001 136.626 139.028 136.606 139.047C136.585 139.065 136.558 139.075 136.53 139.074C136.502 139.073 136.476 139.061 136.457 139.04C136.224 138.885 136.068 138.69 135.848 138.522C135.806 138.494 135.774 138.455 135.754 138.409C135.734 138.363 135.728 138.313 135.736 138.264C135.744 138.214 135.766 138.168 135.8 138.132C135.834 138.095 135.877 138.068 135.926 138.056Z" fill="#263238"/>
</svg>
