<svg width="209" height="193" viewBox="0 0 209 193" fill="none" xmlns="http://www.w3.org/2000/svg">
<path d="M148.568 106.021V166.115H208.388V106.021H148.568ZM153.12 161.573V110.563H203.883V161.573H153.12Z" fill="#FFE500"/>
<path d="M176.015 1H1V176.814H176.015V1Z" fill="#FFA4DD" stroke="#10121B" stroke-width="2"/>
<path d="M34.7259 176.813H132.095C132.504 173.08 117.591 93.6007 100.083 68.0425C98.096 65.1468 81.0587 63.0284 74.8081 70.2371C41.7046 108.445 33.937 175.899 34.7259 176.813Z" fill="#10121B"/>
<path d="M102.389 74.6419C105.15 81.8354 115.573 107.043 121.247 125.149C125.04 137.341 126.496 147.476 127.315 150.158C127.315 150.158 98.4901 140.892 92.0879 140.877C82.1204 140.877 66.1299 161.756 70.0441 164.378C76.2188 168.508 105.605 182.514 129.09 186.918C141.849 189.311 165.881 173.019 163.984 160.065C161.329 141.883 128.62 93.9668 116.18 80.3724C109.732 73.316 99.0059 65.8787 102.389 74.6419Z" fill="#EB9481"/>
<path d="M165.76 163.905C165.153 176.996 148.844 188.03 139.392 188.609C123.083 189.6 74.1562 175.289 74.1562 175.289L93.1658 138.468C93.1658 138.468 126.542 149.822 127.316 150.142C127.028 149.167 118.82 118.138 115.179 107.942C114.982 107.378 114.754 106.799 114.542 106.189C113.48 103.339 112.039 99.5899 110.431 95.5207C109.551 93.2651 108.61 90.9486 107.685 88.6016C103.664 78.5733 99.7501 69.0176 99.7501 69.0176C105.348 69.9472 110.886 72.9039 119.973 82.4902C129.061 92.0764 166.746 142.309 165.76 163.905Z" fill="#10121B"/>
<path d="M86.8702 167.319C88.2356 164.713 89.6162 162.122 90.9664 159.516C92.3167 156.91 93.6669 154.426 95.0323 151.896C96.5047 149.303 97.8466 146.638 99.0527 143.91C99.0527 143.91 99.0527 143.803 99.0527 143.91C97.3839 146.223 95.8637 148.641 94.5013 151.149C93.0449 153.689 91.6188 156.26 90.2231 158.861C88.8273 161.462 87.4871 164.002 86.2027 166.481C84.7915 169.115 83.5647 171.844 82.5312 174.65C82.5312 174.772 82.6374 174.878 82.7133 174.772C84.2339 172.366 85.6216 169.878 86.8702 167.319Z" fill="#272B39"/>
<path d="M137.495 155.583L127.33 150.158C127.042 149.182 118.834 118.153 115.193 107.957C114.996 107.393 114.768 106.814 114.556 106.204C113.494 103.354 112.052 99.6053 110.444 95.5361L137.495 155.583Z" fill="#272B39"/>
<path d="M145.9 160.08C143.051 157.971 140.071 156.047 136.979 154.319C135.462 153.45 133.945 152.643 132.276 151.926C130.607 151.21 128.756 150.601 127.057 149.823C126.92 149.823 126.829 149.976 126.966 150.021C128.483 150.753 130 151.759 131.593 152.597C133.186 153.435 134.779 154.319 136.387 155.157C139.558 156.788 142.668 158.526 145.824 160.202C145.9 160.248 146.036 160.126 145.9 160.08Z" fill="#272B39"/>
<path d="M138.45 152.139C135.886 152.139 120.487 148.04 118.242 150.173C104.588 163.113 100.249 160.507 97.3361 162.198C74.8068 175.214 44.7071 190.515 33.9659 190.606C17.6872 190.744 11.2091 177.012 13.9096 164.042C19.265 138.393 53.6885 88.3888 69.2693 75.0991C77.5376 68.058 76.8549 78.6806 73.4565 90.2024C71.4539 96.9691 67.9494 106.967 64.3538 116.888C61.183 125.682 52.7934 148.147 52.6417 148.68C52.6417 148.68 52.6416 148.68 52.8085 148.68C53.5367 148.543 72.8042 139.429 92.1778 134.415C99.0049 132.647 113.22 130.132 118.318 132.418C121.352 133.775 121.352 135.604 121.352 135.604C123.196 135.591 124.979 136.264 126.359 137.493C127.405 138.391 128.173 139.57 128.574 140.892C130.085 141.108 131.497 141.777 132.624 142.812C133.595 143.862 134.221 145.187 134.414 146.607C138.131 147.689 138.45 152.139 138.45 152.139Z" fill="#EB9481"/>
<path d="M115.693 135.238C113.655 135.299 111.626 135.529 109.625 135.924C109.488 135.924 109.488 136.153 109.625 136.137C111.597 135.924 113.615 135.878 115.602 135.817C117.59 135.756 119.592 135.711 121.58 135.741C119.637 135.392 117.667 135.223 115.693 135.238Z" fill="#10121B"/>
<path d="M128.636 140.876C125.166 139.762 121.492 139.434 117.88 139.916C117.857 139.925 117.837 139.94 117.823 139.961C117.808 139.981 117.801 140.006 117.801 140.03C117.801 140.055 117.808 140.08 117.823 140.1C117.837 140.121 117.857 140.136 117.88 140.145C121.485 139.95 125.1 140.221 128.636 140.953C128.636 140.953 128.682 140.892 128.636 140.876Z" fill="#10121B"/>
<path d="M134.509 146.608C131.289 145.234 127.81 144.579 124.313 144.687C124.177 144.687 124.131 144.885 124.313 144.901C127.749 145.222 131.15 145.844 134.478 146.76C134.539 146.775 134.584 146.638 134.509 146.608Z" fill="#10121B"/>
<path d="M91.3141 134.75C89.6146 135.026 87.9327 135.403 86.2772 135.878C84.5022 136.32 82.7424 136.792 81.0281 137.402C77.5773 138.556 74.1938 139.905 70.8936 141.44C70.8775 141.434 70.8601 141.432 70.8429 141.433C70.8256 141.435 70.8091 141.441 70.7947 141.451C70.7803 141.461 70.7686 141.474 70.7605 141.49C70.7523 141.505 70.748 141.522 70.748 141.54C70.748 141.557 70.7523 141.574 70.7605 141.59C70.7686 141.605 70.7803 141.618 70.7947 141.628C70.8091 141.638 70.8256 141.644 70.8429 141.646C70.8601 141.647 70.8775 141.645 70.8936 141.639C74.2616 140.45 77.6752 139.337 81.0887 138.27L86.0952 136.625C87.8095 136.061 89.5997 135.634 91.2837 134.994C91.4202 134.918 91.4203 134.735 91.3141 134.75Z" fill="#10121B"/>
<path d="M77.7659 138.423C79.4282 137.768 81.1756 137.358 82.9544 137.203L103.223 171.586C103.223 171.586 47.378 191.779 35.9238 192.923C32.8187 193.179 29.6942 192.795 26.7421 191.794C23.7901 190.794 21.0728 189.197 18.757 187.104C16.4412 185.01 14.5759 182.463 13.2754 179.619C11.975 176.775 11.2669 173.694 11.1947 170.565C10.8761 150.249 43.8734 101.449 60.4707 82.5665C68.0563 73.9251 76.9315 67.6461 79.192 69.0634C81.8621 70.7399 77.0225 81.6063 74.4586 89.7142C69.7403 104.696 52.8244 148.74 52.8244 148.74C52.8244 148.74 73.5787 139.81 77.7659 138.423Z" fill="#10121B"/>
<path d="M82.8335 137.173C79.6779 137.356 66.1452 142.111 59.4092 144.991C52.7541 147.829 46.3794 151.288 40.3693 155.324C36.9861 157.626 33.7546 160.125 30.5839 162.716C30.5719 162.724 30.5617 162.734 30.5537 162.746C30.5457 162.758 30.5401 162.772 30.5373 162.786C30.5345 162.8 30.5344 162.815 30.5372 162.829C30.54 162.843 30.5456 162.856 30.5535 162.868C30.5615 162.88 30.5717 162.891 30.5837 162.899C30.5956 162.907 30.609 162.912 30.6231 162.915C30.6372 162.918 30.6517 162.918 30.6658 162.915C30.6799 162.913 30.6933 162.907 30.7053 162.899C42.575 154.654 55.2902 147.71 68.6332 142.187C72.4412 140.663 78.9952 138.469 82.7121 137.493C83.7134 137.219 82.9245 137.158 82.8335 137.173Z" fill="#272B39"/>
<path d="M69.4366 107.104C68.587 108.475 67.7222 109.847 66.994 111.295L66.903 111.508C67.9802 108.201 69.0118 104.894 69.9372 101.556C69.9372 101.358 69.6641 101.251 69.5882 101.449C64.7941 113.642 60.3338 126.002 56.01 138.392C54.8115 141.867 53.7496 145.357 52.6572 148.862C52.6572 148.984 52.8089 149.045 52.8545 148.862C54.1744 145.814 55.5094 142.888 56.7079 139.825C57.9064 136.761 59.0443 133.729 60.167 130.68C62.1898 125.306 64.0912 119.895 65.8713 114.449C66.4326 113.504 67.0092 112.544 67.5554 111.584C68.3291 110.167 68.9814 108.689 69.6338 107.21C69.7552 107.058 69.5276 106.951 69.4366 107.104Z" fill="#272B39"/>
<path d="M89.69 164.088C88.1729 161.558 86.7468 159.013 85.26 156.468C83.7732 153.923 82.3926 151.484 80.9665 148.985C79.5551 146.367 78.0107 143.823 76.3393 141.365C76.3393 141.365 76.2331 141.365 76.2483 141.365C77.3257 143.984 78.5725 146.529 79.9805 148.985C81.361 151.576 82.7871 154.151 84.2284 156.712C85.6696 159.272 87.0957 161.71 88.5673 164.179C90.0563 166.779 91.7189 169.274 93.5435 171.647C93.6194 171.739 93.7863 171.647 93.7407 171.541C92.5292 168.983 91.1768 166.495 89.69 164.088Z" fill="#272B39"/>
<path d="M104.089 171.662C102.405 168.325 99.7952 165.063 97.8533 161.893C97.8533 161.771 97.6106 161.893 97.6713 162.015C99.4311 164.987 101.039 168.188 102.723 171.159C95.0618 174.345 86.9149 177.179 79.0865 179.968C71.2582 182.757 62.9899 185.531 54.8126 187.909C50.2613 189.235 45.7099 190.667 41.0523 191.886C40.7641 191.886 40.8399 192.191 41.1282 192.13C49.4197 190.477 57.6023 188.314 65.6297 185.653C73.807 183.047 81.8932 180.136 89.9036 177.119C94.3639 175.412 104.225 171.921 104.089 171.662Z" fill="#272B39"/>
<path d="M90.7998 134.765C81.2683 137.356 71.8837 140.464 62.6875 144.077L62.2779 144.229C57.4838 146.119 54.5255 147.521 53.8124 147.643L53.6607 147.551C53.1965 147.206 52.6857 146.929 52.1435 146.728C50.7933 146.241 37.822 144.61 38.1557 140.632C38.4895 136.655 43.7539 136.898 44.5277 136.944C43.6933 136.761 36.6537 135.1 38.9446 131.579C40.5679 129.065 47.5315 129.431 48.2445 129.461C47.5315 129.232 41.0534 127.114 43.2836 123.502C44.8766 120.926 52.6594 121.262 53.5545 121.414C52.8262 121.14 47.0612 120.164 49.7617 117.055C51.6277 114.891 66.2831 117.055 72.8067 120.363C82.5163 125.148 90.7998 134.765 90.7998 134.765Z" fill="#EB9481"/>
<path d="M62.6876 144.077L62.2779 144.229C57.0018 140.689 51.0671 138.257 44.831 137.082C44.4063 137.082 44.3759 136.792 44.831 136.807C51.3801 137.352 57.6087 139.888 62.6876 144.077Z" fill="#10121B"/>
<path d="M48.5918 129.659C57.8159 131.488 61.988 133.546 69.9377 138.605C70.0439 138.682 70.1652 138.514 70.059 138.438C62.6554 132.875 58.0586 130.117 48.6676 129.415C48.2428 129.385 48.167 129.568 48.5918 129.659Z" fill="#10121B"/>
<path d="M53.8727 121.521C62.7327 123.899 67.4054 125.941 74.5359 131.748C74.7028 131.885 74.9152 131.748 74.7483 131.519C69.268 125.71 61.8909 122.075 53.9637 121.278C53.3872 121.217 53.3114 121.384 53.8727 121.521Z" fill="#10121B"/>
<path d="M98.2337 85.8435C92.9844 87.7334 82.7895 80.5246 78.3746 74.2303C78.0864 73.7884 78.2381 68.8657 78.147 62.8762C78.147 59.2337 77.9043 55.256 77.4795 51.5068L101.116 54.5549C100.329 59.3126 100.12 64.1488 100.494 68.9572C100.561 69.474 100.673 69.984 100.828 70.4812C100.828 70.4812 100.828 70.6336 100.828 70.7251C101.678 73.4531 103.301 84.0147 98.2337 85.8435Z" fill="#EB9481"/>
<path d="M100.889 70.6336C100.941 70.8032 100.982 70.9764 101.01 71.1518C86.8705 70.5422 81.4847 64.2936 77.9954 58.3041C77.8892 56.018 77.7374 53.7319 77.4795 51.5068L101.116 54.5549C100.321 59.3118 100.112 64.149 100.494 68.9572C100.553 69.4753 100.665 69.986 100.828 70.4812C100.828 70.4812 100.858 70.5421 100.889 70.6336Z" fill="#10121B"/>
<path d="M67.7991 26.6042C66.5096 35.1237 74.2621 58.0453 80.8009 62.4498C90.298 68.8355 104.104 67.5248 109.065 56.4603C113.874 45.792 103.254 16.0426 96.1086 12.263C85.5798 6.59355 69.6955 14.0004 67.7991 26.6042Z" fill="#EB9481"/>
<path d="M89.6461 36.9062C89.6461 36.9062 89.5551 37.0282 89.6461 37.0891C90.2075 38.6132 90.5867 40.4725 89.373 41.4479C89.373 41.4479 89.373 41.5546 89.373 41.5241C90.966 40.7468 90.435 38.2779 89.6461 36.9062Z" fill="#10121B"/>
<path d="M87.7339 35.7636C85.2003 36.4037 86.6567 41.4482 89.0234 40.8539C91.3901 40.2595 89.9034 35.2149 87.7339 35.7636Z" fill="#10121B"/>
<path d="M99.127 34.041C99.127 34.041 99.2786 34.041 99.2938 34.1477C99.7034 35.6718 100.432 37.4701 101.979 37.5768C101.979 37.5768 101.979 37.653 101.979 37.6682C100.204 37.9273 99.2635 35.6108 99.127 34.041Z" fill="#10121B"/>
<path d="M100.053 31.999C102.511 31.0846 104.165 36.0682 101.889 36.9216C99.6133 37.7751 98.0052 32.7762 100.053 31.999Z" fill="#10121B"/>
<path d="M85.0801 34.0263C85.6918 33.6411 86.2795 33.2187 86.8399 32.7614C87.4923 32.2737 88.0839 31.9536 88.357 31.1459C88.4144 30.9063 88.3921 30.6543 88.2935 30.4286C88.1949 30.2029 88.0254 30.0159 87.8109 29.8962C87.3518 29.7319 86.8578 29.6918 86.3784 29.7801C85.899 29.8684 85.4513 30.0819 85.0801 30.3991C84.2277 30.9356 83.6054 31.7727 83.3354 32.7461C83.2802 32.972 83.2932 33.2092 83.3725 33.4277C83.4518 33.6462 83.594 33.836 83.7809 33.9732C83.9679 34.1104 84.1911 34.1887 84.4225 34.1981C84.6538 34.2076 84.8827 34.1478 85.0801 34.0263Z" fill="#10121B"/>
<path d="M101.267 28.8896C100.55 28.9274 99.8304 28.9274 99.1128 28.8896C98.3562 29.014 97.5797 28.8911 96.8978 28.539C96.7104 28.3813 96.5794 28.1666 96.5246 27.9272C96.4699 27.6879 96.4944 27.4372 96.5944 27.2131C96.8552 26.7984 97.2226 26.462 97.6578 26.2394C98.093 26.0168 98.5799 25.9162 99.0673 25.9482C100.068 25.8518 101.069 26.1344 101.874 26.7407C102.071 26.8836 102.219 27.0837 102.299 27.3141C102.378 27.5445 102.385 27.7939 102.319 28.0285C102.253 28.263 102.116 28.4715 101.928 28.6256C101.74 28.7796 101.509 28.8718 101.267 28.8896Z" fill="#10121B"/>
<path d="M93.5454 46.2643C94.1204 46.7647 94.791 47.1418 95.5163 47.3724C96.2415 47.6031 97.0061 47.6824 97.763 47.6055C98.4291 47.5403 99.0829 47.3813 99.7049 47.133L100.054 46.9806L100.388 46.8282C100.464 46.7854 100.525 46.72 100.563 46.6409C100.601 46.5618 100.614 46.4729 100.6 46.3862C100.606 46.3356 100.606 46.2845 100.6 46.2338V46.0967C100.281 44.8927 99.6442 43.0486 99.6442 43.0486C100.145 43.1553 102.678 43.5058 102.451 42.8809C100.739 37.4869 98.482 32.2831 95.7149 27.3509C95.7149 27.1833 95.3811 27.3509 95.4418 27.4729C96.9589 32.4717 99.4166 37.1505 101.07 42.1494C100.165 42.0206 99.2452 42.0206 98.3395 42.1494C98.1878 42.2409 99.6442 45.5937 99.7504 46.1576C98.7988 46.5475 97.7783 46.7391 96.7508 46.7208C95.7232 46.7025 94.7101 46.4746 93.7729 46.051C93.4998 46.0205 93.4089 46.1729 93.5454 46.2643Z" fill="#10121B"/>
<path opacity="0.2" d="M70.2876 42.7591C71.6227 41.6465 73.3219 36.0076 74.1108 33.6148C74.8997 31.2221 72.5026 21.4225 71.7137 18.4658C69.6619 20.7514 68.3084 23.582 67.8147 26.6195C67.2382 30.2314 68.3457 36.5257 70.2876 42.7591Z" fill="#10121B"/>
<path d="M92.6344 21.3456C92.0939 22.5636 91.2529 23.6228 90.191 24.4229C89.129 25.223 87.8812 25.7375 86.566 25.9178C85.2178 26.094 83.8471 25.9221 82.5835 25.418C81.3199 24.914 80.2051 24.0947 79.3445 23.0373C79.3445 22.9611 79.2079 23.0373 79.2534 23.1135C80.0553 24.306 81.1653 25.2567 82.4643 25.8635C83.7632 26.4703 85.2022 26.7104 86.6267 26.5579C88.0213 26.3342 89.3328 25.7462 90.4299 24.8528C91.5269 23.9594 92.3709 22.792 92.8772 21.4676C92.8469 21.3152 92.68 21.2389 92.6344 21.3456Z" fill="#10121B"/>
<path d="M79.5265 4.97737C77.5467 5.55144 75.7429 6.61764 74.2818 8.07741C72.8207 9.53717 71.7495 11.3434 71.1673 13.3291C70.758 15.2801 71.0257 17.313 71.9258 19.09C71.9258 19.09 72.1078 19.09 72.0775 19.09C71.5133 17.4509 71.3973 15.6896 71.7416 13.9901C72.0858 12.2906 72.8776 10.715 74.0345 9.42759C75.2838 7.96681 76.8533 6.81702 78.6197 6.06863C80.3861 5.32025 82.3012 4.99365 84.2145 5.11452C86.0705 5.20074 87.8373 5.93981 89.2057 7.20246C89.3423 7.33962 89.6306 7.20245 89.5092 7.00432C87.5521 4.55061 83.4407 3.74289 79.5265 4.97737Z" fill="#10121B"/>
<path d="M107.516 7.21775C106.191 5.26193 104.218 3.84167 101.948 3.2095C98.8078 2.32556 95.8797 3.43813 92.9365 4.61164C92.9365 4.61164 92.9365 4.76403 92.9365 4.73355C95.3339 3.54971 98.0213 3.08917 100.674 3.40764C102.894 3.84428 104.9 5.0267 106.363 6.76055C107.509 8.17548 108.224 9.89235 108.422 11.7053C108.621 13.5182 108.295 15.3502 107.483 16.9815C106.671 18.6128 105.408 19.9742 103.845 20.9024C102.282 21.8305 100.485 22.2861 98.6713 22.2143C98.5803 22.2143 98.5499 22.382 98.6713 22.382C100.493 22.5084 102.313 22.1193 103.926 21.259C105.539 20.3987 106.88 19.1015 107.796 17.5147C108.712 15.9279 109.167 14.1149 109.11 12.2814C109.052 10.4479 108.484 8.66731 107.471 7.14156L107.516 7.21775Z" fill="#10121B"/>
<path d="M67.7379 31.4803C67.7379 31.4803 61.3963 24.8203 63.581 19.288C64.825 16.1637 71.4245 14.7159 71.4245 14.7159C71.9187 13.1861 72.7093 11.7696 73.7508 10.5481C74.7923 9.32663 76.0641 8.32417 77.4929 7.59856C82.5753 4.79432 89.9485 6.07451 89.9485 6.07451C89.9485 6.07451 94.2874 1.63955 99.9159 3.02643C107.759 4.99244 109.823 15.5693 103.952 20.812C99.8401 24.5002 92.1635 22.0922 92.1635 22.0922C91.5566 22.3666 86.2619 28.036 79.8293 23.6163C79.8293 23.6163 76.9013 28.1884 72.6837 26.7863C72.4445 27.9868 71.8401 29.0831 70.9543 29.9239C70.0684 30.7647 68.9446 31.3085 67.7379 31.4803Z" fill="#10121B"/>
<path d="M75.6285 45.0601C75.6285 45.0601 69.0744 38.3543 65.9643 40.8233C62.8542 43.2922 68.6649 53.6405 72.9431 54.4635C73.4835 54.6106 74.0479 54.6457 74.6022 54.5667C75.1565 54.4878 75.6889 54.2963 76.1672 54.0041C76.6455 53.7118 77.0595 53.3248 77.3842 52.8667C77.7089 52.4085 77.9374 51.8889 78.0558 51.3392L75.6285 45.0601Z" fill="#EB9481"/>
<path d="M67.6914 43.7947V43.9014C70.7256 44.5872 72.6372 46.9495 74.1392 49.5099C73.9227 49.2583 73.6548 49.0564 73.3538 48.9181C73.0527 48.7797 72.7256 48.7081 72.3945 48.7081C72.0635 48.7081 71.7363 48.7797 71.4352 48.9181C71.1342 49.0564 70.8663 49.2583 70.6498 49.5099C70.6498 49.5099 70.6498 49.6775 70.7408 49.647C71.212 49.4058 71.7456 49.3158 72.2693 49.3895C72.7931 49.4631 73.2817 49.6966 73.6689 50.0585C74.3116 50.6713 74.8817 51.3566 75.368 52.1008C75.5501 52.3294 75.9749 52.1007 75.8383 51.8417C75.2618 48.0468 71.6966 43.4594 67.6914 43.7947Z" fill="#10121B"/>
<path d="M100.811 70.1308L95.7896 84.1063L78.191 67.418L73.6396 73.1636C73.6396 73.1636 91.2533 100.063 91.2989 98.8133L96.4723 86.7886L104.892 94.6983L103.375 74.1085L100.811 70.1308Z" fill="#EBEBEB"/>
<path d="M104.726 84.4715C104.377 81.0881 104.119 77.659 103.603 74.2909C103.603 74.169 103.406 74.1233 103.376 74.2909C102.83 77.5981 104.24 90.5677 104.347 93.6767C103.998 93.3414 96.5639 86.7423 96.488 86.849C95.3502 88.7693 91.5421 97.5173 91.2994 98.3251C88.5079 94.0425 77.8577 78.5125 74.6111 74.5195C74.5916 74.5025 74.5672 74.4922 74.5414 74.4901C74.5157 74.4879 74.4899 74.4941 74.4679 74.5077C74.4459 74.5213 74.4288 74.5416 74.4191 74.5657C74.4094 74.5897 74.4075 74.6162 74.4138 74.6414C76.9019 79.2135 90.9959 100.078 91.1932 100.002C93.2158 95.8687 95.0187 91.631 96.5941 87.3062C97.8685 88.754 105.409 96.2219 105.424 95.719C105.383 91.9603 105.15 88.2062 104.726 84.4715Z" fill="#10121B"/>
</svg>
