<svg width="52" height="52" viewBox="0 0 52 52" fill="none" xmlns="http://www.w3.org/2000/svg">
<path d="M18.6478 42.0041C28.3214 45.5861 39.0673 40.6475 42.6495 30.9734C46.2316 21.2993 41.2936 10.5531 31.62 6.97111C21.9465 3.38912 11.2006 8.32776 7.61837 18.0019C4.03619 27.676 8.97423 38.4222 18.6478 42.0041Z" fill="#FFC701"/>
<path d="M20.6791 36.5185C17.6814 35.4106 15.2051 33.2238 13.7348 30.3862C12.2646 27.5485 11.9062 24.2643 12.7297 21.1762L13.4455 21.3678C12.6723 24.2776 13.0115 27.3711 14.3969 30.0441C15.7824 32.7171 18.1145 34.7775 20.9378 35.8229C23.7611 36.8684 26.8727 36.8237 29.6649 35.6976C32.4571 34.5715 34.7293 32.445 36.0376 29.7333L36.7055 30.0541C35.3191 32.9342 32.9078 35.1931 29.9435 36.3888C26.9793 37.5845 23.6755 37.6307 20.6791 36.5185Z" fill="black"/>
<path d="M11.0661 14.7C10.5337 14.0291 10.2123 13.2153 10.1425 12.3616C10.0728 11.5079 10.2578 10.6527 10.6742 9.90418C11.0907 9.15568 11.7198 8.54753 12.482 8.1567C13.2441 7.76587 14.1051 7.60992 14.9559 7.7086C15.3017 7.7488 15.6415 7.83008 15.9681 7.95071C16.7096 8.22595 17.3613 8.69924 17.8525 9.3191L18.9317 10.6666L20.2792 9.58732C21.1811 8.87262 22.33 8.54548 23.4731 8.67787C24.0391 8.74342 24.5866 8.91982 25.0844 9.19699C25.5823 9.47416 26.0206 9.84668 26.3745 10.2933C26.7283 10.7399 26.9907 11.2518 27.1468 11.7998C27.3028 12.3478 27.3493 12.9212 27.2838 13.4872C27.2182 14.0533 27.0418 14.6008 26.7646 15.0987C26.4874 15.5965 26.1149 16.0349 25.6683 16.3888L24.5974 17.2459L17.517 22.845L11.0661 14.7Z" fill="#F24E1E"/>
<path d="M30.2601 19.342L30.0018 18.0046C29.8052 16.8853 30.0562 15.7337 30.7006 14.7977C31.3449 13.8616 32.3311 13.2162 33.4468 13.0003C34.5624 12.7844 35.7182 13.0154 36.6651 13.6435C37.6121 14.2716 38.2744 15.2466 38.5095 16.3584L38.8291 18.055L40.5257 17.7353C41.3021 17.5846 42.1049 17.6499 42.8468 17.9241C43.1732 18.0453 43.484 18.2049 43.7726 18.3996C44.4825 18.8789 45.0342 19.5579 45.3581 20.3509C45.6819 21.1439 45.7632 22.0151 45.5918 22.8543C45.4203 23.6935 45.0037 24.463 44.3948 25.0654C43.7859 25.6678 43.012 26.076 42.171 26.2384L31.9607 28.2139L30.2601 19.342Z" fill="#F24E1E"/>
<path d="M45.2652 28.2162C45.7923 27.8313 46.2333 27.3406 46.5601 26.7756C46.8869 26.2106 47.0922 25.5836 47.163 24.9347C47.2338 24.2859 47.1684 23.6294 46.9712 23.0072C46.7739 22.385 46.4491 21.8108 46.0174 21.3213C46.0046 21.2407 45.9938 21.1609 45.982 21.0712C45.8649 20.4649 45.6292 19.8877 45.2884 19.3727C44.9476 18.8577 44.5084 18.4151 43.996 18.0703C43.6858 17.8606 43.3519 17.6884 43.0011 17.5574L42.8615 17.5057C41.8828 15.0112 40.3881 12.7517 38.4752 10.8753C36.5623 8.99885 34.2745 7.54787 31.7617 6.61742C29.2489 5.68696 26.5679 5.29804 23.8942 5.47614C21.2206 5.65424 18.6148 6.39534 16.2475 7.65087L16.1079 7.59917C15.7531 7.46827 15.384 7.38013 15.0084 7.33661C14.2583 7.24866 13.4981 7.34258 12.792 7.61044C12.0859 7.8783 11.4546 8.31222 10.9516 8.87553C10.4485 9.43884 10.0884 10.115 9.90181 10.8468C9.71518 11.5786 9.70746 12.3446 9.87931 13.08C7.68908 16.0104 6.38956 19.5098 6.13628 23.1594C5.883 26.8091 6.68668 30.4544 8.45114 33.6591C9.98649 37.7261 12.8671 41.1454 16.6144 43.3487C20.3618 45.552 24.7502 46.4068 29.0505 45.771C33.3509 45.1352 37.3044 43.0471 40.2541 39.8536C43.2037 36.6602 44.9721 32.5536 45.2652 28.2162ZM42.29 18.1211C42.4406 18.1559 42.5887 18.2005 42.7335 18.2545C42.8917 18.3131 43.0459 18.3821 43.195 18.461C43.3296 18.529 43.4593 18.6064 43.5832 18.6924C44.0653 19.0174 44.4698 19.4448 44.7678 19.9441C45.0659 20.4433 45.2501 21.0022 45.3074 21.5808C45.3647 22.1594 45.2937 22.7436 45.0994 23.2916C44.905 23.8397 44.5923 24.3381 44.1833 24.7514C43.9586 24.9841 43.7044 25.1863 43.4273 25.3531C43.0234 25.6011 42.578 25.7742 42.1126 25.8639L40.7773 26.1231L32.2815 27.769L30.6258 19.2621L30.3703 17.9233C30.2573 17.4074 30.2486 16.874 30.3447 16.3546C30.4409 15.8353 30.64 15.3404 30.9303 14.8991C31.2205 14.4578 31.5962 14.0791 32.035 13.7851C32.4739 13.4912 32.9671 13.288 33.4856 13.1876C34.0042 13.0871 34.5375 13.0914 35.0544 13.2002C35.5712 13.309 36.0611 13.5201 36.4951 13.8211C36.9292 14.122 37.2986 14.5068 37.5817 14.9527C37.8648 15.3986 38.0558 15.8966 38.1436 16.4175L38.4027 17.7528L38.5433 18.4803L39.2707 18.3397L40.6081 18.0813C41.165 17.973 41.7388 17.9865 42.29 18.1211ZM11.9988 8.90482C12.4057 8.58117 12.8726 8.34129 13.3727 8.19903C13.8728 8.05677 14.396 8.01495 14.9123 8.07597C15.0624 8.0915 15.2112 8.11731 15.3577 8.15319C15.5229 8.19074 15.6855 8.23907 15.8444 8.29787C15.9894 8.35121 16.1309 8.41387 16.2678 8.48547C16.7729 8.74235 17.2164 9.10546 17.568 9.54988L18.4125 10.6162L18.8729 11.1966L19.4534 10.7362L20.5197 9.89161C21.3427 9.23884 22.3914 8.93976 23.4349 9.06018C23.9516 9.1198 24.4515 9.28062 24.906 9.53345C25.3606 9.78627 25.7609 10.1262 26.0841 10.5337C26.4073 10.9412 26.647 11.4085 26.7897 11.9087C26.9323 12.4089 26.975 12.9323 26.9154 13.449C26.8557 13.9657 26.6949 14.4657 26.4421 14.9202C26.1892 15.3748 25.8493 15.7751 25.4418 16.0984L24.3768 16.9458L17.5835 22.3265L12.2017 15.5372L11.3536 14.4743C11.0624 14.1032 10.8391 13.6836 10.694 13.2348C10.5928 12.9266 10.5313 12.6068 10.5109 12.283C10.4658 11.6414 10.5777 10.9985 10.8369 10.4099C11.0962 9.82123 11.495 9.30465 11.9988 8.90482ZM10.1716 13.9418C10.3314 14.2948 10.534 14.6269 10.7746 14.9306L11.622 15.9956L17.464 23.3724L24.8383 17.5361L25.9062 16.6874C26.8844 15.9126 27.5148 14.781 27.6587 13.5414C27.8026 12.3019 27.4482 11.056 26.6735 10.0778C25.8988 9.09953 24.7673 8.46915 23.5278 8.32528C22.2883 8.18141 21.0424 8.53585 20.0642 9.31061L18.9971 10.1573L18.1534 9.08888C17.841 8.69565 17.4683 8.35445 17.049 8.07801C19.2793 6.97361 21.7115 6.33646 24.1967 6.20564C26.6819 6.07482 29.1676 6.45309 31.5014 7.31725C33.8352 8.18141 35.9678 9.51324 37.7684 11.2311C39.5691 12.9489 40.9999 15.0165 41.973 17.307C41.4754 17.2444 40.9711 17.2608 40.4787 17.3556L39.1426 17.6169L38.8843 16.2794C38.7665 15.673 38.5305 15.0957 38.1896 14.5805C37.8488 14.0653 37.4098 13.6223 36.8977 13.2768C36.3857 12.9313 35.8106 12.69 35.2053 12.5668C34.5999 12.4435 33.9763 12.4407 33.3699 12.5585C32.7635 12.6763 32.1862 12.9124 31.671 13.2533C31.1559 13.5941 30.7129 14.0332 30.3673 14.5453C30.0218 15.0574 29.7805 15.6325 29.6573 16.2378C29.534 16.8432 29.5312 17.4669 29.6489 18.0733L29.9044 19.412L31.6994 28.6435L40.9181 26.8435L42.2547 26.5872C42.6355 26.5148 43.0056 26.3947 43.3563 26.2297C43.1091 28.8224 42.3115 31.3326 41.0169 33.5926C39.7222 35.8526 37.9603 37.8103 35.8488 39.335C33.7372 40.8598 31.3247 41.9164 28.7723 42.4344C26.2199 42.9524 23.5864 42.9198 21.0476 42.3387C18.5089 41.7577 16.1233 40.6417 14.0503 39.0651C11.9773 37.4886 10.2645 35.4878 9.02637 33.1965C7.78824 30.9051 7.05325 28.376 6.87049 25.7779C6.68774 23.1798 7.06142 20.5726 7.96657 18.1304C8.51566 16.644 9.25695 15.2358 10.1716 13.9418Z" fill="black"/>
</svg>
