<svg width="21" height="21" viewBox="0 0 21 21" fill="none" xmlns="http://www.w3.org/2000/svg">
<path d="M20.8074 13.9589C20.687 14.1795 20.5115 14.3757 20.293 14.5339C20.0744 14.6922 19.8179 14.8089 19.541 14.876C19.6492 14.9475 19.7482 15.0282 19.8366 15.1169L19.8697 15.1507C20.0832 15.3671 20.2299 15.6247 20.2968 15.9005C20.3636 16.1762 20.3485 16.4617 20.2529 16.7313C20.1572 17.001 19.9839 17.2465 19.7484 17.4461C19.5129 17.6457 19.2225 17.7931 18.903 17.8753C19.013 17.9479 19.1138 18.0298 19.2041 18.1197L19.2317 18.1476C19.4774 18.3959 19.6342 18.698 19.6836 19.0187C19.7331 19.3393 19.6731 19.6652 19.5109 19.9582C19.3487 20.2512 19.0908 20.4992 18.7674 20.6732C18.4441 20.8472 18.0686 20.94 17.685 20.9408L4.74656 20.949C3.87861 20.9474 3.04677 20.656 2.43329 20.1386C1.81982 19.6211 1.47473 18.9198 1.47363 18.1883V10.9271H2.92367C3.77435 10.9271 4.17345 10.8235 4.7079 9.78187C5.58758 7.91972 6.7918 6.61505 7.75987 5.56526C8.72794 4.51547 9.51648 3.66353 9.51648 2.72431V2.08652C9.51648 1.80872 9.64743 1.54229 9.88051 1.34586C10.1136 1.14942 10.4297 1.03906 10.7594 1.03906H11.0535C11.5834 1.04025 12.0972 1.19247 12.5114 1.47097C12.9256 1.74947 13.2158 2.13787 13.3349 2.57301C13.6718 3.77611 13.5525 5.03797 12.9938 6.18093L12.1652 7.87898C12.1327 7.94715 12.1205 8.021 12.1297 8.09406C12.1389 8.16712 12.1693 8.23715 12.2181 8.29804C12.2669 8.35892 12.3326 8.40879 12.4096 8.44327C12.4866 8.47775 12.5724 8.4958 12.6596 8.49582L18.3133 8.50513C18.607 8.50586 18.8969 8.5606 19.1629 8.66553C19.4288 8.77046 19.6644 8.92306 19.8531 9.11266L19.8877 9.14757C20.1353 9.39517 20.293 9.69763 20.342 10.0188C20.391 10.3399 20.3291 10.6662 20.1639 10.9585C20.0269 11.2069 19.8214 11.424 19.5645 11.5916C19.9249 11.6893 20.2452 11.8709 20.4884 12.1154L20.5174 12.1445C20.7673 12.3915 20.9275 12.694 20.979 13.0158C21.0304 13.3375 20.9708 13.6649 20.8074 13.9589Z" fill="#10121B"/>
<path d="M16.4822 13.6772V13.6841H17.0581C17.3134 13.6852 17.5655 13.7329 17.7968 13.8242C18.0281 13.9154 18.2331 14.0479 18.3976 14.2125L18.4266 14.244C18.6425 14.46 18.7806 14.7236 18.8247 15.0036C18.8687 15.2837 18.8169 15.5685 18.6752 15.8245C18.5336 16.0805 18.308 16.297 18.0252 16.4486C17.7423 16.6001 17.4139 16.6804 17.0788 16.6799H16.4228V16.688C16.6784 16.6889 16.9306 16.7367 17.162 16.8281C17.3933 16.9196 17.5982 17.0525 17.7624 17.2176L17.7914 17.2467C18.0068 17.4628 18.1446 17.7262 18.1884 18.0061C18.2322 18.2859 18.1803 18.5705 18.0387 18.8263C17.897 19.0821 17.6717 19.2984 17.3891 19.4499C17.1065 19.6014 16.7784 19.6818 16.4435 19.6814H3.50647C3.11082 19.6816 2.71901 19.6161 2.35343 19.4886C1.98785 19.3611 1.65565 19.1741 1.37582 18.9384C1.096 18.7027 0.874015 18.4228 0.722565 18.1147C0.571116 17.8067 0.493164 17.4765 0.493164 17.1431V10.1042H1.68357C2.62678 10.1042 3.13222 9.9517 3.71086 8.82393C5.48404 5.07053 8.5443 3.67042 8.5443 1.67908V1.04711C8.54648 0.830405 8.65017 0.623198 8.83277 0.470612C9.01538 0.318025 9.26212 0.232415 9.51927 0.232423H9.81204C10.2804 0.232052 10.7352 0.364749 11.1031 0.609081C11.4709 0.853413 11.7303 1.19511 11.8393 1.57899C11.9583 2.00428 12.0185 2.43973 12.0189 2.87668C12.0183 3.62153 11.8457 4.35917 11.5106 5.04842L10.6848 6.74996C10.6343 6.8523 10.6146 6.96358 10.6274 7.07389C10.6402 7.18421 10.6852 7.29015 10.7583 7.38229C10.8314 7.47443 10.9304 7.54991 11.0465 7.60203C11.1626 7.65415 11.2921 7.68129 11.4236 7.68103H17.0788C17.3342 7.68204 17.5862 7.72982 17.8175 7.82105C18.0488 7.91229 18.2538 8.0448 18.4183 8.20942L18.4473 8.24201C18.6624 8.45812 18.7998 8.72148 18.8433 9.00113C18.8869 9.28077 18.8349 9.5651 18.6933 9.82068C18.5518 10.0763 18.3266 10.2925 18.0443 10.4439C17.7619 10.5954 17.4342 10.6757 17.0995 10.6756H16.5471H17.7209C17.9765 10.6764 18.2288 10.7241 18.4602 10.8156C18.6915 10.9071 18.8964 11.04 19.0605 11.2052L19.0909 11.2354C19.3063 11.4514 19.444 11.7148 19.4879 11.9945C19.5317 12.2743 19.4799 12.5587 19.3384 12.8145C19.197 13.0702 18.9719 13.2866 18.6895 13.4382C18.4071 13.5898 18.0792 13.6703 17.7444 13.6702L16.4822 13.6772Z" fill="#FF6EC9"/>
<path d="M19.288 11.0996L19.2604 11.0717C19.0176 10.8265 18.6973 10.6445 18.3365 10.5468C18.5933 10.379 18.7988 10.1619 18.9359 9.91365C19.1013 9.62115 19.1632 9.2947 19.1142 8.97334C19.0652 8.65198 18.9074 8.34931 18.6597 8.10154L18.6265 8.06779C18.4369 7.87735 18.1999 7.72426 17.9325 7.6193C17.665 7.51433 17.3735 7.46005 17.0785 7.46026L11.4233 7.44862C11.3355 7.44891 11.2489 7.43089 11.1713 7.39615C11.0937 7.36142 11.0274 7.31106 10.9785 7.24954C10.9296 7.18803 10.8994 7.11728 10.8908 7.04358C10.8821 6.96988 10.8953 6.89553 10.9289 6.82713L11.7575 5.12908C12.3141 3.98774 12.4338 2.72843 12.1 1.52698C11.9789 1.09138 11.6861 0.70325 11.2695 0.425929C10.8529 0.148607 10.3371 -0.00153239 9.80621 1.17935e-05H9.51344C9.18381 1.17935e-05 8.86767 0.110369 8.63459 0.306806C8.4015 0.503243 8.27055 0.769669 8.27055 1.04747V1.68526C8.27055 2.62565 7.49582 3.46478 6.51532 4.52737C5.53483 5.58996 4.34718 6.87601 3.46887 8.73816C2.93443 9.78562 2.53395 9.88339 1.68464 9.88339H0.230469V17.1435C0.232295 17.8749 0.578086 18.576 1.19208 19.093C1.80608 19.61 2.63821 19.9008 3.50616 19.9018H16.446C16.8296 19.901 17.2051 19.8082 17.5284 19.6341C17.8518 19.4601 18.1096 19.2121 18.2719 18.9191C18.4341 18.6261 18.494 18.3003 18.4446 17.9796C18.3951 17.659 18.2384 17.3569 17.9927 17.1085L17.9651 17.0806C17.8752 16.9901 17.7743 16.9078 17.664 16.835C17.9839 16.7536 18.2748 16.6066 18.5107 16.4071C18.7467 16.2077 18.9203 15.9621 19.0161 15.6923C19.1118 15.4226 19.1268 15.137 19.0595 14.8611C18.9923 14.5853 18.8449 14.3278 18.6307 14.1116L18.5989 14.0767C18.51 13.9884 18.4105 13.908 18.302 13.837C18.6261 13.7582 18.9217 13.6123 19.1619 13.4127C19.4021 13.2131 19.5793 12.966 19.6773 12.694C19.7752 12.422 19.791 12.1336 19.723 11.8551C19.655 11.5767 19.5055 11.3169 19.288 11.0996ZM19.0961 12.729C18.9773 12.9474 18.7864 13.1323 18.5461 13.2615C18.3058 13.3907 18.0264 13.4588 17.7413 13.4576H16.4846V13.908H17.0619C17.2784 13.9083 17.4922 13.9483 17.6884 14.0253C17.8847 14.1023 18.0587 14.2144 18.1984 14.3537L18.2316 14.3886C18.4146 14.5725 18.5315 14.7965 18.5686 15.0344C18.6057 15.2723 18.5614 15.5141 18.4411 15.7316C18.3207 15.949 18.1292 16.133 17.889 16.2619C17.6489 16.3907 17.3701 16.4592 17.0854 16.4591H16.428V16.9095C16.6457 16.9101 16.8607 16.9508 17.0577 17.0288C17.2548 17.1068 17.4292 17.2202 17.5687 17.3611L17.5963 17.3902C17.7792 17.5739 17.8961 17.7979 17.9333 18.0356C17.9704 18.2734 17.9263 18.5152 17.8061 18.7326C17.6859 18.95 17.4946 19.134 17.2547 19.263C17.0147 19.3919 16.7361 19.4605 16.4515 19.4607H3.50616C2.77716 19.4601 2.07823 19.2157 1.56275 18.7813C1.04727 18.3469 0.757355 17.7578 0.756623 17.1435V10.3256H1.68464C2.72867 10.3256 3.34182 10.115 3.9536 8.90808C4.80843 7.09947 5.98779 5.81924 6.93514 4.79389C7.97778 3.66496 8.80223 2.77229 8.80223 1.6806V1.04747C8.8026 0.888602 8.87764 0.736326 9.01094 0.623987C9.14424 0.511648 9.32493 0.4484 9.51344 0.448092H9.80621C10.2174 0.446334 10.6171 0.56223 10.94 0.776822C11.2628 0.991414 11.4897 1.292 11.5835 1.6294C11.8938 2.74143 11.7833 3.90744 11.2673 4.96381L10.4497 6.66186C10.3839 6.79662 10.3582 6.94292 10.3749 7.08797C10.3916 7.23303 10.4502 7.37243 10.5455 7.49401C10.6409 7.61559 10.7701 7.71564 10.9219 7.78543C11.0737 7.85522 11.2435 7.89262 11.4164 7.89438L17.0702 7.90369C17.2867 7.90379 17.5006 7.94373 17.6969 8.02072C17.8932 8.09771 18.0672 8.2099 18.2067 8.34944L18.2399 8.38319C18.4227 8.56715 18.5394 8.79122 18.5765 9.02913C18.6135 9.26705 18.5693 9.50892 18.4489 9.72639C18.3286 9.94386 18.1372 10.1279 17.8972 10.2569C17.6571 10.3859 17.3784 10.4546 17.0937 10.4548H16.5399V10.9029H17.7123C17.9303 10.9033 18.1455 10.9439 18.3428 11.0219C18.5401 11.0999 18.7148 11.2135 18.8544 11.3545L18.882 11.3824C19.0673 11.5657 19.1858 11.7902 19.223 12.029C19.2602 12.2677 19.2147 12.5104 19.0919 12.7278L19.0961 12.729Z" fill="#10121B"/>
</svg>
