<svg width="46" height="37" viewBox="0 0 46 37" fill="none" xmlns="http://www.w3.org/2000/svg">
<path d="M23.8211 25.6252C23.8211 22.8561 24.2 20.1721 24.958 17.5734C25.7159 14.9747 26.9371 12.5676 28.6214 10.3523C30.3478 8.13702 32.5585 6.15602 35.2534 4.40933C37.9483 2.62003 41.2117 1.15026 45.0435 0V5.49568C40.8327 6.85895 37.7377 8.52044 35.7587 10.4801C33.7796 12.4398 32.7901 14.6978 32.7901 17.2539C32.7901 18.1059 33.0217 18.8302 33.4848 19.4266C33.948 19.9804 34.5165 20.4917 35.1902 20.9603C35.9061 21.3863 36.664 21.8123 37.464 22.2383C38.3062 22.6644 39.0641 23.1756 39.7379 23.772C40.4537 24.3685 41.0432 25.114 41.5064 26.0086C41.9696 26.8607 42.2012 27.947 42.2012 29.2677C42.2012 31.7812 41.4011 33.6983 39.801 35.019C38.2009 36.3397 36.2008 37 33.8007 37C32.4953 37 31.2321 36.7657 30.0109 36.2971C28.7898 35.7858 27.7161 35.0616 26.7897 34.1244C25.9054 33.1445 25.1896 31.9516 24.6422 30.5458C24.0948 29.0973 23.8211 27.4571 23.8211 25.6252ZM0 25.6252C0 22.8561 0.378972 20.1721 1.13691 17.5734C1.89486 14.9747 3.11599 12.5676 4.80031 10.3523C6.52673 8.13702 8.7374 6.15602 11.4323 4.40933C14.1272 2.62003 17.3906 1.15026 21.2224 0V5.49568C16.9695 6.85895 13.8535 8.52044 11.8744 10.4801C9.89537 12.4398 8.90583 14.6978 8.90583 17.2539C8.90583 18.1059 9.13743 18.8302 9.60061 19.4266C10.0638 19.9804 10.6533 20.4917 11.3691 20.9603C12.085 21.3863 12.8429 21.8123 13.643 22.2383C14.443 22.6644 15.201 23.1756 15.9168 23.772C16.6326 24.3685 17.2222 25.114 17.6853 26.0086C18.1485 26.8607 18.3801 27.947 18.3801 29.2677C18.3801 31.7812 17.559 33.6983 15.9168 35.019C14.3167 36.3397 12.3166 37 9.91642 37C8.61108 37 7.34784 36.7657 6.12671 36.2971C4.94768 35.7858 3.89499 35.0616 2.96861 34.1244C2.04224 33.1445 1.30535 31.9516 0.757943 30.5458C0.252648 29.0973 0 27.4571 0 25.6252Z" fill="#FCFF71"/>
</svg>
