<svg width="140" height="266" viewBox="0 0 140 266" fill="none" xmlns="http://www.w3.org/2000/svg">
<path d="M39.2709 10.0255C32.653 27.769 26.5671 45.3408 23.2691 63.6822C21.4111 74.0153 20.0539 84.4369 18.9641 94.8157C18.1523 102.546 16.8264 111.602 20.3274 118.798C26.5707 131.632 49.5115 136.79 63.8879 138.875C67.752 139.436 102.947 141.159 101.735 134.908C100.302 127.521 81.2382 128.593 75.8352 130.176C58.0231 135.395 48.2888 148.214 50.892 164.285C52.6072 174.874 59.4775 183.741 66.0912 192.252C74.3242 202.847 82.8698 213.547 93.8989 222.054C106.636 231.878 121.394 240.405 137.379 245.892" stroke="#10121B" stroke-width="2" stroke-linecap="round"/>
<path d="M132.691 231.54C134.502 236.429 136.658 241.229 138.413 246.129C138.883 247.441 139.61 247.926 137.763 247.696C134.307 247.266 130.617 248.32 127.139 248.548C123.887 248.761 117.799 249.782 114.996 248.175" stroke="#10121B" stroke-width="2" stroke-linecap="round"/>
</svg>
