<svg width="76" height="139" viewBox="0 0 76 139" fill="none" xmlns="http://www.w3.org/2000/svg">
<path d="M74.125 4.78711C56.4496 8.17777 39.1766 10.6788 21.1503 11.1636C18.1195 11.2451 11.954 10.413 9.17019 12.1932C8.36052 12.711 18.994 15.6233 19.5344 15.7508C33.7814 19.1123 44.1149 24.6647 55.3838 34.0925C59.956 37.9177 65.0831 41.9098 68.6194 46.7772C72.0422 51.4884 66.0407 51.5835 62.6613 52.0172C50.6966 53.5529 39.6287 57.4492 28.9921 63.1522C20.4622 67.7256 24.3484 70.1515 30.5303 74.6669C38.6385 80.5894 44.3367 87.9907 44.4427 98.5058C44.6195 116.038 34.157 127.005 19.6651 134.496" stroke="#10121B" stroke-width="2" stroke-linecap="round"/>
<path d="M21.378 127.67C21.4 129.852 20.8598 131.091 19.888 132.977C19.8116 133.126 18.902 134.652 19.4655 134.568C20.5743 134.402 21.6255 134.839 22.7054 135.029C24.2331 135.298 25.8123 135.328 27.3581 135.443" stroke="#10121B" stroke-width="2" stroke-linecap="round"/>
</svg>
