<svg width="486" height="420" viewBox="0 0 486 420" fill="none" xmlns="http://www.w3.org/2000/svg">
<rect x="17" y="17" width="468" height="402" fill="#A3A3A3" stroke="black" stroke-width="2"/>
<rect x="9" y="9" width="468" height="402" fill="#CCCCCC" stroke="black" stroke-width="2"/>
<rect x="1" y="1" width="468" height="402" fill="white" stroke="black" stroke-width="2"/>
<path d="M127.69 46.8H122.958L119.5 53.82L116.042 46.8H111.31L117.42 58.006V65H121.58V58.006L127.69 46.8ZM132.767 65.364C136.589 65.364 139.657 62.374 139.657 58.5C139.657 54.626 136.589 51.636 132.767 51.636C128.945 51.636 125.877 54.626 125.877 58.5C125.877 62.374 128.945 65.364 132.767 65.364ZM132.767 61.568C131.077 61.568 129.777 60.346 129.777 58.5C129.777 56.654 131.077 55.432 132.767 55.432C134.457 55.432 135.757 56.654 135.757 58.5C135.757 60.346 134.457 61.568 132.767 61.568ZM150.261 52V59.098C150.261 60.944 149.273 61.776 147.843 61.776C146.595 61.776 145.581 61.022 145.581 59.41V52H141.681V59.982C141.681 63.492 143.917 65.364 146.543 65.364C148.259 65.364 149.559 64.74 150.261 63.778V65H154.161V52H150.261ZM160.921 54.314V52H157.021V65H160.921V59.124C160.921 56.55 163.209 55.9 164.821 56.16V51.74C163.183 51.74 161.441 52.572 160.921 54.314ZM179.384 65.364C181.932 65.364 184.142 64.038 185.26 62.01L181.854 60.06C181.438 60.97 180.476 61.516 179.332 61.516C177.642 61.516 176.394 60.294 176.394 58.5C176.394 56.706 177.642 55.484 179.332 55.484C180.476 55.484 181.412 56.03 181.854 56.94L185.26 54.964C184.142 52.962 181.906 51.636 179.384 51.636C175.432 51.636 172.494 54.626 172.494 58.5C172.494 62.374 175.432 65.364 179.384 65.364ZM195.354 52V59.098C195.354 60.944 194.366 61.776 192.936 61.776C191.688 61.776 190.674 61.022 190.674 59.41V52H186.774V59.982C186.774 63.492 189.01 65.364 191.636 65.364C193.352 65.364 194.652 64.74 195.354 63.778V65H199.254V52H195.354ZM206.015 54.314V52H202.115V65H206.015V59.124C206.015 56.55 208.303 55.9 209.915 56.16V51.74C208.277 51.74 206.535 52.572 206.015 54.314ZM215.638 54.314V52H211.738V65H215.638V59.124C215.638 56.55 217.926 55.9 219.538 56.16V51.74C217.9 51.74 216.158 52.572 215.638 54.314ZM224.464 60.06H233.694C233.798 59.566 233.85 59.046 233.85 58.5C233.85 54.574 231.042 51.636 227.246 51.636C223.138 51.636 220.33 54.626 220.33 58.5C220.33 62.374 223.086 65.364 227.532 65.364C230.002 65.364 231.926 64.454 233.2 62.686L230.08 60.892C229.56 61.464 228.65 61.88 227.584 61.88C226.154 61.88 224.958 61.412 224.464 60.06ZM224.386 57.148C224.75 55.822 225.738 55.094 227.22 55.094C228.39 55.094 229.56 55.64 229.976 57.148H224.386ZM243.68 51.636C241.964 51.636 240.664 52.26 239.962 53.222V52H236.062V65H239.962V57.902C239.962 56.056 240.95 55.224 242.38 55.224C243.628 55.224 244.642 55.978 244.642 57.59V65H248.542V57.018C248.542 53.508 246.306 51.636 243.68 51.636ZM258.838 55.744V52H256.16V48.36L252.26 49.53V52H250.18V55.744H252.26V60.346C252.26 63.986 253.742 65.52 258.838 65V61.464C257.122 61.568 256.16 61.464 256.16 60.346V55.744H258.838ZM275.574 51.636C273.832 51.636 272.558 52.234 271.7 53.222V52H267.8V70.2H271.7V63.778C272.558 64.766 273.832 65.364 275.574 65.364C278.98 65.364 281.788 62.374 281.788 58.5C281.788 54.626 278.98 51.636 275.574 51.636ZM274.794 61.672C273 61.672 271.7 60.45 271.7 58.5C271.7 56.55 273 55.328 274.794 55.328C276.588 55.328 277.888 56.55 277.888 58.5C277.888 60.45 276.588 61.672 274.794 61.672ZM287.899 54.314V52H283.999V65H287.899V59.124C287.899 56.55 290.187 55.9 291.799 56.16V51.74C290.161 51.74 288.419 52.572 287.899 54.314ZM299.482 65.364C303.304 65.364 306.372 62.374 306.372 58.5C306.372 54.626 303.304 51.636 299.482 51.636C295.66 51.636 292.592 54.626 292.592 58.5C292.592 62.374 295.66 65.364 299.482 65.364ZM299.482 61.568C297.792 61.568 296.492 60.346 296.492 58.5C296.492 56.654 297.792 55.432 299.482 55.432C301.172 55.432 302.472 56.654 302.472 58.5C302.472 60.346 301.172 61.568 299.482 61.568ZM314.817 65.364C317.365 65.364 319.575 64.038 320.693 62.01L317.287 60.06C316.871 60.97 315.909 61.516 314.765 61.516C313.075 61.516 311.827 60.294 311.827 58.5C311.827 56.706 313.075 55.484 314.765 55.484C315.909 55.484 316.845 56.03 317.287 56.94L320.693 54.964C319.575 52.962 317.339 51.636 314.817 51.636C310.865 51.636 307.927 54.626 307.927 58.5C307.927 62.374 310.865 65.364 314.817 65.364ZM325.493 60.06H334.723C334.827 59.566 334.879 59.046 334.879 58.5C334.879 54.574 332.071 51.636 328.275 51.636C324.167 51.636 321.359 54.626 321.359 58.5C321.359 62.374 324.115 65.364 328.561 65.364C331.031 65.364 332.955 64.454 334.229 62.686L331.109 60.892C330.589 61.464 329.679 61.88 328.613 61.88C327.183 61.88 325.987 61.412 325.493 60.06ZM325.415 57.148C325.779 55.822 326.767 55.094 328.249 55.094C329.419 55.094 330.589 55.64 331.005 57.148H325.415ZM340.275 55.796C340.275 55.328 340.691 55.068 341.367 55.068C342.225 55.068 342.745 55.536 343.109 56.212L346.437 54.418C345.345 52.572 343.473 51.636 341.367 51.636C338.663 51.636 336.271 53.066 336.271 55.9C336.271 60.398 342.667 59.644 342.667 61.074C342.667 61.594 342.199 61.88 341.263 61.88C340.119 61.88 339.391 61.334 339.053 60.346L335.673 62.27C336.687 64.376 338.663 65.364 341.263 65.364C344.071 65.364 346.671 64.09 346.671 61.1C346.671 56.29 340.275 57.278 340.275 55.796ZM351.65 55.796C351.65 55.328 352.066 55.068 352.742 55.068C353.6 55.068 354.12 55.536 354.484 56.212L357.812 54.418C356.72 52.572 354.848 51.636 352.742 51.636C350.038 51.636 347.646 53.066 347.646 55.9C347.646 60.398 354.042 59.644 354.042 61.074C354.042 61.594 353.574 61.88 352.638 61.88C351.494 61.88 350.766 61.334 350.428 60.346L347.048 62.27C348.062 64.376 350.038 65.364 352.638 65.364C355.446 65.364 358.046 64.09 358.046 61.1C358.046 56.29 351.65 57.278 351.65 55.796Z" fill="#10121B"/>
<path d="M235 129L235 352" stroke="black" stroke-width="2"/>
<rect x="85" y="101" width="300" height="46" fill="white" stroke="black" stroke-width="2"/>
<path d="M114.157 130.24C113.384 130.24 112.672 130.107 112.021 129.84C111.37 129.568 110.805 129.173 110.325 128.656C109.845 128.139 109.472 127.509 109.205 126.768C108.938 126.027 108.805 125.184 108.805 124.24C108.805 122.997 109.032 121.931 109.485 121.04C109.938 120.144 110.568 119.456 111.373 118.976C112.178 118.491 113.106 118.248 114.157 118.248C115.512 118.248 116.592 118.563 117.397 119.192C118.208 119.821 118.76 120.691 119.053 121.8L117.357 122.104C117.122 121.416 116.744 120.867 116.221 120.456C115.698 120.045 115.042 119.837 114.253 119.832C113.437 119.827 112.757 120.008 112.213 120.376C111.674 120.744 111.269 121.261 110.997 121.928C110.725 122.589 110.586 123.36 110.581 124.24C110.576 125.12 110.709 125.891 110.981 126.552C111.253 127.208 111.661 127.72 112.205 128.088C112.754 128.456 113.437 128.643 114.253 128.648C114.909 128.659 115.472 128.539 115.941 128.288C116.416 128.032 116.792 127.659 117.069 127.168C117.346 126.677 117.525 126.075 117.605 125.36H115.365V124.016H119.381C119.392 124.112 119.4 124.24 119.405 124.4C119.41 124.555 119.413 124.653 119.413 124.696C119.413 125.763 119.208 126.715 118.797 127.552C118.386 128.389 117.789 129.048 117.005 129.528C116.221 130.003 115.272 130.24 114.157 130.24ZM124.639 130.24C123.781 130.24 123.026 130.053 122.375 129.68C121.73 129.301 121.226 128.776 120.863 128.104C120.506 127.427 120.327 126.643 120.327 125.752C120.327 124.808 120.503 123.989 120.855 123.296C121.213 122.603 121.709 122.067 122.343 121.688C122.978 121.309 123.717 121.12 124.559 121.12C125.439 121.12 126.189 121.325 126.807 121.736C127.426 122.141 127.887 122.72 128.191 123.472C128.501 124.224 128.623 125.117 128.559 126.152H126.887V125.544C126.877 124.541 126.685 123.8 126.311 123.32C125.943 122.84 125.381 122.6 124.623 122.6C123.786 122.6 123.157 122.864 122.735 123.392C122.314 123.92 122.103 124.683 122.103 125.68C122.103 126.629 122.314 127.365 122.735 127.888C123.157 128.405 123.765 128.664 124.559 128.664C125.082 128.664 125.533 128.547 125.911 128.312C126.295 128.072 126.594 127.731 126.807 127.288L128.447 127.808C128.111 128.581 127.602 129.181 126.919 129.608C126.237 130.029 125.477 130.24 124.639 130.24ZM121.559 126.152V124.848H127.727V126.152H121.559ZM135.098 130C134.554 130.107 134.021 130.152 133.498 130.136C132.976 130.12 132.509 130.019 132.098 129.832C131.688 129.645 131.378 129.352 131.17 128.952C130.984 128.595 130.882 128.232 130.866 127.864C130.856 127.491 130.85 127.069 130.85 126.6V118.96H132.53V126.52C132.53 126.867 132.533 127.168 132.538 127.424C132.549 127.68 132.605 127.896 132.706 128.072C132.898 128.403 133.202 128.592 133.618 128.64C134.04 128.683 134.533 128.664 135.098 128.584V130ZM129.194 122.704V121.36H135.098V122.704H129.194ZM143.419 130.24C142.534 130.24 141.782 130.043 141.163 129.648C140.544 129.253 140.07 128.712 139.739 128.024C139.414 127.336 139.248 126.555 139.243 125.68C139.248 124.789 139.419 124.003 139.755 123.32C140.091 122.632 140.571 122.093 141.195 121.704C141.819 121.315 142.568 121.12 143.443 121.12C144.387 121.12 145.192 121.355 145.859 121.824C146.531 122.293 146.974 122.936 147.187 123.752L145.523 124.232C145.358 123.747 145.086 123.371 144.707 123.104C144.334 122.832 143.904 122.696 143.419 122.696C142.87 122.696 142.419 122.827 142.067 123.088C141.715 123.344 141.454 123.696 141.283 124.144C141.112 124.592 141.024 125.104 141.019 125.68C141.024 126.571 141.227 127.291 141.627 127.84C142.032 128.389 142.63 128.664 143.419 128.664C143.958 128.664 144.392 128.541 144.723 128.296C145.059 128.045 145.315 127.688 145.491 127.224L147.187 127.624C146.904 128.467 146.438 129.115 145.787 129.568C145.136 130.016 144.347 130.24 143.419 130.24ZM152.134 130.24C151.27 130.24 150.521 130.045 149.886 129.656C149.252 129.267 148.761 128.731 148.414 128.048C148.073 127.36 147.902 126.568 147.902 125.672C147.902 124.771 148.078 123.979 148.43 123.296C148.782 122.608 149.276 122.075 149.91 121.696C150.545 121.312 151.286 121.12 152.134 121.12C152.998 121.12 153.748 121.315 154.382 121.704C155.017 122.093 155.508 122.629 155.854 123.312C156.201 123.995 156.374 124.781 156.374 125.672C156.374 126.573 156.198 127.368 155.846 128.056C155.5 128.739 155.009 129.275 154.374 129.664C153.74 130.048 152.993 130.24 152.134 130.24ZM152.134 128.664C152.961 128.664 153.577 128.387 153.982 127.832C154.393 127.272 154.598 126.552 154.598 125.672C154.598 124.771 154.39 124.051 153.974 123.512C153.564 122.968 152.95 122.696 152.134 122.696C151.574 122.696 151.113 122.824 150.75 123.08C150.388 123.331 150.118 123.68 149.942 124.128C149.766 124.571 149.678 125.085 149.678 125.672C149.678 126.579 149.886 127.304 150.302 127.848C150.718 128.392 151.329 128.664 152.134 128.664ZM163.996 130V125.752C163.996 125.416 163.967 125.072 163.908 124.72C163.855 124.363 163.748 124.032 163.588 123.728C163.434 123.424 163.212 123.179 162.924 122.992C162.642 122.805 162.271 122.712 161.812 122.712C161.514 122.712 161.231 122.763 160.964 122.864C160.698 122.96 160.463 123.117 160.26 123.336C160.063 123.555 159.906 123.843 159.788 124.2C159.676 124.557 159.62 124.992 159.62 125.504L158.58 125.112C158.58 124.328 158.727 123.637 159.02 123.04C159.314 122.437 159.735 121.968 160.284 121.632C160.834 121.296 161.498 121.128 162.276 121.128C162.874 121.128 163.375 121.224 163.78 121.416C164.186 121.608 164.514 121.861 164.764 122.176C165.02 122.485 165.215 122.824 165.348 123.192C165.482 123.56 165.572 123.92 165.62 124.272C165.668 124.624 165.692 124.933 165.692 125.2V130H163.996ZM157.924 130V121.36H159.42V123.856H159.62V130H157.924ZM172.52 130C171.976 130.107 171.443 130.152 170.92 130.136C170.398 130.12 169.931 130.019 169.52 129.832C169.11 129.645 168.8 129.352 168.592 128.952C168.406 128.595 168.304 128.232 168.288 127.864C168.278 127.491 168.272 127.069 168.272 126.6V118.96H169.952V126.52C169.952 126.867 169.955 127.168 169.96 127.424C169.971 127.68 170.027 127.896 170.128 128.072C170.32 128.403 170.624 128.592 171.04 128.64C171.462 128.683 171.955 128.664 172.52 128.584V130ZM166.616 122.704V121.36H172.52V122.704H166.616ZM176.582 130.24C175.942 130.24 175.406 130.123 174.974 129.888C174.542 129.648 174.214 129.333 173.99 128.944C173.771 128.549 173.662 128.117 173.662 127.648C173.662 127.211 173.739 126.827 173.894 126.496C174.049 126.165 174.278 125.885 174.582 125.656C174.886 125.421 175.259 125.232 175.702 125.088C176.086 124.976 176.521 124.877 177.006 124.792C177.491 124.707 178.001 124.627 178.534 124.552C179.073 124.477 179.606 124.403 180.134 124.328L179.526 124.664C179.537 123.987 179.393 123.485 179.094 123.16C178.801 122.829 178.294 122.664 177.574 122.664C177.121 122.664 176.705 122.771 176.326 122.984C175.947 123.192 175.683 123.539 175.534 124.024L173.974 123.544C174.187 122.803 174.593 122.213 175.19 121.776C175.793 121.339 176.593 121.12 177.59 121.12C178.363 121.12 179.035 121.253 179.606 121.52C180.182 121.781 180.603 122.197 180.87 122.768C181.009 123.051 181.094 123.349 181.126 123.664C181.158 123.979 181.174 124.317 181.174 124.68V130H179.694V128.024L179.982 128.28C179.625 128.941 179.169 129.435 178.614 129.76C178.065 130.08 177.387 130.24 176.582 130.24ZM176.878 128.872C177.353 128.872 177.761 128.789 178.102 128.624C178.443 128.453 178.718 128.237 178.926 127.976C179.134 127.715 179.27 127.443 179.334 127.16C179.425 126.904 179.475 126.616 179.486 126.296C179.502 125.976 179.51 125.72 179.51 125.528L180.054 125.728C179.526 125.808 179.046 125.88 178.614 125.944C178.182 126.008 177.79 126.072 177.438 126.136C177.091 126.195 176.782 126.267 176.51 126.352C176.281 126.432 176.075 126.528 175.894 126.64C175.718 126.752 175.577 126.888 175.47 127.048C175.369 127.208 175.318 127.403 175.318 127.632C175.318 127.856 175.374 128.064 175.486 128.256C175.598 128.443 175.769 128.592 175.998 128.704C176.227 128.816 176.521 128.872 176.878 128.872ZM186.747 130.24C185.862 130.24 185.11 130.043 184.491 129.648C183.873 129.253 183.398 128.712 183.067 128.024C182.742 127.336 182.577 126.555 182.571 125.68C182.577 124.789 182.747 124.003 183.083 123.32C183.419 122.632 183.899 122.093 184.523 121.704C185.147 121.315 185.897 121.12 186.771 121.12C187.715 121.12 188.521 121.355 189.187 121.824C189.859 122.293 190.302 122.936 190.515 123.752L188.851 124.232C188.686 123.747 188.414 123.371 188.035 123.104C187.662 122.832 187.233 122.696 186.747 122.696C186.198 122.696 185.747 122.827 185.395 123.088C185.043 123.344 184.782 123.696 184.611 124.144C184.441 124.592 184.353 125.104 184.347 125.68C184.353 126.571 184.555 127.291 184.955 127.84C185.361 128.389 185.958 128.664 186.747 128.664C187.286 128.664 187.721 128.541 188.051 128.296C188.387 128.045 188.643 127.688 188.819 127.224L190.515 127.624C190.233 128.467 189.766 129.115 189.115 129.568C188.465 130.016 187.675 130.24 186.747 130.24ZM196.889 130C196.345 130.107 195.812 130.152 195.289 130.136C194.766 130.12 194.3 130.019 193.889 129.832C193.478 129.645 193.169 129.352 192.961 128.952C192.774 128.595 192.673 128.232 192.657 127.864C192.646 127.491 192.641 127.069 192.641 126.6V118.96H194.321V126.52C194.321 126.867 194.324 127.168 194.329 127.424C194.34 127.68 194.396 127.896 194.497 128.072C194.689 128.403 194.993 128.592 195.409 128.64C195.83 128.683 196.324 128.664 196.889 128.584V130ZM190.985 122.704V121.36H196.889V122.704H190.985ZM205.57 130.24C204.743 130.24 204.05 130.04 203.49 129.64C202.93 129.235 202.506 128.688 202.218 128C201.93 127.312 201.786 126.536 201.786 125.672C201.786 124.808 201.927 124.032 202.21 123.344C202.498 122.656 202.919 122.115 203.474 121.72C204.034 121.32 204.722 121.12 205.538 121.12C206.348 121.12 207.047 121.32 207.634 121.72C208.226 122.115 208.682 122.656 209.002 123.344C209.322 124.027 209.482 124.803 209.482 125.672C209.482 126.536 209.322 127.315 209.002 128.008C208.687 128.696 208.236 129.24 207.65 129.64C207.068 130.04 206.375 130.24 205.57 130.24ZM201.506 130V118.48H203.186V123.784H202.994V130H201.506ZM205.338 128.728C205.871 128.728 206.311 128.592 206.658 128.32C207.01 128.048 207.271 127.683 207.442 127.224C207.618 126.76 207.706 126.243 207.706 125.672C207.706 125.107 207.618 124.595 207.442 124.136C207.271 123.677 207.007 123.312 206.65 123.04C206.292 122.768 205.836 122.632 205.282 122.632C204.759 122.632 204.327 122.76 203.986 123.016C203.65 123.272 203.399 123.629 203.234 124.088C203.074 124.547 202.994 125.075 202.994 125.672C202.994 126.269 203.074 126.797 203.234 127.256C203.394 127.715 203.647 128.075 203.994 128.336C204.34 128.597 204.788 128.728 205.338 128.728ZM213.488 130.24C212.848 130.24 212.312 130.123 211.88 129.888C211.448 129.648 211.12 129.333 210.896 128.944C210.677 128.549 210.568 128.117 210.568 127.648C210.568 127.211 210.645 126.827 210.8 126.496C210.955 126.165 211.184 125.885 211.488 125.656C211.792 125.421 212.165 125.232 212.608 125.088C212.992 124.976 213.427 124.877 213.912 124.792C214.397 124.707 214.907 124.627 215.44 124.552C215.979 124.477 216.512 124.403 217.04 124.328L216.432 124.664C216.443 123.987 216.299 123.485 216 123.16C215.707 122.829 215.2 122.664 214.48 122.664C214.027 122.664 213.611 122.771 213.232 122.984C212.853 123.192 212.589 123.539 212.44 124.024L210.88 123.544C211.093 122.803 211.499 122.213 212.096 121.776C212.699 121.339 213.499 121.12 214.496 121.12C215.269 121.12 215.941 121.253 216.512 121.52C217.088 121.781 217.509 122.197 217.776 122.768C217.915 123.051 218 123.349 218.032 123.664C218.064 123.979 218.08 124.317 218.08 124.68V130H216.6V128.024L216.888 128.28C216.531 128.941 216.075 129.435 215.52 129.76C214.971 130.08 214.293 130.24 213.488 130.24ZM213.784 128.872C214.259 128.872 214.667 128.789 215.008 128.624C215.349 128.453 215.624 128.237 215.832 127.976C216.04 127.715 216.176 127.443 216.24 127.16C216.331 126.904 216.381 126.616 216.392 126.296C216.408 125.976 216.416 125.72 216.416 125.528L216.96 125.728C216.432 125.808 215.952 125.88 215.52 125.944C215.088 126.008 214.696 126.072 214.344 126.136C213.997 126.195 213.688 126.267 213.416 126.352C213.187 126.432 212.981 126.528 212.8 126.64C212.624 126.752 212.483 126.888 212.376 127.048C212.275 127.208 212.224 127.403 212.224 127.632C212.224 127.856 212.28 128.064 212.392 128.256C212.504 128.443 212.675 128.592 212.904 128.704C213.133 128.816 213.427 128.872 213.784 128.872ZM223.261 130.232C222.211 130.232 221.355 130 220.693 129.536C220.032 129.072 219.627 128.419 219.477 127.576L221.189 127.312C221.296 127.76 221.541 128.115 221.925 128.376C222.315 128.632 222.797 128.76 223.373 128.76C223.896 128.76 224.304 128.653 224.597 128.44C224.896 128.227 225.045 127.933 225.045 127.56C225.045 127.341 224.992 127.165 224.885 127.032C224.784 126.893 224.568 126.763 224.237 126.64C223.907 126.517 223.403 126.365 222.725 126.184C221.984 125.992 221.395 125.787 220.957 125.568C220.525 125.344 220.216 125.085 220.029 124.792C219.848 124.493 219.757 124.133 219.757 123.712C219.757 123.189 219.896 122.733 220.173 122.344C220.451 121.955 220.84 121.653 221.341 121.44C221.848 121.227 222.44 121.12 223.117 121.12C223.779 121.12 224.368 121.224 224.885 121.432C225.403 121.64 225.821 121.936 226.141 122.32C226.461 122.699 226.653 123.144 226.717 123.656L225.005 123.968C224.947 123.552 224.752 123.224 224.421 122.984C224.091 122.744 223.661 122.613 223.133 122.592C222.627 122.571 222.216 122.656 221.901 122.848C221.587 123.035 221.429 123.293 221.429 123.624C221.429 123.816 221.488 123.979 221.605 124.112C221.728 124.245 221.963 124.373 222.309 124.496C222.656 124.619 223.168 124.765 223.845 124.936C224.571 125.123 225.147 125.331 225.573 125.56C226 125.784 226.304 126.053 226.485 126.368C226.672 126.677 226.765 127.053 226.765 127.496C226.765 128.349 226.453 129.019 225.829 129.504C225.211 129.989 224.355 130.232 223.261 130.232ZM232.168 130.24C231.309 130.24 230.554 130.053 229.904 129.68C229.258 129.301 228.754 128.776 228.392 128.104C228.034 127.427 227.856 126.643 227.856 125.752C227.856 124.808 228.032 123.989 228.384 123.296C228.741 122.603 229.237 122.067 229.872 121.688C230.506 121.309 231.245 121.12 232.088 121.12C232.968 121.12 233.717 121.325 234.336 121.736C234.954 122.141 235.416 122.72 235.72 123.472C236.029 124.224 236.152 125.117 236.088 126.152H234.416V125.544C234.405 124.541 234.213 123.8 233.84 123.32C233.472 122.84 232.909 122.6 232.152 122.6C231.314 122.6 230.685 122.864 230.264 123.392C229.842 123.92 229.632 124.683 229.632 125.68C229.632 126.629 229.842 127.365 230.264 127.888C230.685 128.405 231.293 128.664 232.088 128.664C232.61 128.664 233.061 128.547 233.44 128.312C233.824 128.072 234.122 127.731 234.336 127.288L235.976 127.808C235.64 128.581 235.13 129.181 234.448 129.608C233.765 130.029 233.005 130.24 232.168 130.24ZM229.088 126.152V124.848H235.256V126.152H229.088ZM241.115 130.24C240.309 130.24 239.613 130.04 239.027 129.64C238.445 129.24 237.995 128.696 237.675 128.008C237.36 127.315 237.203 126.536 237.203 125.672C237.203 124.803 237.363 124.027 237.683 123.344C238.003 122.656 238.456 122.115 239.043 121.72C239.635 121.32 240.336 121.12 241.147 121.12C241.963 121.12 242.648 121.32 243.203 121.72C243.763 122.115 244.184 122.656 244.467 123.344C244.755 124.032 244.899 124.808 244.899 125.672C244.899 126.536 244.755 127.312 244.467 128C244.179 128.688 243.755 129.235 243.195 129.64C242.635 130.04 241.941 130.24 241.115 130.24ZM241.347 128.728C241.896 128.728 242.344 128.597 242.691 128.336C243.037 128.075 243.291 127.715 243.451 127.256C243.611 126.797 243.691 126.269 243.691 125.672C243.691 125.075 243.608 124.547 243.443 124.088C243.283 123.629 243.032 123.272 242.691 123.016C242.355 122.76 241.925 122.632 241.403 122.632C240.848 122.632 240.392 122.768 240.035 123.04C239.677 123.312 239.411 123.677 239.235 124.136C239.064 124.595 238.979 125.107 238.979 125.672C238.979 126.243 239.064 126.76 239.235 127.224C239.411 127.683 239.672 128.048 240.019 128.32C240.371 128.592 240.813 128.728 241.347 128.728ZM243.691 130V123.784H243.499V118.48H245.179V130H243.691ZM253.972 130.24C253.108 130.24 252.359 130.045 251.724 129.656C251.089 129.267 250.599 128.731 250.252 128.048C249.911 127.36 249.74 126.568 249.74 125.672C249.74 124.771 249.916 123.979 250.268 123.296C250.62 122.608 251.113 122.075 251.748 121.696C252.383 121.312 253.124 121.12 253.972 121.12C254.836 121.12 255.585 121.315 256.22 121.704C256.855 122.093 257.345 122.629 257.692 123.312C258.039 123.995 258.212 124.781 258.212 125.672C258.212 126.573 258.036 127.368 257.684 128.056C257.337 128.739 256.847 129.275 256.212 129.664C255.577 130.048 254.831 130.24 253.972 130.24ZM253.972 128.664C254.799 128.664 255.415 128.387 255.82 127.832C256.231 127.272 256.436 126.552 256.436 125.672C256.436 124.771 256.228 124.051 255.812 123.512C255.401 122.968 254.788 122.696 253.972 122.696C253.412 122.696 252.951 122.824 252.588 123.08C252.225 123.331 251.956 123.68 251.78 124.128C251.604 124.571 251.516 125.085 251.516 125.672C251.516 126.579 251.724 127.304 252.14 127.848C252.556 128.392 253.167 128.664 253.972 128.664ZM265.834 130V125.752C265.834 125.416 265.805 125.072 265.746 124.72C265.693 124.363 265.586 124.032 265.426 123.728C265.271 123.424 265.05 123.179 264.762 122.992C264.479 122.805 264.109 122.712 263.65 122.712C263.351 122.712 263.069 122.763 262.802 122.864C262.535 122.96 262.301 123.117 262.098 123.336C261.901 123.555 261.743 123.843 261.626 124.2C261.514 124.557 261.458 124.992 261.458 125.504L260.418 125.112C260.418 124.328 260.565 123.637 260.858 123.04C261.151 122.437 261.573 121.968 262.122 121.632C262.671 121.296 263.335 121.128 264.114 121.128C264.711 121.128 265.213 121.224 265.618 121.416C266.023 121.608 266.351 121.861 266.602 122.176C266.858 122.485 267.053 122.824 267.186 123.192C267.319 123.56 267.41 123.92 267.458 124.272C267.506 124.624 267.53 124.933 267.53 125.2V130H265.834ZM259.762 130V121.36H261.258V123.856H261.458V130H259.762ZM276.473 130.24C275.646 130.24 274.953 130.04 274.393 129.64C273.833 129.235 273.409 128.688 273.121 128C272.833 127.312 272.689 126.536 272.689 125.672C272.689 124.808 272.83 124.032 273.113 123.344C273.401 122.656 273.822 122.115 274.377 121.72C274.937 121.32 275.625 121.12 276.441 121.12C277.252 121.12 277.95 121.32 278.537 121.72C279.129 122.115 279.585 122.656 279.905 123.344C280.225 124.027 280.385 124.803 280.385 125.672C280.385 126.536 280.225 127.315 279.905 128.008C279.59 128.696 279.14 129.24 278.553 129.64C277.972 130.04 277.278 130.24 276.473 130.24ZM272.409 130V118.48H274.089V123.784H273.897V130H272.409ZM276.241 128.728C276.774 128.728 277.214 128.592 277.561 128.32C277.913 128.048 278.174 127.683 278.345 127.224C278.521 126.76 278.609 126.243 278.609 125.672C278.609 125.107 278.521 124.595 278.345 124.136C278.174 123.677 277.91 123.312 277.553 123.04C277.196 122.768 276.74 122.632 276.185 122.632C275.662 122.632 275.23 122.76 274.889 123.016C274.553 123.272 274.302 123.629 274.137 124.088C273.977 124.547 273.897 125.075 273.897 125.672C273.897 126.269 273.977 126.797 274.137 127.256C274.297 127.715 274.55 128.075 274.897 128.336C275.244 128.597 275.692 128.728 276.241 128.728ZM281.951 130V121.36H283.439V123.456L283.231 123.184C283.338 122.907 283.477 122.653 283.647 122.424C283.818 122.189 284.015 121.997 284.239 121.848C284.458 121.688 284.701 121.565 284.967 121.48C285.239 121.389 285.517 121.336 285.799 121.32C286.082 121.299 286.354 121.312 286.615 121.36V122.928C286.333 122.853 286.018 122.832 285.671 122.864C285.33 122.896 285.015 123.005 284.727 123.192C284.455 123.368 284.239 123.581 284.079 123.832C283.925 124.083 283.813 124.363 283.743 124.672C283.674 124.976 283.639 125.299 283.639 125.64V130H281.951ZM291.534 130.24C290.67 130.24 289.921 130.045 289.286 129.656C288.652 129.267 288.161 128.731 287.814 128.048C287.473 127.36 287.302 126.568 287.302 125.672C287.302 124.771 287.478 123.979 287.83 123.296C288.182 122.608 288.676 122.075 289.31 121.696C289.945 121.312 290.686 121.12 291.534 121.12C292.398 121.12 293.148 121.315 293.782 121.704C294.417 122.093 294.908 122.629 295.254 123.312C295.601 123.995 295.774 124.781 295.774 125.672C295.774 126.573 295.598 127.368 295.246 128.056C294.9 128.739 294.409 129.275 293.774 129.664C293.14 130.048 292.393 130.24 291.534 130.24ZM291.534 128.664C292.361 128.664 292.977 128.387 293.382 127.832C293.793 127.272 293.998 126.552 293.998 125.672C293.998 124.771 293.79 124.051 293.374 123.512C292.964 122.968 292.35 122.696 291.534 122.696C290.974 122.696 290.513 122.824 290.15 123.08C289.788 123.331 289.518 123.68 289.342 124.128C289.166 124.571 289.078 125.085 289.078 125.672C289.078 126.579 289.286 127.304 289.702 127.848C290.118 128.392 290.729 128.664 291.534 128.664ZM299.772 130.24C299.132 130.24 298.596 130.123 298.164 129.888C297.732 129.648 297.404 129.333 297.18 128.944C296.962 128.549 296.852 128.117 296.852 127.648C296.852 127.211 296.93 126.827 297.084 126.496C297.239 126.165 297.468 125.885 297.772 125.656C298.076 125.421 298.45 125.232 298.892 125.088C299.276 124.976 299.711 124.877 300.196 124.792C300.682 124.707 301.191 124.627 301.724 124.552C302.263 124.477 302.796 124.403 303.324 124.328L302.716 124.664C302.727 123.987 302.583 123.485 302.284 123.16C301.991 122.829 301.484 122.664 300.764 122.664C300.311 122.664 299.895 122.771 299.516 122.984C299.138 123.192 298.874 123.539 298.724 124.024L297.164 123.544C297.378 122.803 297.783 122.213 298.38 121.776C298.983 121.339 299.783 121.12 300.78 121.12C301.554 121.12 302.226 121.253 302.796 121.52C303.372 121.781 303.794 122.197 304.06 122.768C304.199 123.051 304.284 123.349 304.316 123.664C304.348 123.979 304.364 124.317 304.364 124.68V130H302.884V128.024L303.172 128.28C302.815 128.941 302.359 129.435 301.804 129.76C301.255 130.08 300.578 130.24 299.772 130.24ZM300.068 128.872C300.543 128.872 300.951 128.789 301.292 128.624C301.634 128.453 301.908 128.237 302.116 127.976C302.324 127.715 302.46 127.443 302.524 127.16C302.615 126.904 302.666 126.616 302.676 126.296C302.692 125.976 302.7 125.72 302.7 125.528L303.244 125.728C302.716 125.808 302.236 125.88 301.804 125.944C301.372 126.008 300.98 126.072 300.628 126.136C300.282 126.195 299.972 126.267 299.7 126.352C299.471 126.432 299.266 126.528 299.084 126.64C298.908 126.752 298.767 126.888 298.66 127.048C298.559 127.208 298.508 127.403 298.508 127.632C298.508 127.856 298.564 128.064 298.676 128.256C298.788 128.443 298.959 128.592 299.188 128.704C299.418 128.816 299.711 128.872 300.068 128.872ZM309.674 130.24C308.869 130.24 308.173 130.04 307.586 129.64C307.005 129.24 306.554 128.696 306.234 128.008C305.919 127.315 305.762 126.536 305.762 125.672C305.762 124.803 305.922 124.027 306.242 123.344C306.562 122.656 307.015 122.115 307.602 121.72C308.194 121.32 308.895 121.12 309.706 121.12C310.522 121.12 311.207 121.32 311.762 121.72C312.322 122.115 312.743 122.656 313.026 123.344C313.314 124.032 313.458 124.808 313.458 125.672C313.458 126.536 313.314 127.312 313.026 128C312.738 128.688 312.314 129.235 311.754 129.64C311.194 130.04 310.501 130.24 309.674 130.24ZM309.906 128.728C310.455 128.728 310.903 128.597 311.25 128.336C311.597 128.075 311.85 127.715 312.01 127.256C312.17 126.797 312.25 126.269 312.25 125.672C312.25 125.075 312.167 124.547 312.002 124.088C311.842 123.629 311.591 123.272 311.25 123.016C310.914 122.76 310.485 122.632 309.962 122.632C309.407 122.632 308.951 122.768 308.594 123.04C308.237 123.312 307.97 123.677 307.794 124.136C307.623 124.595 307.538 125.107 307.538 125.672C307.538 126.243 307.623 126.76 307.794 127.224C307.97 127.683 308.231 128.048 308.578 128.32C308.93 128.592 309.373 128.728 309.906 128.728ZM312.25 130V123.784H312.058V118.48H313.738V130H312.25ZM319.571 130V121.056C319.571 120.837 319.579 120.605 319.595 120.36C319.611 120.109 319.657 119.864 319.731 119.624C319.811 119.379 319.942 119.155 320.123 118.952C320.342 118.712 320.582 118.541 320.843 118.44C321.105 118.339 321.363 118.28 321.619 118.264C321.881 118.248 322.121 118.24 322.339 118.24H323.427V119.616H322.419C322.025 119.616 321.729 119.715 321.531 119.912C321.339 120.104 321.243 120.379 321.243 120.736V130H319.571ZM318.139 122.704V121.36H323.427V122.704H318.139ZM325.107 119.944V118.32H326.779V119.944H325.107ZM325.107 130V121.36H326.779V130H325.107ZM329.146 130V118.24H330.818V130H329.146ZM337.964 130C337.42 130.107 336.887 130.152 336.364 130.136C335.841 130.12 335.375 130.019 334.964 129.832C334.553 129.645 334.244 129.352 334.036 128.952C333.849 128.595 333.748 128.232 333.732 127.864C333.721 127.491 333.716 127.069 333.716 126.6V118.96H335.396V126.52C335.396 126.867 335.399 127.168 335.404 127.424C335.415 127.68 335.471 127.896 335.572 128.072C335.764 128.403 336.068 128.592 336.484 128.64C336.905 128.683 337.399 128.664 337.964 128.584V130ZM332.06 122.704V121.36H337.964V122.704H332.06ZM343.027 130.24C342.168 130.24 341.414 130.053 340.763 129.68C340.118 129.301 339.614 128.776 339.251 128.104C338.894 127.427 338.715 126.643 338.715 125.752C338.715 124.808 338.891 123.989 339.243 123.296C339.6 122.603 340.096 122.067 340.731 121.688C341.366 121.309 342.104 121.12 342.947 121.12C343.827 121.12 344.576 121.325 345.195 121.736C345.814 122.141 346.275 122.72 346.579 123.472C346.888 124.224 347.011 125.117 346.947 126.152H345.275V125.544C345.264 124.541 345.072 123.8 344.699 123.32C344.331 122.84 343.768 122.6 343.011 122.6C342.174 122.6 341.544 122.864 341.123 123.392C340.702 123.92 340.491 124.683 340.491 125.68C340.491 126.629 340.702 127.365 341.123 127.888C341.544 128.405 342.152 128.664 342.947 128.664C343.47 128.664 343.92 128.547 344.299 128.312C344.683 128.072 344.982 127.731 345.195 127.288L346.835 127.808C346.499 128.581 345.99 129.181 345.307 129.608C344.624 130.029 343.864 130.24 343.027 130.24ZM339.947 126.152V124.848H346.115V126.152H339.947ZM348.542 130V121.36H350.03V123.456L349.822 123.184C349.929 122.907 350.067 122.653 350.238 122.424C350.409 122.189 350.606 121.997 350.83 121.848C351.049 121.688 351.291 121.565 351.558 121.48C351.83 121.389 352.107 121.336 352.39 121.32C352.673 121.299 352.945 121.312 353.206 121.36V122.928C352.923 122.853 352.609 122.832 352.262 122.864C351.921 122.896 351.606 123.005 351.318 123.192C351.046 123.368 350.83 123.581 350.67 123.832C350.515 124.083 350.403 124.363 350.334 124.672C350.265 124.976 350.23 125.299 350.23 125.64V130H348.542ZM357.521 130.232C356.47 130.232 355.614 130 354.953 129.536C354.292 129.072 353.886 128.419 353.737 127.576L355.449 127.312C355.556 127.76 355.801 128.115 356.185 128.376C356.574 128.632 357.057 128.76 357.633 128.76C358.156 128.76 358.564 128.653 358.857 128.44C359.156 128.227 359.305 127.933 359.305 127.56C359.305 127.341 359.252 127.165 359.145 127.032C359.044 126.893 358.828 126.763 358.497 126.64C358.166 126.517 357.662 126.365 356.985 126.184C356.244 125.992 355.654 125.787 355.217 125.568C354.785 125.344 354.476 125.085 354.289 124.792C354.108 124.493 354.017 124.133 354.017 123.712C354.017 123.189 354.156 122.733 354.433 122.344C354.71 121.955 355.1 121.653 355.601 121.44C356.108 121.227 356.7 121.12 357.377 121.12C358.038 121.12 358.628 121.224 359.145 121.432C359.662 121.64 360.081 121.936 360.401 122.32C360.721 122.699 360.913 123.144 360.977 123.656L359.265 123.968C359.206 123.552 359.012 123.224 358.681 122.984C358.35 122.744 357.921 122.613 357.393 122.592C356.886 122.571 356.476 122.656 356.161 122.848C355.846 123.035 355.689 123.293 355.689 123.624C355.689 123.816 355.748 123.979 355.865 124.112C355.988 124.245 356.222 124.373 356.569 124.496C356.916 124.619 357.428 124.765 358.105 124.936C358.83 125.123 359.406 125.331 359.833 125.56C360.26 125.784 360.564 126.053 360.745 126.368C360.932 126.677 361.025 127.053 361.025 127.496C361.025 128.349 360.713 129.019 360.089 129.504C359.47 129.989 358.614 130.232 357.521 130.232Z" fill="#10121B"/>
<rect x="164" y="173" width="141" height="46" fill="white" stroke="black" stroke-width="2"/>
<path d="M191.243 202L187.499 190.48H189.235L192.427 200.312L195.659 190.48H197.395L193.651 202H191.243ZM201.28 202.24C200.421 202.24 199.667 202.053 199.016 201.68C198.371 201.301 197.867 200.776 197.504 200.104C197.147 199.427 196.968 198.643 196.968 197.752C196.968 196.808 197.144 195.989 197.496 195.296C197.853 194.603 198.349 194.067 198.984 193.688C199.619 193.309 200.357 193.12 201.2 193.12C202.08 193.12 202.829 193.325 203.448 193.736C204.067 194.141 204.528 194.72 204.832 195.472C205.141 196.224 205.264 197.117 205.2 198.152H203.528V197.544C203.517 196.541 203.325 195.8 202.952 195.32C202.584 194.84 202.021 194.6 201.264 194.6C200.427 194.6 199.797 194.864 199.376 195.392C198.955 195.92 198.744 196.683 198.744 197.68C198.744 198.629 198.955 199.365 199.376 199.888C199.797 200.405 200.405 200.664 201.2 200.664C201.723 200.664 202.173 200.547 202.552 200.312C202.936 200.072 203.235 199.731 203.448 199.288L205.088 199.808C204.752 200.581 204.243 201.181 203.56 201.608C202.877 202.029 202.117 202.24 201.28 202.24ZM198.2 198.152V196.848H204.368V198.152H198.2ZM206.795 202V193.36H208.283V195.456L208.075 195.184C208.182 194.907 208.32 194.653 208.491 194.424C208.662 194.189 208.859 193.997 209.083 193.848C209.302 193.688 209.544 193.565 209.811 193.48C210.083 193.389 210.36 193.336 210.643 193.32C210.926 193.299 211.198 193.312 211.459 193.36V194.928C211.176 194.853 210.862 194.832 210.515 194.864C210.174 194.896 209.859 195.005 209.571 195.192C209.299 195.368 209.083 195.581 208.923 195.832C208.768 196.083 208.656 196.363 208.587 196.672C208.518 196.976 208.483 197.299 208.483 197.64V202H206.795ZM212.943 191.944V190.32H214.615V191.944H212.943ZM212.943 202V193.36H214.615V202H212.943ZM217.609 202V193.056C217.609 192.837 217.617 192.605 217.633 192.36C217.649 192.109 217.694 191.864 217.769 191.624C217.849 191.379 217.98 191.155 218.161 190.952C218.38 190.712 218.62 190.541 218.881 190.44C219.142 190.339 219.401 190.28 219.657 190.264C219.918 190.248 220.158 190.24 220.377 190.24H221.465V191.616H220.457C220.062 191.616 219.766 191.715 219.569 191.912C219.377 192.104 219.281 192.379 219.281 192.736V202H217.609ZM216.177 194.704V193.36H221.465V194.704H216.177ZM223.707 205.84L225.379 201.288L225.403 202.632L221.635 193.36H223.379L226.195 200.52H225.683L228.371 193.36H230.067L225.299 205.84H223.707ZM237.955 202.24C237.096 202.24 236.342 202.053 235.691 201.68C235.046 201.301 234.542 200.776 234.179 200.104C233.822 199.427 233.643 198.643 233.643 197.752C233.643 196.808 233.819 195.989 234.171 195.296C234.528 194.603 235.024 194.067 235.659 193.688C236.294 193.309 237.032 193.12 237.875 193.12C238.755 193.12 239.504 193.325 240.123 193.736C240.742 194.141 241.203 194.72 241.507 195.472C241.816 196.224 241.939 197.117 241.875 198.152H240.203V197.544C240.192 196.541 240 195.8 239.627 195.32C239.259 194.84 238.696 194.6 237.939 194.6C237.102 194.6 236.472 194.864 236.051 195.392C235.63 195.92 235.419 196.683 235.419 197.68C235.419 198.629 235.63 199.365 236.051 199.888C236.472 200.405 237.08 200.664 237.875 200.664C238.398 200.664 238.848 200.547 239.227 200.312C239.611 200.072 239.91 199.731 240.123 199.288L241.763 199.808C241.427 200.581 240.918 201.181 240.235 201.608C239.552 202.029 238.792 202.24 237.955 202.24ZM234.875 198.152V196.848H241.043V198.152H234.875ZM253.588 202L253.596 196.616C253.596 195.992 253.436 195.507 253.116 195.16C252.796 194.808 252.374 194.632 251.852 194.632C251.532 194.632 251.238 194.707 250.972 194.856C250.71 195 250.497 195.219 250.332 195.512C250.172 195.8 250.092 196.163 250.092 196.6L249.284 196.192C249.273 195.584 249.401 195.051 249.668 194.592C249.94 194.133 250.308 193.779 250.772 193.528C251.236 193.272 251.756 193.144 252.332 193.144C253.265 193.144 253.988 193.424 254.5 193.984C255.012 194.544 255.268 195.288 255.268 196.216L255.26 202H253.588ZM243.228 202V193.36H244.716V195.856H244.908V202H243.228ZM248.412 202L248.42 196.648C248.42 196.019 248.26 195.525 247.94 195.168C247.625 194.811 247.201 194.632 246.668 194.632C246.14 194.632 245.713 194.813 245.388 195.176C245.068 195.539 244.908 196.013 244.908 196.6L244.108 196.088C244.108 195.523 244.244 195.019 244.516 194.576C244.788 194.133 245.156 193.784 245.62 193.528C246.084 193.272 246.609 193.144 247.196 193.144C247.809 193.144 248.332 193.275 248.764 193.536C249.196 193.792 249.524 194.152 249.748 194.616C249.977 195.08 250.092 195.619 250.092 196.232L250.084 202H248.412ZM259.585 202.24C258.945 202.24 258.409 202.123 257.977 201.888C257.545 201.648 257.217 201.333 256.993 200.944C256.774 200.549 256.665 200.117 256.665 199.648C256.665 199.211 256.742 198.827 256.897 198.496C257.052 198.165 257.281 197.885 257.585 197.656C257.889 197.421 258.262 197.232 258.705 197.088C259.089 196.976 259.524 196.877 260.009 196.792C260.494 196.707 261.004 196.627 261.537 196.552C262.076 196.477 262.609 196.403 263.137 196.328L262.529 196.664C262.54 195.987 262.396 195.485 262.097 195.16C261.804 194.829 261.297 194.664 260.577 194.664C260.124 194.664 259.708 194.771 259.329 194.984C258.95 195.192 258.686 195.539 258.537 196.024L256.977 195.544C257.19 194.803 257.596 194.213 258.193 193.776C258.796 193.339 259.596 193.12 260.593 193.12C261.366 193.12 262.038 193.253 262.609 193.52C263.185 193.781 263.606 194.197 263.873 194.768C264.012 195.051 264.097 195.349 264.129 195.664C264.161 195.979 264.177 196.317 264.177 196.68V202H262.697V200.024L262.985 200.28C262.628 200.941 262.172 201.435 261.617 201.76C261.068 202.08 260.39 202.24 259.585 202.24ZM259.881 200.872C260.356 200.872 260.764 200.789 261.105 200.624C261.446 200.453 261.721 200.237 261.929 199.976C262.137 199.715 262.273 199.443 262.337 199.16C262.428 198.904 262.478 198.616 262.489 198.296C262.505 197.976 262.513 197.72 262.513 197.528L263.057 197.728C262.529 197.808 262.049 197.88 261.617 197.944C261.185 198.008 260.793 198.072 260.441 198.136C260.094 198.195 259.785 198.267 259.513 198.352C259.284 198.432 259.078 198.528 258.897 198.64C258.721 198.752 258.58 198.888 258.473 199.048C258.372 199.208 258.321 199.403 258.321 199.632C258.321 199.856 258.377 200.064 258.489 200.256C258.601 200.443 258.772 200.592 259.001 200.704C259.23 200.816 259.524 200.872 259.881 200.872ZM266.214 191.944V190.32H267.886V191.944H266.214ZM266.214 202V193.36H267.886V202H266.214ZM270.249 202V190.24H271.921V202H270.249ZM277.427 202.232C276.376 202.232 275.52 202 274.859 201.536C274.198 201.072 273.792 200.419 273.643 199.576L275.355 199.312C275.462 199.76 275.707 200.115 276.091 200.376C276.48 200.632 276.963 200.76 277.539 200.76C278.062 200.76 278.47 200.653 278.763 200.44C279.062 200.227 279.211 199.933 279.211 199.56C279.211 199.341 279.158 199.165 279.051 199.032C278.95 198.893 278.734 198.763 278.403 198.64C278.072 198.517 277.568 198.365 276.891 198.184C276.15 197.992 275.56 197.787 275.123 197.568C274.691 197.344 274.382 197.085 274.195 196.792C274.014 196.493 273.923 196.133 273.923 195.712C273.923 195.189 274.062 194.733 274.339 194.344C274.616 193.955 275.006 193.653 275.507 193.44C276.014 193.227 276.606 193.12 277.283 193.12C277.944 193.12 278.534 193.224 279.051 193.432C279.568 193.64 279.987 193.936 280.307 194.32C280.627 194.699 280.819 195.144 280.883 195.656L279.171 195.968C279.112 195.552 278.918 195.224 278.587 194.984C278.256 194.744 277.827 194.613 277.299 194.592C276.792 194.571 276.382 194.656 276.067 194.848C275.752 195.035 275.595 195.293 275.595 195.624C275.595 195.816 275.654 195.979 275.771 196.112C275.894 196.245 276.128 196.373 276.475 196.496C276.822 196.619 277.334 196.765 278.011 196.936C278.736 197.123 279.312 197.331 279.739 197.56C280.166 197.784 280.47 198.053 280.651 198.368C280.838 198.677 280.931 199.053 280.931 199.496C280.931 200.349 280.619 201.019 279.995 201.504C279.376 201.989 278.52 202.232 277.427 202.232Z" fill="#10121B"/>
<rect x="87" y="245" width="295" height="46" fill="white" stroke="black" stroke-width="2"/>
<path d="M115.333 274.24C114.507 274.24 113.76 274.099 113.093 273.816C112.432 273.528 111.885 273.12 111.453 272.592C111.027 272.059 110.749 271.427 110.621 270.696L112.365 270.432C112.541 271.136 112.909 271.685 113.469 272.08C114.029 272.469 114.683 272.664 115.429 272.664C115.893 272.664 116.32 272.592 116.709 272.448C117.099 272.299 117.411 272.088 117.645 271.816C117.885 271.539 118.005 271.208 118.005 270.824C118.005 270.616 117.968 270.432 117.893 270.272C117.824 270.112 117.725 269.973 117.597 269.856C117.475 269.733 117.323 269.629 117.141 269.544C116.965 269.453 116.771 269.376 116.557 269.312L113.605 268.44C113.317 268.355 113.024 268.245 112.725 268.112C112.427 267.973 112.152 267.795 111.901 267.576C111.656 267.352 111.456 267.077 111.301 266.752C111.147 266.421 111.069 266.021 111.069 265.552C111.069 264.843 111.251 264.243 111.613 263.752C111.981 263.256 112.477 262.883 113.101 262.632C113.725 262.376 114.424 262.248 115.197 262.248C115.976 262.259 116.672 262.397 117.285 262.664C117.904 262.931 118.416 263.315 118.821 263.816C119.232 264.312 119.515 264.915 119.669 265.624L117.877 265.928C117.797 265.496 117.627 265.125 117.365 264.816C117.104 264.501 116.784 264.261 116.405 264.096C116.027 263.925 115.616 263.837 115.173 263.832C114.747 263.821 114.355 263.885 113.997 264.024C113.645 264.163 113.363 264.357 113.149 264.608C112.941 264.859 112.837 265.147 112.837 265.472C112.837 265.792 112.931 266.051 113.117 266.248C113.304 266.445 113.533 266.603 113.805 266.72C114.083 266.832 114.357 266.925 114.629 267L116.757 267.6C117.024 267.675 117.325 267.776 117.661 267.904C118.003 268.027 118.331 268.2 118.645 268.424C118.965 268.648 119.229 268.947 119.437 269.32C119.645 269.688 119.749 270.152 119.749 270.712C119.749 271.293 119.632 271.805 119.397 272.248C119.163 272.685 118.84 273.053 118.429 273.352C118.024 273.645 117.555 273.867 117.021 274.016C116.488 274.165 115.925 274.24 115.333 274.24ZM125.31 274.24C124.484 274.24 123.79 274.04 123.23 273.64C122.67 273.235 122.246 272.688 121.958 272C121.67 271.312 121.526 270.536 121.526 269.672C121.526 268.808 121.668 268.032 121.95 267.344C122.238 266.656 122.66 266.115 123.214 265.72C123.774 265.32 124.462 265.12 125.278 265.12C126.089 265.12 126.788 265.32 127.374 265.72C127.966 266.115 128.422 266.656 128.742 267.344C129.062 268.027 129.222 268.803 129.222 269.672C129.222 270.536 129.062 271.315 128.742 272.008C128.428 272.696 127.977 273.24 127.39 273.64C126.809 274.04 126.116 274.24 125.31 274.24ZM121.246 277.84V265.36H122.734V271.576H122.926V277.84H121.246ZM125.078 272.728C125.612 272.728 126.052 272.592 126.398 272.32C126.75 272.048 127.012 271.683 127.182 271.224C127.358 270.76 127.446 270.243 127.446 269.672C127.446 269.107 127.358 268.595 127.182 268.136C127.012 267.677 126.748 267.312 126.39 267.04C126.033 266.768 125.577 266.632 125.022 266.632C124.5 266.632 124.068 266.76 123.726 267.016C123.39 267.272 123.14 267.629 122.974 268.088C122.814 268.547 122.734 269.075 122.734 269.672C122.734 270.269 122.814 270.797 122.974 271.256C123.134 271.715 123.388 272.075 123.734 272.336C124.081 272.597 124.529 272.728 125.078 272.728ZM134.621 274.24C133.762 274.24 133.007 274.053 132.357 273.68C131.711 273.301 131.207 272.776 130.845 272.104C130.487 271.427 130.309 270.643 130.309 269.752C130.309 268.808 130.485 267.989 130.837 267.296C131.194 266.603 131.69 266.067 132.325 265.688C132.959 265.309 133.698 265.12 134.541 265.12C135.421 265.12 136.17 265.325 136.789 265.736C137.407 266.141 137.869 266.72 138.173 267.472C138.482 268.224 138.605 269.117 138.541 270.152H136.869V269.544C136.858 268.541 136.666 267.8 136.293 267.32C135.925 266.84 135.362 266.6 134.605 266.6C133.767 266.6 133.138 266.864 132.717 267.392C132.295 267.92 132.085 268.683 132.085 269.68C132.085 270.629 132.295 271.365 132.717 271.888C133.138 272.405 133.746 272.664 134.541 272.664C135.063 272.664 135.514 272.547 135.893 272.312C136.277 272.072 136.575 271.731 136.789 271.288L138.429 271.808C138.093 272.581 137.583 273.181 136.901 273.608C136.218 274.029 135.458 274.24 134.621 274.24ZM131.541 270.152V268.848H137.709V270.152H131.541ZM145.965 274V269.752C145.965 269.416 145.936 269.072 145.877 268.72C145.824 268.363 145.717 268.032 145.557 267.728C145.403 267.424 145.181 267.179 144.893 266.992C144.611 266.805 144.24 266.712 143.781 266.712C143.483 266.712 143.2 266.763 142.933 266.864C142.667 266.96 142.432 267.117 142.229 267.336C142.032 267.555 141.875 267.843 141.757 268.2C141.645 268.557 141.589 268.992 141.589 269.504L140.549 269.112C140.549 268.328 140.696 267.637 140.989 267.04C141.283 266.437 141.704 265.968 142.253 265.632C142.803 265.296 143.467 265.128 144.245 265.128C144.843 265.128 145.344 265.224 145.749 265.416C146.155 265.608 146.483 265.861 146.733 266.176C146.989 266.485 147.184 266.824 147.317 267.192C147.451 267.56 147.541 267.92 147.589 268.272C147.637 268.624 147.661 268.933 147.661 269.2V274H145.965ZM139.893 274V265.36H141.389V267.856H141.589V274H139.893ZM152.868 274.24C152.062 274.24 151.366 274.04 150.78 273.64C150.198 273.24 149.748 272.696 149.428 272.008C149.113 271.315 148.956 270.536 148.956 269.672C148.956 268.803 149.116 268.027 149.436 267.344C149.756 266.656 150.209 266.115 150.796 265.72C151.388 265.32 152.089 265.12 152.9 265.12C153.716 265.12 154.401 265.32 154.956 265.72C155.516 266.115 155.937 266.656 156.22 267.344C156.508 268.032 156.652 268.808 156.652 269.672C156.652 270.536 156.508 271.312 156.22 272C155.932 272.688 155.508 273.235 154.948 273.64C154.388 274.04 153.694 274.24 152.868 274.24ZM153.1 272.728C153.649 272.728 154.097 272.597 154.444 272.336C154.79 272.075 155.044 271.715 155.204 271.256C155.364 270.797 155.444 270.269 155.444 269.672C155.444 269.075 155.361 268.547 155.196 268.088C155.036 267.629 154.785 267.272 154.444 267.016C154.108 266.76 153.678 266.632 153.156 266.632C152.601 266.632 152.145 266.768 151.788 267.04C151.43 267.312 151.164 267.677 150.988 268.136C150.817 268.595 150.732 269.107 150.732 269.672C150.732 270.243 150.817 270.76 150.988 271.224C151.164 271.683 151.425 272.048 151.772 272.32C152.124 272.592 152.566 272.728 153.1 272.728ZM155.444 274V267.784H155.252V262.48H156.932V274H155.444ZM168.037 274V269.752C168.037 269.416 168.008 269.072 167.949 268.72C167.896 268.363 167.789 268.032 167.629 267.728C167.474 267.424 167.253 267.179 166.965 266.992C166.682 266.805 166.312 266.712 165.853 266.712C165.554 266.712 165.272 266.763 165.005 266.864C164.738 266.96 164.504 267.117 164.301 267.336C164.104 267.555 163.946 267.843 163.829 268.2C163.717 268.557 163.661 268.992 163.661 269.504L162.621 269.112C162.621 268.328 162.768 267.637 163.061 267.04C163.354 266.437 163.776 265.968 164.325 265.632C164.874 265.296 165.538 265.128 166.317 265.128C166.914 265.128 167.416 265.224 167.821 265.416C168.226 265.608 168.554 265.861 168.805 266.176C169.061 266.485 169.256 266.824 169.389 267.192C169.522 267.56 169.613 267.92 169.661 268.272C169.709 268.624 169.733 268.933 169.733 269.2V274H168.037ZM161.965 274V262.48H163.461V268.696H163.661V274H161.965ZM175.369 274.24C174.505 274.24 173.756 274.045 173.121 273.656C172.486 273.267 171.996 272.731 171.649 272.048C171.308 271.36 171.137 270.568 171.137 269.672C171.137 268.771 171.313 267.979 171.665 267.296C172.017 266.608 172.51 266.075 173.145 265.696C173.78 265.312 174.521 265.12 175.369 265.12C176.233 265.12 176.982 265.315 177.617 265.704C178.252 266.093 178.742 266.629 179.089 267.312C179.436 267.995 179.609 268.781 179.609 269.672C179.609 270.573 179.433 271.368 179.081 272.056C178.734 272.739 178.244 273.275 177.609 273.664C176.974 274.048 176.228 274.24 175.369 274.24ZM175.369 272.664C176.196 272.664 176.812 272.387 177.217 271.832C177.628 271.272 177.833 270.552 177.833 269.672C177.833 268.771 177.625 268.051 177.209 267.512C176.798 266.968 176.185 266.696 175.369 266.696C174.809 266.696 174.348 266.824 173.985 267.08C173.622 267.331 173.353 267.68 173.177 268.128C173.001 268.571 172.913 269.085 172.913 269.672C172.913 270.579 173.121 271.304 173.537 271.848C173.953 272.392 174.564 272.664 175.369 272.664ZM184.423 274.232C183.826 274.232 183.324 274.136 182.919 273.944C182.514 273.752 182.183 273.501 181.927 273.192C181.676 272.877 181.484 272.536 181.351 272.168C181.218 271.8 181.127 271.44 181.079 271.088C181.031 270.736 181.007 270.427 181.007 270.16V265.36H182.703V269.608C182.703 269.944 182.73 270.291 182.783 270.648C182.842 271 182.948 271.328 183.103 271.632C183.263 271.936 183.484 272.181 183.767 272.368C184.055 272.555 184.428 272.648 184.887 272.648C185.186 272.648 185.468 272.6 185.735 272.504C186.002 272.403 186.234 272.243 186.431 272.024C186.634 271.805 186.791 271.517 186.903 271.16C187.02 270.803 187.079 270.368 187.079 269.856L188.119 270.248C188.119 271.032 187.972 271.725 187.679 272.328C187.386 272.925 186.964 273.392 186.415 273.728C185.866 274.064 185.202 274.232 184.423 274.232ZM187.279 274V271.504H187.079V265.36H188.767V274H187.279ZM190.811 274V265.36H192.299V267.456L192.091 267.184C192.197 266.907 192.336 266.653 192.507 266.424C192.677 266.189 192.875 265.997 193.099 265.848C193.317 265.688 193.56 265.565 193.827 265.48C194.099 265.389 194.376 265.336 194.659 265.32C194.941 265.299 195.213 265.312 195.475 265.36V266.928C195.192 266.853 194.877 266.832 194.531 266.864C194.189 266.896 193.875 267.005 193.587 267.192C193.315 267.368 193.099 267.581 192.939 267.832C192.784 268.083 192.672 268.363 192.603 268.672C192.533 268.976 192.499 269.299 192.499 269.64V274H190.811ZM199.79 274.232C198.739 274.232 197.883 274 197.222 273.536C196.56 273.072 196.155 272.419 196.006 271.576L197.718 271.312C197.824 271.76 198.07 272.115 198.454 272.376C198.843 272.632 199.326 272.76 199.902 272.76C200.424 272.76 200.832 272.653 201.126 272.44C201.424 272.227 201.574 271.933 201.574 271.56C201.574 271.341 201.52 271.165 201.414 271.032C201.312 270.893 201.096 270.763 200.766 270.64C200.435 270.517 199.931 270.365 199.254 270.184C198.512 269.992 197.923 269.787 197.486 269.568C197.054 269.344 196.744 269.085 196.558 268.792C196.376 268.493 196.286 268.133 196.286 267.712C196.286 267.189 196.424 266.733 196.702 266.344C196.979 265.955 197.368 265.653 197.87 265.44C198.376 265.227 198.968 265.12 199.646 265.12C200.307 265.12 200.896 265.224 201.414 265.432C201.931 265.64 202.35 265.936 202.67 266.32C202.99 266.699 203.182 267.144 203.246 267.656L201.534 267.968C201.475 267.552 201.28 267.224 200.95 266.984C200.619 266.744 200.19 266.613 199.662 266.592C199.155 266.571 198.744 266.656 198.43 266.848C198.115 267.035 197.958 267.293 197.958 267.624C197.958 267.816 198.016 267.979 198.134 268.112C198.256 268.245 198.491 268.373 198.838 268.496C199.184 268.619 199.696 268.765 200.374 268.936C201.099 269.123 201.675 269.331 202.102 269.56C202.528 269.784 202.832 270.053 203.014 270.368C203.2 270.677 203.294 271.053 203.294 271.496C203.294 272.349 202.982 273.019 202.358 273.504C201.739 273.989 200.883 274.232 199.79 274.232ZM211.923 274.24C211.096 274.24 210.403 274.04 209.843 273.64C209.283 273.235 208.859 272.688 208.571 272C208.283 271.312 208.139 270.536 208.139 269.672C208.139 268.808 208.28 268.032 208.563 267.344C208.851 266.656 209.272 266.115 209.827 265.72C210.387 265.32 211.075 265.12 211.891 265.12C212.702 265.12 213.4 265.32 213.987 265.72C214.579 266.115 215.035 266.656 215.355 267.344C215.675 268.027 215.835 268.803 215.835 269.672C215.835 270.536 215.675 271.315 215.355 272.008C215.04 272.696 214.59 273.24 214.003 273.64C213.422 274.04 212.728 274.24 211.923 274.24ZM207.859 277.84V265.36H209.347V271.576H209.539V277.84H207.859ZM211.691 272.728C212.224 272.728 212.664 272.592 213.011 272.32C213.363 272.048 213.624 271.683 213.795 271.224C213.971 270.76 214.059 270.243 214.059 269.672C214.059 269.107 213.971 268.595 213.795 268.136C213.624 267.677 213.36 267.312 213.003 267.04C212.646 266.768 212.19 266.632 211.635 266.632C211.112 266.632 210.68 266.76 210.339 267.016C210.003 267.272 209.752 267.629 209.587 268.088C209.427 268.547 209.347 269.075 209.347 269.672C209.347 270.269 209.427 270.797 209.587 271.256C209.747 271.715 210 272.075 210.347 272.336C210.694 272.597 211.142 272.728 211.691 272.728ZM221.233 274.24C220.375 274.24 219.62 274.053 218.969 273.68C218.324 273.301 217.82 272.776 217.457 272.104C217.1 271.427 216.921 270.643 216.921 269.752C216.921 268.808 217.097 267.989 217.449 267.296C217.807 266.603 218.303 266.067 218.937 265.688C219.572 265.309 220.311 265.12 221.153 265.12C222.033 265.12 222.783 265.325 223.401 265.736C224.02 266.141 224.481 266.72 224.785 267.472C225.095 268.224 225.217 269.117 225.153 270.152H223.481V269.544C223.471 268.541 223.279 267.8 222.905 267.32C222.537 266.84 221.975 266.6 221.217 266.6C220.38 266.6 219.751 266.864 219.329 267.392C218.908 267.92 218.697 268.683 218.697 269.68C218.697 270.629 218.908 271.365 219.329 271.888C219.751 272.405 220.359 272.664 221.153 272.664C221.676 272.664 222.127 272.547 222.505 272.312C222.889 272.072 223.188 271.731 223.401 271.288L225.041 271.808C224.705 272.581 224.196 273.181 223.513 273.608C222.831 274.029 222.071 274.24 221.233 274.24ZM218.153 270.152V268.848H224.321V270.152H218.153ZM226.748 274V265.36H228.236V267.456L228.028 267.184C228.135 266.907 228.273 266.653 228.444 266.424C228.615 266.189 228.812 265.997 229.036 265.848C229.255 265.688 229.497 265.565 229.764 265.48C230.036 265.389 230.313 265.336 230.596 265.32C230.879 265.299 231.151 265.312 231.412 265.36V266.928C231.129 266.853 230.815 266.832 230.468 266.864C230.127 266.896 229.812 267.005 229.524 267.192C229.252 267.368 229.036 267.581 228.876 267.832C228.721 268.083 228.609 268.363 228.54 268.672C228.471 268.976 228.436 269.299 228.436 269.64V274H226.748ZM235.727 274.232C234.676 274.232 233.82 274 233.159 273.536C232.498 273.072 232.092 272.419 231.943 271.576L233.655 271.312C233.762 271.76 234.007 272.115 234.391 272.376C234.78 272.632 235.263 272.76 235.839 272.76C236.362 272.76 236.77 272.653 237.063 272.44C237.362 272.227 237.511 271.933 237.511 271.56C237.511 271.341 237.458 271.165 237.351 271.032C237.25 270.893 237.034 270.763 236.703 270.64C236.372 270.517 235.868 270.365 235.191 270.184C234.45 269.992 233.86 269.787 233.423 269.568C232.991 269.344 232.682 269.085 232.495 268.792C232.314 268.493 232.223 268.133 232.223 267.712C232.223 267.189 232.362 266.733 232.639 266.344C232.916 265.955 233.306 265.653 233.807 265.44C234.314 265.227 234.906 265.12 235.583 265.12C236.244 265.12 236.834 265.224 237.351 265.432C237.868 265.64 238.287 265.936 238.607 266.32C238.927 266.699 239.119 267.144 239.183 267.656L237.471 267.968C237.412 267.552 237.218 267.224 236.887 266.984C236.556 266.744 236.127 266.613 235.599 266.592C235.092 266.571 234.682 266.656 234.367 266.848C234.052 267.035 233.895 267.293 233.895 267.624C233.895 267.816 233.954 267.979 234.071 268.112C234.194 268.245 234.428 268.373 234.775 268.496C235.122 268.619 235.634 268.765 236.311 268.936C237.036 269.123 237.612 269.331 238.039 269.56C238.466 269.784 238.77 270.053 238.951 270.368C239.138 270.677 239.231 271.053 239.231 271.496C239.231 272.349 238.919 273.019 238.295 273.504C237.676 273.989 236.82 274.232 235.727 274.232ZM244.553 274.24C243.689 274.24 242.94 274.045 242.305 273.656C241.671 273.267 241.18 272.731 240.833 272.048C240.492 271.36 240.321 270.568 240.321 269.672C240.321 268.771 240.497 267.979 240.849 267.296C241.201 266.608 241.695 266.075 242.329 265.696C242.964 265.312 243.705 265.12 244.553 265.12C245.417 265.12 246.167 265.315 246.801 265.704C247.436 266.093 247.927 266.629 248.273 267.312C248.62 267.995 248.793 268.781 248.793 269.672C248.793 270.573 248.617 271.368 248.265 272.056C247.919 272.739 247.428 273.275 246.793 273.664C246.159 274.048 245.412 274.24 244.553 274.24ZM244.553 272.664C245.38 272.664 245.996 272.387 246.401 271.832C246.812 271.272 247.017 270.552 247.017 269.672C247.017 268.771 246.809 268.051 246.393 267.512C245.983 266.968 245.369 266.696 244.553 266.696C243.993 266.696 243.532 266.824 243.169 267.08C242.807 267.331 242.537 267.68 242.361 268.128C242.185 268.571 242.097 269.085 242.097 269.672C242.097 270.579 242.305 271.304 242.721 271.848C243.137 272.392 243.748 272.664 244.553 272.664ZM256.415 274V269.752C256.415 269.416 256.386 269.072 256.327 268.72C256.274 268.363 256.167 268.032 256.007 267.728C255.853 267.424 255.631 267.179 255.343 266.992C255.061 266.805 254.69 266.712 254.231 266.712C253.933 266.712 253.65 266.763 253.383 266.864C253.117 266.96 252.882 267.117 252.679 267.336C252.482 267.555 252.325 267.843 252.207 268.2C252.095 268.557 252.039 268.992 252.039 269.504L250.999 269.112C250.999 268.328 251.146 267.637 251.439 267.04C251.733 266.437 252.154 265.968 252.703 265.632C253.253 265.296 253.917 265.128 254.695 265.128C255.293 265.128 255.794 265.224 256.199 265.416C256.605 265.608 256.933 265.861 257.183 266.176C257.439 266.485 257.634 266.824 257.767 267.192C257.901 267.56 257.991 267.92 258.039 268.272C258.087 268.624 258.111 268.933 258.111 269.2V274H256.415ZM250.343 274V265.36H251.839V267.856H252.039V274H250.343ZM262.435 274.24C261.795 274.24 261.259 274.123 260.827 273.888C260.395 273.648 260.067 273.333 259.843 272.944C259.624 272.549 259.515 272.117 259.515 271.648C259.515 271.211 259.592 270.827 259.747 270.496C259.902 270.165 260.131 269.885 260.435 269.656C260.739 269.421 261.112 269.232 261.555 269.088C261.939 268.976 262.374 268.877 262.859 268.792C263.344 268.707 263.854 268.627 264.387 268.552C264.926 268.477 265.459 268.403 265.987 268.328L265.379 268.664C265.39 267.987 265.246 267.485 264.947 267.16C264.654 266.829 264.147 266.664 263.427 266.664C262.974 266.664 262.558 266.771 262.179 266.984C261.8 267.192 261.536 267.539 261.387 268.024L259.827 267.544C260.04 266.803 260.446 266.213 261.043 265.776C261.646 265.339 262.446 265.12 263.443 265.12C264.216 265.12 264.888 265.253 265.459 265.52C266.035 265.781 266.456 266.197 266.723 266.768C266.862 267.051 266.947 267.349 266.979 267.664C267.011 267.979 267.027 268.317 267.027 268.68V274H265.547V272.024L265.835 272.28C265.478 272.941 265.022 273.435 264.467 273.76C263.918 274.08 263.24 274.24 262.435 274.24ZM262.731 272.872C263.206 272.872 263.614 272.789 263.955 272.624C264.296 272.453 264.571 272.237 264.779 271.976C264.987 271.715 265.123 271.443 265.187 271.16C265.278 270.904 265.328 270.616 265.339 270.296C265.355 269.976 265.363 269.72 265.363 269.528L265.907 269.728C265.379 269.808 264.899 269.88 264.467 269.944C264.035 270.008 263.643 270.072 263.291 270.136C262.944 270.195 262.635 270.267 262.363 270.352C262.134 270.432 261.928 270.528 261.747 270.64C261.571 270.752 261.43 270.888 261.323 271.048C261.222 271.208 261.171 271.403 261.171 271.632C261.171 271.856 261.227 272.064 261.339 272.256C261.451 272.443 261.622 272.592 261.851 272.704C262.08 272.816 262.374 272.872 262.731 272.872ZM269.064 274V262.24H270.736V274H269.064ZM273.099 263.944V262.32H274.771V263.944H273.099ZM273.099 274V265.36H274.771V274H273.099ZM276.173 274V273.736L281.077 266.856H276.621V265.36H283.733V265.632L278.837 272.504H283.493V274H276.173ZM285.449 263.944V262.32H287.121V263.944H285.449ZM285.449 274V265.36H287.121V274H285.449ZM295.387 274V269.752C295.387 269.416 295.358 269.072 295.299 268.72C295.246 268.363 295.139 268.032 294.979 267.728C294.824 267.424 294.603 267.179 294.315 266.992C294.032 266.805 293.662 266.712 293.203 266.712C292.904 266.712 292.622 266.763 292.355 266.864C292.088 266.96 291.854 267.117 291.651 267.336C291.454 267.555 291.296 267.843 291.179 268.2C291.067 268.557 291.011 268.992 291.011 269.504L289.971 269.112C289.971 268.328 290.118 267.637 290.411 267.04C290.704 266.437 291.126 265.968 291.675 265.632C292.224 265.296 292.888 265.128 293.667 265.128C294.264 265.128 294.766 265.224 295.171 265.416C295.576 265.608 295.904 265.861 296.155 266.176C296.411 266.485 296.606 266.824 296.739 267.192C296.872 267.56 296.963 267.92 297.011 268.272C297.059 268.624 297.083 268.933 297.083 269.2V274H295.387ZM289.315 274V265.36H290.811V267.856H291.011V274H289.315ZM302.527 278.08C302.063 278.08 301.612 278.008 301.175 277.864C300.743 277.72 300.348 277.507 299.991 277.224C299.634 276.947 299.338 276.603 299.103 276.192L300.647 275.408C300.834 275.776 301.1 276.045 301.447 276.216C301.794 276.387 302.159 276.472 302.543 276.472C303.018 276.472 303.423 276.387 303.759 276.216C304.095 276.051 304.348 275.8 304.519 275.464C304.695 275.128 304.78 274.712 304.775 274.216V271.8H304.975V265.36H306.455V274.232C306.455 274.461 306.447 274.68 306.431 274.888C306.415 275.096 306.386 275.304 306.343 275.512C306.22 276.093 305.986 276.573 305.639 276.952C305.298 277.331 304.86 277.613 304.327 277.8C303.799 277.987 303.199 278.08 302.527 278.08ZM302.399 274.24C301.594 274.24 300.898 274.04 300.311 273.64C299.73 273.24 299.279 272.696 298.959 272.008C298.644 271.315 298.487 270.536 298.487 269.672C298.487 268.803 298.647 268.027 298.967 267.344C299.287 266.656 299.74 266.115 300.327 265.72C300.919 265.32 301.62 265.12 302.431 265.12C303.247 265.12 303.932 265.32 304.487 265.72C305.047 266.115 305.468 266.656 305.751 267.344C306.039 268.032 306.183 268.808 306.183 269.672C306.183 270.536 306.039 271.312 305.751 272C305.463 272.688 305.039 273.235 304.479 273.64C303.919 274.04 303.226 274.24 302.399 274.24ZM302.631 272.728C303.18 272.728 303.628 272.597 303.975 272.336C304.322 272.075 304.575 271.715 304.735 271.256C304.895 270.797 304.975 270.269 304.975 269.672C304.975 269.075 304.892 268.547 304.727 268.088C304.567 267.629 304.316 267.272 303.975 267.016C303.639 266.76 303.21 266.632 302.687 266.632C302.132 266.632 301.676 266.768 301.319 267.04C300.962 267.312 300.695 267.677 300.519 268.136C300.348 268.595 300.263 269.107 300.263 269.672C300.263 270.243 300.348 270.76 300.519 271.224C300.695 271.683 300.956 272.048 301.303 272.32C301.655 272.592 302.098 272.728 302.631 272.728ZM315.336 274.24C314.478 274.24 313.723 274.053 313.072 273.68C312.427 273.301 311.923 272.776 311.56 272.104C311.203 271.427 311.024 270.643 311.024 269.752C311.024 268.808 311.2 267.989 311.552 267.296C311.91 266.603 312.406 266.067 313.04 265.688C313.675 265.309 314.414 265.12 315.256 265.12C316.136 265.12 316.886 265.325 317.504 265.736C318.123 266.141 318.584 266.72 318.888 267.472C319.198 268.224 319.32 269.117 319.256 270.152H317.584V269.544C317.574 268.541 317.382 267.8 317.008 267.32C316.64 266.84 316.078 266.6 315.32 266.6C314.483 266.6 313.854 266.864 313.432 267.392C313.011 267.92 312.8 268.683 312.8 269.68C312.8 270.629 313.011 271.365 313.432 271.888C313.854 272.405 314.462 272.664 315.256 272.664C315.779 272.664 316.23 272.547 316.608 272.312C316.992 272.072 317.291 271.731 317.504 271.288L319.144 271.808C318.808 272.581 318.299 273.181 317.616 273.608C316.934 274.029 316.174 274.24 315.336 274.24ZM312.256 270.152V268.848H318.424V270.152H312.256ZM330.969 274L330.977 268.616C330.977 267.992 330.817 267.507 330.497 267.16C330.177 266.808 329.756 266.632 329.233 266.632C328.913 266.632 328.62 266.707 328.353 266.856C328.092 267 327.878 267.219 327.713 267.512C327.553 267.8 327.473 268.163 327.473 268.6L326.665 268.192C326.654 267.584 326.782 267.051 327.049 266.592C327.321 266.133 327.689 265.779 328.153 265.528C328.617 265.272 329.137 265.144 329.713 265.144C330.646 265.144 331.369 265.424 331.881 265.984C332.393 266.544 332.649 267.288 332.649 268.216L332.641 274H330.969ZM320.609 274V265.36H322.097V267.856H322.289V274H320.609ZM325.793 274L325.801 268.648C325.801 268.019 325.641 267.525 325.321 267.168C325.006 266.811 324.582 266.632 324.049 266.632C323.521 266.632 323.094 266.813 322.769 267.176C322.449 267.539 322.289 268.013 322.289 268.6L321.489 268.088C321.489 267.523 321.625 267.019 321.897 266.576C322.169 266.133 322.537 265.784 323.001 265.528C323.465 265.272 323.99 265.144 324.577 265.144C325.19 265.144 325.713 265.275 326.145 265.536C326.577 265.792 326.905 266.152 327.129 266.616C327.358 267.08 327.473 267.619 327.473 268.232L327.465 274H325.793ZM336.966 274.24C336.326 274.24 335.79 274.123 335.358 273.888C334.926 273.648 334.598 273.333 334.374 272.944C334.156 272.549 334.046 272.117 334.046 271.648C334.046 271.211 334.124 270.827 334.278 270.496C334.433 270.165 334.662 269.885 334.966 269.656C335.27 269.421 335.644 269.232 336.086 269.088C336.47 268.976 336.905 268.877 337.39 268.792C337.876 268.707 338.385 268.627 338.918 268.552C339.457 268.477 339.99 268.403 340.518 268.328L339.91 268.664C339.921 267.987 339.777 267.485 339.478 267.16C339.185 266.829 338.678 266.664 337.958 266.664C337.505 266.664 337.089 266.771 336.71 266.984C336.332 267.192 336.068 267.539 335.918 268.024L334.358 267.544C334.572 266.803 334.977 266.213 335.574 265.776C336.177 265.339 336.977 265.12 337.974 265.12C338.748 265.12 339.42 265.253 339.99 265.52C340.566 265.781 340.988 266.197 341.254 266.768C341.393 267.051 341.478 267.349 341.51 267.664C341.542 267.979 341.558 268.317 341.558 268.68V274H340.078V272.024L340.366 272.28C340.009 272.941 339.553 273.435 338.998 273.76C338.449 274.08 337.772 274.24 336.966 274.24ZM337.262 272.872C337.737 272.872 338.145 272.789 338.486 272.624C338.828 272.453 339.102 272.237 339.31 271.976C339.518 271.715 339.654 271.443 339.718 271.16C339.809 270.904 339.86 270.616 339.87 270.296C339.886 269.976 339.894 269.72 339.894 269.528L340.438 269.728C339.91 269.808 339.43 269.88 338.998 269.944C338.566 270.008 338.174 270.072 337.822 270.136C337.476 270.195 337.166 270.267 336.894 270.352C336.665 270.432 336.46 270.528 336.278 270.64C336.102 270.752 335.961 270.888 335.854 271.048C335.753 271.208 335.702 271.403 335.702 271.632C335.702 271.856 335.758 272.064 335.87 272.256C335.982 272.443 336.153 272.592 336.382 272.704C336.612 272.816 336.905 272.872 337.262 272.872ZM343.596 263.944V262.32H345.268V263.944H343.596ZM343.596 274V265.36H345.268V274H343.596ZM347.63 274V262.24H349.302V274H347.63ZM354.808 274.232C353.758 274.232 352.902 274 352.24 273.536C351.579 273.072 351.174 272.419 351.024 271.576L352.736 271.312C352.843 271.76 353.088 272.115 353.472 272.376C353.862 272.632 354.344 272.76 354.92 272.76C355.443 272.76 355.851 272.653 356.144 272.44C356.443 272.227 356.592 271.933 356.592 271.56C356.592 271.341 356.539 271.165 356.432 271.032C356.331 270.893 356.115 270.763 355.784 270.64C355.454 270.517 354.95 270.365 354.272 270.184C353.531 269.992 352.942 269.787 352.504 269.568C352.072 269.344 351.763 269.085 351.576 268.792C351.395 268.493 351.304 268.133 351.304 267.712C351.304 267.189 351.443 266.733 351.72 266.344C351.998 265.955 352.387 265.653 352.888 265.44C353.395 265.227 353.987 265.12 354.664 265.12C355.326 265.12 355.915 265.224 356.432 265.432C356.95 265.64 357.368 265.936 357.688 266.32C358.008 266.699 358.2 267.144 358.264 267.656L356.552 267.968C356.494 267.552 356.299 267.224 355.968 266.984C355.638 266.744 355.208 266.613 354.68 266.592C354.174 266.571 353.763 266.656 353.448 266.848C353.134 267.035 352.976 267.293 352.976 267.624C352.976 267.816 353.035 267.979 353.152 268.112C353.275 268.245 353.51 268.373 353.856 268.496C354.203 268.619 354.715 268.765 355.392 268.936C356.118 269.123 356.694 269.331 357.12 269.56C357.547 269.784 357.851 270.053 358.032 270.368C358.219 270.677 358.312 271.053 358.312 271.496C358.312 272.349 358 273.019 357.376 273.504C356.758 273.989 355.902 274.232 354.808 274.232Z" fill="#10121B"/>
<rect x="94" y="317" width="281" height="46" fill="white" stroke="black" stroke-width="2"/>
<path d="M123.302 346.24C122.529 346.24 121.817 346.107 121.166 345.84C120.516 345.568 119.95 345.173 119.47 344.656C118.99 344.139 118.617 343.509 118.35 342.768C118.084 342.027 117.95 341.184 117.95 340.24C117.95 338.997 118.177 337.931 118.63 337.04C119.084 336.144 119.713 335.456 120.518 334.976C121.324 334.491 122.252 334.248 123.302 334.248C124.657 334.248 125.737 334.563 126.542 335.192C127.353 335.821 127.905 336.691 128.198 337.8L126.502 338.104C126.268 337.416 125.889 336.867 125.366 336.456C124.844 336.045 124.188 335.837 123.398 335.832C122.582 335.827 121.902 336.008 121.358 336.376C120.82 336.744 120.414 337.261 120.142 337.928C119.87 338.589 119.732 339.36 119.726 340.24C119.721 341.12 119.854 341.891 120.126 342.552C120.398 343.208 120.806 343.72 121.35 344.088C121.9 344.456 122.582 344.643 123.398 344.648C124.054 344.659 124.617 344.539 125.086 344.288C125.561 344.032 125.937 343.659 126.214 343.168C126.492 342.677 126.67 342.075 126.75 341.36H124.51V340.016H128.526C128.537 340.112 128.545 340.24 128.55 340.4C128.556 340.555 128.558 340.653 128.558 340.696C128.558 341.763 128.353 342.715 127.942 343.552C127.532 344.389 126.934 345.048 126.15 345.528C125.366 346.003 124.417 346.24 123.302 346.24ZM133.785 346.24C132.926 346.24 132.171 346.053 131.521 345.68C130.875 345.301 130.371 344.776 130.009 344.104C129.651 343.427 129.473 342.643 129.473 341.752C129.473 340.808 129.649 339.989 130.001 339.296C130.358 338.603 130.854 338.067 131.489 337.688C132.123 337.309 132.862 337.12 133.705 337.12C134.585 337.12 135.334 337.325 135.953 337.736C136.571 338.141 137.033 338.72 137.337 339.472C137.646 340.224 137.769 341.117 137.705 342.152H136.033V341.544C136.022 340.541 135.83 339.8 135.457 339.32C135.089 338.84 134.526 338.6 133.769 338.6C132.931 338.6 132.302 338.864 131.881 339.392C131.459 339.92 131.249 340.683 131.249 341.68C131.249 342.629 131.459 343.365 131.881 343.888C132.302 344.405 132.91 344.664 133.705 344.664C134.227 344.664 134.678 344.547 135.057 344.312C135.441 344.072 135.739 343.731 135.953 343.288L137.593 343.808C137.257 344.581 136.747 345.181 136.065 345.608C135.382 346.029 134.622 346.24 133.785 346.24ZM130.705 342.152V340.848H136.873V342.152H130.705ZM144.244 346C143.7 346.107 143.166 346.152 142.644 346.136C142.121 346.12 141.654 346.019 141.244 345.832C140.833 345.645 140.524 345.352 140.316 344.952C140.129 344.595 140.028 344.232 140.012 343.864C140.001 343.491 139.996 343.069 139.996 342.6V334.96H141.676V342.52C141.676 342.867 141.678 343.168 141.684 343.424C141.694 343.68 141.75 343.896 141.852 344.072C142.044 344.403 142.348 344.592 142.764 344.64C143.185 344.683 143.678 344.664 144.244 344.584V346ZM138.34 338.704V337.36H144.244V338.704H138.34ZM151.204 346L148.068 337.36H149.756L152.052 343.904L154.348 337.36H156.036L152.9 346H151.204ZM160.797 346.24C159.939 346.24 159.184 346.053 158.533 345.68C157.888 345.301 157.384 344.776 157.021 344.104C156.664 343.427 156.485 342.643 156.485 341.752C156.485 340.808 156.661 339.989 157.013 339.296C157.371 338.603 157.867 338.067 158.501 337.688C159.136 337.309 159.875 337.12 160.717 337.12C161.597 337.12 162.347 337.325 162.965 337.736C163.584 338.141 164.045 338.72 164.349 339.472C164.659 340.224 164.781 341.117 164.717 342.152H163.045V341.544C163.035 340.541 162.843 339.8 162.469 339.32C162.101 338.84 161.539 338.6 160.781 338.6C159.944 338.6 159.315 338.864 158.893 339.392C158.472 339.92 158.261 340.683 158.261 341.68C158.261 342.629 158.472 343.365 158.893 343.888C159.315 344.405 159.923 344.664 160.717 344.664C161.24 344.664 161.691 344.547 162.069 344.312C162.453 344.072 162.752 343.731 162.965 343.288L164.605 343.808C164.269 344.581 163.76 345.181 163.077 345.608C162.395 346.029 161.635 346.24 160.797 346.24ZM157.717 342.152V340.848H163.885V342.152H157.717ZM166.312 346V337.36H167.8V339.456L167.592 339.184C167.699 338.907 167.838 338.653 168.008 338.424C168.179 338.189 168.376 337.997 168.6 337.848C168.819 337.688 169.062 337.565 169.328 337.48C169.6 337.389 169.878 337.336 170.16 337.32C170.443 337.299 170.715 337.312 170.976 337.36V338.928C170.694 338.853 170.379 338.832 170.032 338.864C169.691 338.896 169.376 339.005 169.088 339.192C168.816 339.368 168.6 339.581 168.44 339.832C168.286 340.083 168.174 340.363 168.104 340.672C168.035 340.976 168 341.299 168 341.64V346H166.312ZM173.249 349.84L174.921 345.288L174.945 346.632L171.177 337.36H172.921L175.737 344.52H175.225L177.913 337.36H179.609L174.841 349.84H173.249ZM184.457 346V337.056C184.457 336.837 184.465 336.605 184.481 336.36C184.497 336.109 184.543 335.864 184.617 335.624C184.697 335.379 184.828 335.155 185.009 334.952C185.228 334.712 185.468 334.541 185.729 334.44C185.991 334.339 186.249 334.28 186.505 334.264C186.767 334.248 187.007 334.24 187.225 334.24H188.313V335.616H187.305C186.911 335.616 186.615 335.715 186.417 335.912C186.225 336.104 186.129 336.379 186.129 336.736V346H184.457ZM183.025 338.704V337.36H188.313V338.704H183.025ZM192.907 346.24C192.048 346.24 191.293 346.053 190.643 345.68C189.997 345.301 189.493 344.776 189.131 344.104C188.773 343.427 188.595 342.643 188.595 341.752C188.595 340.808 188.771 339.989 189.123 339.296C189.48 338.603 189.976 338.067 190.611 337.688C191.245 337.309 191.984 337.12 192.827 337.12C193.707 337.12 194.456 337.325 195.075 337.736C195.693 338.141 196.155 338.72 196.459 339.472C196.768 340.224 196.891 341.117 196.827 342.152H195.155V341.544C195.144 340.541 194.952 339.8 194.579 339.32C194.211 338.84 193.648 338.6 192.891 338.6C192.053 338.6 191.424 338.864 191.003 339.392C190.581 339.92 190.371 340.683 190.371 341.68C190.371 342.629 190.581 343.365 191.003 343.888C191.424 344.405 192.032 344.664 192.827 344.664C193.349 344.664 193.8 344.547 194.179 344.312C194.563 344.072 194.861 343.731 195.075 343.288L196.715 343.808C196.379 344.581 195.869 345.181 195.187 345.608C194.504 346.029 193.744 346.24 192.907 346.24ZM189.827 342.152V340.848H195.995V342.152H189.827ZM199.949 346L197.309 337.352L198.965 337.36L200.773 343.288L202.597 337.36H204.037L205.861 343.288L207.669 337.36H209.317L206.677 346H205.333L203.317 339.744L201.293 346H199.949ZM216.985 346.24C216.179 346.24 215.483 346.04 214.897 345.64C214.315 345.24 213.865 344.696 213.545 344.008C213.23 343.315 213.073 342.536 213.073 341.672C213.073 340.803 213.233 340.027 213.553 339.344C213.873 338.656 214.326 338.115 214.913 337.72C215.505 337.32 216.206 337.12 217.017 337.12C217.833 337.12 218.518 337.32 219.073 337.72C219.633 338.115 220.054 338.656 220.337 339.344C220.625 340.032 220.769 340.808 220.769 341.672C220.769 342.536 220.625 343.312 220.337 344C220.049 344.688 219.625 345.235 219.065 345.64C218.505 346.04 217.811 346.24 216.985 346.24ZM217.217 344.728C217.766 344.728 218.214 344.597 218.561 344.336C218.907 344.075 219.161 343.715 219.321 343.256C219.481 342.797 219.561 342.269 219.561 341.672C219.561 341.075 219.478 340.547 219.313 340.088C219.153 339.629 218.902 339.272 218.561 339.016C218.225 338.76 217.795 338.632 217.273 338.632C216.718 338.632 216.262 338.768 215.905 339.04C215.547 339.312 215.281 339.677 215.105 340.136C214.934 340.595 214.849 341.107 214.849 341.672C214.849 342.243 214.934 342.76 215.105 343.224C215.281 343.683 215.542 344.048 215.889 344.32C216.241 344.592 216.683 344.728 217.217 344.728ZM219.369 349.84V343.576H219.561V337.36H221.049V349.84H219.369ZM226.343 346.232C225.746 346.232 225.245 346.136 224.839 345.944C224.434 345.752 224.103 345.501 223.847 345.192C223.597 344.877 223.405 344.536 223.271 344.168C223.138 343.8 223.047 343.44 222.999 343.088C222.951 342.736 222.927 342.427 222.927 342.16V337.36H224.623V341.608C224.623 341.944 224.65 342.291 224.703 342.648C224.762 343 224.869 343.328 225.023 343.632C225.183 343.936 225.405 344.181 225.687 344.368C225.975 344.555 226.349 344.648 226.807 344.648C227.106 344.648 227.389 344.6 227.655 344.504C227.922 344.403 228.154 344.243 228.351 344.024C228.554 343.805 228.711 343.517 228.823 343.16C228.941 342.803 228.999 342.368 228.999 341.856L230.039 342.248C230.039 343.032 229.893 343.725 229.599 344.328C229.306 344.925 228.885 345.392 228.335 345.728C227.786 346.064 227.122 346.232 226.343 346.232ZM229.199 346V343.504H228.999V337.36H230.687V346H229.199ZM235.171 346.24C234.531 346.24 233.995 346.123 233.563 345.888C233.131 345.648 232.803 345.333 232.579 344.944C232.36 344.549 232.251 344.117 232.251 343.648C232.251 343.211 232.328 342.827 232.483 342.496C232.638 342.165 232.867 341.885 233.171 341.656C233.475 341.421 233.848 341.232 234.291 341.088C234.675 340.976 235.11 340.877 235.595 340.792C236.08 340.707 236.59 340.627 237.123 340.552C237.662 340.477 238.195 340.403 238.723 340.328L238.115 340.664C238.126 339.987 237.982 339.485 237.683 339.16C237.39 338.829 236.883 338.664 236.163 338.664C235.71 338.664 235.294 338.771 234.915 338.984C234.536 339.192 234.272 339.539 234.123 340.024L232.563 339.544C232.776 338.803 233.182 338.213 233.779 337.776C234.382 337.339 235.182 337.12 236.179 337.12C236.952 337.12 237.624 337.253 238.195 337.52C238.771 337.781 239.192 338.197 239.459 338.768C239.598 339.051 239.683 339.349 239.715 339.664C239.747 339.979 239.763 340.317 239.763 340.68V346H238.283V344.024L238.571 344.28C238.214 344.941 237.758 345.435 237.203 345.76C236.654 346.08 235.976 346.24 235.171 346.24ZM235.467 344.872C235.942 344.872 236.35 344.789 236.691 344.624C237.032 344.453 237.307 344.237 237.515 343.976C237.723 343.715 237.859 343.443 237.923 343.16C238.014 342.904 238.064 342.616 238.075 342.296C238.091 341.976 238.099 341.72 238.099 341.528L238.643 341.728C238.115 341.808 237.635 341.88 237.203 341.944C236.771 342.008 236.379 342.072 236.027 342.136C235.68 342.195 235.371 342.267 235.099 342.352C234.87 342.432 234.664 342.528 234.483 342.64C234.307 342.752 234.166 342.888 234.059 343.048C233.958 343.208 233.907 343.403 233.907 343.632C233.907 343.856 233.963 344.064 234.075 344.256C234.187 344.443 234.358 344.592 234.587 344.704C234.816 344.816 235.11 344.872 235.467 344.872ZM241.8 346V334.24H243.472V346H241.8ZM245.835 335.944V334.32H247.507V335.944H245.835ZM245.835 346V337.36H247.507V346H245.835ZM250.501 346V337.056C250.501 336.837 250.509 336.605 250.525 336.36C250.541 336.109 250.586 335.864 250.661 335.624C250.741 335.379 250.872 335.155 251.053 334.952C251.272 334.712 251.512 334.541 251.773 334.44C252.034 334.339 252.293 334.28 252.549 334.264C252.81 334.248 253.05 334.24 253.269 334.24H254.357V335.616H253.349C252.954 335.616 252.658 335.715 252.461 335.912C252.269 336.104 252.173 336.379 252.173 336.736V346H250.501ZM249.069 338.704V337.36H254.357V338.704H249.069ZM256.037 335.944V334.32H257.709V335.944H256.037ZM256.037 346V337.36H257.709V346H256.037ZM263.747 346.24C262.889 346.24 262.134 346.053 261.483 345.68C260.838 345.301 260.334 344.776 259.971 344.104C259.614 343.427 259.435 342.643 259.435 341.752C259.435 340.808 259.611 339.989 259.963 339.296C260.321 338.603 260.817 338.067 261.451 337.688C262.086 337.309 262.825 337.12 263.667 337.12C264.547 337.12 265.297 337.325 265.915 337.736C266.534 338.141 266.995 338.72 267.299 339.472C267.609 340.224 267.731 341.117 267.667 342.152H265.995V341.544C265.985 340.541 265.793 339.8 265.419 339.32C265.051 338.84 264.489 338.6 263.731 338.6C262.894 338.6 262.265 338.864 261.843 339.392C261.422 339.92 261.211 340.683 261.211 341.68C261.211 342.629 261.422 343.365 261.843 343.888C262.265 344.405 262.873 344.664 263.667 344.664C264.19 344.664 264.641 344.547 265.019 344.312C265.403 344.072 265.702 343.731 265.915 343.288L267.555 343.808C267.219 344.581 266.71 345.181 266.027 345.608C265.345 346.029 264.585 346.24 263.747 346.24ZM260.667 342.152V340.848H266.835V342.152H260.667ZM272.694 346.24C271.889 346.24 271.193 346.04 270.606 345.64C270.025 345.24 269.574 344.696 269.254 344.008C268.94 343.315 268.782 342.536 268.782 341.672C268.782 340.803 268.942 340.027 269.262 339.344C269.582 338.656 270.036 338.115 270.622 337.72C271.214 337.32 271.916 337.12 272.726 337.12C273.542 337.12 274.228 337.32 274.782 337.72C275.342 338.115 275.764 338.656 276.046 339.344C276.334 340.032 276.478 340.808 276.478 341.672C276.478 342.536 276.334 343.312 276.046 344C275.758 344.688 275.334 345.235 274.774 345.64C274.214 346.04 273.521 346.24 272.694 346.24ZM272.926 344.728C273.476 344.728 273.924 344.597 274.27 344.336C274.617 344.075 274.87 343.715 275.03 343.256C275.19 342.797 275.27 342.269 275.27 341.672C275.27 341.075 275.188 340.547 275.022 340.088C274.862 339.629 274.612 339.272 274.27 339.016C273.934 338.76 273.505 338.632 272.982 338.632C272.428 338.632 271.972 338.768 271.614 339.04C271.257 339.312 270.99 339.677 270.814 340.136C270.644 340.595 270.558 341.107 270.558 341.672C270.558 342.243 270.644 342.76 270.814 343.224C270.99 343.683 271.252 344.048 271.598 344.32C271.95 344.592 272.393 344.728 272.926 344.728ZM275.27 346V339.784H275.078V334.48H276.758V346H275.27ZM292.152 346L292.16 340.616C292.16 339.992 292 339.507 291.68 339.16C291.36 338.808 290.938 338.632 290.416 338.632C290.096 338.632 289.802 338.707 289.536 338.856C289.274 339 289.061 339.219 288.896 339.512C288.736 339.8 288.656 340.163 288.656 340.6L287.848 340.192C287.837 339.584 287.965 339.051 288.232 338.592C288.504 338.133 288.872 337.779 289.336 337.528C289.8 337.272 290.32 337.144 290.896 337.144C291.829 337.144 292.552 337.424 293.064 337.984C293.576 338.544 293.832 339.288 293.832 340.216L293.824 346H292.152ZM281.792 346V337.36H283.28V339.856H283.472V346H281.792ZM286.976 346L286.984 340.648C286.984 340.019 286.824 339.525 286.504 339.168C286.189 338.811 285.765 338.632 285.232 338.632C284.704 338.632 284.277 338.813 283.952 339.176C283.632 339.539 283.472 340.013 283.472 340.6L282.672 340.088C282.672 339.523 282.808 339.019 283.08 338.576C283.352 338.133 283.72 337.784 284.184 337.528C284.648 337.272 285.173 337.144 285.76 337.144C286.373 337.144 286.896 337.275 287.328 337.536C287.76 337.792 288.088 338.152 288.312 338.616C288.541 339.08 288.656 339.619 288.656 340.232L288.648 346H286.976ZM299.432 346.24C298.573 346.24 297.818 346.053 297.168 345.68C296.522 345.301 296.018 344.776 295.656 344.104C295.298 343.427 295.12 342.643 295.12 341.752C295.12 340.808 295.296 339.989 295.648 339.296C296.005 338.603 296.501 338.067 297.136 337.688C297.77 337.309 298.509 337.12 299.352 337.12C300.232 337.12 300.981 337.325 301.6 337.736C302.218 338.141 302.68 338.72 302.984 339.472C303.293 340.224 303.416 341.117 303.352 342.152H301.68V341.544C301.669 340.541 301.477 339.8 301.104 339.32C300.736 338.84 300.173 338.6 299.416 338.6C298.578 338.6 297.949 338.864 297.528 339.392C297.106 339.92 296.896 340.683 296.896 341.68C296.896 342.629 297.106 343.365 297.528 343.888C297.949 344.405 298.557 344.664 299.352 344.664C299.874 344.664 300.325 344.547 300.704 344.312C301.088 344.072 301.386 343.731 301.6 343.288L303.24 343.808C302.904 344.581 302.394 345.181 301.712 345.608C301.029 346.029 300.269 346.24 299.432 346.24ZM296.352 342.152V340.848H302.52V342.152H296.352ZM308.779 346.24C307.92 346.24 307.165 346.053 306.515 345.68C305.869 345.301 305.365 344.776 305.003 344.104C304.645 343.427 304.467 342.643 304.467 341.752C304.467 340.808 304.643 339.989 304.995 339.296C305.352 338.603 305.848 338.067 306.483 337.688C307.117 337.309 307.856 337.12 308.699 337.12C309.579 337.12 310.328 337.325 310.947 337.736C311.565 338.141 312.027 338.72 312.331 339.472C312.64 340.224 312.763 341.117 312.699 342.152H311.027V341.544C311.016 340.541 310.824 339.8 310.451 339.32C310.083 338.84 309.52 338.6 308.763 338.6C307.925 338.6 307.296 338.864 306.875 339.392C306.453 339.92 306.243 340.683 306.243 341.68C306.243 342.629 306.453 343.365 306.875 343.888C307.296 344.405 307.904 344.664 308.699 344.664C309.221 344.664 309.672 344.547 310.051 344.312C310.435 344.072 310.733 343.731 310.947 343.288L312.587 343.808C312.251 344.581 311.741 345.181 311.059 345.608C310.376 346.029 309.616 346.24 308.779 346.24ZM305.699 342.152V340.848H311.867V342.152H305.699ZM319.237 346C318.693 346.107 318.16 346.152 317.637 346.136C317.115 346.12 316.648 346.019 316.237 345.832C315.827 345.645 315.517 345.352 315.309 344.952C315.123 344.595 315.021 344.232 315.005 343.864C314.995 343.491 314.989 343.069 314.989 342.6V334.96H316.669V342.52C316.669 342.867 316.672 343.168 316.677 343.424C316.688 343.68 316.744 343.896 316.845 344.072C317.037 344.403 317.341 344.592 317.757 344.64C318.179 344.683 318.672 344.664 319.237 344.584V346ZM313.333 338.704V337.36H319.237V338.704H313.333ZM321.019 335.944V334.32H322.691V335.944H321.019ZM321.019 346V337.36H322.691V346H321.019ZM330.957 346V341.752C330.957 341.416 330.928 341.072 330.869 340.72C330.816 340.363 330.709 340.032 330.549 339.728C330.395 339.424 330.173 339.179 329.885 338.992C329.603 338.805 329.232 338.712 328.773 338.712C328.475 338.712 328.192 338.763 327.925 338.864C327.659 338.96 327.424 339.117 327.221 339.336C327.024 339.555 326.867 339.843 326.749 340.2C326.637 340.557 326.581 340.992 326.581 341.504L325.541 341.112C325.541 340.328 325.688 339.637 325.981 339.04C326.275 338.437 326.696 337.968 327.245 337.632C327.795 337.296 328.459 337.128 329.237 337.128C329.835 337.128 330.336 337.224 330.741 337.416C331.147 337.608 331.475 337.861 331.725 338.176C331.981 338.485 332.176 338.824 332.309 339.192C332.443 339.56 332.533 339.92 332.581 340.272C332.629 340.624 332.653 340.933 332.653 341.2V346H330.957ZM324.885 346V337.36H326.381V339.856H326.581V346H324.885ZM338.097 350.08C337.633 350.08 337.183 350.008 336.745 349.864C336.313 349.72 335.919 349.507 335.561 349.224C335.204 348.947 334.908 348.603 334.673 348.192L336.217 347.408C336.404 347.776 336.671 348.045 337.017 348.216C337.364 348.387 337.729 348.472 338.113 348.472C338.588 348.472 338.993 348.387 339.329 348.216C339.665 348.051 339.919 347.8 340.089 347.464C340.265 347.128 340.351 346.712 340.345 346.216V343.8H340.545V337.36H342.025V346.232C342.025 346.461 342.017 346.68 342.001 346.888C341.985 347.096 341.956 347.304 341.913 347.512C341.791 348.093 341.556 348.573 341.209 348.952C340.868 349.331 340.431 349.613 339.897 349.8C339.369 349.987 338.769 350.08 338.097 350.08ZM337.969 346.24C337.164 346.24 336.468 346.04 335.881 345.64C335.3 345.24 334.849 344.696 334.529 344.008C334.215 343.315 334.057 342.536 334.057 341.672C334.057 340.803 334.217 340.027 334.537 339.344C334.857 338.656 335.311 338.115 335.897 337.72C336.489 337.32 337.191 337.12 338.001 337.12C338.817 337.12 339.503 337.32 340.057 337.72C340.617 338.115 341.039 338.656 341.321 339.344C341.609 340.032 341.753 340.808 341.753 341.672C341.753 342.536 341.609 343.312 341.321 344C341.033 344.688 340.609 345.235 340.049 345.64C339.489 346.04 338.796 346.24 337.969 346.24ZM338.201 344.728C338.751 344.728 339.199 344.597 339.545 344.336C339.892 344.075 340.145 343.715 340.305 343.256C340.465 342.797 340.545 342.269 340.545 341.672C340.545 341.075 340.463 340.547 340.297 340.088C340.137 339.629 339.887 339.272 339.545 339.016C339.209 338.76 338.78 338.632 338.257 338.632C337.703 338.632 337.247 338.768 336.889 339.04C336.532 339.312 336.265 339.677 336.089 340.136C335.919 340.595 335.833 341.107 335.833 341.672C335.833 342.243 335.919 342.76 336.089 343.224C336.265 343.683 336.527 344.048 336.873 344.32C337.225 344.592 337.668 344.728 338.201 344.728ZM347.376 346.232C346.325 346.232 345.469 346 344.808 345.536C344.146 345.072 343.741 344.419 343.592 343.576L345.304 343.312C345.41 343.76 345.656 344.115 346.04 344.376C346.429 344.632 346.912 344.76 347.488 344.76C348.01 344.76 348.418 344.653 348.712 344.44C349.01 344.227 349.16 343.933 349.16 343.56C349.16 343.341 349.106 343.165 349 343.032C348.898 342.893 348.682 342.763 348.352 342.64C348.021 342.517 347.517 342.365 346.84 342.184C346.098 341.992 345.509 341.787 345.072 341.568C344.64 341.344 344.33 341.085 344.144 340.792C343.962 340.493 343.872 340.133 343.872 339.712C343.872 339.189 344.01 338.733 344.288 338.344C344.565 337.955 344.954 337.653 345.456 337.44C345.962 337.227 346.554 337.12 347.232 337.12C347.893 337.12 348.482 337.224 349 337.432C349.517 337.64 349.936 337.936 350.256 338.32C350.576 338.699 350.768 339.144 350.832 339.656L349.12 339.968C349.061 339.552 348.866 339.224 348.536 338.984C348.205 338.744 347.776 338.613 347.248 338.592C346.741 338.571 346.33 338.656 346.016 338.848C345.701 339.035 345.544 339.293 345.544 339.624C345.544 339.816 345.602 339.979 345.72 340.112C345.842 340.245 346.077 340.373 346.424 340.496C346.77 340.619 347.282 340.765 347.96 340.936C348.685 341.123 349.261 341.331 349.688 341.56C350.114 341.784 350.418 342.053 350.6 342.368C350.786 342.677 350.88 343.053 350.88 343.496C350.88 344.349 350.568 345.019 349.944 345.504C349.325 345.989 348.469 346.232 347.376 346.232Z" fill="#10121B"/>
</svg>
