<svg width="139" height="155" viewBox="0 0 139 155" fill="none" xmlns="http://www.w3.org/2000/svg">
<path fill-rule="evenodd" clip-rule="evenodd" d="M107.942 24.8321C112.891 24.9459 118.098 25.7121 122.343 27.7994C126.549 29.8671 129.806 33.2223 130.983 38.6058C131.777 42.238 130.831 45.0725 128.823 47.3568C126.772 49.6887 123.575 51.4852 119.841 52.8421C115.713 54.3417 111.054 55.2607 106.855 55.803C90.6549 45.5609 70.8726 37.9989 51.5045 39.0838C44.9943 39.4485 37.3031 41.2341 32.0016 45.6637C30.9042 46.5807 30.1898 47.5342 29.9346 48.5383C29.667 49.5912 29.9429 50.544 30.5075 51.3229C31.0501 52.0712 31.858 52.6654 32.7217 53.1316C33.596 53.6035 34.5922 53.9787 35.5833 54.26C44.0786 56.6712 53.3771 57.1548 62.1607 57.6117L62.1608 57.6117L62.1614 57.6117C63.6157 57.6873 65.0559 57.7622 66.476 57.845C77.0086 58.4591 87.589 58.7389 98.1508 58.4868C100.299 58.4356 103.188 58.2634 106.389 57.8768C107.308 58.4651 108.216 59.0624 109.112 59.6676C112.937 62.2523 118.649 67.0573 121.245 71.4894C122.555 73.7243 122.911 75.5824 122.262 76.974C121.614 78.3651 119.752 79.741 115.47 80.4741C109.021 81.578 102.489 82.2065 95.9152 82.7848C95.1086 82.8557 94.3013 82.9259 93.4933 82.9962L93.4753 82.9977C87.7159 83.4985 81.9276 84.0018 76.1845 84.7939C74.8327 84.9803 72.6793 85.1722 70.4313 85.3726L70.4309 85.3726C68.9792 85.502 67.4881 85.6349 66.148 85.7721C64.4916 85.9417 63.0143 86.1228 62.2295 86.3225C62.0414 86.3703 61.8048 86.4399 61.605 86.5505C61.5172 86.5991 61.3157 86.7192 61.1666 86.9498C61.0824 87.0801 61.005 87.2618 60.9957 87.4848C60.9862 87.7115 61.0504 87.9092 61.1385 88.0614C61.2928 88.3276 61.5205 88.4592 61.6148 88.5096C61.7349 88.5738 61.8585 88.6185 61.9628 88.6508C62.1743 88.7164 62.4366 88.7706 62.7329 88.8189C63.7866 88.9907 64.8529 89.1546 65.926 89.3195L65.9273 89.3197C70.4526 90.0152 75.0984 90.7292 79.4301 92.1348C84.7533 93.8622 89.4756 96.6002 92.7282 101.53C94.2967 103.907 94.9023 105.958 94.8536 107.726C94.8052 109.483 94.1077 111.075 92.854 112.538C90.3015 115.518 85.5412 117.851 79.8756 119.612C68.5993 123.117 54.4858 124.135 49.8621 124.053C35.1722 123.792 18.92 122.963 4.76842 119.159C4.81715 119.14 4.86645 119.12 4.91632 119.1C5.05519 119.045 5.20196 118.988 5.35335 118.929L5.35435 118.929C5.77671 118.765 6.23485 118.588 6.65708 118.391C6.96366 118.249 7.26385 118.089 7.54242 117.938L7.64676 117.882L7.64718 117.882C7.89338 117.749 8.12306 117.625 8.35548 117.509C8.88735 117.246 9.34185 117.078 9.77612 117.037C10.326 116.986 10.7303 116.499 10.6792 115.949C10.628 115.399 10.1407 114.995 9.59084 115.046C8.79065 115.12 8.07422 115.417 7.46731 115.717C7.20051 115.85 6.93716 115.992 6.69384 116.124L6.59239 116.179C6.31372 116.329 6.06079 116.463 5.81446 116.578C5.45588 116.744 5.09152 116.885 4.69192 117.04L4.69146 117.04C4.52647 117.104 4.35549 117.17 4.17642 117.242C3.59362 117.474 2.95836 117.748 2.37066 118.129C2.1212 118.29 1.79708 118.546 1.66925 119.001C1.61856 119.182 1.61505 119.344 1.61351 119.416L1.61349 119.417C1.6128 119.449 1.61248 119.473 1.61221 119.493C1.61168 119.532 1.61137 119.556 1.60875 119.593C1.57493 120.079 1.86281 120.385 1.98234 120.492C2.11451 120.611 2.253 120.682 2.3201 120.715C2.37678 120.743 2.43459 120.768 2.47201 120.784C2.49465 120.803 2.52692 120.834 2.57179 120.883C2.60937 120.923 2.64767 120.967 2.69648 121.023L2.70204 121.029L2.70235 121.029C2.74669 121.08 2.8013 121.143 2.85808 121.204C3.27147 121.65 3.71945 122.061 4.13368 122.442C4.21103 122.513 4.28721 122.583 4.36176 122.651C4.97706 123.22 5.56725 123.826 6.16864 124.454C6.27564 124.565 6.38321 124.678 6.49135 124.791C6.98501 125.308 7.49082 125.838 8.01025 126.35C8.05443 126.394 8.10247 126.438 8.15477 126.486C8.17892 126.508 8.20398 126.531 8.22998 126.555C8.30355 126.821 8.48596 127.055 8.75277 127.186L8.75864 127.189C8.82221 127.22 9.01629 127.316 9.24376 127.336C9.32804 127.343 9.80635 127.379 10.1424 126.951C10.4749 126.528 10.3325 126.076 10.3079 126.001C10.2401 125.792 10.1122 125.635 10.0808 125.596L10.0771 125.591C10.0215 125.522 9.9601 125.456 9.90689 125.4C9.73453 125.22 9.3721 124.884 9.41452 124.926C8.91863 124.437 8.43809 123.934 7.94551 123.418L7.94521 123.418C7.83517 123.302 7.72453 123.187 7.61298 123.07C7.13709 122.573 6.64832 122.069 6.13863 121.579C20.0854 125.034 35.7633 125.803 49.8267 126.053C54.61 126.137 68.9439 125.104 80.4692 121.522C86.2043 119.74 91.4334 117.271 94.373 113.839C95.8654 112.097 96.7895 110.08 96.8529 107.781C96.9159 105.494 96.1231 103.044 94.3976 100.428C90.8123 94.9946 85.6328 92.0449 80.0474 90.2325C76.1302 88.9614 71.9508 88.233 67.9433 87.6066C68.7739 87.5288 69.6426 87.4513 70.5056 87.3742L70.5139 87.3735C72.8115 87.1683 75.0679 86.9668 76.4577 86.7751C82.1472 85.9904 87.8817 85.4917 93.6459 84.9905C94.4601 84.9197 95.275 84.8488 96.0904 84.7771C102.666 84.1986 109.27 83.5644 115.807 82.4454C120.267 81.6819 122.996 80.1343 124.075 77.8188C125.154 75.5038 124.374 72.8723 122.971 70.4784C120.144 65.653 114.13 60.6441 110.232 58.0104C109.958 57.8256 109.684 57.6416 109.408 57.4582C113.086 56.88 116.981 56.009 120.524 54.7218C124.4 53.3135 127.956 51.3711 130.325 48.6774C132.735 45.9361 133.873 42.4583 132.937 38.1786C131.608 32.1042 127.884 28.2948 123.226 26.0046C118.608 23.7341 113.07 22.9494 107.988 22.8327C107.436 22.82 106.978 23.2573 106.965 23.8094C106.952 24.3616 107.39 24.8195 107.942 24.8321ZM51.6164 41.0807C69.5894 40.0739 88.0731 46.7461 103.629 56.1588C101.522 56.3524 99.6269 56.451 98.1031 56.4874C87.6076 56.7378 77.0834 56.4601 66.5924 55.8484C65.1486 55.7642 63.6933 55.6883 62.2313 55.6119L62.2282 55.6118C53.4305 55.1524 44.3887 54.6802 36.1293 52.336C35.2398 52.0836 34.3867 51.7575 33.6717 51.3716C32.9461 50.98 32.4248 50.56 32.1268 50.1489C31.8509 49.7684 31.7749 49.4166 31.873 49.0309C31.9834 48.5963 32.3521 47.9771 33.284 47.1985C38.1077 43.1681 45.2931 41.4349 51.6164 41.0807ZM8.52021 126.847C8.53431 126.864 8.52961 126.861 8.51522 126.841L8.52021 126.847ZM9.66015 125.402C9.65978 125.402 9.65227 125.398 9.6387 125.393C9.64538 125.396 9.65044 125.399 9.65396 125.4C9.65835 125.402 9.66035 125.403 9.66015 125.402ZM3.20331 118.921C3.19782 118.918 3.19934 118.919 3.20621 118.922L3.20331 118.921Z" fill="#10121B"/>
</svg>
