<svg width="164" height="44" viewBox="0 0 164 44" fill="none" xmlns="http://www.w3.org/2000/svg">
<path d="M56.4158 29.452V14.453H52.0205V33.6825H63.2835V29.452H56.4158Z" fill="white"/>
<path d="M68.6289 28.4631H78.381C78.4908 27.9411 78.5458 27.3917 78.5458 26.8148C78.5458 22.6668 75.5789 19.5626 71.5682 19.5626C67.2279 19.5626 64.261 22.7217 64.261 26.8148C64.261 30.9079 67.1729 34.0671 71.8704 34.0671C74.4801 34.0671 76.5129 33.1056 77.859 31.2376L74.5625 29.3421C74.0131 29.9465 73.0516 30.386 71.9254 30.386C70.4145 30.386 69.1508 29.8915 68.6289 28.4631ZM68.5465 25.3863C68.931 23.9853 69.9749 23.2162 71.5408 23.2162C72.7769 23.2162 74.0131 23.793 74.4527 25.3863H68.5465Z" fill="white"/>
<path d="M90.7206 19.9472V21.2383C89.8141 20.1944 88.468 19.5626 86.6275 19.5626C83.0289 19.5626 80.062 22.7217 80.062 26.8148C80.062 30.9079 83.0289 34.0671 86.6275 34.0671C88.468 34.0671 89.8141 33.4352 90.7206 32.3914V33.6825H94.8412V19.9472H90.7206ZM87.4516 30.1662C85.5562 30.1662 84.1826 28.8751 84.1826 26.8148C84.1826 24.7545 85.5562 23.4634 87.4516 23.4634C89.3471 23.4634 90.7206 24.7545 90.7206 26.8148C90.7206 28.8751 89.3471 30.1662 87.4516 30.1662Z" fill="white"/>
<path d="M107.836 14.453V21.2383C106.93 20.1944 105.584 19.5626 103.743 19.5626C100.144 19.5626 97.1775 22.7217 97.1775 26.8148C97.1775 30.9079 100.144 34.0671 103.743 34.0671C105.584 34.0671 106.93 33.4352 107.836 32.3914V33.6825H111.957V14.453H107.836ZM104.567 30.1662C102.672 30.1662 101.298 28.8751 101.298 26.8148C101.298 24.7545 102.672 23.4634 104.567 23.4634C106.463 23.4634 107.836 24.7545 107.836 26.8148C107.836 28.8751 106.463 30.1662 104.567 30.1662Z" fill="white"/>
<path d="M120.089 29.8366L125.281 22.6942V19.9472H114.842V23.793H119.76L114.568 30.9354V33.6825H125.556V29.8366H120.089Z" fill="white"/>
<path d="M130.078 18.7384C131.424 18.7384 132.55 17.6122 132.55 16.2661C132.55 14.92 131.424 13.7937 130.078 13.7937C128.732 13.7937 127.606 14.92 127.606 16.2661C127.606 17.6122 128.732 18.7384 130.078 18.7384ZM128.018 33.6825H132.138V19.9472H128.018V33.6825Z" fill="white"/>
<path d="M135.154 33.6825H139.274V13.6289H135.154V33.6825Z" fill="white"/>
<path d="M142.289 33.6825H146.41V13.6289H142.289V33.6825Z" fill="white"/>
<path d="M159.397 19.9472V21.2383C158.491 20.1944 157.145 19.5626 155.304 19.5626C151.705 19.5626 148.739 22.7217 148.739 26.8148C148.739 30.9079 151.705 34.0671 155.304 34.0671C157.145 34.0671 158.491 33.4352 159.397 32.3914V33.6825H163.518V19.9472H159.397ZM156.128 30.1662C154.233 30.1662 152.859 28.8751 152.859 26.8148C152.859 24.7545 154.233 23.4634 156.128 23.4634C158.024 23.4634 159.397 24.7545 159.397 26.8148C159.397 28.8751 158.024 30.1662 156.128 30.1662Z" fill="white"/>
<circle cx="22" cy="22" r="22" fill="#FFE600"/>
<path d="M18.5985 13.398C17.9344 8.27295 19.7906 1.94759 24.4215 13.4288L18.5985 13.398Z" fill="url(#paint0_linear_65_458)"/>
<path d="M15.5652 13.906C14.222 10.6516 12.9395 5.74842 18.5555 12.171L15.5652 13.906Z" fill="url(#paint1_linear_65_458)"/>
<path d="M12.3563 15.7874C10.7184 13.8224 8.86572 10.5384 14.5584 13.1223L12.3563 15.7874Z" fill="url(#paint2_linear_65_458)"/>
<path d="M11.4344 19.6033C9.12836 18.496 6.07923 16.278 12.3309 16.2644L11.4344 19.6033Z" fill="url(#paint3_linear_65_458)"/>
<path d="M9.56183 25.6946C7.96467 25.4032 6.09134 25.0775 9.7727 23.8866L9.56183 25.6946Z" fill="url(#paint4_linear_65_458)"/>
<path d="M9.47325 22.4717C7.87609 22.1802 6.17327 21.6198 9.85463 20.4288L9.47325 22.4717Z" fill="url(#paint5_linear_65_458)"/>
<mask id="mask0_65_458" style="mask-type:alpha" maskUnits="userSpaceOnUse" x="-1" y="0" width="45" height="44">
<circle cx="21.9998" cy="22" r="22" fill="url(#paint6_linear_65_458)"/>
</mask>
<g mask="url(#mask0_65_458)">
<path d="M7.38246 26.2023C6.40635 31.5012 5.91896 38.6545 5.97706 41.3853C9.88138 46.1264 16.8421 47.0211 19.5729 47.3116C19.7124 43.6861 19.9325 40.3791 20.1068 38.9265C20.804 33.6974 21.327 31.0828 21.8499 28.8169C22.2682 27.0041 22.635 27.0738 23.2443 27.0738C23.9962 27.0738 26.4399 27.7129 27.6019 27.9453C30.1119 28.3637 32.1219 27.9453 33.1678 27.6152C34.7365 27.2665 36.7241 25.3134 37.0025 24.8263C37.6997 23.6062 38.0483 21.3402 37.5373 19.753C36.4217 17.1036 35.7823 16.2819 33.354 14.5239C31.0761 12.8748 27.5438 11.735 26.0332 11.2121C20.7921 9.83612 18.3057 10.7473 17.1436 11.2121C14.3548 12.0488 12.0307 14.9306 11.2173 16.2669C8.7073 19.8925 7.61491 24.4011 7.38246 26.2023Z" fill="white"/>
</g>
<path d="M31.1893 22.8499C31.2449 24.2916 30.1879 25.5028 28.8286 25.5552C27.4693 25.6075 26.3224 24.4812 26.2668 23.0396C26.2113 21.5979 27.3157 22.5739 28.675 22.5215C30.0343 22.4692 31.1338 21.4082 31.1893 22.8499Z" fill="url(#paint7_linear_65_458)"/>
<mask id="mask1_65_458" style="mask-type:alpha" maskUnits="userSpaceOnUse" x="26" y="22" width="6" height="4">
<path d="M31.1883 22.849C31.2439 24.2907 30.187 25.5018 28.8277 25.5542C27.4683 25.6065 26.3214 24.4803 26.2659 23.0386C26.2103 21.5969 27.3147 22.5729 28.6741 22.5206C30.0334 22.4682 31.1328 21.4073 31.1883 22.849Z" fill="url(#paint8_linear_65_458)"/>
</mask>
<g mask="url(#mask1_65_458)">
<path d="M31.0875 26.5695C31.1713 25.1292 30.1383 23.8975 28.7803 23.8185C27.4223 23.7395 26.2535 24.8431 26.1697 26.2834C26.0859 27.7238 27.2092 26.7696 28.5673 26.8485C29.9253 26.9275 31.0037 28.0098 31.0875 26.5695Z" fill="url(#paint9_linear_65_458)"/>
</g>
<circle cx="24.8388" cy="17.2686" r="1.1828" fill="url(#paint10_linear_65_458)"/>
<circle cx="31.4621" cy="17.2686" r="1.1828" fill="url(#paint11_linear_65_458)"/>
<defs>
<linearGradient id="paint0_linear_65_458" x1="18.3072" y1="10.6035" x2="23.7704" y2="10.0451" gradientUnits="userSpaceOnUse">
<stop stop-color="#1C1D32"/>
<stop offset="0.46" stop-color="#2F2E4E"/>
<stop offset="0.93" stop-color="#403D68"/>
</linearGradient>
<linearGradient id="paint1_linear_65_458" x1="14.405" y1="11.9064" x2="17.2387" y2="10.2623" gradientUnits="userSpaceOnUse">
<stop stop-color="#1C1D32"/>
<stop offset="0.46" stop-color="#2F2E4E"/>
<stop offset="0.93" stop-color="#403D68"/>
</linearGradient>
<linearGradient id="paint2_linear_65_458" x1="11.0721" y1="14.7262" x2="13.1589" y2="12.2007" gradientUnits="userSpaceOnUse">
<stop stop-color="#1C1D32"/>
<stop offset="0.46" stop-color="#2F2E4E"/>
<stop offset="0.93" stop-color="#403D68"/>
</linearGradient>
<linearGradient id="paint3_linear_65_458" x1="9.82545" y1="19.1713" x2="10.675" y2="16.0073" gradientUnits="userSpaceOnUse">
<stop stop-color="#1C1D32"/>
<stop offset="0.46" stop-color="#2F2E4E"/>
<stop offset="0.93" stop-color="#403D68"/>
</linearGradient>
<linearGradient id="paint4_linear_65_458" x1="8.86018" y1="25.7757" x2="8.66739" y2="24.1077" gradientUnits="userSpaceOnUse">
<stop stop-color="#1C1D32"/>
<stop offset="0.46" stop-color="#2F2E4E"/>
<stop offset="0.93" stop-color="#403D68"/>
</linearGradient>
<linearGradient id="paint5_linear_65_458" x1="8.92568" y1="22.535" x2="8.70964" y2="20.6659" gradientUnits="userSpaceOnUse">
<stop stop-color="#1C1D32"/>
<stop offset="0.46" stop-color="#2F2E4E"/>
<stop offset="0.93" stop-color="#403D68"/>
</linearGradient>
<linearGradient id="paint6_linear_65_458" x1="32.1718" y1="79.4839" x2="-27.1048" y2="12.1851" gradientUnits="userSpaceOnUse">
<stop stop-color="#5FBCFF"/>
<stop offset="0.364583" stop-color="#75C3FB"/>
<stop offset="0.686238" stop-color="#96E9F4"/>
<stop offset="1" stop-color="#5BF5FF"/>
</linearGradient>
<linearGradient id="paint7_linear_65_458" x1="28.8286" y1="25.5552" x2="28.7051" y2="22.349" gradientUnits="userSpaceOnUse">
<stop stop-color="#1C1D32"/>
<stop offset="0.46" stop-color="#2F2E4E"/>
<stop offset="0.93" stop-color="#403D68"/>
</linearGradient>
<linearGradient id="paint8_linear_65_458" x1="28.8277" y1="25.5542" x2="28.7042" y2="22.348" gradientUnits="userSpaceOnUse">
<stop stop-color="#1C1D32"/>
<stop offset="0.46" stop-color="#2F2E4E"/>
<stop offset="0.93" stop-color="#403D68"/>
</linearGradient>
<linearGradient id="paint9_linear_65_458" x1="30.4843" y1="24.4794" x2="27.1486" y2="28.7794" gradientUnits="userSpaceOnUse">
<stop stop-color="#FF51BE"/>
<stop offset="1" stop-color="#FBBE62"/>
</linearGradient>
<linearGradient id="paint10_linear_65_458" x1="24.8388" y1="18.4514" x2="24.8388" y2="16.0858" gradientUnits="userSpaceOnUse">
<stop stop-color="#1C1D32"/>
<stop offset="0.46" stop-color="#2F2E4E"/>
<stop offset="0.93" stop-color="#403D68"/>
</linearGradient>
<linearGradient id="paint11_linear_65_458" x1="31.4621" y1="18.4514" x2="31.4621" y2="16.0858" gradientUnits="userSpaceOnUse">
<stop stop-color="#1C1D32"/>
<stop offset="0.46" stop-color="#2F2E4E"/>
<stop offset="0.93" stop-color="#403D68"/>
</linearGradient>
</defs>
</svg>
