<svg width="44" height="42" viewBox="0 0 44 42" fill="none" xmlns="http://www.w3.org/2000/svg">
<ellipse cx="21.5267" cy="21" rx="21.5267" ry="21" fill="#FFE600"/>
<path d="M18.1987 12.7891C17.549 7.89708 19.3652 1.85924 23.8964 12.8186L18.1987 12.7891Z" fill="url(#paint0_linear_65_49)"/>
<path d="M15.23 13.2733C13.9157 10.1668 12.6608 5.48651 18.1559 11.6171L15.23 13.2733Z" fill="url(#paint1_linear_65_49)"/>
<path d="M12.0899 15.0698C10.4872 13.1941 8.67439 10.0594 14.2446 12.5258L12.0899 15.0698Z" fill="url(#paint2_linear_65_49)"/>
<path d="M11.1881 18.7121C8.93174 17.6551 5.94821 15.5379 12.0654 15.5249L11.1881 18.7121Z" fill="url(#paint3_linear_65_49)"/>
<path d="M9.35624 24.5265C7.79344 24.2483 5.96042 23.9375 9.56257 22.8006L9.35624 24.5265Z" fill="url(#paint4_linear_65_49)"/>
<path d="M9.26956 21.4496C7.70677 21.1713 6.04058 20.6364 9.64274 19.4996L9.26956 21.4496Z" fill="url(#paint5_linear_65_49)"/>
<mask id="mask0_65_49" style="mask-type:alpha" maskUnits="userSpaceOnUse" x="-1" y="0" width="45" height="42">
<ellipse cx="21.5264" cy="21" rx="21.5267" ry="21" fill="url(#paint6_linear_65_49)"/>
</mask>
<g mask="url(#mask0_65_49)">
<path d="M7.22419 25.011C6.26909 30.069 5.79218 36.8972 5.84903 39.5038C9.66935 44.0294 16.4803 44.8835 19.1524 45.1608C19.2888 41.7001 19.5042 38.5434 19.6748 37.1569C20.357 32.1654 20.8687 29.6697 21.3803 27.5067C21.7897 25.7763 22.1485 25.8429 22.7448 25.8429C23.4805 25.8429 25.8716 26.453 27.0086 26.6748C29.4646 27.0741 31.4314 26.6748 32.4547 26.3596C33.9897 26.0269 35.9346 24.1626 36.2069 23.6976C36.8891 22.5329 37.2303 20.3699 36.7303 18.8549C35.6387 16.3259 35.013 15.5416 32.6369 13.8634C30.4081 12.2893 26.9518 11.2013 25.4736 10.7022C20.3454 9.38874 17.9124 10.2585 16.7754 10.7022C14.0465 11.5008 11.7724 14.2517 10.9765 15.5273C8.52053 18.988 7.45164 23.2917 7.22419 25.011Z" fill="white"/>
</g>
<path d="M30.5183 21.8098C30.5727 23.1859 29.5385 24.342 28.2084 24.392C26.8784 24.442 25.7561 23.3669 25.7017 21.9907C25.6474 20.6146 26.7281 21.5463 28.0581 21.4963C29.3882 21.4463 30.464 20.4336 30.5183 21.8098Z" fill="url(#paint7_linear_65_49)"/>
<mask id="mask1_65_49" style="mask-type:alpha" maskUnits="userSpaceOnUse" x="25" y="21" width="6" height="4">
<path d="M30.5181 21.8098C30.5724 23.1859 29.5382 24.342 28.2082 24.392C26.8781 24.442 25.7558 23.3669 25.7015 21.9907C25.6472 20.6146 26.7278 21.5463 28.0579 21.4963C29.3879 21.4463 30.4637 20.4336 30.5181 21.8098Z" fill="url(#paint8_linear_65_49)"/>
</mask>
<g mask="url(#mask1_65_49)">
<path d="M30.4192 25.3609C30.5012 23.986 29.4904 22.8104 28.1616 22.735C26.8328 22.6596 25.6892 23.713 25.6072 25.0878C25.5252 26.4627 26.6244 25.5518 27.9532 25.6273C29.282 25.7027 30.3372 26.7357 30.4192 25.3609Z" fill="#B557FF"/>
</g>
<ellipse cx="24.3043" cy="16.4835" rx="1.15735" ry="1.12903" fill="url(#paint9_linear_65_49)"/>
<ellipse cx="30.785" cy="16.4835" rx="1.15735" ry="1.12903" fill="url(#paint10_linear_65_49)"/>
<defs>
<linearGradient id="paint0_linear_65_49" x1="17.9137" y1="10.1217" x2="23.2566" y2="9.56189" gradientUnits="userSpaceOnUse">
<stop stop-color="#1C1D32"/>
<stop offset="0.46" stop-color="#2F2E4E"/>
<stop offset="0.93" stop-color="#403D68"/>
</linearGradient>
<linearGradient id="paint1_linear_65_49" x1="14.0948" y1="11.3646" x2="16.8324" y2="9.73633" gradientUnits="userSpaceOnUse">
<stop stop-color="#1C1D32"/>
<stop offset="0.46" stop-color="#2F2E4E"/>
<stop offset="0.93" stop-color="#403D68"/>
</linearGradient>
<linearGradient id="paint2_linear_65_49" x1="10.8333" y1="14.0568" x2="12.8154" y2="11.5979" gradientUnits="userSpaceOnUse">
<stop stop-color="#1C1D32"/>
<stop offset="0.46" stop-color="#2F2E4E"/>
<stop offset="0.93" stop-color="#403D68"/>
</linearGradient>
<linearGradient id="paint3_linear_65_49" x1="9.61383" y1="18.2997" x2="10.4075" y2="15.2697" gradientUnits="userSpaceOnUse">
<stop stop-color="#1C1D32"/>
<stop offset="0.46" stop-color="#2F2E4E"/>
<stop offset="0.93" stop-color="#403D68"/>
</linearGradient>
<linearGradient id="paint4_linear_65_49" x1="8.66969" y1="24.6039" x2="8.49005" y2="23.0107" gradientUnits="userSpaceOnUse">
<stop stop-color="#1C1D32"/>
<stop offset="0.46" stop-color="#2F2E4E"/>
<stop offset="0.93" stop-color="#403D68"/>
</linearGradient>
<linearGradient id="paint5_linear_65_49" x1="8.73377" y1="21.51" x2="8.53247" y2="19.7247" gradientUnits="userSpaceOnUse">
<stop stop-color="#1C1D32"/>
<stop offset="0.46" stop-color="#2F2E4E"/>
<stop offset="0.93" stop-color="#403D68"/>
</linearGradient>
<linearGradient id="paint6_linear_65_49" x1="31.4796" y1="75.871" x2="-24.9089" y2="10.2455" gradientUnits="userSpaceOnUse">
<stop stop-color="#5FBCFF"/>
<stop offset="0.364583" stop-color="#75C3FB"/>
<stop offset="0.686238" stop-color="#96E9F4"/>
<stop offset="1" stop-color="#5BF5FF"/>
</linearGradient>
<linearGradient id="paint7_linear_65_49" x1="28.2084" y1="24.392" x2="28.0934" y2="21.3314" gradientUnits="userSpaceOnUse">
<stop stop-color="#1C1D32"/>
<stop offset="0.46" stop-color="#2F2E4E"/>
<stop offset="0.93" stop-color="#403D68"/>
</linearGradient>
<linearGradient id="paint8_linear_65_49" x1="28.2082" y1="24.392" x2="28.0932" y2="21.3314" gradientUnits="userSpaceOnUse">
<stop stop-color="#1C1D32"/>
<stop offset="0.46" stop-color="#2F2E4E"/>
<stop offset="0.93" stop-color="#403D68"/>
</linearGradient>
<linearGradient id="paint9_linear_65_49" x1="24.3043" y1="17.6126" x2="24.3043" y2="15.3545" gradientUnits="userSpaceOnUse">
<stop stop-color="#1C1D32"/>
<stop offset="0.46" stop-color="#2F2E4E"/>
<stop offset="0.93" stop-color="#403D68"/>
</linearGradient>
<linearGradient id="paint10_linear_65_49" x1="30.785" y1="17.6126" x2="30.785" y2="15.3545" gradientUnits="userSpaceOnUse">
<stop stop-color="#1C1D32"/>
<stop offset="0.46" stop-color="#2F2E4E"/>
<stop offset="0.93" stop-color="#403D68"/>
</linearGradient>
</defs>
</svg>
