<svg width="71" height="66" viewBox="0 0 71 66" fill="none" xmlns="http://www.w3.org/2000/svg">
<path d="M43.4642 22.4957C47.2651 21.5842 51.2404 21.8228 54.8915 23.1817C58.5551 24.5108 61.7396 26.9051 64.0445 30.0638C64.056 29.841 64.0613 29.626 64.072 29.3961C64.2418 22.5045 62.0057 17.0329 57.7264 15.46C53.4471 13.887 48.2067 16.607 43.8735 21.9752C43.7372 22.1453 43.5976 22.3245 43.4642 22.4957Z" fill="#7471FF"/>
<path d="M38.0434 32.483C37.2421 34.6503 36.6311 36.8831 36.2176 39.1557C34.5502 48.3707 36.7305 56.2651 42.0169 58.2082C47.3032 60.1513 54.0849 55.5273 58.7747 47.447C59.9301 45.4469 60.9106 43.35 61.7051 41.1803C62.7839 38.2777 63.5116 35.2566 63.8724 32.183C63.9544 31.4675 64.0091 30.7624 64.0465 30.0679C61.7419 26.9071 58.5566 24.5112 54.8915 23.1817C51.2404 21.8235 47.2653 21.5849 43.4643 22.4957C43.0423 23.0421 42.6291 23.6189 42.2253 24.216C40.5061 26.7934 39.1019 29.5693 38.0434 32.483Z" fill="white"/>
<path d="M17.3632 12.9022C21.1658 12.0056 25.1374 12.2436 28.7925 13.5871C32.4475 14.9306 35.6278 17.3214 37.9445 20.4673C37.956 20.2445 37.9584 20.0284 37.9691 19.7985C38.157 12.9033 35.9031 7.42527 31.6297 5.85451C27.3563 4.28374 22.1085 7.01459 17.7872 12.3871C17.6391 12.5529 17.4965 12.7309 17.3632 12.9022Z" fill="#7471FF"/>
<path d="M11.9421 22.8887C11.1423 25.0565 10.5314 27.2892 10.1163 29.5614C8.45187 38.7775 10.6322 46.6719 15.9156 48.614C21.199 50.556 27.9836 45.9331 32.6764 37.8538C33.8317 35.8537 34.8122 33.7568 35.6067 31.5871C36.6847 28.684 37.4114 25.6626 37.7711 22.5887C37.856 21.8743 37.9107 21.1692 37.9452 20.4736C35.6289 17.3271 32.4487 14.9358 28.7935 13.5923C25.1383 12.2487 21.1665 12.0111 17.3638 12.9085C16.9388 13.4538 16.5256 14.0305 16.1247 14.6288C14.4058 17.2039 13.0014 19.9775 11.9421 22.8887Z" fill="white"/>
<path d="M12.247 16.02C12.6637 15.3971 13.0883 14.8076 13.503 14.2721C13.6415 14.0959 13.78 13.9198 13.9203 13.7477C16.7776 10.206 19.906 7.90592 22.8987 7.02345C25.9805 5.04177 29.084 4.4508 31.7833 5.44297C36.1246 7.0387 38.6072 12.4144 38.416 19.8202L38.404 19.853C38.3969 20.0639 38.3927 20.2759 38.3815 20.4886C38.3407 21.2565 38.2841 21.9575 38.2035 22.6328C38.04 24.1092 37.7879 25.5749 37.4484 27.0218C37.7387 26.5422 38.0356 26.0718 38.3451 25.6129C38.7648 24.9911 39.1863 24.4004 39.604 23.866C39.7396 23.6888 39.881 23.5137 40.0184 23.3406C42.8846 19.8021 46.0011 17.4977 48.9968 16.6163C52.0756 14.6335 55.1791 14.0426 57.8843 15.0369C62.2227 16.6316 64.7023 22.0062 64.5171 29.4141L64.505 29.4469C64.5008 29.6589 64.4937 29.8698 64.4826 30.0826C64.4535 30.8547 64.3792 31.5493 64.3164 32.2311C63.9519 35.341 63.2156 38.3977 62.1235 41.3343C61.3196 43.5289 60.328 45.6499 59.1598 47.6734C55.742 53.561 51.3831 57.476 47.2338 58.6958C44.169 60.6498 41.0652 61.278 38.3511 60.2804C32.9585 58.2982 30.5139 50.4388 32.2679 40.7236C32.3883 40.0494 32.5316 39.3768 32.6782 38.6953C29.3198 44.2387 25.1181 47.9268 21.1169 49.0995C18.0532 51.0505 14.9553 51.6808 12.2383 50.6821C6.84857 48.701 4.40396 40.8416 6.15508 31.1253C6.57907 28.8291 7.20078 26.5731 8.01313 24.3831C9.08239 21.4343 10.5042 18.6257 12.247 16.02ZM57.5727 15.8848C53.7807 14.491 48.8519 16.746 44.6012 21.7988C48.1125 21.1891 51.7147 21.5197 55.0464 22.7576C58.3897 23.9726 61.3502 26.0566 63.6299 28.7999C63.6593 22.1989 61.3647 17.2786 57.5727 15.8848ZM57.9893 47.8938C56.6978 48.7224 55.1768 49.106 53.6564 48.9865C52.136 48.8669 50.6991 48.2509 49.5633 47.2315C48.4276 46.2122 47.6547 44.845 47.3619 43.3372C47.0691 41.8294 47.2721 40.2629 47.9404 38.875C48.6087 37.4872 49.7057 36.3535 51.0654 35.6456C52.4251 34.9378 53.9735 34.6944 55.4759 34.9522C56.9784 35.21 58.3531 35.9551 59.392 37.0746C60.4309 38.194 61.0774 39.6269 61.2335 41.1562C61.2489 41.1144 61.2653 41.0697 61.2818 41.0249C62.3502 38.1573 63.0704 35.172 63.4266 32.1345C63.4971 31.5233 63.5483 30.8914 63.5883 30.208C61.3442 27.1799 58.2669 24.8851 54.7348 23.6055C51.2172 22.2951 47.3898 22.0494 43.7209 22.8986C43.3477 23.3849 42.9702 23.9104 42.5946 24.4671C40.8938 27.0131 39.506 29.7567 38.4619 32.637C37.6708 34.7794 37.0661 36.9861 36.6546 39.2318C34.9833 48.5029 37.2103 55.9604 42.1718 57.7841C47.0063 59.5611 53.3013 55.5953 57.9915 47.8879L57.9893 47.8938ZM31.4716 6.29087C27.6826 4.89813 22.7509 7.15211 18.5001 12.2048C22.013 11.6058 25.6136 11.9356 28.9495 13.1617C32.2853 14.3879 35.2423 16.4685 37.531 19.2C37.5583 12.605 35.2695 7.68687 31.4716 6.29087ZM31.8912 38.301C30.6028 39.1301 29.0849 39.5161 27.5664 39.4008C26.048 39.2855 24.6114 38.6751 23.4734 37.6617C22.3354 36.6484 21.5577 35.2869 21.2577 33.7829C20.9577 32.2789 21.1516 30.7138 21.8102 29.3239C22.4688 27.9339 23.5564 26.7945 24.9088 26.0774C26.2612 25.3603 27.8052 25.1046 29.3076 25.3487C30.8101 25.5929 32.1897 26.3236 33.2382 27.4308C34.2866 28.538 34.9472 29.9615 35.1201 31.4866L35.3245 31.0398C36.3139 28.2939 36.9847 25.4437 37.3234 22.5465C37.3968 21.9364 37.4451 21.3034 37.4881 20.6211C35.2306 17.6075 32.1578 15.317 28.6349 14.0221C25.112 12.7272 21.2873 12.4823 17.6155 13.3166C17.2423 13.803 16.8647 14.3284 16.4921 14.8862C14.7928 17.4282 13.4055 20.1673 12.3608 23.043C11.5708 25.1859 10.9671 27.3929 10.5566 29.6389C8.8823 38.909 11.1122 46.3675 16.0707 48.1902C20.9053 49.9672 27.2003 46.0014 31.8934 38.295L31.8912 38.301Z" fill="black"/>
<path d="M25.7993 31.6661C24.439 31.1661 23.746 29.646 24.2515 28.2708C24.757 26.8957 26.2695 26.1862 27.6297 26.6862C28.99 27.1862 29.683 28.7063 29.1775 30.0815C28.6721 31.4567 27.1596 32.1661 25.7993 31.6661Z" fill="white"/>
<path d="M51.8969 41.2591C50.5366 40.7591 49.8437 39.239 50.3491 37.8639C50.8546 36.4887 52.3671 35.7792 53.7274 36.2792C55.0877 36.7792 55.7807 38.2994 55.2752 39.6745C54.7697 41.0497 53.2572 41.7591 51.8969 41.2591Z" fill="white"/>
</svg>
