<svg width="71" height="66" viewBox="0 0 71 66" fill="none" xmlns="http://www.w3.org/2000/svg">
<path d="M26.6705 22.4957C22.8697 21.5842 18.8943 21.8228 15.2433 23.1817C11.5797 24.5108 8.39519 26.9051 6.09025 30.0638C6.07875 29.841 6.07348 29.626 6.06274 29.3961C5.89293 22.5045 8.1291 17.0329 12.4084 15.46C16.6877 13.887 21.9281 16.607 26.2613 21.9752C26.3976 22.1453 26.5372 22.3245 26.6705 22.4957Z" fill="#7471FF"/>
<path d="M32.0913 32.483C32.8927 34.6503 33.5036 36.8831 33.9171 39.1557C35.5846 48.3707 33.4043 56.2651 28.1179 58.2082C22.8315 60.1513 16.0498 55.5273 11.36 47.447C10.2047 45.4469 9.22419 43.35 8.42971 41.1803C7.35089 38.2777 6.62315 35.2566 6.26234 32.183C6.18039 31.4675 6.1257 30.7624 6.08831 30.0679C8.39288 26.9071 11.5782 24.5112 15.2432 23.1817C18.8944 21.8235 22.8695 21.5849 26.6704 22.4957C27.0925 23.0421 27.5056 23.6189 27.9095 24.216C29.6286 26.7934 31.0328 29.5693 32.0913 32.483Z" fill="white"/>
<path d="M52.7716 12.9022C48.9689 12.0056 44.9974 12.2436 41.3423 13.5871C37.6873 14.9306 34.507 17.3214 32.1902 20.4673C32.1787 20.2445 32.1764 20.0284 32.1657 19.7985C31.9778 12.9033 34.2317 7.42527 38.5051 5.85451C42.7785 4.28374 48.0262 7.01459 52.3476 12.3871C52.4957 12.5529 52.6382 12.7309 52.7716 12.9022Z" fill="#7471FF"/>
<path d="M58.1926 22.8887C58.9925 25.0565 59.6034 27.2892 60.0184 29.5614C61.6829 38.7775 59.5026 46.6719 54.2192 48.614C48.9358 50.556 42.1511 45.9331 37.4584 37.8538C36.303 35.8537 35.3225 33.7568 34.528 31.5871C33.4501 28.684 32.7234 25.6626 32.3636 22.5887C32.2787 21.8743 32.224 21.1692 32.1896 20.4736C34.5058 17.3271 37.686 14.9358 41.3413 13.5923C44.9965 12.2487 48.9683 12.0111 52.771 12.9085C53.196 13.4538 53.6091 14.0305 54.01 14.6288C55.7289 17.2039 57.1334 19.9775 58.1926 22.8887Z" fill="white"/>
<path d="M57.8877 16.02C57.471 15.3971 57.0465 14.8076 56.6318 14.2721C56.4933 14.0959 56.3548 13.9198 56.2144 13.7477C53.3571 10.206 50.2288 7.90592 47.236 7.02345C44.1543 5.04177 41.0508 4.4508 38.3515 5.44297C34.0102 7.0387 31.5276 12.4144 31.7187 19.8202L31.7308 19.853C31.7379 20.0639 31.7421 20.2759 31.7532 20.4886C31.7941 21.2565 31.8507 21.9575 31.9313 22.6328C32.0947 24.1092 32.3469 25.5749 32.6863 27.0218C32.3961 26.5422 32.0991 26.0718 31.7896 25.6129C31.37 24.9911 30.9484 24.4004 30.5307 23.866C30.3952 23.6888 30.2537 23.5137 30.1163 23.3406C27.2502 19.8021 24.1337 17.4977 21.1379 16.6163C18.0592 14.6335 14.9556 14.0426 12.2504 15.0369C7.91209 16.6316 5.43246 22.0062 5.61769 29.4141L5.62976 29.4469C5.63393 29.6589 5.64104 29.8698 5.65221 30.0826C5.68126 30.8547 5.75553 31.5493 5.81841 32.2311C6.18285 35.341 6.91916 38.3977 8.01127 41.3343C8.81516 43.5289 9.8068 45.6499 10.9749 47.6734C14.3928 53.561 18.7516 57.476 22.901 58.6958C25.9658 60.6498 29.0696 61.278 31.7836 60.2804C37.1763 58.2982 39.6209 50.4388 37.8668 40.7236C37.7464 40.0494 37.6031 39.3768 37.4565 38.6953C40.8149 44.2387 45.0166 47.9268 49.0178 49.0995C52.0816 51.0505 55.1795 51.6808 57.8965 50.6821C63.2862 48.701 65.7308 40.8416 63.9797 31.1253C63.5557 28.8291 62.934 26.5731 62.1216 24.3831C61.0524 21.4343 59.6305 18.6257 57.8877 16.02ZM12.5621 15.8848C16.3541 14.491 21.2828 16.746 25.5336 21.7988C22.0222 21.1891 18.4201 21.5197 15.0883 22.7576C11.7451 23.9726 8.78455 26.0566 6.5049 28.7999C6.47547 22.1989 8.7701 17.2786 12.5621 15.8848ZM12.1455 47.8938C13.4369 48.7224 14.958 49.106 16.4784 48.9865C17.9988 48.8669 19.4357 48.2509 20.5714 47.2315C21.7072 46.2122 22.48 44.845 22.7729 43.3372C23.0657 41.8294 22.8626 40.2629 22.1943 38.875C21.5261 37.4872 20.429 36.3535 19.0693 35.6456C17.7096 34.9378 16.1613 34.6944 14.6589 34.9522C13.1564 35.21 11.7816 35.9551 10.7427 37.0746C9.70382 38.194 9.05736 39.6269 8.90124 41.1562C8.88588 41.1144 8.86942 41.0697 8.85296 41.0249C7.7846 38.1573 7.0644 35.172 6.70813 32.1345C6.63767 31.5233 6.58645 30.8914 6.54644 30.208C8.7906 27.1799 11.8678 24.8851 15.4 23.6055C18.9176 22.2951 22.7449 22.0494 26.4139 22.8986C26.7871 23.3849 27.1646 23.9104 27.5402 24.4671C29.2409 27.0131 30.6288 29.7567 31.6729 32.637C32.4639 34.7794 33.0686 36.9861 33.4801 39.2318C35.1514 48.5029 32.9245 55.9604 27.963 57.7841C23.1285 59.5611 16.8334 55.5953 12.1433 47.8879L12.1455 47.8938ZM38.6631 6.29087C42.4522 4.89813 47.3839 7.15211 51.6346 12.2048C48.1217 11.6058 44.5212 11.9356 41.1853 13.1617C37.8494 14.3879 34.8925 16.4685 32.6037 19.2C32.5765 12.605 34.8652 7.68687 38.6631 6.29087ZM38.2435 38.301C39.5319 39.1301 41.0499 39.5161 42.5683 39.4008C44.0868 39.2855 45.5234 38.6751 46.6614 37.6617C47.7994 36.6484 48.577 35.2869 48.8771 33.7829C49.1771 32.2789 48.9831 30.7138 48.3245 29.3239C47.6659 27.9339 46.5784 26.7945 45.226 26.0774C43.8735 25.3603 42.3296 25.1046 40.8271 25.3487C39.3246 25.5929 37.9451 26.3236 36.8966 27.4308C35.8481 28.538 35.1876 29.9615 35.0147 31.4866L34.8102 31.0398C33.8208 28.2939 33.1501 25.4437 32.8114 22.5465C32.7379 21.9364 32.6897 21.3034 32.6467 20.6211C34.9041 17.6075 37.977 15.317 41.4999 14.0221C45.0228 12.7272 48.8475 12.4823 52.5193 13.3166C52.8925 13.803 53.27 14.3284 53.6427 14.8862C55.342 17.4282 56.7293 20.1673 57.7739 23.043C58.564 25.1859 59.1677 27.3929 59.5782 29.6389C61.2525 38.909 59.0226 46.3675 54.064 48.1902C49.2295 49.9672 42.9345 46.0014 38.2413 38.295L38.2435 38.301Z" fill="black"/>
<path d="M44.3355 31.6661C45.6958 31.1661 46.3887 29.646 45.8833 28.2708C45.3778 26.8957 43.8653 26.1862 42.505 26.6862C41.1447 27.1862 40.4518 28.7063 40.9572 30.0815C41.4627 31.4567 42.9752 32.1661 44.3355 31.6661Z" fill="white"/>
<path d="M18.2378 41.2591C19.5981 40.7591 20.2911 39.239 19.7856 37.8639C19.2802 36.4887 17.7677 35.7792 16.4074 36.2792C15.0471 36.7792 14.3541 38.2994 14.8596 39.6745C15.365 41.0497 16.8775 41.7591 18.2378 41.2591Z" fill="white"/>
</svg>
