<svg width="436" height="811" viewBox="0 0 436 811" fill="none" xmlns="http://www.w3.org/2000/svg">
<path d="M1 154.847C92.2342 160.194 184.537 149.178 275.405 141.681C288.598 140.592 302.022 140.077 315.14 138.223C316.177 138.077 319.013 137.35 318.029 136.992C315.95 136.236 309.658 136.211 308.652 136.187C263.04 135.081 216.874 139.094 171.449 142.675C121.198 146.637 71.0094 152.661 20.6071 154.468C20.0499 154.488 1.39446 153.215 1.56831 153.142C10.2946 149.468 24.0621 151.462 33.1102 151.626C76.7236 152.416 120.35 156.639 163.919 158.73C206.94 160.796 249.603 160.332 292.55 157.404" stroke="#10121B" stroke-width="1.90165" stroke-linecap="round"/>
<path d="M411.363 677.826C400.139 646.351 365.409 629.607 333.792 640.427L331.933 641.064C300.316 651.884 283.785 686.172 295.01 717.647C306.235 749.122 340.965 765.866 372.581 755.046L374.441 754.409C406.058 743.589 422.588 709.302 411.363 677.826Z" fill="#FEFFC7" stroke="black" stroke-width="3.51492" stroke-linecap="square"/>
<ellipse rx="6.55215" ry="6.44743" transform="matrix(0.946126 -0.323799 0.335904 0.941896 325.753 689.829)" fill="black"/>
<ellipse rx="6.55215" ry="6.44743" transform="matrix(0.946126 -0.323799 0.335904 0.941896 369.625 674.814)" fill="black"/>
<path d="M393.72 683.865C401.541 705.795 389.733 729.783 367.348 737.444C344.962 745.105 320.475 733.538 312.654 711.609" stroke="black" stroke-width="3.51492" stroke-linecap="square"/>
<path d="M485.774 653.852C504.505 626.015 496.424 588.425 468.237 570.224C440.05 552.023 401.6 559.567 382.869 587.404C364.138 615.241 372.22 652.831 400.406 671.032C428.593 689.233 467.043 681.689 485.774 653.852Z" fill="white" stroke="black" stroke-width="3.51492" stroke-linecap="square"/>
<ellipse rx="6.52633" ry="6.47357" transform="matrix(0.840081 0.542461 -0.55826 0.829666 424.094 594.467)" fill="black"/>
<path d="M470.169 643.777C457.119 663.172 430.49 668.531 410.691 655.746C390.893 642.962 385.422 616.876 398.473 597.481" stroke="black" stroke-width="3.51492" stroke-linecap="square"/>
<path d="M399.855 802.558C413.827 772.156 400.337 736.565 369.724 723.063L368.2 722.391C337.587 708.889 301.443 722.589 287.471 752.991C273.498 783.392 286.988 818.983 317.602 832.485L319.125 833.157C349.739 846.659 385.883 832.959 399.855 802.558Z" fill="white" stroke="black" stroke-width="3.51492" stroke-linecap="square"/>
<ellipse rx="6.54421" ry="6.45549" transform="matrix(0.91496 0.403544 -0.417601 0.90863 329.317 753.54)" fill="black"/>
<ellipse rx="6.54421" ry="6.45549" transform="matrix(0.91496 0.403544 -0.417601 0.90863 371.692 772.229)" fill="black"/>
<path d="M382.813 795.043C373.078 816.224 347.659 825.664 326.036 816.128C304.414 806.591 294.778 781.689 304.513 760.508" stroke="black" stroke-width="3.51492" stroke-linecap="square"/>
<path d="M523.849 738.216C513.824 706.355 479.775 688.353 447.799 698.009L445.812 698.609C413.837 708.264 396.042 741.92 406.068 773.782C416.093 805.643 450.142 823.645 482.117 813.989L484.105 813.389C516.08 803.734 533.874 770.078 523.849 738.216Z" fill="#C7F1FF" stroke="black" stroke-width="3.51492" stroke-linecap="square"/>
<ellipse rx="6.55507" ry="6.44446" transform="matrix(0.957308 -0.289071 0.30015 0.953892 437.842 747.1)" fill="black"/>
<path d="M505.989 743.61C512.974 765.808 500.267 789.351 477.606 796.193C454.946 803.036 430.914 790.587 423.929 768.389" stroke="black" stroke-width="3.51492" stroke-linecap="square"/>
<path d="M276.895 813.053C277.255 779.715 250.52 752.408 217.181 752.062L214.67 752.036C181.331 751.69 154.012 778.437 153.652 811.776C153.292 845.115 180.027 872.421 213.366 872.767L215.877 872.793C249.216 873.139 276.535 846.392 276.895 813.053Z" fill="#C7FFD0" stroke="black" stroke-width="3.51492" stroke-linecap="square"/>
<ellipse rx="6.56656" ry="6.43275" transform="matrix(0.999946 0.0103672 -0.0108031 0.999942 192.215 795.845)" fill="black"/>
<ellipse rx="6.56656" ry="6.43275" transform="matrix(0.999946 0.0103672 -0.0108031 0.999942 238.685 796.327)" fill="black"/>
<path d="M258.208 812.86C257.957 836.088 238.531 854.719 214.82 854.473C191.109 854.227 172.091 835.198 172.342 811.97" stroke="black" stroke-width="3.51492" stroke-linecap="square"/>
<g clip-path="url(#clip0_520_89)">
<path d="M327.918 19.757C332.43 18.2468 334.979 19.126 337.089 22.9109C339.117 21.2324 341.429 21.1364 343.807 21.8836C347.168 22.9405 349.011 25.837 348.414 29.4149C347.72 33.5756 345.845 37.1943 342.335 39.6536C340.965 40.6189 339.257 41.2653 337.605 41.6242C334.979 42.2021 333.062 41.1297 331.745 38.7876C331.615 38.5656 331.508 38.3372 331.351 38.0443C328.187 40.8265 324.829 42.7419 320.415 40.8475C320.251 41.0754 320.057 41.324 319.877 41.5805C319.518 42.0936 318.901 42.2764 318.163 42.1202C317.461 41.9655 311.754 40.882 308.013 40.1575C307.251 40.026 304.807 39.4301 303.992 38.9404C303.051 38.3719 303.092 37.6545 303.567 36.6804C303.607 36.5903 303.655 36.5043 303.703 36.4183C305.609 33.3513 305.678 32.8735 308.11 33.4065C309.029 33.6071 310.528 33.7444 310.865 33.2377C311.038 32.9772 311.402 32.4387 311.85 31.6469C313.307 29.0524 315.188 26.6925 316.916 24.2013C316.126 24.3915 315.386 24.6278 314.625 24.7494C313.176 24.9776 312.472 24.2871 312.608 22.8252C312.691 21.915 312.762 21.0081 312.863 20.0988C312.937 19.4084 313.299 19.0936 314.02 18.8748C316.384 18.161 317.743 18.1272 321.035 16.4842C321.968 16.0176 322.909 15.8265 323.949 16.1131C325.201 16.4599 326.476 16.7455 327.741 17.0342C328.341 17.1698 328.577 17.5542 328.458 18.1069C328.332 18.6556 328.112 19.1709 327.918 19.757ZM326.863 18.0095C325.506 17.7352 324.255 17.4727 322.984 17.2461C322.747 17.1993 322.387 17.2904 322.191 17.4251C320.13 18.86 317.814 19.5722 315.365 19.9485C315.025 20.0038 314.695 20.0924 314.406 20.1572L314.102 23.5787C314.092 23.648 314.156 23.702 314.226 23.694C314.924 23.5843 315.542 23.552 316.1 23.3556C316.954 23.0507 317.746 22.8056 318.589 22.4673C318.914 22.3381 319.581 22.0142 319.657 22.1129C319.85 22.1541 319.741 22.7402 319.671 23.1702C319.651 23.2905 319.481 23.496 319.403 23.6028C317.162 26.7656 314.878 29.9046 312.705 33.1143C312.349 33.6385 311.927 34.4168 311.393 34.7023C310.684 35.0866 309.826 34.8923 308.992 34.8238C308.349 34.767 307.651 34.6895 307.008 34.6328C306.58 34.5925 306.425 34.9565 306.311 35.1461C305.843 35.8711 305.451 36.6469 304.97 37.5144C304.938 37.5717 304.953 37.6457 305.014 37.6704C306.906 38.4849 314.235 39.9054 318.033 40.68C318.233 40.7252 318.586 40.6118 318.681 40.4581C319.194 39.6177 319.661 38.7422 320.189 37.7887C320.217 37.7386 320.191 37.6677 320.133 37.6542C319.09 37.3199 318.163 37.0309 317.24 36.7347C316.429 36.4727 316.14 35.6751 316.59 34.9494C317.585 33.3737 318.702 31.8655 319.669 30.2739C321.811 26.7656 323.889 23.2216 326.002 19.6974C326.29 19.2107 326.622 18.7478 326.962 18.2523C327.021 18.163 326.972 18.0325 326.863 18.0095ZM321.111 39.4902C322.865 40.3502 324.683 40.2993 326.407 39.5581C328.754 38.5537 330.532 36.8682 331.974 34.7905C333.823 32.132 335.142 29.2455 335.581 26.0205C335.919 23.5178 334.996 21.6658 333.06 20.9302C329.926 19.7362 326.754 21.3329 325.539 23.4057C323.347 27.1393 320.933 30.7497 318.616 34.4047C318.364 34.8086 318.151 35.2435 317.905 35.6879C318.545 35.9024 319.131 36.0961 319.71 36.2859C320.951 36.7021 321.528 36.8624 321.778 37.273C322.049 37.7139 321.173 39.3277 321.111 39.4902ZM346.786 28.8868C347.198 26.622 346.322 24.7024 344.285 23.5918C342.169 22.4376 339.93 22.199 337.842 23.7685C337.698 23.8761 337.376 24.1009 337.376 24.1009C337.376 24.1009 337.354 24.7164 337.341 24.925C337.226 26.3328 336.942 27.3187 336.609 28.4934C335.837 31.2051 334.592 33.7206 332.924 36.0015C332.586 36.4604 332.536 36.8546 332.735 37.4245C333.791 40.3719 336.629 40.68 338.848 39.8389C341.694 38.764 345.235 35.9942 346.786 28.8868Z" fill="#10121B"/>
<path d="M328.156 24.6878C328.493 24.2655 328.97 23.9299 329.454 23.6643C331.002 22.8167 332.474 23.661 332.501 25.4381C332.513 25.9412 332.065 27.0706 331.798 27.4666C329.883 30.2947 328.297 32.5644 326.297 35.3265C325.821 35.9814 325.047 36.2456 324.19 36.033C323.122 35.7783 322.573 34.8926 322.839 33.8215C322.909 33.542 322.981 33.2442 323.098 32.9813C323.645 31.7754 326.156 27.0096 328.156 24.6878ZM330.796 24.6425C329.968 24.0899 327.825 27.3633 327.112 28.5144C326.024 30.2733 325.079 31.7081 324.249 33.6101C323.993 34.19 324.01 34.4989 324.284 34.7821C324.915 35.1319 325.455 34.344 325.583 34.1623C327.341 31.6687 329.127 29.191 330.828 26.6473C331.141 26.1837 331.809 24.8948 330.796 24.6425Z" fill="#10121B"/>
<path d="M339.833 35.239C339.584 35.5697 339.256 35.8566 338.943 36.1331C338.223 36.7739 337.431 37.1878 336.465 36.6806C335.722 36.2967 335.325 35.2891 335.643 34.1908C335.927 33.2049 336.587 32.0148 337.12 31.1386C338.038 29.6513 338.788 28.4173 339.849 27.0278C340.401 26.3028 341.234 26.1182 342.139 26.3292C343.167 26.5712 343.789 27.3939 343.521 28.4172C342.533 32.1435 340.708 34.0655 339.833 35.239ZM336.84 35.7352C337.549 36.1287 338.082 35.2525 338.379 34.8175C339.424 33.2879 340.43 31.7273 341.407 30.1508C341.73 29.6362 341.983 29.0452 342.122 28.4567C342.238 27.9589 342.09 27.3985 341.375 27.5552C341.097 27.6168 340.813 27.9092 340.652 28.1665C339.424 30.1947 338.196 32.2228 337.041 34.2908C336.822 34.6851 336.34 35.3177 336.84 35.7352Z" fill="#10121B"/>
</g>
<path d="M82.5821 421.834C80.3498 417.21 74.8285 416.086 70.1501 418.021C63.2988 420.86 61.0507 428.023 58.6677 434.976C57.9931 436.942 48.3575 463.727 47.7793 465.328C50.532 461.348 53.9039 457.834 57.767 454.919C65.6703 449.677 74.7296 446.436 84.1644 445.474C83.9629 427.99 84.2205 425.227 82.5821 421.834ZM78.6939 437.287C77.6537 438.341 76.3046 439.036 74.8426 439.271C73.3806 439.506 71.8817 439.269 70.5636 438.594C69.6021 438.17 68.7512 437.531 68.0768 436.725C67.4024 435.919 66.9225 434.969 66.6745 433.948C66.4265 432.927 66.4169 431.863 66.6466 430.838C66.8762 429.812 67.3388 428.854 67.9987 428.036C68.6585 427.218 69.4978 426.564 70.4515 426.123C71.4052 425.681 72.4476 425.466 73.4981 425.492C74.5486 425.519 75.5789 425.787 76.5091 426.275C77.4393 426.764 78.2444 427.46 78.8622 428.31C79.9038 429.583 80.4587 431.185 80.4279 432.83C80.3971 434.474 79.7825 436.054 78.6939 437.287Z" fill="#1B1A1B"/>
<path d="M308 352.615C307.275 342.966 302.375 334.828 296.796 326.981C296.032 325.757 295.16 324.603 294.191 323.533C291.81 325.45 289.135 326.968 286.269 328.031C285.074 328.488 283.814 328.756 282.537 328.824C281.837 328.868 281.136 328.771 280.474 328.541C279.812 328.311 279.203 327.951 278.682 327.482C278.151 326.922 277.797 326.218 277.664 325.457C277.532 324.697 277.627 323.914 277.937 323.208C279.426 319.762 281.617 320.182 278.026 320.837C277.176 321.081 276.274 321.085 275.422 320.849C274.569 320.612 273.799 320.144 273.195 319.497C272.17 318.09 271.74 316.335 271.999 314.613C272.258 312.891 273.184 311.34 274.578 310.296C268.138 311.596 264.82 304.968 271.052 300.121C271.052 298.278 271.052 287.104 271.052 283.36C270.957 282.828 270.745 282.324 270.431 281.884C270.116 281.444 269.708 281.08 269.235 280.818C268.763 280.556 268.238 280.402 267.698 280.368C267.159 280.334 266.618 280.421 266.116 280.622C265.536 280.999 265.046 281.5 264.683 282.089C264.319 282.678 264.09 283.34 264.014 284.028C262.936 290.216 263.18 301.691 263.386 307.933C268.343 313.131 270.63 320.401 272.228 327.421C275.045 340.789 276.316 354.437 276.017 368.095C289.852 368.57 309.044 366.494 308 352.615ZM300.352 358.288C299.975 359.008 298.892 358.372 299.263 357.654C299.993 356.235 300.304 354.638 300.159 353.05C300.089 352.242 301.352 352.249 301.419 353.05C301.567 354.862 301.197 356.678 300.352 358.288Z" fill="#FDFBFF"/>
<path d="M310.254 239.336C301.896 244.475 276.065 260.71 271.355 263.432C271.262 263.491 271.185 263.571 271.131 263.666C271.076 263.761 271.046 263.868 271.043 263.977C271.06 269.955 271.043 298.278 271.043 300.121C272.907 298.6 275.336 297.095 277.074 295.692C277.844 295.077 278.721 294.61 279.66 294.313V270.242C343.773 311.384 334.136 305.28 333.98 304.911C333.738 304.338 333.528 303.751 333.302 303.171C327.121 287.278 324.908 271.286 328.127 250.834C328.155 250.097 328.968 245.778 329.231 244.519C330.441 238.553 332.285 232.735 334.733 227.162C335.453 225.528 335.443 225.423 335.676 225.302C326.972 229.547 318.507 234.263 310.254 239.336Z" fill="#6AFFC9"/>
<path d="M334.231 260.592C333.345 257.879 331.955 255.357 330.134 253.159C328.815 251.602 328.153 251.458 328.133 250.834C326.257 262.111 326.233 273.618 328.062 284.902C328.044 284.792 328.055 284.679 328.093 284.574C328.232 283.851 338.421 273.348 334.231 260.592Z" fill="#FDFBFF"/>
<path d="M273.229 300.028C271.836 300.904 270.635 302.054 269.7 303.407C269.261 304.043 269.015 304.793 268.995 305.566C268.974 306.339 269.178 307.101 269.583 307.759C270.043 308.279 270.622 308.68 271.271 308.928C271.919 309.177 272.618 309.266 273.308 309.187C275.065 308.998 276.761 308.437 278.284 307.542C280.378 306.449 282.574 305.587 284.657 304.471C285.799 303.878 286.666 302.864 287.073 301.644C287.481 300.424 287.398 299.093 286.842 297.933C286.201 296.814 285.192 295.952 283.986 295.495C282.78 295.038 281.453 295.013 280.231 295.426C278.908 295.925 277.685 296.659 276.623 297.593C275.493 298.413 274.356 299.21 273.229 300.028Z" fill="#FDFBFF"/>
<path d="M281.732 320.506C280.352 321.411 279.345 322.784 278.899 324.373C278.792 324.979 278.904 325.603 279.216 326.134C279.528 326.665 280.019 327.067 280.6 327.269C281.695 327.633 282.872 327.677 283.991 327.396C290.844 325.753 300.939 318.164 295.755 313.87C295.038 313.538 294.242 313.415 293.458 313.513C292.673 313.611 291.932 313.927 291.319 314.425C283.77 318.858 284.616 318.169 281.732 320.506Z" fill="#FDFBFF"/>
<path d="M274.652 311.969C273.739 312.89 273.207 314.121 273.162 315.417C273.117 316.713 273.563 317.978 274.411 318.959C275.637 320.159 277.456 319.69 278.951 319.35C280.681 318.95 282.335 318.269 283.845 317.334C286.065 315.971 288.346 314.706 290.593 313.397C291.497 312.643 292.09 311.579 292.255 310.413C292.42 309.247 292.146 308.061 291.485 307.086C290.825 306.11 289.826 305.414 288.682 305.134C287.538 304.853 286.331 305.007 285.294 305.566C281.456 307.61 278.217 308.213 274.652 311.969Z" fill="#FDFBFF"/>
<path d="M341.824 242.283C340.651 236.529 338.884 230.912 336.552 225.522C336.46 225.382 336.319 225.281 336.157 225.24C335.994 225.199 335.822 225.221 335.676 225.302C335.441 225.43 335.456 225.521 334.733 227.162C331.622 234.3 329.467 241.817 328.323 249.518C328.21 249.948 328.144 250.39 328.127 250.834C328.13 250.951 328.159 251.066 328.211 251.17C328.499 251.528 328.828 251.851 329.19 252.132C331.687 254.704 333.493 257.865 334.441 261.321C335.389 264.778 335.448 268.417 334.612 271.903C333.413 276.45 331.23 280.679 328.218 284.29C328.089 284.467 328.031 284.685 328.055 284.902C329.209 291.147 330.966 297.265 333.301 303.171C333.527 303.751 333.738 304.338 333.979 304.911C334.186 305.399 334.912 305.559 335.131 305.061C339.497 295.356 342.301 285.022 343.438 274.441C344.548 263.702 344.003 252.857 341.824 242.283Z" fill="#1B1A1B"/>
<path d="M348.272 251.659C348.201 250.859 346.941 250.852 347.013 251.659C348.146 264.522 349.206 277.821 343.932 289.629C343.604 290.363 344.687 291.002 345.019 290.263C350.426 278.229 349.413 264.601 348.272 251.659Z" fill="#1B1A1B"/>
<path d="M352.378 246.241C352.356 246.161 352.319 246.086 352.268 246.021C352.217 245.956 352.154 245.901 352.082 245.86C352.01 245.819 351.931 245.793 351.849 245.783C351.767 245.773 351.683 245.779 351.604 245.801C351.444 245.848 351.309 245.955 351.227 246.099C351.145 246.244 351.123 246.414 351.164 246.575C353.344 262.656 354.749 279.622 347.046 294.217C346.668 294.933 347.747 295.571 348.132 294.853C356.042 279.928 354.603 262.663 352.378 246.241Z" fill="#1B1A1B"/>
<path d="M263.766 255.676L267.652 260.191C268.178 260.807 269.07 259.912 268.542 259.301L264.658 254.79C264.127 254.17 263.241 255.065 263.766 255.676Z" fill="#1B1A1B"/>
<path d="M136.759 482.406C136.444 482.709 124.986 493.708 119.705 498.743C119.584 498.857 119.425 498.92 119.26 498.92C119.094 498.92 118.935 498.857 118.814 498.743L118.757 498.692C118.581 498.541 99.5224 481.414 87.2042 470.351C87.0872 470.232 87.0216 470.072 87.0216 469.905C87.0216 469.738 87.0872 469.578 87.2042 469.459L108.196 450.351C100.951 446.096 92.492 444.379 84.1605 445.474C74.7264 446.439 65.6677 449.68 57.7631 454.918C44.4952 464.522 35.3346 486.278 34.4111 502.879C34.413 503.045 34.4798 503.204 34.5974 503.322C34.715 503.439 34.8739 503.506 35.0402 503.508H140.258C140.425 503.506 140.583 503.439 140.701 503.322C140.819 503.204 140.885 503.045 140.887 502.879C140.968 496.414 139.808 488.019 136.759 482.406ZM50.2846 494.689C62.4508 487.439 74.0583 479.29 85.0104 470.311C85.6324 469.801 86.5278 470.687 85.9005 471.201C74.9145 480.312 63.2172 488.53 50.9207 495.777C50.7769 495.852 50.6094 495.87 50.4532 495.825C50.2969 495.781 50.1639 495.677 50.0819 495.537C49.9998 495.397 49.9751 495.23 50.0129 495.072C50.0507 494.914 50.148 494.777 50.2846 494.689ZM115.292 503.212C114.693 503.757 113.801 502.861 114.402 502.322L117.288 499.694C117.888 499.151 118.779 500.044 118.178 500.586L115.292 503.212Z" fill="white"/>
<path d="M78.8683 428.31C78.2506 427.46 77.4454 426.764 76.5152 426.275C75.585 425.787 74.5548 425.519 73.5043 425.492C72.4538 425.466 71.4113 425.681 70.4576 426.122C69.5039 426.564 68.6647 427.218 68.0048 428.036C67.345 428.854 66.8824 429.812 66.6527 430.838C66.4231 431.863 66.4327 432.927 66.6807 433.948C66.9287 434.969 67.4085 435.919 68.0829 436.725C68.7574 437.531 69.6083 438.17 70.5697 438.594C71.9508 439.349 73.5533 439.595 75.0974 439.289C76.6415 438.983 78.0289 438.144 79.0173 436.92C80.0057 435.695 80.5323 434.162 80.5051 432.588C80.4778 431.014 79.8985 429.5 78.8683 428.31Z" fill="#FDFBFF"/>
<path d="M272.226 327.421C270.538 319.982 268.053 312.228 262.439 306.994C257.298 302.488 251.069 299.401 244.369 298.04C236.608 296.238 228.477 296.937 221.137 300.035C210.496 304.62 204.018 311.17 199.645 325.695C204.472 325.599 217.006 325.369 221.698 326.188C226.271 326.983 228.253 331.463 228.835 335.602C229.283 339.541 229.481 343.503 229.425 347.466C242.795 347.466 242.042 347.433 242.217 347.512C242.333 347.561 242.433 347.641 242.505 347.745C242.577 347.848 242.619 347.969 242.625 348.095V380.525H275.175C275.341 380.522 275.499 380.454 275.616 380.337C275.734 380.219 275.801 380.061 275.804 379.894C276.228 361.869 276.282 345.296 272.226 327.421Z" fill="white"/>
<path d="M242.627 348.102C242.626 348.008 242.602 347.916 242.559 347.832C242.516 347.748 242.454 347.675 242.378 347.619C242.457 347.682 242.519 347.764 242.559 347.856C242.6 347.948 242.618 348.049 242.612 348.149C242.606 348.25 242.576 348.348 242.524 348.434C242.472 348.521 242.401 348.594 242.315 348.647C239.119 350.618 204.954 371.072 190.249 380.439C189.913 380.651 189.633 380.455 189.065 380.155C186.761 378.929 128.846 348.647 128.846 348.647C128.754 348.606 128.675 348.539 128.62 348.455C128.564 348.37 128.535 348.272 128.534 348.171C128.534 423.738 128.443 418.191 128.718 417.969C129.081 417.682 153.64 397.168 155.878 395.255C156.493 394.73 157.386 395.62 156.769 396.145C155.979 396.818 130.044 418.508 129.61 418.861C129.531 418.922 129.439 418.966 129.341 418.988C129.244 419.01 129.142 419.011 129.044 418.99C128.946 418.969 128.854 418.927 128.774 418.866C128.694 418.806 128.628 418.728 128.581 418.64C128.628 418.757 128.707 418.858 128.811 418.93C128.914 419.002 129.037 419.042 129.163 419.045H142.589L169.184 394.835C170.646 393.335 172.482 392.253 174.502 391.701C175.425 391.446 176.411 391.553 177.258 392.001C178.105 392.449 178.749 393.203 179.058 394.11C179.247 395.143 179.218 396.205 178.97 397.227C178.723 398.249 178.264 399.207 177.623 400.04C174.773 404.662 171.424 408.958 167.635 412.848C172.519 410.989 177.367 414.01 176.239 419.045H241.968C241.132 418.869 237.891 415.015 213.831 396.205C213.191 395.706 214.089 394.821 214.721 395.313C222.71 401.546 234.895 411.275 242.452 417.969C242.56 418.064 242.63 418.196 242.648 418.339C243.426 418.244 242.808 364.497 242.627 348.102Z" fill="#6AFFC9"/>
<path d="M179.89 422.901C177.88 422.678 175.845 422.932 173.95 423.64C175.323 421.971 176.172 419.934 176.389 417.785C176.526 413.363 171.9 411.221 167.628 412.848C171.416 408.957 174.766 404.662 177.616 400.04C178.257 399.207 178.716 398.249 178.964 397.227C179.211 396.206 179.241 395.143 179.051 394.11C178.742 393.203 178.098 392.449 177.251 392.001C176.404 391.553 175.419 391.446 174.495 391.701C172.475 392.252 170.638 393.335 169.177 394.835L87.1972 469.467C87.0802 469.585 87.0146 469.746 87.0146 469.912C87.0146 470.079 87.0802 470.239 87.1972 470.358L118.82 498.743C118.94 498.857 119.099 498.92 119.265 498.92C119.43 498.92 119.59 498.857 119.71 498.743C148.92 470.835 156.682 462.848 165.079 454.121C172.981 445.901 179.887 439.15 183.375 429.341C183.63 428.691 183.739 427.995 183.697 427.299C183.654 426.603 183.46 425.925 183.128 425.312C182.796 424.699 182.334 424.165 181.775 423.749C181.216 423.332 180.573 423.043 179.89 422.901ZM155.902 422.126L160.141 417.969C160.719 417.401 161.611 418.291 161.031 418.861L156.792 423.016C156.212 423.586 155.322 422.696 155.902 422.126ZM164.43 429.631L168.501 426.324C169.125 425.818 170.022 426.704 169.391 427.214L165.322 430.521C164.698 431.033 163.801 430.146 164.43 429.631ZM133.752 473.151C131.554 474.96 129.412 476.835 127.327 478.774C126.735 479.326 125.843 478.438 126.437 477.884C128.521 475.946 130.662 474.071 132.86 472.261C133.482 471.749 134.378 472.636 133.752 473.151Z" fill="#FDFBFF"/>
<path d="M241.918 347.466C241.732 347.493 194.147 376.571 189.915 379.16L129.483 347.559C128.726 347.167 128.168 348.297 128.846 348.647C191.839 381.233 189.624 380.854 190.25 380.439L242.316 348.647C242.442 348.574 242.54 348.458 242.591 348.321C242.643 348.184 242.645 348.033 242.599 347.895C242.552 347.756 242.459 347.637 242.335 347.559C242.211 347.481 242.063 347.449 241.918 347.466Z" fill="#1B1A1B"/>
<path d="M162.429 341.91H211.411C211.572 341.902 211.724 341.832 211.835 341.715C211.946 341.598 212.008 341.442 212.008 341.281C212.008 341.119 211.946 340.964 211.835 340.847C211.724 340.73 211.572 340.66 211.411 340.651H162.429C162.267 340.66 162.115 340.73 162.004 340.847C161.893 340.964 161.831 341.119 161.831 341.281C161.831 341.442 161.893 341.598 162.004 341.715C162.115 341.832 162.267 341.902 162.429 341.91Z" fill="#1B1A1B"/>
<path d="M211.411 357.131C211.572 357.123 211.724 357.053 211.835 356.935C211.946 356.818 212.008 356.663 212.008 356.502C212.008 356.34 211.946 356.185 211.835 356.068C211.724 355.951 211.572 355.881 211.411 355.872H162.429C162.267 355.881 162.115 355.951 162.004 356.068C161.893 356.185 161.831 356.34 161.831 356.502C161.831 356.663 161.893 356.818 162.004 356.935C162.115 357.053 162.267 357.123 162.429 357.131H211.411Z" fill="#1B1A1B"/>
<path d="M170.127 313.577C170.288 313.568 170.44 313.498 170.551 313.381C170.662 313.264 170.724 313.109 170.724 312.947C170.724 312.786 170.662 312.63 170.551 312.513C170.44 312.396 170.288 312.326 170.127 312.318H121.292C121.131 312.326 120.979 312.396 120.867 312.513C120.756 312.63 120.694 312.786 120.694 312.947C120.694 313.109 120.756 313.264 120.867 313.381C120.979 313.498 121.131 313.568 121.292 313.577H170.127Z" fill="#1B1A1B"/>
<path d="M121.292 299.933H170.127C170.294 299.933 170.454 299.867 170.572 299.749C170.69 299.631 170.756 299.471 170.756 299.304C170.756 299.137 170.69 298.978 170.572 298.86C170.454 298.742 170.294 298.676 170.127 298.676H121.292C121.125 298.676 120.965 298.742 120.847 298.86C120.729 298.978 120.663 299.137 120.663 299.304C120.663 299.471 120.729 299.631 120.847 299.749C120.965 299.867 121.125 299.933 121.292 299.933Z" fill="#1B1A1B"/>
<path d="M129.61 418.861C130.054 418.51 155.988 396.818 156.77 396.145C157.387 395.62 156.493 394.733 155.878 395.255C153.632 397.168 129.069 417.68 128.718 417.969C128.107 418.454 128.965 419.369 129.61 418.861Z" fill="#1B1A1B"/>
<path d="M300.351 358.288C301.196 356.678 301.566 354.862 301.418 353.05C301.351 352.249 300.088 352.242 300.158 353.05C300.303 354.638 299.993 356.235 299.263 357.653C298.886 358.372 299.969 359.008 300.351 358.288Z" fill="#1B1A1B"/>
<path d="M214.712 395.313C214.082 394.821 213.183 395.705 213.822 396.205C219.403 400.56 234.372 412.477 241.553 418.861C241.618 418.917 241.693 418.961 241.774 418.988C241.856 419.016 241.942 419.027 242.027 419.021C242.113 419.016 242.197 418.993 242.274 418.955C242.351 418.917 242.42 418.864 242.476 418.799C242.529 418.743 242.57 418.676 242.596 418.604C242.623 418.531 242.635 418.454 242.632 418.377C242.629 418.3 242.611 418.224 242.578 418.154C242.546 418.084 242.5 418.021 242.443 417.969C236.205 412.307 221.43 400.562 214.712 395.313Z" fill="#1B1A1B"/>
<path d="M241.684 347.466C240.967 347.452 238.169 347.466 229.418 347.466C229.498 343.5 229.301 339.534 228.828 335.595C228.246 331.456 226.264 326.976 221.691 326.181C218.3 325.59 190.743 325.879 190.224 325.942C190.165 325.767 188.735 324.514 188.211 317.722C187.986 314.744 187.931 311.756 188.046 308.772C188.365 299.86 185.647 287.29 178.127 282.468C174.649 280.238 171.643 280.117 166.946 280.258C165.369 280.307 78.8715 280.303 77.7256 280.303C71.7434 280.303 65.2847 281.67 61.3492 286.543C56.7215 292.267 56.8319 300.236 56.4815 307.107C56.4394 307.917 57.7081 307.915 57.7413 307.107C57.7621 302.792 58.1945 298.487 59.0327 294.254C59.4692 291.983 60.421 289.843 61.8147 287.998C63.2084 286.152 65.007 284.652 67.072 283.611C70.4126 282.1 74.0627 281.398 77.7256 281.563H85.9943C91.7014 281.913 95.891 284.296 98.7559 290.459C104.577 302.982 99.7511 317.892 109.704 328.398C112.344 331.2 115.942 332.907 119.783 333.178C123.78 333.44 127.021 331.226 130.357 329.339C131.915 328.327 133.67 327.657 135.505 327.374C136.348 327.291 137.199 327.388 138.002 327.66C138.804 327.932 139.539 328.372 140.158 328.95C143.52 332.104 143.625 337.969 143.722 347.475H129.292C130.084 347.843 134.614 350.252 145.12 355.742C144.994 350.688 144.932 345.632 144.806 340.578C144.685 335.746 144.062 330.024 140.058 327.353C169.024 327.328 221.021 327.2 222.525 327.687C226.87 329.099 227.904 335.548 227.973 340.138C228.027 343.875 228.367 355.581 228.365 355.69C243.199 346.62 242.138 347.482 241.684 347.466ZM124.167 331.217C117.393 333.789 108.747 329.054 105.705 319.059C102.961 310.073 103.988 300.356 100.578 291.554C99.894 289.378 98.7664 287.367 97.2663 285.648C95.7663 283.93 93.9264 282.54 91.8626 281.568C91.8626 281.568 167.734 281.487 170.475 281.529C178.885 281.661 182.833 287.815 185.211 295.895C187.664 304.236 186.523 309.32 186.832 315.758C186.786 319.268 187.442 322.752 188.759 326.005C144.953 326.091 137.566 326.077 136.28 326.095C131.328 326.167 128.488 329.578 124.167 331.217Z" fill="#6AFFC9"/>
<path d="M103.368 361.832L92.3487 350.289C91.788 349.7 90.8978 350.592 91.4568 351.179L102.478 362.722C103.039 363.302 103.926 362.412 103.368 361.832Z" fill="#1B1A1B"/>
<path d="M86.6542 384.938H103.449C103.611 384.929 103.763 384.859 103.874 384.742C103.985 384.625 104.047 384.47 104.047 384.308C104.047 384.147 103.985 383.992 103.874 383.874C103.763 383.757 103.611 383.687 103.449 383.679H86.6542C86.4929 383.687 86.341 383.757 86.2298 383.874C86.1186 383.992 86.0566 384.147 86.0566 384.308C86.0566 384.47 86.1186 384.625 86.2298 384.742C86.341 384.859 86.4929 384.929 86.6542 384.938Z" fill="#1B1A1B"/>
<path d="M93.922 416.235L104.942 405.216C105.051 405.096 105.109 404.939 105.105 404.777C105.101 404.615 105.035 404.461 104.92 404.347C104.806 404.233 104.651 404.167 104.49 404.163C104.328 404.159 104.171 404.218 104.051 404.327L93.032 415.345C92.914 415.463 92.8477 415.623 92.8477 415.79C92.8477 415.957 92.914 416.117 93.032 416.235C93.15 416.353 93.3101 416.419 93.477 416.419C93.6439 416.419 93.804 416.353 93.922 416.235Z" fill="#1B1A1B"/>
<path d="M236.672 274.285C235.47 273.926 234.201 273.853 232.965 274.071C231.73 274.288 230.562 274.791 229.556 275.54C228.726 276.196 228.039 277.016 227.539 277.949C227.039 278.881 226.736 279.906 226.649 280.961C226.561 282.015 226.691 283.076 227.03 284.079C227.37 285.081 227.911 286.003 228.622 286.787C229.892 288.084 231.571 288.903 233.375 289.104C235.18 289.304 236.998 288.875 238.522 287.889C238.663 287.802 238.765 287.664 238.807 287.503C238.849 287.343 238.828 287.172 238.748 287.027C237.835 285.377 236.887 283.744 235.925 282.122C237.716 281.946 241.282 281.654 241.604 281.505C241.726 281.465 241.833 281.389 241.912 281.287C241.99 281.185 242.036 281.062 242.044 280.934C242.158 279.351 241.667 277.784 240.67 276.55C239.672 275.315 238.243 274.506 236.672 274.285Z" fill="#FDFBFF"/>
<path d="M253.137 264.821C252.979 264.353 252.68 263.946 252.281 263.655C251.881 263.365 251.402 263.205 250.908 263.199C248.511 262.906 246.091 262.854 243.683 263.043C244.966 261.956 245.999 260.605 246.711 259.082C246.836 258.683 246.867 258.26 246.802 257.847C246.738 257.433 246.58 257.04 246.34 256.697C246.1 256.354 245.785 256.071 245.419 255.869C245.052 255.667 244.645 255.551 244.227 255.531C243.249 255.61 242.338 256.058 241.679 256.784C240.822 257.516 240.026 258.324 239.226 259.112C235.534 262.506 232.339 266.403 229.736 270.689C229.688 270.785 229.665 270.893 229.668 271.001C229.672 271.109 229.702 271.214 229.756 271.308C229.809 271.401 229.885 271.48 229.977 271.537C230.069 271.595 230.173 271.629 230.281 271.636C236.823 271.798 243.348 270.868 249.585 268.886C250.639 268.641 251.614 268.134 252.42 267.413C252.747 267.075 252.984 266.661 253.109 266.208C253.235 265.756 253.244 265.279 253.137 264.821Z" fill="#1B1A1B"/>
<path d="M283.475 411.226C282.878 411.296 282.273 411.228 281.706 411.028C278.744 410.189 277.903 406.898 280.339 404.37C278.252 404.357 276.202 403.814 274.381 402.794C273.616 402.371 273.009 401.709 272.655 400.909C272.567 400.736 272.521 400.545 272.521 400.352C272.521 400.158 272.567 399.967 272.655 399.794C272.641 399.808 272.62 399.808 272.608 399.824C266.065 408.02 278.031 416.795 283.717 411.084C283.645 411.144 283.563 411.192 283.475 411.226Z" fill="white"/>
<path d="M286.684 403.845C286.508 402.307 285.865 400.86 284.842 399.699C283.818 398.538 282.463 397.719 280.959 397.352C279.673 396.988 278.317 396.943 277.01 397.221C275.702 397.5 274.482 398.093 273.456 398.95C273.153 399.198 272.885 399.486 272.661 399.807C272.574 399.98 272.529 400.17 272.529 400.364C272.529 400.557 272.574 400.748 272.661 400.921C273.015 401.721 273.621 402.383 274.387 402.806C276.208 403.826 278.257 404.368 280.344 404.383C277.891 406.928 278.783 410.206 281.711 411.04C282.278 411.241 282.883 411.309 283.481 411.238C283.868 411.014 284.192 410.695 284.423 410.311C285.903 408.482 286.702 406.197 286.684 403.845Z" fill="#1B1A1B"/>
<path d="M336.48 454.833C335.842 450.708 334.279 446.781 331.907 443.346C329.535 439.911 326.417 437.057 322.785 434.999C319.255 433.154 315.497 431.782 311.609 430.917C294.8 426.888 276.915 428.55 260.248 433.147C256.773 433.901 253.477 435.32 250.542 437.326C259.697 440.16 268.14 444.92 275.304 451.284C282.468 457.649 288.188 465.472 292.08 474.228C292.792 475.838 293.482 477.455 294.183 479.072C294.138 476.122 294.025 474.268 294.208 472.038C294.662 467.371 296.658 462.989 299.88 459.582C303.103 456.176 307.368 453.94 312.004 453.227C316.639 452.514 321.379 453.365 325.477 455.645C329.575 457.926 332.796 461.506 334.632 465.821C335.698 468.471 336.277 471.293 336.338 474.149C336.526 478.236 336.481 482.331 336.205 486.413C337.877 475.204 338.46 465.195 336.48 454.833Z" fill="white"/>
<path d="M256.804 483.384C252.12 486.17 247.022 488.191 241.701 489.372C241.719 492.734 241.876 501.744 241.894 502.888C241.897 503.054 241.964 503.212 242.081 503.329C242.199 503.447 242.357 503.514 242.523 503.517C243.32 503.529 261.272 503.725 261.272 503.725C259.183 497.09 257.688 490.283 256.804 483.384Z" fill="white"/>
<path d="M336.339 474.149C336.278 471.293 335.699 468.471 334.632 465.821C332.797 461.505 329.577 457.923 325.479 455.642C321.381 453.36 316.639 452.508 312.003 453.221C307.367 453.934 303.101 456.171 299.879 459.579C296.656 462.987 294.661 467.37 294.208 472.038C294.033 474.256 294.136 476.068 294.184 479.072C293.483 477.455 292.792 475.838 292.081 474.228C287.265 463.337 279.616 453.937 269.931 447.007C260.798 440.465 246.192 434.008 235.007 435.358C231.811 435.714 228.702 436.629 225.822 438.062C224.639 438.683 223.491 439.369 222.382 440.117C219.143 442.238 214.981 444.871 213.621 448.207C213.197 449.262 213.145 450.431 213.473 451.52C213.801 452.609 214.489 453.554 215.426 454.2C216.468 454.791 217.623 455.155 218.816 455.267C220.009 455.38 221.211 455.239 222.346 454.854C224.87 454.134 227.296 453.104 229.567 451.788C229.764 451.687 229.982 451.63 230.204 451.621C230.426 451.613 230.647 451.653 230.852 451.738C231.057 451.824 231.241 451.954 231.391 452.118C231.541 452.282 231.653 452.477 231.72 452.688C231.787 452.9 231.807 453.124 231.778 453.345C231.749 453.565 231.673 453.776 231.554 453.964C231.435 454.152 231.277 454.312 231.09 454.432C230.903 454.552 230.693 454.63 230.473 454.661C227.356 455.302 224.499 456.849 222.26 459.109C221.529 460 221.145 461.126 221.181 462.278C221.216 463.43 221.667 464.531 222.451 465.376C223.793 466.784 225.57 467.7 227.495 467.979C225.149 468.629 223.024 469.836 222.971 472.473C222.912 475.489 225.391 478.41 230.141 478.475C224.68 482.103 225.822 487.772 230.034 489.184C233.521 490.616 238.002 490.099 241.71 489.359C247.029 488.181 252.127 486.162 256.812 483.38C258.785 497.809 262.484 513.604 273.507 522.916C281.03 529.272 293.549 532.106 302.502 531.2C315.21 529.913 326.286 519.617 331.361 507.725C335.854 497.171 336.828 485.708 336.339 474.149ZM297.669 524.769C297.625 524.608 297.647 524.436 297.729 524.291C297.812 524.146 297.948 524.04 298.109 523.995L305.468 522.986C305.629 522.944 305.8 522.967 305.945 523.049C306.09 523.131 306.197 523.266 306.244 523.425C306.288 523.586 306.266 523.758 306.184 523.903C306.101 524.048 305.965 524.155 305.805 524.2L298.445 525.209C298.284 525.251 298.113 525.228 297.968 525.146C297.823 525.064 297.716 524.929 297.669 524.769ZM270.313 469.035C268.349 472.549 265.978 475.819 263.25 478.778C262.703 479.379 261.815 478.485 262.36 477.888C264.96 474.963 267.26 471.784 269.225 468.399C269.313 468.263 269.45 468.166 269.608 468.128C269.767 468.09 269.933 468.115 270.073 468.197C270.214 468.279 270.317 468.412 270.362 468.568C270.406 468.724 270.389 468.892 270.313 469.035ZM239.067 466.514L244.056 465.476C244.848 465.311 245.183 466.527 244.391 466.69L239.402 467.728C238.61 467.893 238.273 466.679 239.067 466.514ZM241.067 476.203C243.075 476.037 245.051 475.599 246.942 474.903C247.706 474.622 248.032 475.842 247.276 476.117C245.277 476.844 243.188 477.296 241.067 477.462C240.25 477.527 240.264 476.269 241.067 476.203Z" fill="#FDFBFF"/>
<path d="M208.31 468.485C207.867 469.166 208.957 469.797 209.398 469.119C210.975 466.694 213.041 462.359 215.199 461.25C215.32 461.175 215.462 461.138 215.604 461.145C215.746 461.153 215.883 461.203 215.996 461.29C217.13 462.12 216.687 464.026 216.359 465.118C215.643 467.363 214.682 469.521 213.493 471.555C213.095 472.256 214.183 472.899 214.579 472.191C215.762 470.146 216.736 467.987 217.487 465.747C217.858 464.949 218.027 464.072 217.978 463.194C217.93 462.316 217.666 461.463 217.211 460.71C214.239 457.233 210.314 465.396 208.31 468.485Z" fill="#1B1A1B"/>
<path d="M214.971 476.285C213.853 474.196 212.143 472.484 210.054 471.366C207.5 470.213 204.678 469.785 201.897 470.127C195.107 470.94 188.205 473.859 180.32 481.388C178.302 483.315 176.465 485.418 174.561 487.464C174.495 487.533 174.445 487.616 174.415 487.707C174.385 487.798 174.376 487.894 174.388 487.989C174.4 488.083 174.434 488.174 174.486 488.255C174.538 488.335 174.607 488.402 174.689 488.452C183.082 493.543 191.267 498.964 199.57 504.197C199.364 506.712 198.855 512.863 198.855 512.863C198.789 513.671 200.049 513.666 200.115 512.863L200.767 504.955C201.042 505.13 206.374 508.412 208.785 509.84C208.854 509.89 208.933 509.924 209.017 509.939C209.101 509.955 209.187 509.952 209.269 509.93C209.351 509.909 209.428 509.869 209.493 509.814C209.558 509.759 209.61 509.691 209.646 509.614C212.177 504.068 214.229 498.316 215.779 492.42C217.161 487.114 217.676 481.292 214.971 476.285Z" fill="#6AFFC9"/>
<path d="M202.088 518.453C201.628 517.768 200.981 517.229 200.224 516.9C199.467 516.57 198.631 516.463 197.816 516.592C197 516.721 196.238 517.08 195.62 517.627C195.002 518.174 194.552 518.886 194.325 519.679C194.026 520.672 194.073 521.737 194.458 522.699C194.843 523.662 195.543 524.465 196.443 524.978C197.356 525.473 198.427 525.587 199.423 525.295C200.419 525.003 201.258 524.328 201.759 523.419C202.288 522.712 202.6 521.866 202.659 520.985C202.717 520.104 202.519 519.224 202.088 518.453Z" fill="#6AFFC9"/>
<path d="M223.574 516.239C223.325 515.472 222.107 515.799 222.359 516.574L227.504 532.341C227.755 533.108 228.971 532.779 228.718 532.006L223.574 516.239Z" fill="#1B1A1B"/>
<path d="M226.833 514.927C226.744 514.793 226.607 514.698 226.451 514.661C226.294 514.625 226.129 514.65 225.99 514.731C225.851 514.812 225.748 514.943 225.702 515.097C225.657 515.252 225.672 515.418 225.745 515.561C228.079 519.766 233.558 529.286 233.911 529.871C233.995 530.015 234.133 530.12 234.295 530.162C234.456 530.204 234.628 530.18 234.772 530.096C234.916 530.012 235.021 529.874 235.063 529.712C235.105 529.551 235.081 529.379 234.997 529.235C233.324 526.22 226.933 515.102 226.833 514.927Z" fill="#1B1A1B"/>
<path d="M269.224 468.399C267.259 471.784 264.96 474.963 262.359 477.887C261.814 478.484 262.71 479.378 263.249 478.777C265.977 475.817 268.347 472.548 270.312 469.035C270.387 468.892 270.405 468.724 270.36 468.568C270.316 468.412 270.212 468.279 270.072 468.197C269.932 468.115 269.765 468.09 269.607 468.128C269.449 468.166 269.312 468.263 269.224 468.399Z" fill="#1B1A1B"/>
<path d="M246.94 474.903C245.05 475.599 243.073 476.036 241.065 476.202C240.263 476.268 240.256 477.526 241.065 477.461C243.186 477.295 245.275 476.843 247.275 476.116C248.03 475.841 247.704 474.622 246.94 474.903Z" fill="#1B1A1B"/>
<path d="M244.055 465.476L239.066 466.514C238.273 466.678 238.609 467.892 239.401 467.727L244.389 466.689C245.181 466.524 244.846 465.311 244.055 465.476Z" fill="#1B1A1B"/>
<path d="M305.46 522.986L298.101 523.994C297.941 524.039 297.805 524.146 297.722 524.291C297.64 524.436 297.618 524.607 297.662 524.768C297.709 524.928 297.816 525.062 297.96 525.144C298.105 525.226 298.275 525.249 298.436 525.208L305.795 524.199C305.955 524.154 306.092 524.048 306.174 523.903C306.256 523.758 306.278 523.586 306.235 523.425C306.187 523.266 306.08 523.132 305.936 523.05C305.791 522.968 305.621 522.945 305.46 522.986Z" fill="#1B1A1B"/>
<path d="M132.859 472.261C130.662 474.069 128.521 475.943 126.436 477.884C125.842 478.438 126.734 479.326 127.326 478.774C129.409 476.835 131.55 474.961 133.751 473.151C134.376 472.636 133.481 471.749 132.859 472.261Z" fill="white"/>
<path d="M85.0098 470.311C74.0527 479.283 62.4456 487.431 50.2841 494.689C50.1475 494.777 50.0502 494.914 50.0124 495.072C49.9746 495.23 49.9993 495.397 50.0813 495.537C50.1634 495.677 50.2964 495.781 50.4526 495.825C50.6089 495.87 50.7764 495.852 50.9202 495.777C63.2154 488.528 74.9125 480.31 85.9 471.201C86.5273 470.687 85.6319 469.801 85.0098 470.311Z" fill="white"/>
<path d="M117.287 499.698L114.402 502.325C113.801 502.872 114.693 503.76 115.292 503.215L118.177 500.587C118.778 500.043 117.887 499.155 117.287 499.698Z" fill="white"/>
<path d="M160.141 417.969L155.902 422.126C155.322 422.695 156.213 423.585 156.792 423.016L161.031 418.861C161.611 418.291 160.719 417.401 160.141 417.969Z" fill="white"/>
<path d="M168.5 426.329L164.43 429.631C163.801 430.141 164.698 431.033 165.322 430.521L169.39 427.214C170.021 426.709 169.124 425.823 168.5 426.329Z" fill="white"/>
<path d="M33.7854 476.499C33.7142 476.457 33.6354 476.429 33.5534 476.418C33.4715 476.406 33.3881 476.411 33.3081 476.432C33.2281 476.453 33.153 476.49 33.0873 476.54C33.0215 476.59 32.9664 476.653 32.9251 476.725L26.9675 490.81C26.8878 490.955 26.8669 491.126 26.9089 491.286C26.9509 491.446 27.0528 491.584 27.1935 491.672C27.3379 491.756 27.5097 491.78 27.6713 491.737C27.833 491.695 27.9712 491.59 28.0556 491.446L34.0132 477.359C34.0931 477.214 34.114 477.043 34.0716 476.883C34.0291 476.723 33.9267 476.585 33.7854 476.499Z" fill="#1B1A1B"/>
<path d="M28.851 475.206L21.2884 491.373C20.9467 492.101 22.0313 492.743 22.3748 492.009L29.9374 475.842C30.2791 475.113 29.1945 474.481 28.851 475.206Z" fill="#1B1A1B"/>
<path d="M292.772 312.377C293.292 311.418 293.533 310.332 293.469 309.243C293.406 308.154 293.039 307.104 292.411 306.212C291.802 305.459 291.028 304.855 290.149 304.449C289.27 304.043 288.308 303.845 287.34 303.87C287.883 303.096 288.255 302.216 288.431 301.287C288.607 300.359 288.583 299.403 288.362 298.484C287.261 293.97 281.192 292.372 277.079 295.692C275.351 297.093 273.436 298.222 271.048 300.121C264.74 305.136 268.258 311.57 274.573 310.296C273.179 311.339 272.252 312.89 271.993 314.613C271.734 316.335 272.165 318.09 273.191 319.497C274.843 321.526 277.489 321.074 279.968 320.389C279.088 321.165 278.393 322.128 277.932 323.208C277.622 323.914 277.527 324.697 277.66 325.457C277.792 326.218 278.146 326.922 278.677 327.482C279.198 327.951 279.808 328.31 280.47 328.541C281.131 328.771 281.832 328.868 282.532 328.824C283.81 328.756 285.069 328.488 286.264 328.031C290.587 326.364 295.143 323.651 297.552 319.674C298.133 318.822 298.444 317.815 298.444 316.783C298.444 315.752 298.133 314.745 297.552 313.893C297.024 313.16 296.274 312.618 295.413 312.345C294.552 312.072 293.626 312.083 292.772 312.377ZM273.308 309.187C272.618 309.265 271.92 309.177 271.271 308.928C270.623 308.68 270.044 308.279 269.583 307.759C269.178 307.1 268.974 306.338 268.995 305.566C269.016 304.793 269.261 304.043 269.7 303.407C270.636 302.054 271.836 300.904 273.229 300.028C274.356 299.21 275.493 298.406 276.623 297.593C277.686 296.659 278.908 295.925 280.231 295.426C281.453 295.013 282.78 295.038 283.986 295.495C285.192 295.952 286.201 296.814 286.842 297.933C287.399 299.093 287.482 300.424 287.074 301.644C286.666 302.864 285.799 303.878 284.657 304.471C282.574 305.587 280.378 306.449 278.285 307.542C276.761 308.437 275.065 308.998 273.308 309.187ZM278.95 319.348C277.456 319.688 275.63 320.157 274.41 318.957C273.564 317.975 273.118 316.711 273.163 315.415C273.208 314.119 273.74 312.888 274.652 311.967C278.216 308.211 281.458 307.608 285.294 305.557C286.33 304.998 287.538 304.844 288.682 305.125C289.826 305.405 290.825 306.101 291.485 307.077C292.145 308.052 292.419 309.238 292.254 310.404C292.089 311.57 291.497 312.634 290.592 313.388C288.346 314.705 286.064 315.962 283.844 317.325C282.335 318.263 280.682 318.947 278.95 319.35V319.348ZM283.99 327.395C282.87 327.675 281.694 327.631 280.599 327.267C280.017 327.065 279.527 326.663 279.215 326.132C278.903 325.601 278.791 324.977 278.898 324.371C279.344 322.782 280.351 321.409 281.731 320.504C284.614 318.169 283.857 318.803 291.318 314.423C291.931 313.925 292.672 313.609 293.457 313.511C294.241 313.413 295.037 313.537 295.754 313.868C300.948 318.174 290.848 325.751 283.99 327.396V327.395Z" fill="#1B1A1B"/>
<path d="M179.912 422.682C178.104 422.485 176.275 422.664 174.539 423.207C175.374 422.006 176.001 420.674 176.397 419.265H242C242.163 419.265 242.322 419.217 242.458 419.127C242.593 419.037 242.699 418.909 242.763 418.759C242.898 418.584 242.845 418.778 242.845 380.743H275.177C275.401 380.74 275.614 380.651 275.772 380.493C275.931 380.335 276.021 380.122 276.023 379.898C276.023 379.898 276.199 372.028 276.232 368.32C290.225 368.77 309.265 366.541 308.217 352.598C307.718 345.983 305.097 339.108 300.199 331.575C299.602 330.655 295.612 324.707 294.51 323.556C295.793 322.494 296.886 321.221 297.742 319.792C300.196 315.745 297.084 311.162 293.187 312.041C293.611 311.081 293.779 310.027 293.673 308.983C293.568 307.939 293.192 306.94 292.584 306.085C291.996 305.36 291.261 304.77 290.427 304.353C289.593 303.935 288.68 303.7 287.748 303.663C288.23 302.933 288.556 302.111 288.707 301.25C288.858 300.388 288.83 299.504 288.626 298.653C288.421 297.803 288.043 297.003 287.516 296.304C286.989 295.606 286.324 295.023 285.563 294.592C283.821 293.658 281.779 293.454 279.887 294.024V270.643C335.014 306.016 334.462 305.797 334.743 305.582C334.871 305.569 334.995 305.522 335.099 305.446C335.204 305.37 335.287 305.268 335.338 305.149C340.98 292.656 344.015 279.144 344.259 265.439C344.503 251.734 341.95 238.123 336.756 225.437C336.642 225.241 336.457 225.096 336.239 225.034C336.021 224.971 335.787 224.996 335.587 225.102C325.021 230.253 285.238 254.081 271.187 263.294C271.049 263.385 270.961 263.427 270.907 263.848C270.765 264.939 270.847 268.578 270.84 282.188C270.406 281.338 269.665 280.684 268.766 280.361C267.868 280.037 266.879 280.067 266.002 280.445C265.394 280.836 264.881 281.358 264.5 281.973C264.119 282.588 263.88 283.279 263.8 283.998C263.018 288.474 262.799 296.34 263.15 307.384C257.898 302.546 251.419 299.241 244.418 297.831C236.614 296.005 228.431 296.709 221.052 299.841C211.533 303.942 204.219 309.879 199.484 325.487C197.359 325.529 191.314 325.685 190.336 325.731C189.087 323.245 188.437 320.501 188.438 317.719C188.216 314.746 188.161 311.763 188.275 308.784C188.613 299.336 185.624 287.013 178.254 282.29C174.662 279.986 171.585 279.906 166.949 280.044C166.314 280.065 77.7355 280.09 77.7355 280.09C70.1466 280.09 64.578 282.218 61.1892 286.412C56.5808 292.106 56.6334 299.946 56.2637 307.102C56.2059 308.201 57.9055 308.224 57.9598 307.125C58.2928 300.643 58.1981 293.635 61.8761 288.296C65.8098 282.583 73.1955 281.763 77.2221 281.796C85.5347 281.849 86.7543 281.514 90.1046 282.497C92.0056 283.162 93.743 284.225 95.2006 285.614C96.6582 287.004 97.8026 288.689 98.5573 290.556C102.454 298.938 101.536 308.574 103.695 317.469C105.465 324.776 110.616 332.798 119.768 333.402C123.828 333.661 127.127 331.421 130.48 329.529C132.005 328.533 133.727 327.876 135.528 327.602C136.339 327.52 137.158 327.612 137.931 327.872C138.704 328.132 139.412 328.554 140.008 329.11C142.407 331.354 142.987 335.144 143.213 338.195C143.45 341.309 143.479 344.585 143.499 347.256H129.157C128.948 347.265 128.75 347.347 128.597 347.489C128.444 347.631 128.347 347.822 128.323 348.029C128.323 348.08 128.312 348.087 128.312 418.221C128.288 418.348 128.292 418.478 128.324 418.602C128.355 418.727 128.414 418.843 128.494 418.943C128.575 419.043 128.677 419.124 128.792 419.181C128.907 419.238 129.033 419.269 129.162 419.272H142.02L108.167 450.087C100.987 445.895 92.6228 444.191 84.3748 445.241C84.1995 429.024 84.4694 425.255 82.775 421.746C80.3499 416.723 74.5395 415.965 70.0625 417.829C63.3462 420.611 60.9807 427.533 58.6923 434.227C58.6923 434.227 48.1614 463.627 47.5796 465.236C39.8457 476.37 35.2221 489.365 34.1855 502.881C34.1892 503.104 34.2797 503.318 34.4381 503.476C34.5964 503.634 34.81 503.724 35.0336 503.727H140.257C140.481 503.724 140.695 503.634 140.853 503.476C141.011 503.318 141.102 503.105 141.105 502.881C141.18 496.823 140.148 488.301 137.029 482.448C150.336 469.596 157.559 462.231 166.658 452.79C173.968 445.203 180.288 438.657 183.576 429.414C183.841 428.734 183.955 428.004 183.909 427.276C183.864 426.547 183.659 425.837 183.31 425.196C182.961 424.555 182.476 423.997 181.889 423.563C181.302 423.129 180.627 422.828 179.912 422.682ZM132.642 348.952H143.525C143.539 350.242 143.595 353.432 143.623 354.707C142.537 354.143 134.008 349.667 132.642 348.952ZM118.324 500.759C119.137 500.02 117.956 498.808 117.14 499.545L114.396 502.038C110.296 502.038 40.7354 501.986 35.9623 502.019C37.2905 484.955 47.1135 462.533 61.3522 454.348C74.3187 446.893 93.3742 443.083 106.863 451.276L87.0452 469.321C86.8881 469.483 86.8011 469.701 86.8031 469.927C86.8051 470.153 86.8958 470.369 87.0557 470.528C88.2227 471.579 118.629 498.885 118.664 498.909C118.826 499.06 119.039 499.143 119.26 499.143C119.481 499.143 119.694 499.06 119.856 498.909C124.713 494.267 134.203 485.178 135.75 483.694C138.249 489.482 139.489 495.735 139.386 502.038H116.917L118.324 500.759ZM88.9341 469.88C88.9341 469.88 169.086 396.89 170.639 395.509C171.94 394.128 173.693 393.257 175.58 393.057C177.518 393.057 178.133 395.045 177.539 396.736C177.19 397.739 176.725 398.698 176.153 399.593C172.358 405.692 167.685 411.199 162.284 415.935C161.455 416.667 162.607 417.822 163.455 417.161C165.557 415.522 168.452 413.277 171.657 413.859C172.27 413.961 172.851 414.204 173.354 414.569C173.857 414.934 174.268 415.41 174.555 415.961C174.786 416.587 174.89 417.252 174.863 417.918C174.835 418.584 174.676 419.238 174.394 419.842C173.674 421.449 172.726 422.944 171.58 424.281C171.455 424.417 171.378 424.59 171.36 424.773C171.342 424.956 171.383 425.141 171.478 425.299C171.574 425.456 171.718 425.579 171.888 425.648C172.059 425.718 172.248 425.73 172.426 425.683C175.351 424.73 179.913 422.988 181.664 425.667C181.93 426.093 182.103 426.57 182.172 427.067C182.241 427.564 182.203 428.071 182.062 428.552C181.634 430.035 181.055 431.47 180.334 432.834C176.458 440.432 170.912 445.902 164.641 452.429C155.976 461.448 146.593 471.049 119.241 497.135C117.021 495.153 91.3451 472.052 88.9341 469.88ZM242.551 347.475C242.186 347.149 243.216 347.255 229.633 347.255C229.689 343.352 229.495 339.449 229.051 335.571C228.69 333.005 227.255 326.932 221.734 325.971C217.215 325.184 205.901 325.366 201.273 325.445C205.274 312.617 212 303.627 226.505 299.711C231.808 298.419 237.322 298.24 242.698 299.184C248.073 300.128 253.195 302.175 257.741 305.196C263.448 308.903 267.043 314.208 269.398 322.398C274.785 341.119 274.806 360.639 274.348 379.041H242.845V348.096C242.84 347.978 242.812 347.862 242.761 347.755C242.71 347.649 242.639 347.554 242.551 347.475ZM229.677 348.952H238.978L229.817 354.546C229.817 354.206 229.794 353.437 229.677 348.952ZM213.686 396.377C218.186 399.88 232.496 411.259 239.74 417.575H176.609C176.595 413.447 172.496 411.28 168.386 412.382C171.942 408.648 175.099 404.553 177.806 400.164C179.33 397.678 179.807 395.678 179.262 394.048C178.935 393.089 178.255 392.291 177.359 391.816C176.463 391.342 175.42 391.228 174.443 391.498C172.389 392.058 170.522 393.158 169.036 394.683L143.886 417.566H131.536C136.399 413.582 156.017 397.081 156.919 396.314C157.762 395.595 156.569 394.386 155.743 395.087C153.381 397.098 133.407 413.833 130.012 416.624V349.504C190.918 381.368 189.185 380.488 189.565 380.634C189.686 380.707 189.825 380.744 189.967 380.742C190.108 380.74 190.246 380.699 190.366 380.623C194.194 378.186 239.733 350.49 241.147 349.627V416.539C234.313 410.529 221.462 400.31 214.846 395.142C213.986 394.467 212.819 395.7 213.686 396.377ZM227.753 340.14C227.797 343.139 228.138 355.382 228.144 355.567C227.078 356.217 192.069 377.54 189.892 378.919L145.335 355.606C144.963 340.496 145.475 335.084 142.994 330.315C142.438 329.251 141.664 328.315 140.721 327.57C225.424 327.495 220.259 327.172 222.449 327.894C227.096 329.401 227.706 336.955 227.753 340.14ZM329.358 252.749C332.715 256.78 334.695 261.779 335.009 267.015C334.728 272.698 332.7 278.157 329.202 282.646C327.803 272.725 327.856 262.654 329.358 252.749ZM336.497 263.657C335.693 258.664 333.296 254.065 329.663 250.547C330.76 242.788 332.881 235.21 335.971 228.009C345.168 252.092 344.692 278.8 334.643 302.54C332.424 296.842 330.728 290.954 329.575 284.949C333.765 279.869 337.767 271.635 336.497 263.657ZM326.447 268.269C326.36 280.024 328.536 291.686 332.857 302.618L279.467 268.355C279.275 268.243 279.046 268.211 278.831 268.266C278.615 268.322 278.43 268.459 278.315 268.65C278.14 268.825 278.186 268.504 278.186 294.697C277.853 294.872 272.703 298.586 272.526 298.716C272.526 294.699 272.526 267.821 272.526 264.456C283.618 258.003 324.375 232.502 334.301 227.616C329.113 240.542 326.448 254.342 326.447 268.269ZM283.938 327.185C282.86 327.455 281.726 327.413 280.67 327.062C280.14 326.875 279.692 326.506 279.407 326.021C279.122 325.536 279.018 324.966 279.113 324.411C279.553 322.876 280.532 321.55 281.869 320.676C284.75 318.343 284.01 318.972 291.445 314.604C292.021 314.133 292.716 313.831 293.453 313.733C294.191 313.634 294.941 313.742 295.62 314.045C300.669 318.243 290.362 325.645 283.938 327.185ZM290.453 313.218C289.642 313.693 285.139 316.275 283.73 317.141C282.196 318.09 280.514 318.776 278.753 319.17C277.301 319.499 275.657 319.879 274.564 318.803C273.762 317.861 273.342 316.651 273.387 315.414C273.433 314.177 273.94 313.002 274.809 312.12C278.336 308.402 281.601 307.784 285.382 305.759C286.37 305.222 287.522 305.072 288.615 305.338C289.707 305.603 290.662 306.264 291.294 307.194C291.926 308.124 292.19 309.255 292.035 310.368C291.879 311.481 291.315 312.497 290.453 313.218ZM284.553 304.284C282.48 305.389 280.285 306.255 278.172 307.356C276.677 308.239 275.01 308.79 273.283 308.972C272.634 309.047 271.976 308.966 271.365 308.735C270.754 308.505 270.206 308.132 269.768 307.647C269.386 307.025 269.194 306.305 269.213 305.575C269.233 304.845 269.465 304.136 269.88 303.536C270.8 302.201 271.983 301.068 273.357 300.207C278.743 296.297 278.633 296.265 280.301 295.636C281.472 295.245 282.742 295.269 283.897 295.704C285.053 296.14 286.023 296.96 286.644 298.027C287.175 299.137 287.254 300.41 286.864 301.577C286.474 302.744 285.645 303.713 284.553 304.28V304.284ZM270.828 300.018C264.83 304.769 267.674 311.344 273.877 310.631C272.645 311.76 271.875 313.306 271.716 314.97C271.558 316.634 272.023 318.298 273.02 319.639C274.534 321.498 276.852 321.375 279.227 320.809C275.363 324.99 278.144 329.289 282.547 329.043C283.848 328.976 285.13 328.704 286.346 328.238C288.771 327.331 291.065 326.107 293.169 324.599C294.789 326.529 296.269 328.574 297.595 330.717C300.766 335.122 303.287 339.96 305.081 345.082C305.871 347.533 306.355 350.072 306.519 352.642C307.571 365.369 289.043 366.96 276.232 366.629C276.466 353.446 275.193 340.28 272.438 327.386C271.087 321.43 269.137 314.644 264.904 309.364C264.729 304.55 264.496 295.563 264.939 288.891C264.949 287.018 265.216 285.156 265.731 283.355C266.479 281.283 268.329 281.37 269.411 283.049C269.824 284.619 270.095 286.224 270.22 287.844C270.81 291.872 271.014 295.947 270.828 300.014V300.018ZM188.419 325.79C171.685 325.822 139.707 325.86 137.495 325.879C130.366 325.939 129.446 328.979 124.089 331.013C122.603 331.544 121.023 331.762 119.449 331.653C117.874 331.544 116.339 331.11 114.941 330.378C112.742 329.192 110.808 327.57 109.256 325.612C107.704 323.655 106.567 321.402 105.913 318.991C103.178 310.032 104.205 300.308 100.783 291.467C99.4571 287.359 96.6307 283.903 92.8678 281.787C101.867 281.787 167.928 281.71 170.471 281.75C177.655 281.863 182.141 286.244 185 295.958C186.298 300.461 186.837 305.149 186.595 309.828C186.526 315.028 186.444 321.468 188.419 325.79ZM62.2668 429.253C63.2473 426.669 64.6955 424.288 66.5388 422.228C69.5298 418.971 74.9074 417.382 78.8289 419.723C79.8588 420.444 80.7056 421.396 81.3016 422.503C81.8977 423.61 82.2264 424.841 82.2616 426.098C82.5349 428.302 82.5139 429.542 82.6821 445.411C76.1306 446.273 69.7635 448.197 63.8316 451.108C58.8574 453.425 54.4481 456.798 50.9106 460.993C58.0527 441.231 61.7429 430.588 62.2668 429.253Z" fill="#1B1A1B"/>
<path d="M348.489 251.637C348.392 250.544 346.696 250.586 346.793 251.675C347.863 263.813 349.071 277.57 343.731 289.534C343.285 290.531 344.765 291.356 345.217 290.351C350.814 277.916 349.521 263.348 348.489 251.637Z" fill="#1B1A1B"/>
<path d="M352.595 246.206C352.569 246.09 352.518 245.982 352.446 245.888C352.375 245.794 352.284 245.716 352.18 245.659C352.036 245.583 351.873 245.549 351.711 245.563C351.549 245.577 351.394 245.636 351.265 245.736C351.135 245.835 351.037 245.969 350.982 246.122C350.927 246.275 350.917 246.441 350.954 246.6C353.123 262.604 354.593 279.455 346.859 294.11C346.347 295.077 347.815 295.927 348.334 294.951C356.319 279.876 354.817 262.607 352.595 246.206Z" fill="#1B1A1B"/>
<path d="M267.484 260.334C268.199 261.165 269.426 259.994 268.711 259.159L264.825 254.643C264.101 253.8 262.898 254.993 263.598 255.818L267.484 260.334Z" fill="#1B1A1B"/>
<path d="M70.4756 438.792C71.9027 439.569 73.5572 439.819 75.1503 439.501C76.7434 439.182 78.174 438.314 79.1923 437.048C80.2107 435.782 80.7521 434.199 80.7221 432.575C80.6921 430.951 80.0926 429.389 79.0282 428.162C78.3885 427.288 77.5562 426.572 76.5958 426.071C75.6353 425.57 74.5725 425.296 73.4894 425.272C72.4063 425.247 71.332 425.472 70.3497 425.928C69.3673 426.385 68.5032 427.061 67.8242 427.905C67.1452 428.749 66.6694 429.738 66.4338 430.796C66.1981 431.853 66.2089 432.95 66.4652 434.002C66.7215 435.055 67.2165 436.034 67.9119 436.865C68.6073 437.695 69.4845 438.355 70.4756 438.792ZM67.9646 431.785C68.1641 430.727 68.6664 429.751 69.4104 428.973C70.1544 428.196 71.1082 427.651 72.156 427.405C73.1848 427.224 74.2428 427.306 75.2309 427.646C76.2189 427.985 77.1047 428.569 77.8052 429.344C78.5186 430.243 78.9273 431.345 78.9721 432.491C79.0168 433.637 78.6952 434.768 78.054 435.719C77.3628 436.666 76.3775 437.358 75.2518 437.686C74.1262 438.014 72.9236 437.96 71.8318 437.533C70.6613 437.107 69.6562 436.32 68.9612 435.287C68.2663 434.253 67.9173 433.026 67.9646 431.781V431.785Z" fill="#1B1A1B"/>
<path d="M211.41 340.433H162.421C162.202 340.443 161.996 340.536 161.845 340.694C161.694 340.852 161.609 341.062 161.609 341.281C161.609 341.5 161.694 341.71 161.845 341.868C161.996 342.026 162.202 342.12 162.421 342.129H211.418C211.53 342.126 211.639 342.101 211.741 342.054C211.842 342.008 211.933 341.942 212.009 341.86C212.12 341.74 212.194 341.591 212.223 341.43C212.252 341.269 212.233 341.104 212.17 340.953C212.107 340.802 212.001 340.673 211.866 340.581C211.732 340.489 211.573 340.437 211.41 340.433Z" fill="#1B1A1B"/>
<path d="M211.41 355.653H162.421C162.202 355.663 161.996 355.757 161.845 355.915C161.694 356.073 161.609 356.283 161.609 356.502C161.609 356.72 161.694 356.93 161.845 357.088C161.996 357.247 162.202 357.34 162.421 357.35H211.418C211.637 357.34 211.843 357.247 211.994 357.088C212.145 356.93 212.23 356.72 212.23 356.502C212.23 356.283 212.145 356.073 211.994 355.915C211.843 355.757 211.637 355.663 211.418 355.653H211.41Z" fill="#1B1A1B"/>
<path d="M170.127 312.099H121.285C121.066 312.109 120.86 312.203 120.709 312.361C120.558 312.519 120.474 312.729 120.474 312.947C120.474 313.166 120.558 313.376 120.709 313.534C120.86 313.692 121.066 313.786 121.285 313.796H170.134C170.352 313.786 170.558 313.692 170.709 313.534C170.861 313.376 170.945 313.166 170.945 312.947C170.945 312.729 170.861 312.519 170.709 312.361C170.558 312.203 170.352 312.109 170.134 312.099H170.127Z" fill="#1B1A1B"/>
<path d="M170.125 298.457H121.291C121.176 298.451 121.061 298.47 120.954 298.51C120.846 298.55 120.748 298.612 120.665 298.691C120.582 298.77 120.516 298.866 120.471 298.971C120.426 299.077 120.402 299.19 120.402 299.305C120.402 299.42 120.426 299.533 120.471 299.639C120.516 299.745 120.582 299.84 120.665 299.919C120.748 299.998 120.846 300.06 120.954 300.1C121.061 300.141 121.176 300.159 121.291 300.154H170.132C170.351 300.144 170.557 300.05 170.708 299.892C170.859 299.734 170.944 299.524 170.944 299.305C170.944 299.087 170.859 298.876 170.708 298.718C170.557 298.56 170.351 298.467 170.132 298.457H170.125Z" fill="#1B1A1B"/>
<path d="M300.54 358.389C301.404 356.743 301.783 354.885 301.632 353.032C301.542 351.948 299.837 351.965 299.936 353.071C300.076 354.617 299.772 356.172 299.06 357.552C298.558 358.526 300.03 359.365 300.54 358.389Z" fill="#1B1A1B"/>
<path d="M102.898 363.127C103.064 363.122 103.225 363.069 103.362 362.976C103.499 362.882 103.607 362.752 103.673 362.599C103.739 362.447 103.76 362.279 103.734 362.115C103.708 361.951 103.636 361.798 103.527 361.673L92.5052 350.129C91.7447 349.332 90.5392 350.529 91.2979 351.324C103.336 363.935 102.426 363.127 102.898 363.127Z" fill="#1B1A1B"/>
<path d="M85.8266 384.337C85.8352 384.552 85.9244 384.755 86.0764 384.907C86.2283 385.059 86.4319 385.148 86.6466 385.157H103.456C103.674 385.147 103.881 385.053 104.032 384.895C104.183 384.737 104.267 384.527 104.267 384.308C104.267 384.09 104.183 383.879 104.032 383.721C103.881 383.563 103.674 383.47 103.456 383.46H86.6466C86.4217 383.468 86.2091 383.565 86.0555 383.729C85.9018 383.894 85.8195 384.112 85.8266 384.337Z" fill="#1B1A1B"/>
<path d="M92.8705 415.196C92.7248 415.358 92.6468 415.57 92.6527 415.788C92.6585 416.006 92.7478 416.213 92.9021 416.366C93.0564 416.52 93.2639 416.609 93.4817 416.614C93.6995 416.619 93.9109 416.541 94.0724 416.395L105.11 405.359C105.256 405.196 105.333 404.984 105.327 404.767C105.32 404.549 105.23 404.342 105.076 404.189C104.921 404.035 104.713 403.947 104.495 403.943C104.277 403.938 104.066 404.017 103.905 404.164L92.8705 415.196Z" fill="#1B1A1B"/>
<path d="M229.735 287.991C231.049 288.874 232.594 289.353 234.178 289.368C235.761 289.383 237.314 288.933 238.645 288.075C238.834 287.958 238.97 287.773 239.026 287.559C239.082 287.344 239.054 287.116 238.947 286.922C238.19 285.552 237.37 284.119 236.297 282.304C238.016 282.143 241.354 281.864 241.705 281.701C241.862 281.644 241.999 281.541 242.1 281.407C242.2 281.273 242.26 281.112 242.271 280.945C242.381 279.315 241.873 277.703 240.849 276.431C239.824 275.158 238.358 274.318 236.742 274.077C235.506 273.709 234.2 273.635 232.93 273.859C231.659 274.084 230.458 274.602 229.423 275.372C228.452 276.124 227.672 277.095 227.145 278.204C226.618 279.314 226.359 280.532 226.389 281.76C226.419 282.988 226.738 284.192 227.319 285.274C227.901 286.356 228.728 287.287 229.735 287.991ZM234.881 280.747C234.734 280.751 234.591 280.794 234.465 280.87C234.339 280.946 234.235 281.054 234.162 281.182C234.09 281.31 234.052 281.455 234.052 281.602C234.051 281.749 234.089 281.894 234.161 282.022C234.538 282.681 236.478 285.99 237.045 287.003C236.097 287.496 235.037 287.734 233.969 287.691C232.901 287.648 231.862 287.327 230.957 286.76C230.051 286.193 229.309 285.398 228.805 284.456C228.301 283.514 228.052 282.456 228.083 281.388C228.15 279.809 228.815 278.314 229.942 277.207C231.07 276.099 232.576 275.461 234.156 275.421C235.818 275.404 237.447 275.881 238.838 276.789C239.357 277.192 239.781 277.703 240.081 278.287C240.381 278.871 240.549 279.514 240.574 280.17C238.433 280.398 236.402 280.594 234.873 280.747H234.881Z" fill="#1B1A1B"/>
<path d="M230.27 271.856C236.835 272.022 243.382 271.09 249.639 269.096C250.73 268.84 251.738 268.314 252.571 267.565C252.965 267.219 253.246 266.763 253.378 266.255C253.51 265.747 253.486 265.212 253.309 264.718C253.133 264.224 252.812 263.794 252.389 263.485C251.965 263.175 251.458 263 250.934 262.982C248.722 262.712 246.491 262.646 244.267 262.782C245.394 261.768 246.298 260.53 246.921 259.147C247.056 258.714 247.089 258.255 247.018 257.807C246.947 257.358 246.774 256.932 246.512 256.562C246.249 256.191 245.905 255.886 245.506 255.67C245.106 255.454 244.663 255.333 244.209 255.316C243.185 255.395 242.23 255.861 241.537 256.619C240.71 257.32 239.918 258.124 239.068 258.956C235.36 262.379 232.148 266.303 229.525 270.613C229.465 270.743 229.438 270.885 229.446 271.028C229.453 271.17 229.496 271.309 229.569 271.431C229.642 271.554 229.745 271.656 229.867 271.73C229.989 271.804 230.127 271.847 230.27 271.856ZM241.276 263.231C241.159 263.352 241.081 263.505 241.052 263.671C241.022 263.836 241.042 264.007 241.109 264.161C241.176 264.316 241.287 264.447 241.428 264.538C241.57 264.629 241.735 264.677 241.903 264.674C244.807 264.355 247.736 264.346 250.641 264.646C252.341 264.851 251.801 266.162 250.938 266.728C250.09 267.195 249.18 267.541 248.236 267.754C242.896 269.372 237.344 270.186 231.765 270.168C233.986 266.805 236.58 263.703 239.495 260.92C242.804 257.607 243.701 256.715 244.593 257.099C244.827 257.197 245.026 257.363 245.165 257.576C245.303 257.789 245.374 258.038 245.369 258.292C245.139 259.587 243.028 261.752 241.276 263.231Z" fill="#1B1A1B"/>
<path d="M281.011 397.141C279.689 396.764 278.295 396.717 276.951 397.003C275.607 397.29 274.354 397.901 273.301 398.784C272.166 399.753 271.327 401.022 270.879 402.445C270.431 403.869 270.393 405.39 270.769 406.834C272.346 412.207 279.753 415.369 283.856 411.257C285.798 409.276 286.887 406.612 286.888 403.838C286.71 402.255 286.052 400.764 285.001 399.567C283.95 398.369 282.558 397.522 281.011 397.141ZM281.112 411.068C276.537 412.941 269.898 407.302 272.966 401.936C273.875 402.937 275.062 403.644 276.374 403.968C277.463 404.306 278.587 404.516 279.725 404.593C279.267 405.062 278.932 405.636 278.75 406.265C278.568 406.895 278.544 407.559 278.682 408.2C278.819 408.84 279.113 409.437 279.537 409.936C279.961 410.435 280.502 410.822 281.112 411.061V411.068ZM280.375 407.522C280.474 406.81 280.763 406.138 281.212 405.575C281.66 405.013 282.252 404.582 282.924 404.327C283.101 404.27 283.254 404.157 283.361 404.005C283.467 403.853 283.522 403.671 283.515 403.485C283.508 403.3 283.441 403.122 283.323 402.978C283.206 402.834 283.045 402.733 282.865 402.689C282.046 402.624 281.726 402.932 280.322 402.897C278.349 402.857 274.65 402.004 274.06 400.445C278.333 396.17 285.582 399.704 285.192 404.637C285.021 406.538 284.235 408.331 282.952 409.744C281.685 409.619 280.375 408.971 280.375 407.522Z" fill="#1B1A1B"/>
<path d="M331.325 442.138C327.417 436.741 321.565 433.204 312.905 431.021C304.071 428.773 294.934 427.949 285.84 428.579C277.164 429.158 268.57 430.619 260.189 432.937C256.727 433.697 253.439 435.103 250.498 437.082C245.527 435.323 240.233 434.661 234.982 435.141C231.759 435.499 228.624 436.421 225.721 437.865C223.307 439.216 220.974 440.706 218.733 442.328C216.474 443.75 214.636 445.751 213.41 448.123C212.962 449.224 212.905 450.445 213.247 451.583C213.589 452.721 214.311 453.708 215.292 454.379C218.328 456.508 222.953 455.178 226.296 453.678C227.452 453.163 228.554 452.517 229.653 451.975C229.824 451.888 230.012 451.838 230.203 451.831C230.395 451.824 230.586 451.859 230.763 451.934C230.939 452.008 231.098 452.121 231.226 452.263C231.354 452.406 231.45 452.575 231.506 452.758C231.562 452.941 231.577 453.135 231.55 453.325C231.523 453.515 231.455 453.696 231.35 453.857C231.245 454.018 231.106 454.153 230.943 454.254C230.78 454.355 230.597 454.42 230.407 454.442C227.233 455.058 224.326 456.636 222.08 458.962C221.319 459.896 220.92 461.073 220.957 462.278C220.995 463.482 221.466 464.633 222.283 465.518C223.454 466.746 224.951 467.613 226.599 468.018C224.048 468.915 222.784 470.372 222.744 472.459C222.685 475.481 225.066 478.352 229.48 478.659C224.482 482.392 225.716 487.962 229.944 489.379C233.571 490.866 238.213 490.255 241.484 489.619C241.507 493.207 241.659 501.861 241.675 502.874C241.678 503.097 241.768 503.311 241.926 503.469C242.084 503.626 242.298 503.716 242.522 503.718C243.273 503.729 259.357 503.907 261.118 503.925C263.411 511.289 267.638 517.904 273.357 523.079C280.787 529.354 293.322 532.345 302.516 531.413C314.372 530.212 326.042 520.726 331.554 507.8C334.375 501.006 336.022 493.783 336.424 486.437C338.365 473.405 338.448 463.937 336.697 454.782C335.846 450.227 334.012 445.913 331.325 442.138ZM234.367 478.308C235.458 478.114 235.027 476.465 233.955 476.662C229.515 477.469 226.555 476.858 225.159 474.845C224.637 474.109 224.389 473.213 224.458 472.313C224.77 470.67 226.135 469.686 228.751 469.193C230.054 468.953 231.379 468.755 232.676 468.566C233.655 468.422 233.445 466.842 232.464 466.895C230.145 467.071 227.816 466.721 225.651 465.872C223.699 465.059 222.033 463.1 222.79 461.071C224.053 457.685 230.403 456.29 231.551 455.856C232.143 455.569 232.625 455.096 232.923 454.508C233.22 453.921 233.317 453.252 233.197 452.605C233.078 451.958 232.749 451.368 232.262 450.925C231.775 450.482 231.155 450.212 230.499 450.155C229.472 450.174 228.475 450.512 227.647 451.12C225.279 452.546 222.635 453.451 219.89 453.773C218.857 453.973 217.786 453.808 216.862 453.304C215.938 452.801 215.218 451.992 214.826 451.015C214.332 449.383 215.176 447.606 217.435 445.584C219.502 443.793 221.727 442.191 224.081 440.798C229.487 437.366 235.938 435.97 242.28 436.862C245.238 437.325 248.148 438.053 250.976 439.037C261.907 442.666 271.729 449.028 279.509 457.52C287.07 465.865 289.707 472.424 294.128 482.613C294.479 483.419 295.733 483.033 295.721 482.205C295.721 482.205 295.625 476.169 295.6 474.403C295.566 471.814 296.044 469.243 297.007 466.839C297.971 464.435 299.401 462.245 301.214 460.396C303.028 458.547 305.189 457.075 307.575 456.065C309.96 455.055 312.521 454.526 315.111 454.51C317.701 454.494 320.269 454.99 322.667 455.971C325.064 456.951 327.244 458.396 329.081 460.222C330.917 462.049 332.374 464.22 333.368 466.612C334.361 469.004 334.872 471.568 334.869 474.158C335.111 482.489 334.938 493.35 331.432 503.492C326.858 516.721 316.599 526.831 305.292 529.245C300.38 530.252 295.305 530.143 290.442 528.927C285.813 528.261 281.388 526.587 277.478 524.024C273.567 521.46 270.267 518.07 267.812 514.091C261.584 504.302 259.741 492.564 258.109 482.178C258.058 482 257.95 481.844 257.803 481.732C257.655 481.621 257.475 481.56 257.289 481.56C256.413 481.56 250.242 486.075 242.281 487.772C237.915 488.704 232.09 489.321 229.129 486.97C228.622 486.562 228.251 486.01 228.066 485.386C227.88 484.762 227.89 484.097 228.092 483.478C228.554 482.119 229.386 480.915 230.494 480.001C231.602 479.088 232.943 478.502 234.367 478.308ZM306.869 454.458C303.321 455.928 300.245 458.342 297.974 461.439C295.704 464.535 294.326 468.194 293.99 472.019C293.867 473.998 293.852 475.983 293.944 477.963C293.392 476.688 292.842 475.411 292.28 474.141C288.517 465.67 283.046 458.068 276.209 451.809C269.372 445.551 261.316 440.771 252.546 437.769C254.286 436.702 256.161 435.872 258.12 435.299C266.191 432.912 274.473 431.304 282.851 430.495C292.346 429.536 301.934 430.161 311.223 432.345C319.655 434.334 325.346 437.426 329.131 442.074C331.801 445.406 333.685 449.299 334.64 453.461C335.929 459.051 336.46 464.788 336.217 470.519C335.694 467.338 334.453 464.318 332.589 461.688C330.724 459.058 328.286 456.886 325.457 455.338C322.629 453.79 319.485 452.907 316.265 452.754C313.044 452.602 309.831 453.184 306.869 454.458ZM256.631 483.736C257.503 489.987 258.821 496.168 260.575 502.231C253.401 502.15 243.431 502.014 243.357 502.014C243.247 496.902 243.182 492.954 243.172 489.27C247.88 488.021 252.405 486.16 256.631 483.736Z" fill="#1B1A1B"/>
<path d="M208.126 468.366C207.525 469.295 208.986 470.157 209.58 469.242C211.166 466.8 213.2 462.525 215.315 461.437C215.414 461.383 215.526 461.361 215.638 461.374C215.75 461.386 215.855 461.433 215.939 461.507C217.817 462.948 214.462 469.391 213.302 471.451C213.189 471.646 213.158 471.877 213.216 472.095C213.274 472.312 213.416 472.498 213.611 472.61C213.806 472.723 214.037 472.754 214.255 472.696C214.472 472.638 214.657 472.496 214.77 472.301C215.962 470.245 216.942 468.073 217.696 465.819C218.46 463.435 218.355 461.719 217.377 460.563C214.211 456.863 210.176 465.209 208.126 468.366Z" fill="#1B1A1B"/>
<path d="M210.145 471.166C207.554 469.997 204.692 469.563 201.871 469.91C194.188 470.829 187.293 474.426 180.17 481.231C178.155 483.158 176.339 485.242 174.401 487.313C174.313 487.406 174.247 487.518 174.207 487.64C174.168 487.762 174.156 487.891 174.172 488.018C174.189 488.145 174.234 488.267 174.304 488.374C174.374 488.482 174.467 488.572 174.577 488.639C182.938 493.72 191.134 499.135 199.344 504.31L198.644 512.846C198.551 513.946 200.25 513.969 200.338 512.881L200.962 505.328C202.167 506.073 206.551 508.771 208.672 510.027C208.767 510.093 208.875 510.138 208.99 510.158C209.104 510.177 209.222 510.171 209.333 510.141C209.445 510.11 209.549 510.055 209.637 509.979C209.726 509.904 209.796 509.81 209.844 509.704C212.374 504.146 214.426 498.383 215.977 492.476C217.729 485.775 217.456 480.446 215.151 476.183C214.017 474.052 212.274 472.305 210.145 471.166ZM214.748 490.369C213.262 496.433 211.241 502.354 208.71 508.063C199.972 502.891 181.551 490.915 176.32 487.716C179.211 484.43 182.376 481.397 185.782 478.65C193.475 472.427 207.117 467.655 212.875 475.722C215.488 479.386 216.119 484.317 214.748 490.369Z" fill="#1B1A1B"/>
<path d="M197.711 516.386C196.763 516.579 195.896 517.057 195.228 517.756C194.559 518.456 194.12 519.343 193.97 520.298C193.819 521.254 193.965 522.233 194.387 523.104C194.809 523.974 195.487 524.695 196.331 525.169C197.292 525.692 198.421 525.814 199.472 525.507C200.523 525.2 201.409 524.49 201.937 523.532C202.487 522.787 202.81 521.901 202.868 520.977C202.926 520.054 202.716 519.134 202.263 518.327C201.766 517.606 201.074 517.041 200.268 516.698C199.463 516.354 198.576 516.246 197.711 516.386ZM200.546 518.907C200.949 519.408 201.177 520.026 201.196 520.668C201.215 521.31 201.025 521.941 200.653 522.465C198.901 525.422 195.464 523.668 195.625 520.808C195.633 520.24 195.81 519.689 196.134 519.223C196.458 518.758 196.914 518.4 197.443 518.195C197.973 517.991 198.551 517.95 199.104 518.076C199.657 518.203 200.159 518.492 200.546 518.907Z" fill="#1B1A1B"/>
<path d="M223.778 516.176C223.427 515.125 221.806 515.603 222.146 516.646L227.291 532.413C227.631 533.454 229.265 532.995 228.922 531.942L223.778 516.176Z" fill="#1B1A1B"/>
<path d="M227.019 514.813C226.903 514.624 226.718 514.488 226.502 514.434C226.287 514.38 226.059 514.412 225.867 514.524C225.676 514.635 225.535 514.818 225.476 515.031C225.417 515.245 225.444 515.474 225.551 515.668C227.86 519.827 233.376 529.41 233.722 529.983C233.796 530.106 233.901 530.208 234.026 530.279C234.151 530.349 234.293 530.385 234.437 530.384C234.584 530.385 234.729 530.347 234.858 530.275C234.987 530.203 235.094 530.098 235.17 529.971C235.246 529.845 235.287 529.701 235.291 529.553C235.294 529.406 235.259 529.26 235.188 529.13C233.436 525.973 227.049 514.864 227.019 514.813Z" fill="#1B1A1B"/>
<path d="M263.411 478.924C266.149 475.952 268.529 472.669 270.501 469.142C270.602 468.949 270.624 468.724 270.564 468.514C270.503 468.304 270.364 468.126 270.175 468.016C269.987 467.906 269.763 467.873 269.551 467.924C269.339 467.974 269.154 468.104 269.035 468.287C263.603 477.396 261.645 477.412 262.009 478.56C262.045 478.704 262.118 478.835 262.223 478.941C262.327 479.046 262.458 479.122 262.601 479.159C262.745 479.197 262.896 479.194 263.038 479.153C263.181 479.112 263.31 479.032 263.411 478.924Z" fill="#1B1A1B"/>
<path d="M241.082 477.681C243.223 477.513 245.331 477.056 247.349 476.322C248.367 475.95 247.914 474.318 246.864 474.696C244.992 475.386 243.036 475.82 241.047 475.985C239.942 476.075 239.998 477.791 241.082 477.681Z" fill="#1B1A1B"/>
<path d="M239.257 467.962C239.432 467.962 239.147 468.006 244.433 466.911C245.521 466.686 245.076 465.045 244.009 465.269L239.022 466.307C238.831 466.368 238.668 466.495 238.562 466.664C238.455 466.834 238.412 467.036 238.44 467.234C238.468 467.432 238.566 467.614 238.715 467.747C238.865 467.881 239.057 467.957 239.257 467.962Z" fill="#1B1A1B"/>
<path d="M298.271 525.449C298.447 525.449 298.701 525.393 305.854 524.409C306.072 524.352 306.257 524.21 306.37 524.015C306.483 523.821 306.514 523.589 306.456 523.372C306.398 523.155 306.257 522.969 306.062 522.856C305.867 522.744 305.636 522.713 305.418 522.77L298.047 523.783C297.85 523.838 297.679 523.962 297.567 524.133C297.454 524.304 297.407 524.51 297.434 524.713C297.462 524.916 297.561 525.103 297.715 525.238C297.869 525.373 298.067 525.448 298.271 525.449Z" fill="#1B1A1B"/>
<path d="M132.721 472.093C130.527 473.897 128.362 475.791 126.287 477.723C125.48 478.476 126.675 479.681 127.475 478.933C133.783 473.06 134.308 473.412 134.173 472.627C134.144 472.474 134.075 472.332 133.974 472.213C133.874 472.094 133.744 472.004 133.598 471.95C133.452 471.896 133.294 471.881 133.141 471.906C132.987 471.931 132.842 471.995 132.721 472.093Z" fill="#1B1A1B"/>
<path d="M84.8711 470.141C73.9265 479.111 62.3298 487.254 50.1769 494.503C50.0817 494.561 49.9992 494.637 49.9344 494.727C49.8696 494.818 49.824 494.92 49.8002 495.029C49.7623 495.189 49.7717 495.356 49.8271 495.511C49.8825 495.666 49.9815 495.801 50.1122 495.9C50.2429 496 50.3997 496.06 50.5636 496.072C50.7275 496.084 50.8914 496.049 51.0355 495.97C63.3422 488.716 75.0493 480.491 86.0451 471.373C86.8984 470.668 85.7122 469.451 84.8711 470.141Z" fill="#1B1A1B"/>
<path d="M156.945 423.173L161.185 419.017C161.336 418.856 161.418 418.643 161.415 418.423C161.412 418.202 161.323 417.992 161.167 417.836C161.012 417.679 160.802 417.59 160.581 417.586C160.361 417.581 160.148 417.663 159.986 417.813L155.748 421.97C155.602 422.131 155.523 422.343 155.528 422.56C155.532 422.778 155.621 422.986 155.774 423.14C155.928 423.295 156.135 423.384 156.353 423.39C156.571 423.397 156.783 423.319 156.945 423.173Z" fill="#1B1A1B"/>
<path d="M165.46 430.696L169.528 427.389C170.388 426.688 169.206 425.472 168.361 426.163L164.293 429.47C163.435 430.157 164.614 431.383 165.46 430.696Z" fill="#1B1A1B"/>
<path d="M33.8984 476.311C33.8004 476.253 33.6915 476.214 33.5784 476.199C33.4652 476.184 33.3501 476.192 33.2401 476.223C33.1301 476.253 33.0275 476.306 32.9385 476.378C32.8495 476.449 32.7761 476.538 32.7226 476.639L26.765 490.707C26.6846 490.851 26.6478 491.016 26.6593 491.181C26.6707 491.346 26.7299 491.504 26.8296 491.636C26.9293 491.768 27.0652 491.868 27.2208 491.924C27.3764 491.981 27.545 491.99 27.706 491.952C27.8202 491.923 27.9271 491.871 28.0202 491.798C28.1133 491.726 28.1907 491.635 28.2474 491.532L34.205 477.464C34.312 477.269 34.3398 477.041 34.2827 476.826C34.2256 476.612 34.088 476.427 33.8984 476.311Z" fill="#1B1A1B"/>
<path d="M28.6525 475.113L21.0899 491.28C20.6221 492.275 22.1097 493.095 22.5723 492.101L30.1367 475.935C30.5975 474.948 29.1204 474.109 28.6525 475.113Z" fill="#1B1A1B"/>
<defs>
<clipPath id="clip0_520_89">
<rect width="47.2166" height="47.2166" fill="white" transform="translate(317.896) rotate(29.0055)"/>
</clipPath>
</defs>
</svg>
